<svg width="15" height="13" viewBox="0 0 15 13" fill="none" xmlns="http://www.w3.org/2000/svg">
<mask id="path-1-inside-1_2_4913" fill="white">
<path fill-rule="evenodd" clip-rule="evenodd" d="M8.75976 0.69526C9.01081 0.434913 9.41778 0.434913 9.66884 0.69526L14.8117 6.02863C15.0628 6.28899 15.0628 6.71103 14.8117 6.97139L9.66884 12.3047C9.41778 12.5651 9.01081 12.5651 8.75976 12.3047C8.5087 12.0444 8.5087 11.6223 8.75976 11.362L12.8051 7.16668H0.642858C0.28782 7.16668 0 6.86819 0 6.50001C0 6.13183 0.28782 5.83334 0.642858 5.83334H12.8051L8.75976 1.63807C8.5087 1.37772 8.5087 0.955608 8.75976 0.69526Z"/>
</mask>
<path fill-rule="evenodd" clip-rule="evenodd" d="M8.75976 0.69526C9.01081 0.434913 9.41778 0.434913 9.66884 0.69526L14.8117 6.02863C15.0628 6.28899 15.0628 6.71103 14.8117 6.97139L9.66884 12.3047C9.41778 12.5651 9.01081 12.5651 8.75976 12.3047C8.5087 12.0444 8.5087 11.6223 8.75976 11.362L12.8051 7.16668H0.642858C0.28782 7.16668 0 6.86819 0 6.50001C0 6.13183 0.28782 5.83334 0.642858 5.83334H12.8051L8.75976 1.63807C8.5087 1.37772 8.5087 0.955608 8.75976 0.69526Z" fill="white"/>
<path d="M9.66884 0.69526L20.4665 -9.71674L20.4663 -9.71695L9.66884 0.69526ZM14.8117 6.02863L4.01401 16.4406L4.01404 16.4407L14.8117 6.02863ZM14.8117 6.97139L4.01404 -3.44064L4.01404 -3.44064L14.8117 6.97139ZM9.66884 12.3047L20.4665 22.7168L9.66884 12.3047ZM8.75976 11.362L19.5574 21.774L19.5575 21.7739L8.75976 11.362ZM12.8051 7.16668L23.6029 17.5786L48.1067 -7.83332H12.8051V7.16668ZM12.8051 5.83334V20.8333H48.1069L23.6029 -4.57861L12.8051 5.83334ZM8.75976 1.63807L19.5575 -8.77388L19.5572 -8.77414L8.75976 1.63807ZM8.75976 0.69526L19.5572 11.1075C13.9095 16.9642 4.51907 16.9642 -1.12865 11.1075L9.66884 0.69526L20.4663 -9.71695C14.3165 -16.0943 4.1121 -16.0943 -2.03774 -9.71695L8.75976 0.69526ZM9.66884 0.69526L-1.12885 11.1073L4.01401 16.4406L14.8117 6.02863L25.6094 -4.38337L20.4665 -9.71674L9.66884 0.69526ZM14.8117 6.02863L4.01404 16.4407C-1.33801 10.8904 -1.33801 2.10964 4.01404 -3.44064L14.8117 6.97139L25.6094 17.3834C31.4635 11.3124 31.4635 1.68759 25.6094 -4.3834L14.8117 6.02863ZM14.8117 6.97139L4.01404 -3.44064L-1.12883 1.8927L9.66884 12.3047L20.4665 22.7168L25.6094 17.3834L14.8117 6.97139ZM9.66884 12.3047L-1.12883 1.8927C4.51893 -3.96423 13.9097 -3.96423 19.5574 1.8927L8.75976 12.3047L-2.03791 22.7168C4.11196 29.0944 14.3166 29.0944 20.4665 22.7168L9.66884 12.3047ZM8.75976 12.3047L19.5574 1.8927C24.9095 7.44298 24.9095 16.2237 19.5574 21.774L8.75976 11.362L-2.03791 0.949946C-7.89208 7.02094 -7.89208 16.6458 -2.03791 22.7168L8.75976 12.3047ZM8.75976 11.362L19.5575 21.7739L23.6029 17.5786L12.8051 7.16668L2.00736 -3.24524L-2.03802 0.950059L8.75976 11.362ZM12.8051 7.16668V-7.83332H0.642858V7.16668V22.1667H12.8051V7.16668ZM0.642858 7.16668V-7.83332C9.08173 -7.83332 15 -0.897095 15 6.50001H0H-15C-15 14.6335 -8.50609 22.1667 0.642858 22.1667V7.16668ZM0 6.50001H15C15 13.8971 9.08174 20.8333 0.642858 20.8333V5.83334V-9.16666C-8.5061 -9.16666 -15 -1.63344 -15 6.50001H0ZM0.642858 5.83334V20.8333H12.8051V5.83334V-9.16666H0.642858V5.83334ZM12.8051 5.83334L23.6029 -4.57861L19.5575 -8.77388L8.75976 1.63807L-2.03799 12.05L2.00739 16.2453L12.8051 5.83334ZM8.75976 1.63807L19.5572 -8.77414C24.9095 -3.22381 24.9095 5.55714 19.5572 11.1075L8.75976 0.69526L-2.03774 -9.71695C-7.89214 -3.64592 -7.89214 5.97926 -2.03774 12.0503L8.75976 1.63807Z" fill="white" mask="url(#path-1-inside-1_2_4913)"/>
</svg>
