<svg width="195" height="51" viewBox="0 0 195 51" fill="none" preserveAspectRatio="none" xmlns="http://www.w3.org/2000/svg">
<path d="M133.214 10.8116L139.71 11.3446L139.147 11.5553L136.356 11.5833L133.572 11.3549L127.812 11.1393L126.888 10.935L126.881 11.1914L135.605 11.907L148.766 13.6292L154.139 14.4554L154.504 14.7423L153.573 14.7943L148.184 14.6092L145.029 14.3503L143.547 14.1003L140.763 13.8719L140.206 13.8262L139.643 14.037L138.9 13.9761L138.891 14.3607L150.952 15.4786L157.442 16.268L170.418 17.9749L171.529 18.1945L171.525 18.3227L174.492 18.6945L191.75 20.2388L193.974 20.5498L194.339 20.8366L193.408 20.8887L172.62 19.1833L172.428 19.4245L170.009 19.483L169.455 19.3091L159.068 18.2L144.219 16.9818L144.212 17.2382L141.06 16.8512L136.42 16.4705L136.983 16.2598L137.172 16.1468L131.415 15.803L129.37 15.7637L129.182 15.8767L125.652 15.7156L120.084 15.2588L120.09 15.0023L111.354 14.7995L108.192 14.7971L107.817 14.8948L104.473 14.749L103.728 14.8163L103.545 14.6728L102.246 14.5662L101.501 14.6335L99.4588 14.466L98.7131 14.5333L97.0426 14.3963L94.4347 14.5678L89.6022 14.4283L88.3063 14.1935L88.114 14.4347L86.9943 14.5997L93.4934 15.0045L92.7449 15.2L89.5862 15.0693L89.4006 15.0541L89.394 15.3105L86.975 15.369L82.6993 15.2752L80.6576 15.1077L80.293 14.8208L80.2864 15.0772L79.7268 15.1598L77.125 15.0748L81.5824 15.312L84.1809 15.5252L83.4324 15.7207L86.2198 15.8209L90.5015 15.6583L92.3609 15.6824L94.0309 15.8194L94.0281 15.9476L93.0967 15.9997L96.2554 16.1303L96.6327 15.9044L95.5157 15.9412L95.8936 15.7153L94.5943 15.6087L94.7866 15.3675L101.481 15.4028L103.897 15.4725L106.125 15.6553L105.376 15.8508L102.588 15.7506L101.103 15.6288L101.097 15.8852L101.283 15.9004L101.657 15.8027L101.651 16.0591L102.582 16.007L103.318 16.3243L99.0423 16.2305L103.315 16.4525L105.916 16.5375L107.776 16.5616L108.335 16.479L110.192 16.6313L114.282 16.7099L116.509 16.8926L121.898 17.0777L122.448 17.3798L121.703 17.4472L112.784 17.1009L111.114 16.9639L110.182 17.0159L108.14 16.8484L107.209 16.9005L103.305 16.8372L96.2455 16.515L91.5992 16.3907L88.994 16.434L86.3922 16.349L83.0418 16.4595L76.5328 16.4394L75.4191 16.3481L75.2302 16.4611L73.1852 16.4218L72.2638 16.0892L72.2572 16.3456L71.323 16.5259L70.395 16.4498L70.2061 16.5628L66.8557 16.6733L62.7591 16.8512L55.1269 17.1243L52.7044 17.311L49.9139 17.339L49.9042 17.7237L49.1586 17.791L48.9794 17.5193L48.6082 17.4889L48.973 17.7757L47.2961 17.8951L47.4882 17.6539L47.1234 17.3671L46.9378 17.3518L46.7457 17.593L45.8145 17.6451L45.4369 17.8711L44.3232 17.7797L44.1504 17.2516L43.5872 17.4624L44.1408 17.6363L43.392 17.8318L42.8351 17.7861L42.8415 17.5297L39.859 17.7989L37.4333 18.1138L35.5611 18.6026L33.5034 19.0761L31.0777 19.391L29.772 19.5408L29.2184 19.3669L27.5416 19.4863L28.108 19.1474L33.5163 18.5633L35.1964 18.3157L29.2313 18.8541L27.7432 18.8605L28.3064 18.6498L32.2266 18.072L32.6011 17.9743L32.7963 17.6049L30.1914 17.6481L30.7578 17.3092L33.558 16.8965L32.8124 16.9638L30.3866 17.2787L29.833 17.1048L29.8362 16.9766L28.5338 16.9983L28.7258 16.7571L27.2409 16.6352L24.4408 17.0479L23.6983 16.987L23.5063 17.2282L21.8326 17.2193L21.8262 17.4758L20.3382 17.4822L17.1636 17.9926L16.7956 17.8339L17.5477 17.5102L20.5366 16.9846L21.2791 17.0455L21.2855 16.789L17.5509 17.382L15.8708 17.6296L15.8644 17.886L15.3108 17.7121L16.6292 17.0494L19.0582 16.6063L21.2983 16.2762L21.6695 16.3067L21.6759 16.0502L22.2392 15.8395L19.2502 16.3651L17.7525 16.7561L16.2677 16.6343L16.2741 16.3779L15.3396 16.5582L14.0276 16.9644L11.2274 17.3771L10.4818 17.4444L10.4914 17.0598L10.8658 16.962L8.99689 17.3226L7.88324 17.2312L8.26087 17.0053L11.9955 16.4123L13.1123 16.3755L13.1187 16.1191L14.6132 15.8562L14.978 16.1431L16.2966 15.4804L15.5573 15.2913L19.1063 14.6832L22.6585 13.9468L23.225 13.6079L23.5994 13.5101L23.7946 13.1407L22.4858 13.4187L20.06 13.7336L18.1911 14.0942L15.2054 14.4916L13.3461 14.4676L13.7237 14.2416L15.2182 13.9788L15.2278 13.5941L19.1481 13.0164L19.7049 13.0621L19.6985 13.3185L17.644 13.6639L24.3643 12.6735L35.0017 11.2337L41.7156 10.4998L43.3925 10.3804L47.684 9.83312L48.4328 9.63761L53.2714 9.52067L55.8761 9.47743L55.87 9.73384L62.7568 9.52798L63.8766 9.36292L65.3648 9.35653L66.2994 9.17624L66.853 9.35013L74.1171 8.9183L83.423 8.65396L89.5641 8.5154L88.8283 8.19807L89.7597 8.146L93.289 8.3071L95.7019 8.50505L95.6958 8.76147L96.4316 9.07879L96.2427 9.19178L92.8957 9.17411L96.4283 9.207L99.7759 9.22466L101.446 9.36171L101.641 8.9923L102.009 9.15097L102.007 9.27918L107.395 9.46434L110.925 9.62544L116.682 9.96926L117.056 9.8715L120.215 10.0022L124.855 10.3828L133.214 10.8116Z" fill="#458CA8"/>
<path d="M133.214 10.811L139.71 11.344L139.147 11.5547L136.356 11.5827L133.572 11.3543L127.812 11.1387L126.888 10.9344L126.881 11.1908L135.605 11.9065L148.766 13.6286L154.139 14.4548L154.504 14.7417L153.573 14.7938L148.184 14.6086L145.029 14.3498L143.547 14.0997L140.763 13.8713L140.206 13.8256L139.643 14.0364L138.9 13.9755L138.891 14.3601L150.952 15.4781L157.442 16.2674L170.418 17.9743L171.529 18.1939L171.525 18.3221L174.492 18.694L191.75 20.2383L193.974 20.5492L194.339 20.8361L193.408 20.8881L172.62 19.1827L172.428 19.4239L169.263 19.5497L169.074 19.6627L160.536 18.9623L152.187 18.1488L145.691 17.6159L158.302 19.036L165.346 19.9992L171.458 21.0145L178.316 21.9625L178.124 22.2037L176.821 22.2254L183.494 23.1582L187.391 23.4779L187.385 23.7343L181.436 23.6317L178.645 23.6597L178.642 23.7879L176.789 23.5075L173.077 23.2029L176.786 23.6357L177.711 23.84L177.708 23.9682L166.386 23.0394L166.197 23.1524L161.736 23.0433L161.362 23.1411L161.73 23.2998L163.95 23.7389L163.202 23.9344L162.645 23.8887L158.007 23.3799L161.342 23.9104L166.35 24.4497L166.901 24.7518L157.063 23.9448L158.731 24.21L158.728 24.3382L157.611 24.3751L155.012 24.1619L153.902 23.9423L150.932 23.6987L152.599 23.964L158.903 24.7381L159.083 25.0097L156.296 24.9095L158.145 25.3182L158.884 25.5073L163.707 26.0315L164.632 26.2358L164.629 26.364L160.913 26.1877L159.057 26.0354L159.054 26.1636L156.826 25.9809L154.417 25.6547L151.818 25.4416L147.738 24.9784L147.732 25.2348L151.073 25.5089L151.066 25.7653L151.434 25.9239L151.441 25.6675L153.297 25.8198L154.779 26.0698L154.772 26.3262L158.666 26.7742L158.664 26.9024L157.361 26.924L152.532 26.6564L151.412 26.8214L148.439 26.706L148.065 26.8038L146.205 26.7797L140.819 26.4663L137.287 26.4334L138.215 26.5096L137.651 26.7203L136.72 26.7724L138.762 26.9399L138.57 27.1811L134.486 26.8461L133.747 26.657L131.706 26.4895L131.885 26.7611L130.953 26.8132L127.427 26.5239L122.78 26.3996L119.99 26.4276L125.568 26.4998L127.053 26.6216L127.049 26.7498L120.537 26.858L129.28 26.8044L132.627 26.822L135.782 27.0809L136.893 27.3004L136.33 27.5112L132.061 27.161L130.941 27.326L127.411 27.1649L118.29 27.4445L114.566 27.6528L112.895 27.5158L112.514 27.8699L112.879 28.1568L112.133 28.2241L109.903 28.1696L105.989 28.4909L105.25 28.3018L110.655 27.8459L110.661 27.5895L104.328 27.9692L102.466 28.0734L101.905 28.1559L103.013 28.5037L101.893 28.6687L100.593 28.5621L100.6 28.3057L98.3628 28.5076L97.4287 28.6879L95.7582 28.5509L95.3804 28.7768L93.8894 28.9114L93.5116 29.1374L90.7214 29.1654L89.4188 29.187L88.1195 29.0805L86.8136 29.2303L86.8076 29.4867L85.6967 29.2671L85.505 29.5083L83.4534 29.7255L81.7801 29.7166L80.8487 29.7687L80.8421 30.0251L79.3539 30.0315L78.0486 30.1814L77.3028 30.2487L75.434 30.6092L73.7536 30.8568L71.8881 31.0892L71.3313 31.0435L71.3407 30.6589L73.2067 30.4265L76.1925 30.0291L74.3298 30.1332L69.8497 30.7935L67.2385 31.0931L65.5553 31.4689L64.2528 31.4906L63.1325 31.6556L61.8271 31.8054L60.5179 32.0835L54.3576 32.9913L54.1656 33.2325L53.0423 33.5258L50.4439 33.3126L49.3238 33.4776L49.1285 33.8471L47.8197 34.1251L46.5205 34.0185L47.0901 33.5513L45.7844 33.7012L45.586 34.1988L43.3394 34.7853L41.6593 35.0329L40.9201 34.8438L40.5489 34.8133L38.8688 35.0609L37.7552 34.9696L37.3904 34.6827L37.5888 34.1851L38.5201 34.133L38.5265 33.8766L37.4096 33.9134L37.0224 34.524L36.6512 34.4936L36.6576 34.2372L35.7231 34.4174L35.5407 34.274L34.9743 34.613L33.4798 34.8758L32.9262 34.7019L32.1806 34.7692L29.9404 35.0993L27.5083 35.6706L26.9547 35.4967L27.5211 35.1578L28.8268 35.0079L28.2699 34.9623L26.5931 35.0816L26.5995 34.8252L24.7274 35.314L24.3562 35.2835L24.3658 34.8989L22.6857 35.1465L23.4442 34.5664L21.9465 34.9574L22.3113 35.2443L20.8136 35.6353L20.436 35.8612L19.1303 36.0111L17.6454 35.8893L16.1477 36.2803L15.5909 36.2346L15.4214 35.5783L16.9191 35.1873L17.0982 35.459L17.8471 35.2634L18.2312 34.7811L19.1688 34.4726L17.8599 34.7506L16.7495 34.531L17.6936 33.9661L18.0648 33.9966L18.0744 33.6119L21.0666 32.9581L20.8906 32.5583L19.7737 32.5951L18.8329 33.0318L18.4521 33.386L18.0808 33.3555L18.0905 32.9709L17.716 33.0687L17.7064 33.4533L15.4567 34.168L14.151 34.3179L13.0309 34.4829L12.6661 34.196L13.415 34.0005L13.9846 33.5334L14.5382 33.7073L14.3462 33.9485L15.0919 33.8812L14.9159 33.4813L16.0391 33.188L16.596 33.2337L16.6024 32.9773L16.2312 32.9468L16.2376 32.6904L16.9833 32.6231L16.9929 32.2385L18.4906 31.8475L17.1881 31.8691L16.2536 32.0494L16.2601 31.793L14.9576 31.8146L15.1657 30.9323L14.228 31.2408L13.8568 31.2104L13.8633 30.954L15.5466 30.5782L15.7418 30.2088L14.2441 30.5998L13.6905 30.4259L14.6345 29.861L15.3834 29.6655L14.2666 29.7023L13.7129 29.5284L12.0393 29.5196L12.0329 29.776L11.4792 29.6021L9.60712 30.0909L9.0535 29.917L9.80555 29.5933L9.81196 29.3369L8.88717 29.1325L8.89358 28.8761L7.5815 29.2824L8.32073 29.4715L7.75744 29.6822L8.12545 29.8409L5.88213 30.2992L3.26117 30.9835L3.08199 30.7118L5.14613 29.9819L6.46144 29.4474L5.71259 29.6429L5.15897 29.469L5.91102 29.1453L3.85009 29.7471L3.48208 29.5884L3.67411 29.3472L2.92847 29.4145L2.93489 29.1581L5.18464 28.4434L7.25199 27.5852L9.31291 26.9834L9.69059 26.7574L8.38812 26.7791L8.02011 26.6204L7.63608 27.1028L6.89044 27.1701L7.6521 26.4617L6.90646 26.529L7.4793 25.9337L9.16586 25.4297L9.54669 25.0755L11.0412 24.8127L11.7932 24.489L10.862 24.541L9.54989 24.9473L8.80105 25.1428L8.41702 25.6252L7.66817 25.8207L7.11134 25.775L7.11775 25.5186L5.06323 25.8639L3.37993 26.2397L3.0023 26.4657L0.765381 26.6676L1.14944 26.1852L2.46152 25.779L3.40239 25.3423L4.52567 25.049L5.08891 24.8383L4.73695 24.0386L5.49221 23.5866L6.61871 23.1651L8.86204 22.7068L9.41886 22.7525L9.41245 23.0089L9.78362 23.0394L9.97569 22.7982L9.60768 22.6395L9.8029 22.2701L8.30521 22.6611L5.87627 23.1042L4.19297 23.48L4.19939 23.2236L1.95606 23.6819L1.77687 23.4103L5.89875 22.2068L7.19476 22.4416L7.20122 22.1851L6.83321 22.0265L7.39324 21.944L8.3373 21.379L9.08615 21.1835L8.52932 21.1378L6.28279 21.7244L5.72596 21.6787L5.73557 21.2941L5.3708 21.0072L6.67969 20.7292L6.88132 20.1033L8.57108 19.4711L8.7631 19.2299L9.13432 19.2604L9.14072 19.004L6.51977 19.6883L5.78054 19.4991L6.53259 19.1754L9.14713 18.7475L10.6416 18.4847L11.5793 18.1762L12.1329 18.3501L12.3153 18.4936L12.3249 18.1089L13.6306 17.9591L14.7442 18.0505L14.9427 17.5528L17.1892 16.9663L19.9926 16.4255L21.6694 16.3061L21.6759 16.0497L22.2391 15.8389L19.2502 16.3645L17.7524 16.7556L16.2676 16.6338L16.274 16.3773L15.3396 16.5576L14.0275 16.9639L11.2273 17.3765L10.4817 17.4438L10.4913 17.0592L10.8657 16.9614L8.99682 17.322L7.88317 17.2306L8.26085 17.0047L11.9955 16.4118L13.1123 16.3749L13.1187 16.1185L14.6132 15.8557L14.978 16.1425L16.2965 15.4799L15.5573 15.2908L19.1063 14.6826L22.6585 13.9462L23.2249 13.6073L23.5993 13.5095L23.7946 13.1401L22.4857 13.4182L20.06 13.7331L18.1911 14.0936L15.2053 14.491L13.346 14.467L13.7237 14.241L15.2182 13.9782L15.2278 13.5936L19.148 13.0159L19.7048 13.0616L19.6984 13.318L17.6439 13.6633L24.3643 12.673L35.0016 11.2331L41.7156 10.4992L43.3924 10.3798L47.6839 9.83252L48.4327 9.63701L53.2713 9.52007L55.876 9.47682L55.87 9.73324L62.7568 9.52738L63.8766 9.36232L65.3647 9.35592L66.2989 9.17564L66.8529 9.34953L74.1171 8.9177L83.423 8.65336L89.5641 8.5148L88.8283 8.19747L89.7596 8.14539L93.289 8.30649L95.7019 8.50444L95.6958 8.76086L96.4316 9.07819L96.2427 9.19117L92.8957 9.17351L96.4283 9.2064L99.7759 9.22406L101.446 9.3611L101.641 8.9917L102.009 9.15036L102.007 9.27857L107.395 9.46373L110.925 9.62483L116.682 9.96865L117.056 9.8709L120.215 10.0016L124.855 10.3823L133.214 10.811Z" fill="#458CA8"/>
<path d="M137.176 16.3202L137.543 16.4789L136.98 16.6896L142.548 17.1464L144.212 17.5399L144.219 17.2835L142.734 17.1616L142.737 17.0334L159.071 18.3734L169.83 19.513L169.074 19.9649L160.536 19.2645L152.187 18.451L145.691 17.9181L158.302 19.3382L165.346 20.3014L171.458 21.3167L178.316 22.2648L178.124 22.5059L176.821 22.5276L183.494 23.4604L187.392 23.7801L187.385 24.0365L183.481 23.9732L181.439 23.8057L182.002 23.595L177.551 23.1013L171.807 22.2447L168.655 21.8576L164.942 21.5531L165.138 21.1837L166.994 21.3359L158.651 20.2661L157.912 20.077L158.459 20.5073L152.891 20.0505L147.329 19.3372L147.332 19.209L144.551 18.8524L143.816 18.5351L141.217 18.3219L138.993 18.011L128.97 17.1887L128.596 17.2865L128.602 17.0301L127.671 17.0822L127.111 17.1647L127.117 16.9083L126.375 16.8474L126.739 17.1342L121.725 16.8513L118.01 16.675L118.019 16.2904L124.711 16.4539L122.669 16.2864L120.253 16.2167L116.355 15.8969L116.548 15.6557L114.691 15.5034L112.646 15.4642L110.784 15.5683L109.296 15.5747L113.568 15.7967L113.933 16.0836L107.616 15.8223L105.942 15.8135L105.939 15.9417L97.759 15.7845L94.7832 15.7973L96.2681 15.9191L96.2615 16.1755L96.8183 16.2212L96.2521 16.5602L91.4229 16.2925L91.4262 16.1643L92.3576 16.1122L88.4499 16.1771L84.3571 16.2267L83.2434 16.1353L83.4357 15.8942L76.936 15.4894L77.1283 15.2482L80.2864 15.3789L80.293 15.1225L80.8465 15.2964L82.7026 15.4486L86.9783 15.5424L89.3939 15.6122L89.2116 15.4687L86.981 15.4142L87.1733 15.173L89.5895 15.2428L92.7482 15.3734L86.4341 14.9839L86.6258 14.7427L88.3062 14.4951L90.1623 14.6474L95.74 14.7196L97.4171 14.6002L98.7164 14.7068L99.4616 14.6395L101.689 14.8222L102.435 14.7549L103.734 14.8615L103.728 15.1179L104.848 14.9528L107.821 15.0683L108.195 14.9705L113.402 15.0122L118.42 15.1669L120.09 15.304L120.084 15.5604L121.943 15.5844L126.398 15.9499L129.184 16.0501L129.373 15.9371L132.532 16.0677L137.176 16.3202Z" fill="#39829F"/>
<path d="M84.5996 28.8368L85.3387 29.0259L83.6583 29.2735L85.521 29.1693L86.8203 29.2759L86.4424 29.5019L85.6967 29.5692L85.505 29.8104L83.4534 30.0275L81.7801 30.0187L80.8488 30.0707L80.8421 30.3272L79.3539 30.3336L78.0486 30.4834L77.3029 30.5507L75.4341 30.9113L73.7536 31.1588L71.8882 31.3912L71.3313 31.3455L71.3413 30.9609L73.2067 30.7285L76.1925 30.3311L74.3298 30.4353L69.8498 31.0955L67.2385 31.3952L65.5553 31.771L64.2528 31.7926L63.1325 31.9576L61.8271 32.1075L60.5179 32.3855L54.3577 33.2933L54.1657 33.5345L53.0424 33.8278L50.4439 33.6146L49.3238 33.7797L49.1286 34.1491L47.8197 34.4271L46.5205 34.3205L47.0902 33.8534L45.7845 34.0032L45.586 34.5008L43.3395 35.0874L41.6594 35.3349L40.9202 35.1458L40.5489 35.1154L38.8689 35.363L37.7553 35.2716L37.3904 34.9847L37.5889 34.4871L38.5201 34.435L38.5265 34.1786L38.1586 34.02L39.6498 33.8854L39.6402 34.27L41.5059 34.0376L49.3495 32.754L53.8298 32.0938L54.3834 32.2677L54.7546 32.2981L61.4747 31.3078L58.121 31.5465L56.2522 31.9071L54.761 32.0417L55.3275 31.7027L57.5708 31.2444L61.6736 30.8102L66.8894 30.4672L72.4897 29.642L75.4727 29.3727L76.2118 29.5619L75.6517 29.6444L76.0163 29.9313L77.1333 29.8944L81.0471 29.5731L81.7928 29.5058L82.9098 29.469L82.9159 29.2126L82.3624 29.0387L84.5996 28.8368Z" fill="#5A9BB8"/>
<path d="M103.897 15.7739L106.124 15.9566L105.376 16.1521L102.588 16.0519L101.103 15.9301L101.097 16.1865L101.283 16.2017L101.657 16.104L101.651 16.3604L102.582 16.3083L103.318 16.6256L99.0423 16.5318L103.315 16.7539L105.917 16.8388L107.776 16.8629L108.336 16.7804L110.192 16.9326L114.282 17.0112L116.509 17.1939L121.898 17.3791L122.448 17.6812L121.703 17.7485L112.784 17.4022L111.114 17.2652L110.182 17.3172L108.141 17.1498L107.209 17.2018L103.305 17.1385L96.2455 16.8163L91.5992 16.692L88.994 16.7353L86.3922 16.6503L83.0418 16.7609L76.5328 16.7408L75.4192 16.6494L75.2303 16.7624L73.1852 16.7231L72.2638 16.3905L72.2572 16.647L71.3231 16.8272L70.395 16.7511L70.2061 16.8641L66.8557 16.9746L62.7591 17.1525L55.1269 17.4257L52.7044 17.6123L49.9139 17.6404L49.9043 18.025L49.1586 18.0923L48.9794 17.8206L48.6082 17.7902L48.973 18.0771L47.2961 18.1964L47.4882 17.9552L47.1233 17.6684L46.9377 17.6531L46.7457 17.8943L45.8145 17.9464L44.5153 17.8398L44.5217 17.5834L45.2705 17.3879L48.2498 17.2469L54.0293 16.6932L57.1908 16.6957L58.3111 16.5306L59.7993 16.5242L60.7334 16.3439L63.3352 16.4289L64.6378 16.4073L64.8301 16.1661L68.5516 16.086L69.1085 16.1317L69.1018 16.3881L69.8443 16.449L69.2941 16.1469L71.528 16.0732L77.8481 16.2063L82.4977 16.2023L84.3604 16.0982L88.4532 16.0485L92.3604 15.9837L94.0309 16.1207L94.0281 16.2489L93.0968 16.301L96.2554 16.4317L96.6327 16.2057L95.5158 16.2425L95.8936 16.0166L94.5944 15.91L94.7866 15.6688L101.481 15.7041L103.897 15.7739Z" fill="#5A9BB8"/>
<path d="M111.357 14.9727L113.027 15.1098L113.024 15.238L112.093 15.2901L112.272 15.5617L109.296 15.5745L113.568 15.7965L113.933 16.0834L107.616 15.8221L105.942 15.8132L105.939 15.9415L97.759 15.7843L94.7832 15.7971L96.2681 15.9189L96.2615 16.1753L96.8183 16.221L96.2521 16.56L91.4229 16.2923L91.4262 16.1641L92.3576 16.112L88.4499 16.1769L84.3571 16.2265L83.2434 16.1351L83.4357 15.8939L76.936 15.4892L77.1283 15.248L80.2864 15.3787L80.293 15.1222L80.8465 15.2961L82.7026 15.4484L86.9783 15.5422L89.3939 15.6119L89.2116 15.4685L86.981 15.414L87.1733 15.1728L89.5895 15.2425L92.7482 15.3732L86.4341 14.9837L86.6258 14.7425L88.3062 14.4949L90.1623 14.6472L95.74 14.7193L97.4171 14.6L98.7164 14.7066L99.4616 14.6393L101.689 14.822L102.435 14.7547L103.734 14.8613L103.728 15.1177L104.848 14.9526L107.821 15.068L108.195 14.9703L111.357 14.9727Z" fill="#39829F"/>
<path d="M143.704 15.5708L147.231 15.8601L148.527 16.0949L154.834 16.7408L161.509 17.5454L162.805 17.7802L164.29 17.902L164.293 17.7738L170.418 18.2763L171.529 18.4959L171.525 18.6241L174.492 18.9959L191.75 20.5402L193.974 20.8512L194.339 21.138L193.408 21.1901L172.62 19.4847L170.947 19.4759L170.953 19.2194L159.084 17.8603L153.704 17.2905L152.594 17.0709L149.624 16.8273L147.579 16.788L145.541 16.4923L145.55 16.1077L145.736 16.1229L144.069 15.8577L143.704 15.5708Z" fill="#5A9BB8"/>
<path d="M133.655 15.7741L142.75 16.5202L156.296 17.7599L167.608 19.0734L168.905 19.3082L168.901 19.4364L163.704 19.0101L159.067 18.5012L144.219 17.283L144.212 17.5395L141.06 17.1524L136.42 16.7717L136.983 16.561L137.172 16.448L131.415 16.1042L129.37 16.0649L129.182 16.1779L125.652 16.0168L120.083 15.56L120.087 15.4318L122.32 15.3581L122.512 15.1169L125.297 15.3453L129.198 15.5368L133.655 15.7741Z" fill="#5A9BB8"/>
<path d="M50.5477 14.6093L51.1013 14.7832L48.6756 15.0981L44.0162 15.4867L38.7967 15.9578L35.4365 16.453L29.4714 16.9914L29.289 16.848L25.9352 17.0867L24.4408 17.3495L23.6983 17.2886L23.5063 17.5298L21.8326 17.521L21.8262 17.7774L20.3381 17.7838L17.1636 18.2942L16.7955 18.1355L17.5477 17.8118L20.5366 17.2862L21.279 17.3471L21.2855 17.0907L17.5509 17.6836L15.8708 17.9312L15.8643 18.1876L15.3107 18.0137L16.6292 17.351L19.0582 16.9079L21.2983 16.5778L21.6695 16.6083L21.6759 16.3519L22.7992 16.0586L23.1704 16.0891L23.1768 15.8326L24.4857 15.5546L25.0425 15.6003L25.0489 15.3439L26.9146 15.1115L27.2923 14.8855L31.9581 14.2405L34.9407 13.9713L34.7486 14.2125L31.014 14.8054L29.702 15.2117L27.8362 15.444L27.0938 15.3831L26.9018 15.6243L25.7817 15.7894L26.8986 15.7525L26.8922 16.009L23.3464 16.4889L25.0201 16.4977L23.8968 16.791L25.0104 16.8824L25.3784 17.041L25.5736 16.6716L26.5017 16.7478L26.5081 16.4913L27.4393 16.4393L27.8138 16.3415L27.8074 16.5979L30.0475 16.2678L29.8523 16.6372L31.5324 16.3896L35.6382 15.8272L38.4351 15.5427L41.7921 15.1758L50.5477 14.6093Z" fill="#5A9BB8"/>
<path d="M130.779 11.813L135.605 12.2089L148.766 13.931L154.14 14.7573L154.504 15.0441L153.573 15.0962L148.184 14.911L145.029 14.6522L143.547 14.4022L140.763 14.1738L139.838 13.9694L136.872 13.5976L136.875 13.4694L140.776 13.6609L139.48 13.4261L135.025 13.0607L128.718 12.4148L125.934 12.1864L123.71 11.8754L123.713 11.7472L127.243 11.9083L128.73 11.9019L136.151 12.6392L139.304 13.0263L137.08 12.7153L130.772 12.0694L130.779 11.813Z" fill="#39829F"/>
<path d="M137.176 16.3199L137.544 16.4785L136.98 16.6893L142.548 17.1461L144.212 17.5395L144.219 17.2831L142.734 17.1613L142.737 17.0331L159.071 18.373L169.83 19.5126L169.074 19.9646L160.536 19.2641L142.725 17.5459L136.785 17.0587L135.492 16.6957L135.304 16.8086L132.887 16.7389L126.02 16.1755L126.398 15.9495L129.185 16.0497L129.373 15.9368L132.532 16.0674L137.176 16.3199Z" fill="#39829F"/>
<path d="M121.399 15.0255L122.138 15.2146L122.135 15.3428L110.051 15.1223L108.192 15.0983L107.817 15.196L104.473 15.0502L103.728 15.1175L103.545 14.974L102.246 14.8674L101.501 14.9347L99.4589 14.7672L98.7131 14.8345L97.0426 14.6975L94.4347 14.869L89.6022 14.7295L88.3063 14.4947L88.1141 14.7359L86.9943 14.9009L93.4934 15.3057L92.7449 15.5012L89.5862 15.3705L89.4006 15.3553L89.394 15.6117L86.975 15.6702L82.6994 15.5764L80.6577 15.4089L80.856 14.9113L84.7637 14.8464L84.2163 14.4161L84.9653 14.2206L91.2887 14.2255L91.8423 14.3994L91.8489 14.1429L92.7736 14.3473L93.7083 14.167L98.3546 14.2913L99.0937 14.4804L103.184 14.5589L104.297 14.6503L104.665 14.809L104.858 14.5678L105.225 14.7264L107.642 14.7962L108.947 14.6463L111.549 14.7313L121.399 15.0255Z" fill="#5A9BB8"/>
<path d="M53.8298 32.0939L54.3834 32.2678L53.4425 32.7045L52.508 32.8847L52.5016 33.1412L51.7528 33.3367L53.8041 33.1195L53.2537 32.8174L54.7417 32.811L54.9177 33.2109L54.3577 33.2934L54.1657 33.5346L53.0424 33.8279L50.4439 33.6147L49.3238 33.7798L49.1286 34.1492L47.8197 34.4272L46.5205 34.3206L47.0901 33.8535L45.7844 34.0033L45.586 34.5009L43.3395 35.0875L41.6594 35.335L40.9202 35.1459L40.5489 35.1155L38.8689 35.3631L37.7553 35.2717L37.3904 34.9848L37.5889 34.4872L38.5201 34.4351L38.5265 34.1787L38.1585 34.0201L39.6498 33.8855L39.6402 34.2701L41.5059 34.0377L49.3495 32.7541L53.8298 32.0939Z" fill="#5A9BB8"/>
<path d="M70.411 16.1102L71.3391 16.1863L71.3325 16.4427L72.2605 16.5189L71.6943 16.8578L70.395 16.7512L70.2061 16.8642L66.8557 16.9748L62.7591 17.1526L55.127 17.4258L52.7044 17.6125L49.9139 17.6405L49.9043 18.0251L49.1586 18.0924L48.9794 17.8208L48.6082 17.7903L48.973 18.0772L47.2961 18.1966L47.4882 17.9554L47.1233 17.6685L46.9377 17.6533L46.7457 17.8945L45.8145 17.9465L44.5153 17.8399L44.5217 17.5835L45.2705 17.388L48.2499 17.247L54.0293 16.6934L57.1908 16.6958L58.3111 16.5307L59.7993 16.5243L60.7334 16.3441L63.3352 16.429L64.6378 16.4074L64.8301 16.1662L68.5516 16.0861L69.1085 16.1318L69.1018 16.3882L69.8443 16.4491L69.2941 16.147L70.411 16.1102Z" fill="#5A9BB8"/>
<path d="M69.2013 12.4138L69.7553 12.5877L70.4944 12.7768L70.4878 13.0332L71.976 13.0268L73.0963 12.8617L73.4642 13.0204L73.272 13.2616L74.9491 13.1422L76.6195 13.2793L76.4273 13.5205L70.664 13.433L66.1967 13.5804L62.6569 13.804L59.3032 14.0427L58.5641 13.8536L57.0792 13.7318L56.1445 13.9121L56.3368 13.6709L55.2232 13.5795L54.676 13.1492L57.0986 12.9625L57.1052 12.7061L57.6648 12.6236L62.8718 12.6653L65.6653 12.5091L66.0365 12.5395L66.2155 12.8112L66.59 12.7134L66.411 12.4418L67.8992 12.4354L67.8893 12.82L69.1919 12.7984L69.2013 12.4138Z" fill="#5A9BB8"/>
<path d="M47.9589 14.0114L48.8837 14.2158L50.3717 14.2094L50.3653 14.4658L50.7334 14.6244L49.6133 14.7895L41.7889 15.3039L35.075 16.0378L30.7835 16.585L29.8491 16.7653L29.2987 16.4632L29.113 16.448L28.3707 16.3871L28.5659 16.0177L32.4829 15.5682L33.0461 15.3575L33.9709 15.5618L33.7918 15.2902L36.2175 14.9753L38.4512 14.9016L40.1313 14.654L42.3682 14.4521L44.0419 14.4609L44.0483 14.2045L47.9589 14.0114Z" fill="#39829F"/>
<path d="M84.5996 28.8367L85.3388 29.0258L83.6583 29.2734L85.5211 29.1692L86.8203 29.2758L86.4425 29.5018L85.6967 29.5691L85.505 29.8103L83.4534 30.0274L81.7801 30.0186L80.8488 30.0707L80.8422 30.3271L79.354 30.3335L78.0486 30.4833L77.3029 30.5506L75.4341 30.9112L73.7542 31.1588L71.8882 31.3911L71.3314 31.3454L71.3413 30.9608L73.2068 30.7285L76.1925 30.331L74.3298 30.4352L71.9042 30.7501L71.7252 30.4784L71.1717 30.3045L73.9719 29.8919L74.7143 29.9528L74.7204 29.6964L69.309 30.4087L65.3885 30.9864L63.7153 30.9776L58.1211 31.5464L56.2523 31.907L54.761 32.0416L55.3275 31.7027L57.5709 31.2443L61.6736 30.8101L66.8894 30.4672L72.4898 29.6419L75.4728 29.3727L76.2119 29.5618L75.6517 29.6443L76.0163 29.9312L77.1333 29.8943L81.0471 29.573L81.7928 29.5057L82.9098 29.4689L82.9159 29.2125L82.3624 29.0386L84.5996 28.8367Z" fill="#5A9BB8"/>
<path d="M126.378 16.7189L127.117 16.908L127.3 17.0515L127.303 16.9232L128.602 17.0298L128.973 17.0603L138.996 17.8825L141.406 18.2087L144.747 18.4828L144.555 18.724L147.521 19.0958L147.518 19.224L152.894 19.922L158.459 20.507L159.57 20.7266L159.566 20.8548L152.699 20.2914L151.774 20.0871L151.761 20.5999L149.909 20.3194L145.64 19.9692L145.831 19.728L147.873 19.8955L151.032 20.0262L147.508 19.6086L145.652 19.4564L146.401 19.2609L140.651 18.6606L140.471 18.389L133.789 17.8408L131.745 17.8015L130.628 17.8384L129.889 17.6493L118.006 16.8029L118.756 16.6074L121.914 16.7381L126 16.9449L126.378 16.7189Z" fill="#7EABC4"/>
<path d="M142.065 21.6031L146.148 21.9381L151.521 22.7643L154.299 23.2492L161.342 24.2124L166.35 24.7517L166.901 25.0538L157.064 24.2468L157.061 24.375L153.352 23.9423L152.43 23.6097L152.433 23.4815L155.588 23.7404L150.398 23.0576L138.89 22.1135L139.083 21.8724L137.786 21.6376L137.789 21.5093L142.062 21.7314L142.065 21.6031Z" fill="#39829F"/>
<path d="M79.6727 10.1893L83.3848 10.4938L82.6358 10.6893L74.8209 10.8191L69.4288 10.7621L62.7309 10.855L58.6348 11.0328L51.9304 11.3821L49.6934 11.584L48.7654 11.5079L49.5111 11.4406L49.5175 11.1842L50.6343 11.1473L51.1976 10.9366L53.0601 10.8325L53.0536 11.0889L53.6169 10.8781L58.6475 10.52L64.4174 10.351L66.4657 10.2621L74.2773 10.2605L79.6727 10.1893Z" fill="#5A9BB8"/>
<path d="M170.965 18.7069L191.75 20.5405L193.974 20.8514L194.339 21.1383L193.408 21.1904L173.177 19.5306L172.252 19.3263L172.258 19.0699L170.956 19.0915L169.289 18.8262L169.292 18.698L170.965 18.7069Z" fill="#39829F"/>
<path d="M69.6139 18.229L71.0988 18.3509L70.9065 18.5921L68.6698 18.794L65.7001 18.5503L65.5112 18.6633L59.37 18.8019L56.3843 19.1993L54.7075 19.3187L53.2131 19.5815L50.0481 19.7073L49.3025 19.7746L46.5088 19.9308L45.7599 20.1263L44.4575 20.1479L43.3374 20.313L41.2893 20.4019L38.3035 20.7993L35.1354 21.0533L34.3961 20.8642L35.1482 20.5405L35.8906 20.6014L37.0139 20.3081L41.6701 20.0477L44.6527 19.7785L48.5697 19.329L51.549 19.188L53.2291 18.9404L57.14 18.7474L61.0565 18.2979L67.7545 18.205L69.6139 18.229Z" fill="#5A9BB8"/>
<path d="M81.5824 15.6135L84.1809 15.8267L84.1781 15.9549L81.0161 15.9525L72.8366 15.7953L67.4413 15.8666L63.1656 15.7728L62.2343 15.8249L59.0662 16.0789L53.2901 16.5043L52.3653 16.2999L49.0147 16.4105L49.0211 16.1541L52.9317 15.961L53.8566 16.1653L54.6054 15.9698L59.6363 15.6117L60.3787 15.6726L60.3848 15.4162L58.7083 15.5356L58.9033 15.1662L60.5804 15.0468L61.694 15.1381L62.0619 15.2968L65.4123 15.1863L73.7741 15.4868L78.4242 15.4829L81.5824 15.6135Z" fill="#5A9BB8"/>
<path d="M121.802 13.774L141.477 15.388L141.841 15.6749L144.993 16.062L144.984 16.4466L143.502 16.1966L137.563 15.7093L137.566 15.5811L138.868 15.5595L121.793 14.1586L115.107 13.7387L111.581 13.4494L111.584 13.3212L114.186 13.4061L121.802 13.774Z" fill="#7EABC4"/>
<path d="M162.527 21.4832L170.319 22.251L171.055 22.5683L171.615 22.4858L174.399 22.7142L175.877 23.0924L175.871 23.3488L176.243 23.3793L176.249 23.1229L178.101 23.4033L178.466 23.6902L177.35 23.7271L170.482 23.1637L166.776 22.6027L164.178 22.3895L161.397 22.0329L161.403 21.7765L161.039 21.4896L162.527 21.4832Z" fill="#39829F"/>
<path d="M126.122 12.0732L128.721 12.2864L135.771 12.9932L140.04 13.3434L140.961 13.676L140.958 13.8042L138.728 13.7497L138.725 13.8779L140.206 14.1279L139.643 14.3386L138.9 14.2777L138.891 14.6624L137.595 14.4276L130.359 13.7055L125.162 13.2792L125.166 13.151L129.812 13.2752L132.41 13.4884L135.384 13.6038L135.207 13.2039L130.196 12.7928L126.858 12.3905L126.122 12.0732Z" fill="#5A9BB8"/>
<path d="M127.991 11.7126L130.775 11.941L137.083 12.5869L140.232 13.1022L140.229 13.2304L130.398 12.167L128.727 12.0299L125.937 12.0579L126.862 12.2623L135.207 13.2039L135.384 13.6038L126.66 12.8881L126.1 12.9706L126.106 12.7142L125.178 12.6381L124.254 12.4337L124.257 12.3055L120.73 12.0162L120.551 11.7446L122.596 11.7838L120.929 11.5186L120.932 11.3904L125.946 11.6733L127.991 11.7126Z" fill="#5A9BB8"/>
<path d="M59.1618 27.1354L59.9009 27.3245L59.8943 27.581L58.7746 27.746L58.7646 28.1306L59.5037 28.3198L57.2637 28.6499L54.2812 28.9191L51.8555 29.234L50.5562 29.1274L49.0682 29.1338L49.6314 28.923L51.1195 28.9166L51.1259 28.6602L49.2602 28.8926L48.7066 28.7187L49.4587 28.395L50.9467 28.3886L51.6956 28.1931L52.0732 27.9671L54.6813 27.7957L55.9904 27.5176L58.2271 27.3157L59.1618 27.1354Z" fill="#5A9BB8"/>
<path d="M32.2427 17.7328L32.982 17.9219L32.7835 18.4195L28.3033 19.0798L31.4714 18.8258L35.7597 18.4067L36.1277 18.5654L34.2588 18.926L28.6649 19.4948L24.3734 20.0421L19.1475 20.7696L17.285 20.8738L17.4771 20.6326L20.4628 20.2352L20.8405 20.0092L23.2662 19.6943L24.0183 19.3706L29.0586 18.6278L30.3674 18.3498L31.6731 18.2L32.4155 18.2609L32.422 18.0044L30.3706 18.2216L29.817 18.0477L32.2427 17.7328Z" fill="#5A9BB8"/>
<path d="M139.136 27.1443L142.848 27.4489L142.845 27.5771L140.989 27.4248L140.983 27.6812L141.729 27.6139L145.629 27.8055L146.74 28.025L146.737 28.1532L136.89 27.7309L135.037 27.4504L132.624 27.2524L126.115 27.2323L120.534 27.2884L119.606 27.2122L120.355 27.0167L125.565 26.9302L119.43 26.8124L119.622 26.5712L124.458 26.5824L129.101 26.8349L130.957 26.9872L130.221 26.6698L131.709 26.6635L133.751 26.8309L134.49 27.0201L138.573 27.3551L139.136 27.1443Z" fill="#39829F"/>
<path d="M146.273 16.938L156.296 17.7602L167.608 19.0737L168.905 19.3085L168.902 19.4367L163.704 19.0103L159.068 18.5014L145.518 17.3899L145.339 17.1182L146.267 17.1944L146.273 16.938Z" fill="#5A9BB8"/>
<path d="M159.752 20.8701L162.35 21.0833L163.275 21.2876L168.658 21.7292L173.663 22.3968L178.111 23.0186L182.191 23.4818L181.999 23.723L181.442 23.6773L181.436 23.9338L178.645 23.9618L178.642 24.09L176.789 23.8095L177.353 23.5988L178.099 23.5315L176.249 23.1228L176.242 23.3792L175.871 23.3487L175.877 23.0923L174.764 23.001L174.396 22.8423L171.612 22.6139L171.051 22.6964L169.756 22.4616L169.388 22.303L164.565 21.7789L160.303 21.1722L159.752 20.8701Z" fill="#5A9BB8"/>
<path d="M36.6897 33.2571L37.429 33.4462L35.9313 33.8373L36.8657 33.657L38.725 33.681L38.533 33.9222L37.0417 34.0568L36.1105 34.1089L35.9088 34.7347L35.7296 34.4631L34.9743 34.915L33.4799 35.1778L32.9262 35.0039L32.1806 35.0712L29.9405 35.4014L27.5083 35.9727L26.9547 35.7988L27.5212 35.4598L28.8269 35.31L28.8333 35.0536L32.7599 34.2195L32.3887 34.189L31.8351 34.0151L36.6897 33.2571Z" fill="#5A9BB8"/>
<path d="M101.917 13.1705L107.299 13.6121L106.921 13.8381L101.161 13.6225L99.4942 13.3572L99.1197 13.455L95.2219 13.1352L93.5481 13.1264L97.6315 13.4614L97.8105 13.733L90.5623 13.5238L85.5448 13.3691L85.5509 13.1127L89.0841 13.1456L88.9045 12.8739L90.7606 13.0262L92.62 13.0502L92.9979 12.8243L96.7161 12.8724L101.917 13.1705Z" fill="#7EABC4"/>
<path d="M132.627 27.1241L135.782 27.383L136.893 27.6025L136.33 27.8133L132.061 27.4631L130.941 27.6281L127.411 27.467L118.29 27.7466L116.428 27.8507L115.317 27.6312L115.51 27.39L117.189 27.1424L119.609 27.0839L122.025 27.1536L129.28 27.1064L132.627 27.1241Z" fill="#39829F"/>
<path d="M131.7 19.5966L138.567 20.16L139.117 20.4621L138.187 20.5142L134.849 20.1119L131.505 19.966L131.501 20.0942L130.199 20.1158L127.786 19.9179L127.789 19.7897L129.463 19.7985L126.304 19.6678L126.112 19.909L125.367 19.9763L125.187 19.7047L119.805 19.2631L119.059 19.3304L115.158 19.1389L114.979 18.8672L118.134 19.1261L118.141 18.8697L118.515 18.7719L131.7 19.5966Z" fill="#5A9BB8"/>
<path d="M67.1297 28.3031L68.4257 28.5379L68.4229 28.6661L64.3202 29.1004L65.8084 29.094L67.6672 29.1181L66.9187 29.3136L63.9363 29.5828L62.4414 29.8456L58.1503 30.3928L57.2223 30.3167L57.5996 30.0907L60.771 29.7085L62.0769 29.5587L61.1521 29.3544L59.475 29.4738L58.7359 29.2846L60.0385 29.263L60.0445 29.0066L58.5564 29.013L58.9342 28.787L62.1056 28.4048L63.4082 28.3832L63.7727 28.6701L61.7217 28.8872L63.955 28.8135L65.4465 28.6789L65.6388 28.4377L65.8272 28.3247L67.1264 28.4313L67.1297 28.3031Z" fill="#5A9BB8"/>
<path d="M140.478 18.1328L144.747 18.483L144.555 18.7242L147.521 19.0961L147.518 19.2243L152.894 19.9223L158.459 20.5073L159.57 20.7269L159.566 20.8551L152.699 20.2917L151.774 20.0873L151.761 20.6002L149.909 20.3197L145.64 19.9695L145.831 19.7283L147.873 19.8958L151.032 20.0264L147.508 19.6089L145.652 19.4566L146.401 19.2611L140.651 18.6609L140.478 18.1328Z" fill="#5A9BB8"/>
<path d="M74.3491 29.6663L74.7203 29.6967L74.7143 29.9532L71.5429 30.3354L71.7185 30.7352L69.8497 31.0958L67.2385 31.3954L65.5553 31.7712L64.4444 31.5517L63.7086 31.2343L62.0315 31.3537L61.8525 31.0821L64.4638 30.7824L66.1376 30.7912L72.298 29.8834L74.3491 29.6663Z" fill="#5A9BB8"/>
<path d="M16.2195 18.859L16.7731 19.0329L16.0211 19.3566L15.2722 19.5521L14.5202 19.8758L13.5857 20.0561L14.5138 20.1322L14.5073 20.3887L16.3763 20.0281L16.741 20.315L15.9922 20.5105L15.0641 20.4343L15.0577 20.6908L14.1233 20.8711L13.9344 20.984L9.44138 22.1571L8.88776 21.9832L11.1343 21.3967L9.4574 21.5161L9.28146 21.1162L13.0161 20.5233L11.8992 20.5601L10.9648 20.7404L10.2255 20.5513L11.9088 20.1755L11.1696 19.9864L12.8561 19.4824L14.533 19.363L16.2195 18.859Z" fill="#5A9BB8"/>
<path d="M51.3191 13.5164L52.2471 13.5926L51.8695 13.8185L49.6326 14.0204L50.5606 14.0966L49.8118 14.2921L48.1381 14.2832L47.9557 14.1398L44.7908 14.2656L44.0483 14.2047L44.0419 14.4611L42.365 14.5805L38.8224 14.9322L37.7024 15.0973L35.6543 15.1862L34.1598 15.449L34.5278 15.6077L33.7821 15.675L33.0429 15.4859L32.1053 15.7944L28.3771 16.1309L27.6379 15.9417L30.9981 15.4466L33.9838 15.0492L37.3408 14.6822L41.2546 14.3609L42.9315 14.2415L44.4259 13.9787L46.8485 13.792L49.8278 13.651L51.3191 13.5164Z" fill="#5A9BB8"/>
<path d="M137.176 16.3199L137.544 16.4785L136.98 16.6893L142.548 17.1461L143.841 17.5091L143.838 17.6373L136.785 17.0587L135.492 16.6957L135.304 16.8086L132.887 16.7389L126.02 16.1755L126.398 15.9495L129.185 16.0497L129.373 15.9368L132.532 16.0674L137.176 16.3199Z" fill="#39829F"/>
<path d="M11.7264 20.0319L12.0944 20.1905L11.7168 20.4165L11.3424 20.5143L12.2768 20.334L13.3905 20.4253L13.0128 20.6513L9.27823 21.2442L6.28285 22.0263L5.72603 21.9806L5.73564 21.596L5.37085 21.3091L6.6797 21.0311L6.88139 20.4052L7.81584 20.2249L9.67513 20.249L10.2384 20.0383L11.7264 20.0319Z" fill="#39829F"/>
<path d="M135.495 16.5673L136.974 16.9455L142.727 17.4175L145.509 17.7741L146.616 18.1219L146.612 18.2501L141.23 17.8086L136.593 17.2997L135.854 17.1106L134.737 17.1474L125.456 16.3861L125.463 16.1296L132.891 16.6105L135.306 16.6802L135.495 16.5673Z" fill="#5A9BB8"/>
<path d="M85.3299 14.5076L86.069 14.6967L86.9943 14.9011L93.4934 15.3058L92.7449 15.5013L89.5862 15.3707L89.4006 15.3555L89.394 15.6119L86.975 15.6703L82.6994 15.5765L80.6577 15.409L80.856 14.9114L84.7637 14.8466L84.3986 14.5597L85.3299 14.5076Z" fill="#5A9BB8"/>
<path d="M97.6121 14.2306L98.3513 14.4197L97.9707 14.7739L96.1112 14.7498L94.4347 14.8692L89.6022 14.7297L88.3063 14.4949L88.114 14.7361L86.4375 14.8555L85.6978 14.6664L84.2162 14.4164L84.9653 14.2209L91.2887 14.2257L91.8422 14.3996L91.8489 14.1432L92.7736 14.3475L93.7083 14.1673L97.6121 14.2306Z" fill="#7EABC4"/>
<path d="M81.5824 15.6136L84.1809 15.8268L84.1781 15.955L81.0162 15.9525L72.8366 15.7954L67.4413 15.8666L65.5819 15.8426L64.8461 15.5253L65.5979 15.2015L73.7741 15.4869L78.4243 15.4829L81.5824 15.6136Z" fill="#5A9BB8"/>
<path d="M123.465 21.6189L123.837 21.6494L123.831 21.9058L124.576 21.8385L124.755 22.1101L123.267 22.1165L122.528 21.9274L122.336 22.1686L119.549 22.0684L120.112 21.8577L118.438 21.8488L115.651 21.7486L115.277 21.8464L115.27 22.1028L114.716 21.9289L114.909 21.6877L113.977 21.7398L110.262 21.5635L108.217 21.5242L107.852 21.2373L110.272 21.1788L115.66 21.364L120.307 21.4883L123.277 21.7319L123.465 21.6189Z" fill="#5A9BB8"/>
<path d="M143.188 21.3096L149.313 21.8121L157.845 22.7689L159.14 23.0037L159.88 23.1928L161.365 23.3146L160.802 23.5254L157.461 23.2513L157.464 23.1231L155.054 22.7969L155.233 23.0686L151.71 22.6511L148.561 22.1358L144.666 21.6878L143.185 21.4378L143.188 21.3096Z" fill="#7EABC4"/>
<path d="M106.454 17.6539L107.753 17.7605L107.932 18.0322L105.699 18.1059L104.214 17.9841L99.1926 17.9576L96.2168 17.9704L91.1926 18.0721L88.2229 17.8284L88.2262 17.7002L92.319 17.6506L94.7386 17.5921L96.4151 17.4727L105.337 17.6908L106.454 17.6539Z" fill="#5A9BB8"/>
<path d="M138.295 16.1552L142.75 16.5206L146.273 16.9382L146.267 17.1946L144.59 17.314L144.219 17.2835L144.212 17.5399L141.06 17.1529L136.42 16.7722L136.983 16.5614L137.55 16.2225L138.295 16.1552Z" fill="#5A9BB8"/>
<path d="M33.3429 25.7882L34.0822 25.9774L31.282 26.39L29.2372 26.3507L29.0419 26.7201L27.925 26.757L28.3027 26.531L25.5058 26.8154L24.2001 26.9653L23.272 26.8891L23.2624 27.2738L21.3967 27.5061L18.5934 28.047L17.8541 27.8579L20.0975 27.3995L21.9696 26.9108L24.7729 26.3699L28.8788 25.8074L30.1812 25.7858L29.4292 26.1095L32.0373 25.9381L33.3429 25.7882Z" fill="#5A9BB8"/>
<path d="M36.7667 30.1801L37.1348 30.3388L36.3763 30.9189L33.7617 31.3468L32.8369 31.1425L29.8544 31.4117L26.8589 32.1937L25.1756 32.5695L22.1867 33.0951L21.0698 33.132L20.9003 32.4757L22.574 32.4845L21.8251 32.6801L22.3819 32.7257L25.7485 31.9741L26.8686 31.8091L29.1151 31.2225L31.5409 30.9077L33.9634 30.721L36.7667 30.1801Z" fill="#5A9BB8"/>
<path d="M128.73 11.9018L136.151 12.6391L139.118 13.011L140.043 13.2153L139.48 13.4261L135.025 13.0606L128.718 12.4147L125.934 12.1863L123.71 11.8754L123.713 11.7471L127.243 11.9082L128.73 11.9018Z" fill="#39829F"/>
<path d="M87.2821 18.2649L89.1377 18.4172L88.946 18.6584L85.7812 18.7841L83.3683 18.5862L82.437 18.6383L79.0894 18.6206L73.8796 18.7071L72.3947 18.5853L71.6589 18.2679L74.4492 18.2399L81.515 18.3057L84.4947 18.1647L86.9076 18.3626L87.2821 18.2649Z" fill="#5A9BB8"/>
<path d="M34.5695 13.9409L34.9375 14.0996L33.2542 14.4754L30.4541 14.888L29.702 15.2117L27.8363 15.4441L27.0939 15.3832L26.9018 15.6244L25.7818 15.7894L26.8986 15.7526L26.8922 16.009L23.3464 16.489L22.4184 16.4128L22.4248 16.1564L23.1704 16.0891L23.1769 15.8327L24.4857 15.5547L25.0426 15.6003L25.049 15.3439L26.9147 15.1116L27.2923 14.8856L31.9582 14.2406L34.5695 13.9409Z" fill="#5A9BB8"/>
<path d="M43.5936 17.5074L44.1504 17.5531L44.3232 18.0812L45.9969 18.09L45.9905 18.3464L39.8462 18.6132L36.4924 18.852L36.486 19.1084L34.0635 19.2951L34.6299 18.9561L36.3132 18.5803L38.5565 18.122L41.7279 17.7398L42.8416 17.8311L42.8352 18.0876L43.584 17.8921L43.0304 17.7182L43.5936 17.5074Z" fill="#5A9BB8"/>
<path d="M121.526 17.3491L122.452 17.5535L121.703 17.749L112.784 17.4027L111.114 17.2657L110.182 17.3178L108.141 17.1503L107.209 17.2023L103.305 17.139L102.38 16.9346L102.383 16.8064L103.315 16.7544L105.917 16.8393L107.776 16.8634L108.336 16.7809L110.192 16.9331L114.282 17.0117L116.509 17.1944L121.526 17.3491Z" fill="#5A9BB8"/>
<path d="M65.6653 12.5087L66.0365 12.5392L65.8415 12.9086L63.0508 12.9366L58.5834 13.084L58.0233 13.1665L59.6971 13.1754L59.87 13.7034L58.5641 13.8533L57.0792 13.7314L56.1445 13.9117L56.3368 13.6705L55.2232 13.5792L54.676 13.1489L57.0986 12.9622L57.1052 12.7058L57.6648 12.6232L62.8718 12.665L65.6653 12.5087Z" fill="#5A9BB8"/>
<path d="M17.3807 24.4786L17.7487 24.6373L17.5567 24.8785L18.1103 25.0524L15.115 25.8344L14.7438 25.804L14.7373 26.0604L12.6796 26.5339L10.065 26.9618L9.13057 27.1421L8.38813 27.0812L8.3946 26.8248L8.02979 26.5379L8.77863 26.3424L8.77222 26.5988L10.4587 26.0948L11.2076 25.8993L11.3868 26.1709L11.0123 26.2687L11.566 26.4426L11.5724 26.1862L12.8748 26.1645L13.6301 25.7126L15.1278 25.3216L13.8221 25.4714L13.8285 25.215L15.1374 24.937L15.6942 24.9826L15.6878 25.2391L16.9935 25.0892L17.0063 24.5764L17.3807 24.4786Z" fill="#7EABC4"/>
<path d="M75.4728 29.3728L76.2119 29.5619L69.309 30.4088L65.3885 30.9865L63.7153 30.9777L58.1211 31.5466L56.2523 31.9071L54.761 32.0417L55.3275 31.7028L57.5709 31.2445L61.6736 30.8102L66.8894 30.4673L72.4898 29.642L75.4728 29.3728Z" fill="#5A9BB8"/>
<path d="M79.6727 10.1896L83.3849 10.4941L82.6358 10.6896L74.8209 10.8193L72.4052 10.7496L70.3635 10.5821L70.3663 10.4539L71.4866 10.2888L79.6727 10.1896Z" fill="#5A9BB8"/>
<path d="M19.7423 26.7278L20.2959 26.9017L16.3725 27.6076L13.3739 28.5179L12.0682 28.6677L11.8794 28.7807L10.7529 29.2021L11.4857 29.6477L11.2904 30.0171L9.60715 30.3929L9.05353 30.219L9.80563 29.8953L10.1897 29.4129L10.1993 29.0283L10.3881 28.9153L10.0201 28.7566L13.5787 27.7638L14.1324 27.9377L14.8844 27.614L14.8908 27.3576L15.8221 27.3055L17.1309 27.0275L19.7423 26.7278Z" fill="#5A9BB8"/>
<path d="M142.065 21.6031L146.148 21.9381L147.63 22.1882L147.627 22.3164L142.801 21.9205L145.396 22.2619L147.249 22.5423L146.686 22.7531L138.89 22.1135L139.083 21.8724L137.786 21.6376L137.789 21.5093L142.062 21.7314L142.065 21.6031Z" fill="#5A9BB8"/>
<path d="M22.6842 13.2228L23.0554 13.2532L22.8602 13.6226L19.5 14.1178L16.6966 14.6587L14.2741 14.8453L13.3461 14.7692L13.7237 14.5432L15.2182 14.2804L15.2278 13.8958L19.1481 13.3181L19.7048 13.3638L19.6984 13.6202L17.6439 13.9655L22.6842 13.2228Z" fill="#39829F"/>
<path d="M114.777 19.493L115.148 19.5235L115.328 19.7951L115.881 19.969L115.875 20.2255L117.363 20.2191L119.033 20.3561L119.027 20.6125L114.195 20.473L110.294 20.2815L107.504 20.3095L105.641 20.4137L104.713 20.3375L104.905 20.0963L107.513 19.9249L113.088 20.1253L114.022 19.945L114.029 19.6886L113.661 19.5299L114.777 19.493Z" fill="#5A9BB8"/>
<path d="M124.106 10.8796L127.262 11.1384L126.888 11.2362L126.881 11.4926L121.306 11.2922L118.151 11.0334L113.879 10.8114L111.652 10.6286L111.658 10.3722L123.732 10.9773L124.106 10.8796Z" fill="#5A9BB8"/>
<path d="M121.802 13.774L126.999 14.2003L127.549 14.5024L126.989 14.585L121.793 14.1586L115.107 13.7387L111.581 13.4494L111.584 13.3212L114.186 13.4061L121.802 13.774Z" fill="#5A9BB8"/>
<path d="M133.214 11.1132L139.71 11.6462L139.147 11.8569L136.356 11.8849L133.572 11.6565L127.812 11.4409L127.255 11.3952L127.262 11.1388L128.382 10.9738L128.385 10.8455L133.214 11.1132Z" fill="#5A9BB8"/>
<path d="M107.76 10.0525L111.472 10.357L110.909 10.5678L107.379 10.4067L105.709 10.2696L108.304 10.611L108.112 10.8522L102.169 10.4931L100.307 10.5973L99.1931 10.5059L99.3853 10.2647L101.062 10.1454L103.853 10.1174L103.856 9.98914L107.76 10.0525Z" fill="#5A9BB8"/>
<path d="M22.236 16.269L23.7176 16.519L25.0201 16.4974L24.2712 16.6929L23.7048 17.0318L22.0247 17.2794L20.7254 17.1728L17.5509 17.6832L15.8708 17.9308L15.8644 18.1872L15.3107 18.0133L16.6293 17.3507L19.0582 16.9076L21.2983 16.5775L21.6696 16.6079L21.676 16.3515L22.236 16.269Z" fill="#39829F"/>
<path d="M59.1618 27.1354L59.9009 27.3245L59.8943 27.581L55.6032 28.1282L52.6172 28.5256L49.2602 28.8926L48.7066 28.7187L49.4587 28.395L50.9467 28.3886L51.6956 28.1931L52.0732 27.9671L54.6813 27.7957L55.9904 27.5176L58.2271 27.3157L59.1618 27.1354Z" fill="#5A9BB8"/>
<path d="M142.618 21.7773L149.297 22.4537L155.966 23.5147L156.702 23.832L152.436 23.3536L150.398 23.0579L147.243 22.7991L147.249 22.5426L144.093 22.2838L142.797 22.049L142.618 21.7773Z" fill="#5A9BB8"/>
<path d="M129.812 13.2747L136.123 13.7924L138.347 14.1034L138.341 14.3598L137.595 14.4271L130.359 13.705L125.162 13.2787L125.166 13.1505L129.812 13.2747Z" fill="#5A9BB8"/>
<path d="M158.366 16.7739L160.594 16.9566L165.414 17.609L170.047 18.2461L170.044 18.3743L165.775 18.024L165.4 18.1218L165.407 17.8654L164.476 17.9175L164.101 18.0152L162.431 17.8782L159.282 17.3629L158.363 16.9021L158.366 16.7739Z" fill="#39829F"/>
<path d="M174.402 22.5859L182.191 23.4819L181.999 23.7231L181.442 23.6774L181.436 23.9338L178.645 23.9618L178.642 24.09L176.789 23.8096L177.353 23.5988L178.098 23.5315L176.249 23.1228L176.242 23.3793L175.871 23.3488L175.877 23.0924L174.764 23.001L174.396 22.8424L174.402 22.5859Z" fill="#7EABC4"/>
<path d="M45.9584 19.6285L46.512 19.8024L45.7599 20.1261L44.4575 20.1478L43.3374 20.3128L41.2893 20.4017L38.3035 20.7992L35.1354 21.0532L34.3962 20.864L35.1482 20.5403L35.8907 20.6012L37.0139 20.308L41.6701 20.0476L44.6527 19.7784L45.9584 19.6285Z" fill="#5A9BB8"/>
<path d="M50.5477 14.6089L51.1013 14.7828L48.6756 15.0977L44.0161 15.4863L39.5424 15.8901L38.4287 15.7987L38.4351 15.5423L41.7921 15.1753L50.5477 14.6089Z" fill="#5A9BB8"/>
<path d="M130.938 20.3047L134.093 20.5636L133.703 21.3024L131.658 21.2631L131.668 20.8785L129.434 20.9522L128.503 21.0043L124.791 20.6997L124.982 20.4585L128.138 20.7174L128.144 20.461L130.564 20.4025L130.938 20.3047Z" fill="#5A9BB8"/>
<path d="M96.1455 28.2424L97.4447 28.349L97.2525 28.5902L95.9532 28.4836L95.7549 28.9812L94.0784 29.1006L91.102 29.1134L91.4798 28.8874L94.0878 28.716L92.7852 28.7376L87.5721 28.9523L85.5276 28.913L86.2762 28.7175L91.4926 28.3746L95.5853 28.325L96.1455 28.2424Z" fill="#5A9BB8"/>
<path d="M155.275 21.4019L161.4 21.9043L165.109 22.3371L169.375 22.8155L173.081 23.3765L172.517 23.5872L169.365 23.2001L168.44 22.9958L164.171 22.6456L158.61 21.9324L155.272 21.5301L155.275 21.4019Z" fill="#5A9BB8"/>
<path d="M155.797 22.858L158.21 23.0559L158.206 23.1841L163.397 23.8669L163.947 24.169L162.827 24.334L162.645 24.1906L158.008 23.6817L154.67 23.2794L155.422 22.9557L155.797 22.858Z" fill="#39829F"/>
<path d="M146.151 21.8101L148.564 22.008L154.309 22.8647L155.051 22.9256L154.871 22.6539L155.797 22.8583L155.601 23.2277L156.711 23.4472L156.709 23.5755L154.296 23.3775L146.145 22.0665L146.151 21.8101Z" fill="#39829F"/>
<path d="M131.933 25.1398L133.415 25.3898L133.411 25.518L128.761 25.522L125.414 25.5043L121.692 25.5844L120.578 25.493L121.142 25.2823L123.193 25.0652L126.912 25.1133L129.517 25.07L131.933 25.1398Z" fill="#5A9BB8"/>
<path d="M45.2326 11.4753L46.1606 11.5515L45.5973 11.7622L40.0067 12.2029L36.6497 12.5698L33.6639 12.9672L32.3583 13.1171L31.619 12.928L33.1135 12.6651L35.3504 12.4632L36.2881 12.1547L45.2326 11.4753Z" fill="#5A9BB8"/>
<path d="M45.7765 12.0334L46.3301 12.2073L42.7843 12.6872L36.8128 13.482L35.3247 13.4884L35.7024 13.2625L37.568 13.0301L37.2065 12.615L38.1409 12.4347L39.629 12.4283L39.6226 12.6848L42.6051 12.4156L45.7765 12.0334Z" fill="#5A9BB8"/>
<path d="M99.7406 10.9367L101.782 11.1042L101.779 11.2324L99.9196 11.2083L100.845 11.4127L100.842 11.5409L98.7965 11.5016L98.0574 11.3125L95.2666 11.3405L94.5181 11.536L94.5148 11.6642L92.6554 11.6402L92.662 11.3837L90.2491 11.1858L89.3271 10.8532L90.0729 10.7859L93.7851 11.0905L99.7406 10.9367Z" fill="#5A9BB8"/>
<path d="M72.9554 11.052L74.8082 11.3325L76.1042 11.5673L75.3556 11.7628L74.0564 11.6562L73.6879 11.4975L73.6818 11.7539L72.9427 11.5648L71.6401 11.5864L71.6335 11.8429L70.3343 11.7363L69.7774 11.6906L66.4365 11.4165L67.1855 11.221L70.1619 11.2082L71.4672 11.0584L72.9554 11.052Z" fill="#5A9BB8"/>
<path d="M62.5884 31.399L62.7679 31.6707L61.6476 31.8357L61.6382 32.2204L56.5981 32.9631L55.3016 32.7283L55.865 32.5176L57.1709 32.3678L57.5388 32.5264L57.7338 32.157L60.7229 31.6314L62.5884 31.399Z" fill="#39829F"/>
<path d="M140.365 22.6197L141.664 22.7263L141.658 22.9827L142.778 22.8177L142.961 22.9611L149.083 23.5918L148.705 23.8178L138.311 22.9651L137.943 22.8064L137.949 22.55L139.802 22.8305L140.365 22.6197Z" fill="#5A9BB8"/>
<path d="M89.8486 12.3091L92.6327 12.5375L92.6266 12.7939L91.1385 12.8003L90.7639 12.8981L89.0934 12.761L87.7909 12.7827L87.7848 13.0391L85.9254 13.015L85.7558 12.3588L86.5015 12.2914L89.8486 12.3091Z" fill="#5A9BB8"/>
<path d="M45.7273 28.8596L46.6553 28.9357L46.4569 29.4333L45.3368 29.5984L44.412 29.394L44.2167 29.7634L41.7878 30.2065L39.9221 30.4389L38.8117 30.2193L38.2613 29.9172L39.9414 29.6696L40.4982 29.7153L40.4918 29.9717L42.7287 29.7698L44.2328 29.1224L45.7273 28.8596Z" fill="#7EABC4"/>
<path d="M40.489 22.6487L41.2283 22.8378L36.7512 23.3698L34.1399 23.6695L33.2054 23.8498L32.6486 23.8041L30.9685 24.0517L29.8549 23.9603L30.4182 23.7496L32.8439 23.4347L35.084 23.1046L39.7434 22.716L40.489 22.6487Z" fill="#5A9BB8"/>
<path d="M119.052 27.0385L119.977 27.2429L123.692 27.4192L122.943 27.6147L117.173 27.7837L116.428 27.851L115.317 27.6315L115.51 27.3903L117.189 27.1427L119.052 27.0385Z" fill="#5A9BB8"/>
<path d="M54.1438 26.9803L56.1854 27.1478L55.8076 27.3738L51.5195 27.7928L47.2282 28.3401L45.5481 28.5876L45.1801 28.429L47.4234 27.9706L51.9036 27.3104L53.2061 27.2888L54.1438 26.9803Z" fill="#5A9BB8"/>
<path d="M55.5048 9.74841L55.876 9.77886L55.6777 10.2765L51.0249 10.4087L48.7911 10.4824L49.5464 10.0305L50.6665 9.86535L55.5048 9.74841Z" fill="#5A9BB8"/>
<path d="M16.2195 18.8588L16.7731 19.0327L16.0211 19.3565L15.2722 19.552L14.5202 19.8757L13.3969 20.169L13.3905 20.4254L11.8992 20.56L10.9648 20.7403L10.2255 20.5511L11.9088 20.1753L11.1696 19.9862L12.8561 19.4822L14.533 19.3628L16.2195 18.8588Z" fill="#B5CBDB"/>
<path d="M63.9854 12.7565L65.8415 12.9087L65.0924 13.1043L64.3467 13.1716L65.4603 13.2629L64.7118 13.4584L63.038 13.4496L63.0413 13.3214L61.1819 13.2973L60.2473 13.4776L59.5081 13.2885L58.948 13.371L57.6487 13.2644L58.0266 13.0385L59.3325 12.8886L63.0541 12.8086L63.9854 12.7565Z" fill="#39829F"/>
<path d="M24.4536 16.8367L25.1929 17.0258L25.1864 17.2822L23.6984 17.2886L23.5064 17.5298L21.8327 17.521L21.8263 17.7774L20.3382 17.7838L17.1636 18.2942L16.7956 18.1355L17.5476 17.8118L21.2822 17.2189L24.4536 16.8367Z" fill="#7EABC4"/>
<path d="M80.1876 11.9018L80.5588 11.9323L80.5521 12.1887L83.3429 12.1607L83.7014 12.704L82.2132 12.7103L79.8003 12.5124L79.6114 12.6254L78.6833 12.5492L78.69 12.2928L77.5763 12.2015L77.0195 12.1558L76.4693 11.8537L76.8433 11.7559L78.1425 11.8625L78.1365 12.1189L79.9986 12.0148L80.1876 11.9018Z" fill="#5A9BB8"/>
<path d="M26.3476 22.9019L27.0869 23.091L23.7235 23.7144L20.1745 24.3226L19.432 24.2617L19.4256 24.5181L20.3601 24.3378L21.0993 24.5269L18.856 24.9852L18.1168 24.7961L19.0576 24.3594L19.4384 24.0052L24.8532 23.1647L26.3476 22.9019Z" fill="#5A9BB8"/>
<path d="M68.6786 25.8608L69.9779 25.9674L69.6006 26.1934L65.8691 26.6581L64.3748 26.9209L63.8208 26.747L64.3842 26.5363L63.6418 26.4754L63.6484 26.219L67.3766 25.8825L68.6786 25.8608Z" fill="#5A9BB8"/>
<path d="M20.5837 30.2659L21.1373 30.4398L17.5819 31.3044L15.8922 31.9366L15.8857 32.193L14.9577 32.1169L15.1657 31.2347L14.2281 31.5432L13.8569 31.5127L13.8633 31.2563L15.5434 31.0087L16.4682 31.213L18.9036 30.5135L20.5837 30.2659Z" fill="#5A9BB8"/>
<path d="M93.3487 28.5269L94.8335 28.6488L94.0845 28.8443L91.4766 29.0157L94.0812 28.9725L93.5116 29.4396L90.353 29.309L89.9851 29.1503L88.3146 29.0133L88.5068 28.7721L92.7885 28.6095L93.3487 28.5269Z" fill="#39829F"/>
<path d="M77.7575 27.2477L78.1254 27.4063L77.1912 27.5866L71.9715 28.0577L72.3367 28.3446L69.1681 28.5986L68.429 28.4095L69.3636 28.2292L68.6245 28.0401L76.6405 27.2845L77.7575 27.2477Z" fill="#5A9BB8"/>
<path d="M17.3481 33.2117L17.7161 33.3704L17.7065 33.755L15.4567 34.4698L14.151 34.6196L13.031 34.7847L12.6662 34.4978L13.415 34.3023L13.9847 33.8351L14.5383 34.009L14.3463 34.2502L15.0919 34.1829L14.9159 33.783L16.0392 33.4898L16.596 33.5354L16.6024 33.279L17.3481 33.2117Z" fill="#39829F"/>
<path d="M84.5996 28.8368L85.3388 29.0259L83.6583 29.2735L85.5211 29.1694L86.8203 29.2759L86.4425 29.5019L85.6967 29.5692L85.505 29.8104L83.6423 29.9146L82.343 29.808L81.7928 29.5059L82.9098 29.469L82.9159 29.2126L82.3624 29.0387L84.5996 28.8368Z" fill="#5A9BB8"/>
<path d="M21.4058 34.5728L21.9594 34.7467L17.8375 35.9502L17.0823 36.4022L16.1478 36.5824L15.591 36.5368L15.4214 35.8805L16.9191 35.4895L17.0983 35.7611L19.3449 35.1746L21.4058 34.5728Z" fill="#5A9BB8"/>
<path d="M35.7392 34.0785L35.7296 34.4631L34.9743 34.915L33.4798 35.1779L32.9263 35.004L32.1806 35.0713L30.6861 35.3341L29.9469 35.145L34.6224 34.1153L35.7392 34.0785Z" fill="#39829F"/>
<path d="M57.6283 28.9365L58.5563 29.0126L58.179 29.2386L54.6331 29.7185L53.6955 30.027L52.025 29.89L52.0186 30.1464L52.3866 30.3051L52.0122 30.4028L51.2762 30.0855L49.5993 30.2049L49.9769 29.9789L53.8972 29.4012L57.6283 28.9365Z" fill="#7EABC4"/>
<path d="M81.5823 15.6134L84.1809 15.8266L84.1781 15.9548L81.0161 15.9523L76.3698 15.8281L74.3281 15.6606L74.7054 15.4346L78.4242 15.4827L81.5823 15.6134Z" fill="#7EABC4"/>
<path d="M33.5162 18.8647L34.2587 18.9256L34.0635 19.295L31.0777 19.6924L29.772 19.8423L29.2184 19.6684L27.5415 19.7877L28.1079 19.4488L33.5162 18.8647Z" fill="#39829F"/>
<path d="M87.2821 18.2652L89.1382 18.4175L88.946 18.6587L85.7812 18.7844L83.3683 18.5865L82.9938 18.6842L81.8834 18.4647L82.4463 18.2539L84.4947 18.165L86.9076 18.363L87.2821 18.2652Z" fill="#5A9BB8"/>
<path d="M82.3591 29.167L82.9159 29.2127L82.9098 29.4691L82.3464 29.6798L81.6006 29.7471L79.7385 29.8513L77.13 30.0227L75.828 30.0444L75.2805 29.6141L77.146 29.3817L77.5172 29.4121L77.5111 29.6686L81.7995 29.2495L82.3591 29.167Z" fill="#39829F"/>
<path d="M28.7098 17.7L29.2634 17.8738L27.7689 18.1367L26.8344 18.3169L27.0136 18.5886L24.5911 18.7753L22.1654 19.0902L22.159 19.3466L20.2997 19.3225L20.8629 19.1118L22.735 18.623L25.3496 18.1951L28.7098 17.7Z" fill="#5A9BB8"/>
<path d="M140.42 20.4405L146.359 20.9278L148.955 21.2692L148.392 21.4799L138.187 20.5142L138.189 20.386L140.42 20.4405Z" fill="#5A9BB8"/>
<path d="M91.9986 23.0203L92.1776 23.292L89.9409 23.4939L87.5213 23.5524L86.0365 23.4306L86.0304 23.687L84.9134 23.7238L83.2429 23.5868L83.992 23.3913L85.2973 23.2414L86.9711 23.2503L89.3934 23.0636L91.9986 23.0203Z" fill="#5A9BB8"/>
<path d="M26.5402 15.209L27.0971 15.2547L26.9018 15.6241L25.7818 15.7892L26.8986 15.7523L26.8922 16.0087L23.3464 16.4887L22.4184 16.4125L22.4248 16.1561L23.1704 16.0888L23.1769 15.8324L24.4857 15.5544L25.0426 15.6L25.049 15.3436L26.5402 15.209Z" fill="#5A9BB8"/>
<path d="M75.0894 14.9525L75.2689 15.2242L71.1789 15.1456L68.9455 15.2193L66.9005 15.18L65.23 15.043L65.7934 14.8322L71.0032 14.7457L75.0894 14.9525Z" fill="#5A9BB8"/>
<path d="M62.1166 13.1173L63.2303 13.2086L63.406 13.6085L61.9117 13.8713L58.932 14.0123L59.1276 13.6429L59.87 13.7038L59.8761 13.4474L61.1853 13.1693L62.1166 13.1173Z" fill="#5A9BB8"/>
<path d="M93.4061 26.2189L94.3342 26.295L93.7712 26.5058L89.3006 26.7814L87.9914 27.0594L86.875 27.0963L85.0123 27.2004L85.2073 26.831L89.8668 26.4424L92.1041 26.2405L93.4061 26.2189Z" fill="#5A9BB8"/>
<path d="M6.65356 29.5085L8.32404 29.6456L7.7576 29.9845L8.12556 30.1432L5.88223 30.6015L3.26128 31.2858L3.08209 31.0142L5.14624 30.2842L6.46154 29.7497L6.65356 29.5085Z" fill="#39829F"/>
<path d="M65.6653 12.509L66.0365 12.5395L65.8415 12.9089L63.0507 12.9369L58.5834 13.0843L57.0952 13.0907L57.1052 12.7061L57.6647 12.6235L62.8717 12.6653L65.6653 12.509Z" fill="#5A9BB8"/>
<path d="M82.3 9.24878L84.156 9.40105L83.5926 9.61179L81.9221 9.47475L81.916 9.73117L80.2422 9.72234L79.8743 9.56367L77.6404 9.63737L77.2659 9.73513L73.7332 9.70224L74.1105 9.47627L79.5092 9.2768L82.3 9.24878Z" fill="#5A9BB8"/>
<path d="M74.9093 29.5837L76.0196 29.8033L75.6357 30.2857L71.9042 30.7504L71.7252 30.4788L71.1717 30.3049L73.9718 29.8922L74.7143 29.9531L74.9093 29.5837Z" fill="#5A9BB8"/>
<path d="M113.801 21.3403L115.472 21.4773L115.648 21.8772L115.277 21.8467L115.27 22.1031L114.716 21.9293L114.909 21.6881L113.977 21.7401L110.262 21.5638L108.217 21.5245L107.852 21.2377L110.272 21.1792L113.801 21.3403Z" fill="#5A9BB8"/>
<path d="M124.097 11.2642L130.779 11.8124L130.775 11.9406L125.943 11.8011L120.932 11.39L121.681 11.1945L124.097 11.2642Z" fill="#39829F"/>
<path d="M101.917 13.1705L107.299 13.6121L106.921 13.8381L101.161 13.6224L99.6798 13.3724L99.6859 13.116L101.917 13.1705Z" fill="#5A9BB8"/>
<path d="M74.3491 29.6663L74.7204 29.6967L74.7143 29.9531L71.1684 30.4331L66.6878 31.0933L65.9487 30.9042L67.0723 30.6109L72.298 29.8834L74.3491 29.6663Z" fill="#39829F"/>
<path d="M147.524 18.9679L153.093 19.4247L153.272 19.6963L151.23 19.5288L152.712 19.7788L152.709 19.9071L149.739 19.6634L147.329 19.3373L147.524 18.9679Z" fill="#39829F"/>
<path d="M112.162 27.3726L113.09 27.4487L112.716 27.5465L112.514 28.1723L112.879 28.4592L112.133 28.5265L109.903 28.4719L105.989 28.7932L105.25 28.6041L110.655 28.1482L110.661 27.8918L112.153 27.7572L112.162 27.3726Z" fill="#5A9BB8"/>
<path d="M39.8841 24.5259L41.1834 24.6325L40.8057 24.8585L39.1289 24.9778L40.2393 25.1974L39.4904 25.3929L37.8136 25.5123L36.6935 25.6774L35.7655 25.6012L36.3287 25.3905L37.0744 25.3232L37.084 24.9386L39.8841 24.5259Z" fill="#5A9BB8"/>
<path d="M140.478 18.1328L144.747 18.483L144.555 18.7242L146.407 19.0047L146.404 19.1329L140.651 18.6609L140.478 18.1328Z" fill="#5A9BB8"/>
<path d="M13.9243 28.8204L14.4779 28.9943L13.7258 29.318L14.4715 29.2507L14.4651 29.5071L15.5819 29.4703L15.5755 29.7267L16.1291 29.9006L14.2666 30.0048L13.713 29.8309L12.0393 29.822L12.0329 30.0785L11.6649 29.9198L12.609 29.3549L13.5498 28.9182L13.9243 28.8204Z" fill="#5A9BB8"/>
<path d="M142.535 25.1108L142.906 25.1412L142.708 25.6389L141.034 25.63L137.872 25.6276L136.573 25.521L137.14 25.1821L142.535 25.1108Z" fill="#5A9BB8"/>
<path d="M93.3686 20.306L95.039 20.443L94.2834 20.895L91.4931 20.923L91.3042 21.036L90.0016 21.0576L90.3795 20.8316L89.6437 20.5143L93.3686 20.306Z" fill="#5A9BB8"/>
<path d="M53.9993 32.7501L54.7418 32.811L54.9178 33.2109L54.3577 33.2934L54.1657 33.5346L53.0424 33.8279L50.2583 33.5995L49.7079 33.2974L51.388 33.0498L51.196 33.291L52.8729 33.1716L53.8041 33.1195L53.2537 32.8174L53.9993 32.7501Z" fill="#39829F"/>
<path d="M76.1925 30.3314L77.1206 30.4076L76.9284 30.6488L73.9426 31.0462L72.8195 31.3395L71.3314 31.3459L71.3413 30.9612L73.2068 30.7289L76.1925 30.3314Z" fill="#39829F"/>
<path d="M83.6948 12.9605L85.1797 13.0823L85.1736 13.3388L79.5921 13.3948L78.4784 13.3034L79.0485 12.8363L80.3511 12.8147L82.3922 12.9822L83.6948 12.9605Z" fill="#5A9BB8"/>
<path d="M11.022 25.8838L11.3868 26.1706L11.0123 26.2684L12.1259 26.3598L11.5595 26.6987L10.065 26.9615L9.13057 27.1418L8.38813 27.0809L8.3946 26.8245L8.02979 26.5376L8.77863 26.3421L8.77222 26.5985L10.4587 26.0945L11.022 25.8838Z" fill="#7EABC4"/>
<path d="M157.73 19.9333L158.654 20.1376L166.997 21.2076L167.362 21.4944L159.573 20.5984L157.163 20.2723L157.73 19.9333Z" fill="#5A9BB8"/>
<path d="M32.2427 17.7325L32.9819 17.9216L32.7835 18.4193L28.3033 19.0795L27.7496 18.9056L29.6217 18.4168L31.6731 18.1997L32.4155 18.2606L32.4219 18.0042L30.3706 18.2213L29.817 18.0474L32.2427 17.7325Z" fill="#5A9BB8"/>
<path d="M83.8544 21.4529L85.1537 21.5594L84.7758 21.7854L83.0959 22.033L82.1646 22.0851L78.9899 22.5955L77.3161 22.5866L77.3227 22.3302L81.2399 21.8807L83.8544 21.4529Z" fill="#5A9BB8"/>
<path d="M39.1487 16.7574L39.7023 16.9312L39.3279 17.029L40.6239 17.2638L40.0607 17.4745L37.8238 17.6764L36.5245 17.5699L35.0364 17.5763L35.5997 17.3655L39.1487 16.7574Z" fill="#5A9BB8"/>
<path d="M55.7225 15.9329L56.6505 16.0091L56.6439 16.2655L53.2901 16.5042L52.3653 16.2999L49.0147 16.4104L49.0211 16.154L52.9317 15.9609L53.8566 16.1653L54.6054 15.9698L55.7225 15.9329Z" fill="#5A9BB8"/>
<path d="M19.7423 26.7278L20.2959 26.9017L16.3725 27.6076L13.3739 28.5179L12.0682 28.6677L12.6347 28.3288L14.8812 27.7422L14.8908 27.3576L15.8221 27.3055L17.1309 27.0275L19.7423 26.7278Z" fill="#5A9BB8"/>
<path d="M80.6952 28.7736L81.2487 28.9475L80.6858 29.1583L80.4902 29.5277L78.0679 29.7144L77.5111 29.6687L77.5172 29.4123L76.2151 29.4339L76.9637 29.2384L79.5749 28.9387L80.6952 28.7736Z" fill="#5A9BB8"/>
<path d="M138.398 12.0522L139.512 12.1436L139.508 12.2718L145.442 13.0155L145.621 13.2871L140.795 12.8912L138.574 12.4521L138.398 12.0522Z" fill="#5A9BB8"/>
<path d="M41.4744 27.8685L42.5848 28.0881L43.3144 28.6619L41.4519 28.766L40.7063 28.8333L40.7127 28.5769L39.9735 28.3878L40.9079 28.2075L39.6022 28.3573L38.6742 28.2812L38.8662 28.04L41.4744 27.8685Z" fill="#5A9BB8"/>
<path d="M131.709 26.6633L133.751 26.8308L134.49 27.0199L138.384 27.4679L137.632 27.7916L131.885 27.0632L130.218 26.7979L130.221 26.6697L131.709 26.6633Z" fill="#7EABC4"/>
<path d="M26.3354 15.963L26.7066 15.9934L26.5017 16.7474L25.5705 16.7995L25.3784 17.0407L23.708 16.9037L24.0888 16.5495L23.1576 16.6016L23.3496 16.3604L26.3354 15.963Z" fill="#39829F"/>
<path d="M107.395 9.76633L108.509 9.8577L108.317 10.0988L107.757 10.1814L104.038 10.1333L104.035 10.2615L102.739 10.0267L102.746 9.77029L102.007 9.58118L107.395 9.76633Z" fill="#39829F"/>
<path d="M34.9492 28.4896L35.6916 28.5505L35.6852 28.8069L34.3795 28.9568L33.0706 29.2348L31.0257 29.1955L29.9057 29.3606L29.1665 29.1715L31.0354 28.8109L34.9492 28.4896Z" fill="#5A9BB8"/>
<path d="M122.512 15.1174L127.517 15.7849L127.514 15.9131L123.796 15.865L120.083 15.5605L120.087 15.4323L122.32 15.3586L122.512 15.1174Z" fill="#5A9BB8"/>
<path d="M54.5888 24.0625L55.1456 24.1082L55.1392 24.3646L52.9023 24.5665L47.5101 24.5096L47.8877 24.2836L51.7983 24.0905L52.3551 24.1362L54.5888 24.0625Z" fill="#5A9BB8"/>
<path d="M94.7159 18.4893L96.7576 18.6568L97.8679 18.8764L97.8646 19.0046L93.9635 18.8131L90.7987 18.9388L90.0596 18.7497L89.5061 18.5758L89.6978 18.3346L92.2963 18.5478L94.7159 18.4893Z" fill="#5A9BB8"/>
<path d="M78.8242 14.3596L80.8659 14.5271L80.1168 14.7227L73.7934 14.7178L73.4222 14.6873L73.4288 14.4309L74.1712 14.4918L74.1773 14.2354L76.0334 14.3877L78.8242 14.3596Z" fill="#5A9BB8"/>
<path d="M20.2761 35.1224L20.6473 35.1529L20.6409 35.4093L19.1432 35.8003L20.6345 35.6657L21.5689 35.4855L21.5625 35.7419L20.6248 36.0504L19.1304 36.3132L17.4631 36.0479L18.404 35.6112L20.2761 35.1224Z" fill="#39829F"/>
<path d="M30.891 34.58L31.6334 34.6409L31.627 34.8973L29.9469 35.1449L29.7517 35.5143L28.4428 35.7924L27.5083 35.9727L26.9548 35.7988L27.5212 35.4598L28.8269 35.31L28.8333 35.0536L30.891 34.58Z" fill="#7EABC4"/>
<path d="M35.7597 18.4067L36.1277 18.5654L34.2588 18.926L29.2249 19.4123L28.6713 19.2384L29.6089 18.9299L34.454 18.5566L35.7597 18.4067Z" fill="#5A9BB8"/>
<path d="M96.7161 12.8724L99.6858 13.116L99.1196 13.455L95.2218 13.1352L92.9912 13.0807L93.1835 12.8395L96.7161 12.8724Z" fill="#5A9BB8"/>
<path d="M34.7385 22.0485L35.4777 22.2376L33.2344 22.6959L30.2486 23.0933L28.3861 23.1975L28.7637 22.9715L33.4328 22.1983L34.7385 22.0485Z" fill="#5A9BB8"/>
<path d="M129.818 20.4702L130.561 20.5311L130.554 20.7875L131.107 20.9614L128.877 20.9069L128.503 21.0047L124.791 20.7001L124.982 20.4589L128.138 20.7178L128.144 20.4614L129.818 20.4702Z" fill="#5A9BB8"/>
<path d="M182.195 23.3539L187.392 23.7802L187.385 24.0366L183.481 23.9733L181.439 23.8058L182.195 23.3539Z" fill="#39829F"/>
<path d="M69.6139 18.229L71.0988 18.3509L70.9065 18.5921L68.6698 18.794L65.8857 18.5656L65.7067 18.2939L67.7545 18.205L69.6139 18.229Z" fill="#7EABC4"/>
<path d="M122.765 19.8913L126.291 20.1806L126.656 20.4675L124.058 20.2543L119.597 20.1453L118.301 19.9105L119.049 19.715L122.765 19.8913Z" fill="#5A9BB8"/>
<path d="M80.293 15.1227L80.8465 15.2966L84.7443 15.6164L83.9953 15.8119L78.4209 15.6115L76.936 15.4897L77.1283 15.2485L80.2864 15.3791L80.293 15.1227Z" fill="#39829F"/>
<path d="M36.7667 30.1799L37.1348 30.3386L36.3763 30.9187L33.7618 31.3466L33.2081 31.1727L33.5793 31.2032L33.589 30.8185L36.7667 30.1799Z" fill="#5A9BB8"/>
<path d="M22.9041 26.7305L23.2752 26.7609L23.2624 27.2738L21.3967 27.5061L18.5934 28.047L17.8541 27.8579L20.0975 27.3995L21.9696 26.9107L22.9041 26.7305Z" fill="#5A9BB8"/>
<path d="M175.519 22.5493L178.86 22.8234L182.195 23.3539L182.191 23.4821L177.551 23.1014L175.513 22.8057L175.519 22.5493Z" fill="#39829F"/>
<path d="M138.235 18.5912L140.647 18.7892L140.641 19.0456L138.97 18.9085L137.668 18.9302L133.77 18.6104L133.405 18.3235L138.235 18.5912Z" fill="#5A9BB8"/>
<path d="M62.4801 28.3071L63.776 28.5419L63.027 28.7374L61.3504 28.8568L61.3438 29.1132L59.4844 29.0891L58.5563 29.013L58.9342 28.787L62.1056 28.4048L62.4801 28.3071Z" fill="#5A9BB8"/>
<path d="M21.6663 16.7365L22.4055 16.9256L17.5509 17.6835L15.8708 17.9312L15.8643 18.1875L15.3107 18.0137L16.6292 17.351L20.5462 16.9015L21.6663 16.7365Z" fill="#5A9BB8"/>
<path d="M47.7187 16.1758L48.6467 16.2519L48.0835 16.4627L43.7953 16.8817L41.184 17.1814L40.6335 16.8793L46.7875 16.2279L47.7187 16.1758Z" fill="#5A9BB8"/>
<path d="M162.527 21.4832L164.568 21.6507L165.493 21.8551L165.49 21.9833L163.445 21.944L164.926 22.194L164.178 22.3895L161.397 22.0329L161.403 21.7765L161.039 21.4896L162.527 21.4832Z" fill="#39829F"/>
<path d="M8.76955 19.2759L9.14077 19.3064L9.13436 19.5628L8.76314 19.5324L8.37911 20.0148L7.44145 20.3232L5.95337 20.3296L5.59497 19.7863L6.52302 19.8625L8.76955 19.2759Z" fill="#5A9BB8"/>
<path d="M40.7068 21.3818L41.8204 21.4732L41.2572 21.6839L37.9002 22.0509L36.4089 22.1855L35.6665 22.1246L35.673 21.8682L40.7068 21.3818Z" fill="#5A9BB8"/>
<path d="M101.33 21.7302L101.884 21.9041L99.2727 22.2038L96.1107 22.2013L96.114 22.0731L95.0037 21.8536L95.7522 21.658L98.3507 21.8712L101.33 21.7302Z" fill="#5A9BB8"/>
<path d="M12.3699 16.6165L12.9235 16.7904L12.5523 16.76L12.5459 17.0164L11.797 17.2119L10.8658 17.264L8.99689 17.6245L7.88324 17.5332L8.26087 17.3072L11.9955 16.7143L12.3699 16.6165ZM11.4258 17.1814L11.7938 17.3401L11.2274 17.679L10.4817 17.7463L10.4914 17.3617L11.4258 17.1814Z" fill="#39829F"/>
<path d="M138.973 26.2315L139.709 26.5488L139.149 26.6313L135.805 26.4855L134.502 26.5071L132.646 26.3548L132.839 26.1136L136.186 26.1313L138.973 26.2315Z" fill="#7EABC4"/>
<path d="M55.7739 13.882L56.1418 14.0407L56.1351 14.2971L52.2182 14.7466L51.6614 14.7009L51.4822 14.4293L50.3654 14.4661L51.1174 14.1424L52.7878 14.2794L55.7739 13.882Z" fill="#5A9BB8"/>
<path d="M106.454 17.6542L107.753 17.7607L107.932 18.0324L105.699 18.1061L104.214 17.9843L101.983 17.9298L100.687 17.695L100.691 17.5668L105.337 17.691L106.454 17.6542Z" fill="#5A9BB8"/>
<path d="M93.289 8.60893L95.702 8.80688L95.5103 9.04807L93.6476 9.15222L91.2313 9.08248L91.6158 8.6001L93.289 8.60893Z" fill="#39829F"/>
<path d="M32.4432 32.0098L32.8112 32.1685L30.5647 32.755L27.2013 33.3784L26.27 33.4305L26.8365 33.0915L28.8942 32.618L31.1344 32.2879L32.4432 32.0098Z" fill="#5A9BB8"/>
<path d="M76.4428 20.3306L77.3708 20.4068L77.3642 20.6632L71.9628 20.9909L71.2236 20.8018L72.1578 20.6215L76.4428 20.3306Z" fill="#39829F"/>
<path d="M159.253 25.9682L163.707 26.3336L164.632 26.538L164.629 26.6662L160.913 26.4899L157.758 26.231L157.579 25.9594L159.253 25.9682Z" fill="#39829F"/>
<path d="M73.0963 12.8621L73.4642 13.0208L73.272 13.262L74.9491 13.1426L76.6196 13.2796L76.4273 13.5208L72.3378 13.4423L70.6674 13.3052L71.2303 13.0945L73.0963 12.8621Z" fill="#5A9BB8"/>
<path d="M61.1068 31.1493L61.8459 31.3384L56.8058 32.0812L56.2523 31.9073L56.6301 31.6813L59.4303 31.2687L61.1068 31.1493Z" fill="#39829F"/>
<path d="M84.7637 14.8467L85.1316 15.0054L84.0113 15.1704L82.5237 15.1768L84.3765 15.4573L84.3731 15.5855L82.6994 15.5767L80.6577 15.4092L80.8565 14.9116L84.7637 14.8467Z" fill="#5A9BB8"/>
<path d="M65.6973 11.2272L66.2509 11.4011L65.5023 11.5966L65.1245 11.8226L65.1311 11.5661L63.8219 11.8442L61.7775 11.8049L61.5885 11.9179L59.3579 11.8634L59.7358 11.6374L60.8555 11.4723L64.0175 11.4748L65.6973 11.2272Z" fill="#5A9BB8"/>
<path d="M107.978 8.78602L108.714 9.10334L103.322 9.04639L102.211 8.82682L102.214 8.69861L105.376 8.70105L107.978 8.78602Z" fill="#39829F"/>
<path d="M87.7456 22.0291L88.4847 22.2182L88.4786 22.4746L83.6335 22.848L82.3309 22.8696L82.7087 22.6436L87.371 22.1268L87.7389 22.2855L87.7456 22.0291Z" fill="#5A9BB8"/>
<path d="M39.093 33.8397L39.6466 34.0136L39.6338 34.5264L38.8849 34.7219L38.6929 34.9631L39.0609 35.1218L38.8689 35.363L37.7552 35.2716L37.3904 34.9847L37.5889 34.4871L38.5201 34.435L38.5265 34.1786L38.1585 34.02L38.9041 33.9527L39.093 33.8397Z" fill="#5A9BB8"/>
<path d="M55.8402 26.0922L56.2114 26.1226L56.387 26.5225L51.9165 26.7981L50.9885 26.722L51.1805 26.4808L52.8574 26.3614L53.5997 26.4223L53.6062 26.1659L54.723 26.129L55.8335 26.3486L55.8402 26.0922Z" fill="#7EABC4"/>
<path d="M91.4926 28.3745L92.7885 28.6093L92.7852 28.7375L87.5721 28.9522L85.5276 28.9129L86.2762 28.7174L91.4926 28.3745Z" fill="#5A9BB8"/>
<path d="M119.379 21.4125L120.307 21.4887L120.486 21.7603L118.623 21.8645L115.468 21.6056L115.66 21.3644L119.379 21.4125Z" fill="#5A9BB8"/>
<path d="M155.797 22.858L158.21 23.0559L158.008 23.6817L154.67 23.2794L155.422 22.9557L155.797 22.858Z" fill="#39829F"/>
<path d="M92.319 17.6509L93.9895 17.7879L94.1685 18.0596L91.1926 18.0724L88.2229 17.8288L88.2262 17.7005L92.319 17.6509Z" fill="#7EABC4"/>
<path d="M143.704 15.5708L147.231 15.8601L148.527 16.0949L148.523 16.2231L149.448 16.4275L149.445 16.5557L147.217 16.3729L144.069 15.8577L143.704 15.5708Z" fill="#5A9BB8"/>
<path d="M64.4638 30.7825L65.3885 30.9869L65.7536 31.2737L65.747 31.5301L64.4444 31.5518L63.7086 31.2344L62.0315 31.3538L61.8525 31.0822L64.4638 30.7825Z" fill="#39829F"/>
<path d="M155.617 22.5864L157.844 22.7691L159.14 23.0039L159.88 23.1931L161.365 23.3149L160.802 23.5256L157.461 23.2515L157.464 23.1233L155.611 22.8428L155.617 22.5864Z" fill="#5A9BB8"/>
<path d="M37.613 11.2356L38.7235 11.4552L38.1634 11.5377L38.157 11.7942L35.5489 11.9656L34.9921 11.9199L35.0017 11.5353L37.613 11.2356Z" fill="#5A9BB8"/>
<path d="M49.8721 19.3073L51.1714 19.4139L50.7938 19.6397L49.6737 19.8048L46.5087 19.9307L46.704 19.5613L48.5696 19.3288L49.8721 19.3073Z" fill="#5A9BB8"/>
<path d="M134.542 17.5172L138.996 17.8826L140.478 18.1326L140.475 18.2609L136.573 18.0693L134.349 17.7584L134.542 17.5172Z" fill="#5A9BB8"/>
<path d="M138.596 11.555L139.71 11.6463L139.147 11.8571L136.356 11.8851L133.947 11.5589L133.953 11.3025L138.596 11.555Z" fill="#39829F"/>
<path d="M62.5884 31.3995L62.7679 31.6711L61.6476 31.8362L61.6382 32.2208L60.518 32.3859L59.4043 32.2945L59.6026 31.7969L62.5884 31.3995Z" fill="#39829F"/>
<path d="M45.7273 28.86L46.6553 28.9361L46.4568 29.4337L45.3368 29.5988L44.412 29.3944L44.2167 29.7638L43.4711 29.8311L43.4839 29.3183L45.7273 28.86Z" fill="#5A9BB8"/>
<path d="M8.60263 25.9421L9.33866 26.2594L8.21539 26.5527L8.58015 26.8396L8.02012 26.9221L7.63608 27.4045L6.89044 27.4718L7.65216 26.7635L6.90652 26.8308L7.47936 26.2354L8.60263 25.9421Z" fill="#39829F"/>
<path d="M47.0495 20.6171L48.5343 20.7389L47.7855 20.9345L43.6829 21.3687L43.1261 21.323L43.3213 20.9536L47.0495 20.6171Z" fill="#5A9BB8"/>
<path d="M33.3429 25.7878L34.0821 25.9769L31.282 26.3895L29.2371 26.3502L29.0418 26.7196L27.925 26.7565L28.3027 26.5305L27.9347 26.3719L28.8691 26.1916L32.0373 25.9376L33.3429 25.7878Z" fill="#5A9BB8"/>
<path d="M53.7634 19.8832L54.1314 20.0418L53.5682 20.2526L49.8432 20.4609L47.9839 20.4368L47.9904 20.1804L50.4097 20.1219L51.1521 20.1828L51.1585 19.9264L52.8322 19.9352L53.7634 19.8832Z" fill="#5A9BB8"/>
<path d="M175.349 21.8928L178.316 22.2647L178.124 22.5059L176.821 22.5275L176.818 22.6557L174.776 22.4882L174.975 21.9906L175.349 21.8928Z" fill="#5A9BB8"/>
<path d="M8.89685 29.05L9.62321 29.7521L9.6168 30.0084L7.75431 30.1126L7.38629 29.9539L7.76392 29.7279L7.39596 29.5693L8.33682 29.1327L8.89685 29.05Z" fill="#7EABC4"/>
<path d="M63.3408 31.0758L64.8223 31.3258L64.8129 31.7104L63.1325 31.958L61.6416 32.0926L61.0908 31.7905L62.7679 31.6712L62.9629 31.3018L63.3342 31.3322L63.3408 31.0758Z" fill="#5A9BB8"/>
<path d="M92.3344 24.4613L93.0735 24.6504L92.1394 24.8307L88.7885 24.9412L88.2256 25.152L86.5551 25.0149L86.7468 24.7737L88.4239 24.6544L92.3344 24.4613Z" fill="#5A9BB8"/>
<path d="M48.4953 29.7291L48.8665 29.7596L48.8601 30.016L45.3143 30.4959L44.2007 30.4046L44.9527 30.0809L46.6328 29.8333L48.4953 29.7291Z" fill="#7EABC4"/>
<path d="M134.243 21.9893L135.914 22.1264L136.093 22.398L134.791 22.4196L134.234 22.374L134.227 22.6304L133.299 22.5542L132.375 22.3499L131.264 22.1303L131.268 22.0021L134.055 22.1023L134.243 21.9893Z" fill="#7EABC4"/>
<path d="M65.0958 12.9764L65.8382 13.0373L65.8316 13.2937L67.1341 13.2721L67.1275 13.5285L64.5196 13.7L63.4059 13.6086L63.5982 13.3674L64.3434 13.3001L63.6043 13.111L65.0958 12.9764Z" fill="#5A9BB8"/>
<path d="M63.9854 12.7568L65.8415 12.909L65.0925 13.1045L64.3467 13.1718L65.4604 13.2632L64.7118 13.4587L63.0381 13.4499L63.0414 13.3217L62.1166 13.1173L62.3083 12.8761L63.9854 12.7568Z" fill="#39829F"/>
<path d="M134.465 13.143L135.207 13.2039L135.384 13.6038L130.558 13.2079L130.564 12.9515L134.465 13.143Z" fill="#5A9BB8"/>
<path d="M80.5703 26.3221L81.1244 26.496L80.7532 26.4656L80.7466 26.722L79.0694 26.8413L78.8838 26.8261L77.7641 26.9912L76.8361 26.915L77.2134 26.6891L77.5818 26.8477L77.5879 26.5913L78.1447 26.637L78.1513 26.3806L80.5703 26.3221Z" fill="#5A9BB8"/>
<path d="M31.2376 20.7334L31.9769 20.9225L29.3623 21.3504L28.4279 21.5307L27.1286 21.4241L27.6951 21.0852L31.2376 20.7334Z" fill="#5A9BB8"/>
<path d="M43.0871 30.3135L44.2007 30.4049L44.1943 30.6613L40.4661 30.9978L39.7173 31.1933L38.978 31.0042L41.407 30.5611L43.0871 30.3135Z" fill="#5A9BB8"/>
<path d="M67.1297 28.3029L68.4257 28.5377L68.4229 28.6659L64.3202 29.1002L63.7667 28.9263L65.4465 28.6787L65.6388 28.4375L65.8271 28.3245L67.1264 28.4311L67.1297 28.3029Z" fill="#5A9BB8"/>
<path d="M22.9335 18.1248L23.4903 18.1705L23.4839 18.4269L19.7461 19.1481L19.1924 18.9742L19.1989 18.7178L20.1334 18.5375L20.3222 18.4245L22.1847 18.3204L22.9335 18.1248Z" fill="#5A9BB8"/>
<path d="M22.6842 13.2227L23.0554 13.2531L22.8602 13.6226L19.5 14.1177L18.7543 14.185L18.764 13.8004L22.6842 13.2227Z" fill="#39829F"/>
<path d="M24.2508 32.3654L24.6221 32.3958L24.6157 32.6523L21.8123 33.1931L21.0699 33.1322L20.9003 32.4759L22.574 32.4848L21.8251 32.6803L22.3819 32.726L24.2508 32.3654Z" fill="#7EABC4"/>
<path d="M40.962 33.4792L41.5156 33.6531L41.6947 33.9248L41.1283 34.2637L39.4514 34.3831L39.2755 33.9832L39.6467 34.0137L39.6531 33.7573L40.962 33.4792Z" fill="#39829F"/>
<path d="M40.4891 22.6487L41.2283 22.8379L36.7513 23.3699L35.8232 23.2937L36.3897 22.9548L40.4891 22.6487Z" fill="#7EABC4"/>
<path d="M33.5066 19.2491L34.8026 19.4839L34.7994 19.6121L33.129 19.4751L32.937 19.7163L32.0057 19.7684L30.1368 20.1289L29.948 20.2419L29.02 20.1658L29.772 19.8421L32.2009 19.399L33.5066 19.2491Z" fill="#5A9BB8"/>
<path d="M31.7437 15.3794L32.4861 15.4403L32.4796 15.6968L29.1227 16.0637L27.6346 16.0701L28.1979 15.8594L31.7437 15.3794Z" fill="#5A9BB8"/>
<path d="M152.433 23.4814L156.513 23.9446L157.061 24.375L153.352 23.9422L152.43 23.6097L152.433 23.4814Z" fill="#5A9BB8"/>
<path d="M40.7234 13.2891L41.6515 13.3652L41.277 13.463L41.2706 13.7194L38.4769 13.8756L37.5424 14.0559L36.6144 13.9798L37.3664 13.6561L38.4865 13.491L40.5346 13.4021L40.7234 13.2891Z" fill="#5A9BB8"/>
<path d="M24.3819 34.5599L25.1211 34.749L25.678 34.7947L26.0459 34.9534L24.5482 35.3444L22.6857 35.4485L23.6298 34.8836L24.3819 34.5599Z" fill="#5A9BB8"/>
<path d="M16.3762 20.028L16.741 20.3149L15.9921 20.5104L15.0641 20.4342L15.0577 20.6907L14.1232 20.871L13.5664 20.8253L13.1952 20.7948L13.3969 20.169L14.5137 20.1322L14.5073 20.3886L16.3762 20.028Z" fill="#5A9BB8"/>
<path d="M41.584 16.0577L42.512 16.1339L42.3168 16.5033L41.3856 16.5553L41.2031 16.4119L37.8462 16.7789L37.2925 16.605L39.3471 16.2596L41.584 16.0577Z" fill="#5A9BB8"/>
<path d="M19.148 13.3179L19.7048 13.3636L19.6984 13.62L16.3382 14.1152L15.7814 14.0695L15.5894 14.3107L15.039 14.0086L16.7223 13.6328L19.148 13.3179Z" fill="#39829F"/>
<path d="M153.518 24.727L156.859 25.001L156.296 25.2118L153.508 25.1116L151.47 24.8159L151.473 24.6877L153.518 24.727Z" fill="#5A9BB8"/>
<path d="M78.9071 18.4771L80.5775 18.614L80.5709 18.8705L80.0141 18.8248L79.8224 19.066L79.4545 18.9074L79.4479 19.1637L79.0767 19.1333L79.0833 18.8769L78.1519 18.929L78.1486 19.0571L76.8527 18.8223L77.0443 18.5812L78.9071 18.4771Z" fill="#39829F"/>
<path d="M157.701 21.0873L162.527 21.4832L162.517 21.8678L156.952 21.2828L157.701 21.0873Z" fill="#5A9BB8"/>
<path d="M120.614 16.6315L122.656 16.799L123.392 17.1164L119.677 16.94L118.006 16.803L118.756 16.6075L120.614 16.6315Z" fill="#5A9BB8"/>
<path d="M62.7806 31.158L63.3341 31.3319L59.2253 32.0226L58.1083 32.0594L58.6746 31.7205L62.0349 31.2253L62.7806 31.158Z" fill="#5A9BB8"/>
<path d="M49.9647 23.0406L50.3327 23.1992L49.3982 23.3795L49.5774 23.6512L47.9005 23.7706L47.1581 23.7096L47.1645 23.4532L46.6109 23.2793L49.9647 23.0406Z" fill="#5A9BB8"/>
<path d="M146.41 26.3276L152.535 26.8301L152.157 27.0561L151.041 27.0929L146.407 26.4558L146.41 26.3276Z" fill="#7EABC4"/>
<path d="M107.875 12.8887L111.21 13.4192L111.206 13.5474L108.233 13.432L107.305 13.3558L107.123 13.2124L105.827 12.9776L105.83 12.8494L107.686 13.0017L107.875 12.8887Z" fill="#5A9BB8"/>
<path d="M101.772 26.3914L102.699 26.4675L103.253 26.6414L103.992 26.8305L102.315 26.9499L101.759 26.9042L101.765 26.6478L99.5285 26.8497L99.1633 26.5629L101.772 26.3914Z" fill="#5A9BB8"/>
<path d="M77.146 29.3818L77.5172 29.4122L77.5111 29.6686L78.0647 29.8425L76.756 30.1206L75.828 30.0444L75.2805 29.6141L77.146 29.3818Z" fill="#39829F"/>
<path d="M25.7304 17.8409L26.2872 17.8866L26.2808 18.143L23.4775 18.6838L22.3606 18.7207L22.927 18.3817L24.0439 18.3449L24.0503 18.0885L25.7304 17.8409Z" fill="#39829F"/>
<path d="M78.9971 14.8876L80.8532 15.0399L80.2931 15.1224L80.2864 15.3788L79.7263 15.4613L76.197 15.3002L76.7599 15.0895L78.9938 15.0158L78.9971 14.8876Z" fill="#5A9BB8"/>
<path d="M85.1095 8.45142L86.78 8.58846L86.2171 8.7992L84.3544 8.90335L82.4983 8.75108L82.6905 8.50989L85.1095 8.45142Z" fill="#39829F"/>
<path d="M8.43632 25.1581L8.98994 25.332L8.41704 25.9274L7.6682 26.1229L7.11137 26.0772L7.11783 25.8208L6.56421 25.6469L7.30665 25.7078L7.50187 25.3384L8.43632 25.1581Z" fill="#5A9BB8"/>
<path d="M9.33604 18.9363L9.88961 19.1102L9.50878 19.4643L8.39192 19.5012L6.51981 19.99L5.78058 19.8009L6.53268 19.4771L9.14723 19.0493L9.33604 18.9363Z" fill="#39829F"/>
<path d="M160.005 18.1931L164.456 18.6868L164.453 18.815L163.151 18.8366L159.996 18.5778L159.445 18.2757L160.005 18.1931Z" fill="#5A9BB8"/>
<path d="M124.292 10.8951L127.262 11.1387L126.888 11.2365L126.881 11.4929L124.097 11.2645L124.292 10.8951Z" fill="#7EABC4"/>
<path d="M81.0471 29.5734L83.6456 29.7866L83.4534 30.0278L81.7801 30.0189L80.8488 30.071L80.8422 30.3274L80.2853 30.2817L80.292 30.0253L79.7418 29.7232L81.0471 29.5734Z" fill="#5A9BB8"/>
<path d="M31.0167 22.1284L31.5703 22.3022L28.0181 23.0386L28.3829 23.3255L27.4517 23.3776L27.4581 23.1211L27.0933 22.8343L31.0167 22.1284Z" fill="#5A9BB8"/>
<path d="M151.441 25.9697L153.297 26.122L154.779 26.372L154.772 26.6284L152.171 26.5435L151.434 26.2261L151.441 25.9697Z" fill="#5A9BB8"/>
<path d="M89.0968 12.6328L89.6503 12.8067L89.4586 13.0479L89.8265 13.2066L89.8232 13.3348L87.0358 13.2346L87.7942 12.6544L89.0968 12.6328Z" fill="#39829F"/>
<path d="M46.9688 31.274L47.5223 31.4479L46.0247 31.8389L43.2277 32.1234L42.4885 31.9343L46.9688 31.274Z" fill="#7EABC4"/>
<path d="M77.4409 25.0378L77.8122 25.0683L77.8028 25.4529L75.7511 25.6701L73.7061 25.6308L73.7127 25.3743L75.7611 25.2854L77.4409 25.0378Z" fill="#5A9BB8"/>
<path d="M146.593 26.4713L149.562 26.7149L151.044 26.9649L151.041 27.0931L147.882 26.9625L146.401 26.7125L146.593 26.4713Z" fill="#39829F"/>
<path d="M47.3186 17.2992L47.6866 17.4579L46.9378 17.6534L46.7457 17.8946L45.8145 17.9466L44.5153 17.8401L44.5217 17.5836L45.2705 17.3881L47.3186 17.2992Z" fill="#5A9BB8"/>
<path d="M76.8433 11.756L78.1425 11.8626L78.1365 12.119L79.6247 12.1127L79.8003 12.5125L79.6114 12.6255L78.6833 12.5494L78.69 12.2929L77.5763 12.2016L77.0195 12.1559L76.4693 11.8538L76.8433 11.756Z" fill="#5A9BB8"/>
<path d="M119.052 27.038L119.977 27.2424L123.692 27.4187L122.943 27.6142L120.339 27.6575L119.411 27.5813L119.414 27.4531L118.118 27.2183L118.121 27.0901L119.052 27.038Z" fill="#5A9BB8"/>
<path d="M28.8253 13.0839L29.1966 13.1144L29.1901 13.3708L26.0187 13.753L25.4587 13.8355L24.9083 13.5334L27.7085 13.1208L28.8253 13.0839Z" fill="#5A9BB8"/>
<path d="M18.9197 29.8724L19.2876 30.0311L17.0411 30.6176L16.4746 30.9566L16.113 30.5415L16.1195 30.2851L18.9197 29.8724Z" fill="#5A9BB8"/>
<path d="M13.9243 28.8204L14.4779 28.9943L13.5402 29.3028L13.169 29.2723L13.3482 29.544L13.9018 29.7179L13.1529 29.9134L12.0393 29.822L12.0329 30.0785L11.6649 29.9198L12.609 29.3549L13.5498 28.9182L13.9243 28.8204Z" fill="#5A9BB8"/>
<path d="M26.8852 23.7166L27.6244 23.9057L27.0612 24.1164L24.2611 24.5291L23.333 24.4529L23.8962 24.2422L25.9508 23.8968L26.8852 23.7166Z" fill="#5A9BB8"/>
<path d="M26.5402 15.2091L27.097 15.2548L26.9018 15.6242L25.0361 15.8566L23.9161 16.0216L23.1768 15.8325L24.4857 15.5545L25.0425 15.6002L25.0489 15.3437L26.5402 15.2091Z" fill="#7EABC4"/>
<path d="M89.8485 12.3092L92.6327 12.5376L92.6266 12.794L91.1384 12.8004L90.7639 12.8981L89.6569 12.5504L89.8485 12.3092Z" fill="#5A9BB8"/>
<path d="M166.537 17.3154L169.135 17.5286L170.431 17.7634L170.61 18.035L168.568 17.8676L166.533 17.4436L166.537 17.3154Z" fill="#39829F"/>
<path d="M54.1437 26.9807L56.1854 27.1482L55.8075 27.3742L52.8253 27.6434L52.6461 27.3717L53.9549 27.0937L54.1437 26.9807Z" fill="#5A9BB8"/>
<path d="M15.384 22.5164L15.752 22.675L14.2511 23.1943L12.5678 23.5701L11.8318 23.2527L14.4463 22.8249L15.384 22.5164Z" fill="#5A9BB8"/>
<path d="M79.3385 23.5236L81.3802 23.6911L81.3741 23.9475L78.0265 23.9298L78.0331 23.6734L79.3385 23.5236Z" fill="#7EABC4"/>
<path d="M132.998 27.1549L135.782 27.3833L136.893 27.6028L136.33 27.8136L132.807 27.3961L132.998 27.1549Z" fill="#39829F"/>
<path d="M76.4107 21.6128L76.9642 21.7867L75.8412 22.08L74.9065 22.2603L72.308 22.0471L72.3113 21.9189L74.5419 21.9734L75.8506 21.6954L76.4107 21.6128Z" fill="#5A9BB8"/>
<path d="M59.8954 12.6782L60.6345 12.8673L58.0233 13.167L57.0952 13.0909L57.1052 12.7062L57.6647 12.6237L59.8954 12.6782Z" fill="#7EABC4"/>
<path d="M95.2252 13.0068L97.4492 13.3178L97.4458 13.446L96.1433 13.4676L92.9879 13.2087L93.5514 12.998L95.2252 13.0068Z" fill="#39829F"/>
<path d="M78.6248 29.7596L80.4808 29.9119L80.2853 30.2813L78.4264 30.2572L77.6868 30.0681L77.6934 29.8117L78.6248 29.7596Z" fill="#7EABC4"/>
<path d="M144.916 26.5905L147.886 26.8342L148.065 27.1058L145.092 26.9904L144.727 26.7035L144.916 26.5905Z" fill="#5A9BB8"/>
<path d="M58.9894 19.1558L59.9142 19.3602L59.1651 19.5557L58.2371 19.4796L56.9317 19.6294L55.8181 19.538L56.1959 19.3121L58.9894 19.1558Z" fill="#5A9BB8"/>
<path d="M32.3389 13.8864L32.7038 14.1733L31.0205 14.5491L29.158 14.6532L29.7244 14.3143L32.3389 13.8864Z" fill="#39829F"/>
<path d="M34.5694 13.9407L34.9375 14.0993L33.2542 14.4751L31.7597 14.738L31.0204 14.5488L31.9581 14.2403L34.5694 13.9407Z" fill="#5A9BB8"/>
<path d="M21.2041 35.1982L22.3145 35.4178L22.1225 35.659L20.82 35.6806L19.5111 35.9587L18.9575 35.7848L21.2041 35.1982Z" fill="#5A9BB8"/>
<path d="M37.4193 33.8308L38.1618 33.8917L38.1554 34.1481L37.4097 34.2154L37.0224 34.826L36.6512 34.7956L36.6577 34.5391L35.912 34.6065L36.1105 34.1088L37.4193 33.8308Z" fill="#39829F"/>
<path d="M2.08716 26.179L3.19438 26.5267L3.00235 26.7679L0.765442 26.9698L1.14949 26.4874L2.08716 26.179Z" fill="#39829F"/>
<path d="M93.5243 28.9266L94.0783 29.1005L93.5116 29.4395L90.7241 29.3393L90.9164 29.0981L93.5243 28.9266Z" fill="#39829F"/>
<path d="M12.2769 20.3344L13.3905 20.4257L13.0129 20.6517L10.2127 21.0643L9.66235 20.7622L11.3424 20.5147L12.2769 20.3344Z" fill="#5A9BB8"/>
<path d="M169.474 18.8413L172.258 19.0697L172.252 19.3261L172.62 19.4848L170.946 19.476L170.953 19.2195L169.468 19.0977L169.474 18.8413Z" fill="#5A9BB8"/>
<path d="M37.6306 32.8203L38.1874 32.866L38.181 33.1224L36.1265 33.4677L34.6352 33.6023L35.016 33.2482L37.6306 32.8203Z" fill="#39829F"/>
<path d="M4.5867 22.9154L4.9547 23.0741L4.38825 23.413L1.95611 23.9843L1.77692 23.7127L4.5867 22.9154Z" fill="#39829F"/>
<path d="M89.9883 29.0219L90.5418 29.1958L90.7214 29.4675L89.4188 29.489L87.0059 29.2912L87.3832 29.0652L89.9883 29.0219Z" fill="#5A9BB8"/>
<path d="M51.2741 15.3112L52.3877 15.4026L52.3845 15.5308L48.6563 15.8673L48.1027 15.6934L48.4803 15.4674L51.2741 15.3112Z" fill="#5A9BB8"/>
<path d="M123.52 19.4395L125.747 19.6222L125.555 19.8634L126.295 20.0525L126.292 20.1807L124.25 20.0132L123.514 19.6959L123.52 19.4395Z" fill="#39829F"/>
<path d="M50.6665 9.8656L51.5945 9.94173L51.0345 10.0243L51.0249 10.4089L48.7911 10.4826L49.5464 10.0307L50.6665 9.8656Z" fill="#5A9BB8"/>
<path d="M89.3305 10.7251L91.929 10.9383L93.4105 11.1883L93.4072 11.3165L92.2908 11.3534L90.2491 11.1859L89.3271 10.8533L89.3305 10.7251Z" fill="#7EABC4"/>
<path d="M29.2013 35.212L29.9405 35.4011L27.5084 35.9724L26.9548 35.7986L27.5212 35.4596L29.2013 35.212Z" fill="#39829F"/>
<path d="M6.65356 29.5085L8.32398 29.6455L7.75755 29.9845L8.12556 30.1431L6.81668 30.4212L6.26306 30.2473L6.63428 30.2777L6.46149 29.7497L6.65356 29.5085Z" fill="#5A9BB8"/>
<path d="M13.6301 25.7124L14.7437 25.8038L14.7373 26.0602L12.6796 26.5338L11.5692 26.3142L12.318 26.1187L13.0636 26.0514L13.6301 25.7124Z" fill="#5A9BB8"/>
<path d="M127.748 21.4564L128.304 21.5021L128.298 21.7585L127.738 21.8411L127.731 22.0975L124.948 21.8691L124.95 21.7409L126.624 21.7497L126.631 21.4933L127.748 21.4564Z" fill="#5A9BB8"/>
<path d="M51.5325 27.2803L52.8285 27.5151L52.4509 27.7411L50.214 27.943L49.4747 27.7538L51.5325 27.2803Z" fill="#7EABC4"/>
<path d="M10.7663 21.2383L11.5055 21.4274L9.07337 21.9987L9.06696 22.2551L8.69574 22.2247L8.89737 21.5989L9.46386 21.2599L9.64627 21.4034L10.7663 21.2383Z" fill="#39829F"/>
<path d="M21.7589 20.4697L22.1269 20.6283L22.3092 20.7718L23.0485 20.9609L21.7428 21.1107L20.8115 21.1628L20.4436 21.0041L19.89 20.8302L21.7589 20.4697Z" fill="#5A9BB8"/>
<path d="M96.5714 26.0933L97.6817 26.3129L98.0496 26.4716L97.8546 26.841L96.3698 26.7191L95.624 26.7864L95.6306 26.53L96.7504 26.365L96.5714 26.0933Z" fill="#5A9BB8"/>
<path d="M120.387 25.7346L120.758 25.7651L120.748 26.1497L118.329 26.2082L116.844 26.0864L116.848 25.9582L119.084 25.7562L120.387 25.7346Z" fill="#5A9BB8"/>
<path d="M77.852 8.62697L78.2232 8.65742L78.2165 8.91384L75.0518 9.03962L74.6833 8.88095L75.9926 8.60291L77.852 8.62697Z" fill="#5A9BB8"/>
<path d="M101.062 10.1459L102.176 10.2373L102.169 10.4937L100.307 10.5979L99.1931 10.5065L99.3853 10.2653L101.062 10.1459Z" fill="#5A9BB8"/>
<path d="M18.2505 34.3137L18.9897 34.5028L18.612 34.7288L17.86 35.0525L16.7496 34.8329L17.5048 34.381L18.2505 34.3137Z" fill="#5A9BB8"/>
<path d="M13.9847 33.8356L14.5383 34.0095L14.3463 34.2507L14.9063 34.1681L14.8999 34.4246L13.4022 34.8156L12.6662 34.4983L13.415 34.3027L13.9847 33.8356Z" fill="#5A9BB8"/>
<path d="M19.2491 31.5692L20.1772 31.6453L20.3564 31.917L18.4907 32.1493L17.5626 32.0732L18.3147 31.7495L19.2491 31.5692Z" fill="#7EABC4"/>
<path d="M71.1684 30.4329L71.7252 30.4786L71.7186 30.735L69.8498 31.0956L68.5505 30.989L68.9284 30.763L71.1684 30.4329Z" fill="#39829F"/>
<path d="M49.3212 26.4564L50.8028 26.7064L50.2396 26.9171L49.3083 26.9692L47.6379 26.8322L48.2011 26.6214L49.3212 26.4564Z" fill="#7EABC4"/>
<path d="M33.1766 25.0039L33.7302 25.1778L32.4182 25.584L30.7381 25.8316L30.1844 25.6577L31.4933 25.3797L33.1766 25.0039Z" fill="#5A9BB8"/>
<path d="M107.897 19.4425L109.567 19.5795L108.822 19.6468L108.816 19.9032L110.118 19.8816L109.555 20.0924L107.699 19.9401L107.897 19.4425Z" fill="#39829F"/>
<path d="M37.6242 33.0767L38.1778 33.2506L38.5426 33.5374L38.1714 33.507L38.165 33.7634L36.4881 33.8828L35.7424 33.9501L36.1233 33.5959L37.2433 33.4309L37.6242 33.0767Z" fill="#39829F"/>
<path d="M62.4801 28.3069L63.7761 28.5417L63.027 28.7372L61.7217 28.887L60.9825 28.6979L62.4801 28.3069Z" fill="#5A9BB8"/>
<path d="M29.918 36.2986L30.846 36.3748L30.094 36.6985L27.6618 37.2698L27.2938 37.1111L29.918 36.2986Z" fill="#39829F"/>
<path d="M34.4271 34.4846L35.5408 34.576L34.9743 34.9149L33.4798 35.1777L32.9262 35.0038L33.4862 34.9213L33.4926 34.6649L34.4271 34.4846Z" fill="#5A9BB8"/>
<path d="M57.5449 32.2701L57.9134 32.4288L57.9067 32.6852L56.5981 32.9632L55.3016 32.7285L55.865 32.5177L57.1709 32.3679L57.5388 32.5265L57.5449 32.2701Z" fill="#39829F"/>
<path d="M76.545 23.6797L77.6586 23.7711L77.652 24.0275L75.2297 24.2142L74.4872 24.1533L74.4939 23.8968L76.545 23.6797Z" fill="#5A9BB8"/>
<path d="M85.1117 23.226L86.0398 23.3021L86.0304 23.6868L84.9134 23.7236L83.2429 23.5866L83.992 23.3911L85.1117 23.226Z" fill="#7EABC4"/>
<path d="M35.7392 34.0782L35.7296 34.4628L34.0495 34.7104L33.3103 34.5213L34.6224 34.1151L35.7392 34.0782Z" fill="#39829F"/>
<path d="M38.1682 33.6354L38.7218 33.8093L37.0417 34.0569L36.1105 34.109L35.9088 34.7348L35.7328 34.335L36.1169 33.8526L36.8657 33.6571L38.1682 33.6354Z" fill="#5A9BB8"/>
<path d="M15.3578 30.9929L16.097 31.182L15.7129 31.6644L15.1561 31.6187L15.1657 31.2341L14.2281 31.5426L13.8569 31.5121L13.8633 31.2557L15.3578 30.9929Z" fill="#5A9BB8"/>
<path d="M52.0314 29.634L52.5883 29.6797L52.5819 29.9361L52.025 29.8904L52.0186 30.1468L52.3866 30.3055L52.0122 30.4032L51.2762 30.0859L49.5993 30.2053L49.9769 29.9793L52.0314 29.634Z" fill="#5A9BB8"/>
<path d="M51.1227 28.7881L52.7932 28.9251L52.4155 29.1511L51.2987 29.188L49.0682 29.1334L49.6314 28.9227L51.1227 28.7881Z" fill="#7EABC4"/>
<path d="M5.85386 24.3037L6.40749 24.4776L6.21862 24.5905L6.77224 24.7644L5.27456 25.1555L4.90656 24.9968L5.10821 24.371L5.85386 24.3037Z" fill="#5A9BB8"/>
<path d="M76.1925 30.3309L77.1206 30.407L76.9283 30.6482L75.4341 30.911L74.506 30.8349L74.8866 30.4807L76.1925 30.3309Z" fill="#39829F"/>
<path d="M58.6177 26.5771L58.9823 26.864L56.5566 27.1789L55.6319 26.9745L56.0097 26.7486L58.4287 26.6901L58.6177 26.5771Z" fill="#5A9BB8"/>
<path d="M33.8035 29.6801L34.5427 29.8692L32.485 30.3428L32.1138 30.3123L32.3122 29.8147L33.8035 29.6801Z" fill="#5A9BB8"/>
<path d="M30.2647 22.4523L30.6359 22.4828L30.4407 22.8522L28.3861 23.1975L27.8325 23.0237L29.7046 22.5349L30.2647 22.4523Z" fill="#39829F"/>
<path d="M10.2384 20.0387L10.9776 20.2278L9.4799 20.6188L7.99182 20.6252L8.1871 20.2558L9.67517 20.2494L10.2384 20.0387Z" fill="#7EABC4"/>
<path d="M12.3699 16.6161L12.9235 16.79L12.5523 16.7596L12.5459 17.016L11.797 17.2115L11.8066 16.8269L12.3699 16.6161ZM11.4258 17.181L11.7938 17.3397L11.2274 17.6787L10.4818 17.746L10.4914 17.3613L11.4258 17.181Z" fill="#5A9BB8"/>
<path d="M72.5903 18.2163L74.4464 18.3685L75.1822 18.6859L73.8796 18.7075L72.3947 18.5857L71.6589 18.2683L72.5903 18.2163Z" fill="#5A9BB8"/>
<path d="M37.3407 14.682L38.4544 14.7733L38.4479 15.0297L35.6574 15.0578L35.8494 14.8166L37.3407 14.682Z" fill="#5A9BB8"/>
<path d="M33.2846 35.5477L34.0239 35.7368L32.8974 36.1583L31.7773 36.3233L31.5981 36.0517L32.539 35.615L33.2846 35.5477Z" fill="#39829F"/>
<path d="M42.4853 32.0625L43.0389 32.2364L43.5893 32.5385L42.2836 32.6883L41.5412 32.6274L41.7365 32.258L42.4853 32.0625Z" fill="#5A9BB8"/>
<path d="M42.1237 31.6473L42.8662 31.7082L42.8597 31.9646L40.9941 32.197L40.4404 32.0231L41.3781 31.7146L42.1237 31.6473Z" fill="#39829F"/>
<path d="M116.259 27.1948L117.187 27.2709L117.173 27.7838L116.428 27.8511L115.317 27.6315L115.51 27.3903L116.259 27.1948Z" fill="#5A9BB8"/>
<path d="M87.7456 22.0286L88.4847 22.2178L88.4786 22.4742L86.9871 22.6088L86.0591 22.5326L86.4397 22.1785L87.3711 22.1264L87.739 22.2851L87.7456 22.0286Z" fill="#5A9BB8"/>
<path d="M108.784 21.1855L111.196 21.3835L111.193 21.5117L108.217 21.5245L107.852 21.2376L108.784 21.1855Z" fill="#7EABC4"/>
<path d="M106.582 19.9771L107.507 20.1814L107.129 20.4074L104.713 20.3376L104.905 20.0965L106.582 19.9771Z" fill="#5A9BB8"/>
<path d="M74.1773 14.2352L76.5875 14.5614L75.8384 14.7569L73.4222 14.6872L73.4288 14.4307L74.1712 14.4916L74.1773 14.2352Z" fill="#7EABC4"/>
<path d="M75.8992 12.3207L76.6389 12.5098L76.2676 12.4793L76.261 12.7358L77.9348 12.7446L77.3714 12.9553L75.6976 12.9465L75.144 12.7726L75.8898 12.7053L75.8992 12.3207Z" fill="#5A9BB8"/>
<path d="M2.77235 21.0959L3.14356 21.1264L3.13714 21.3828L0.330566 22.0518L0.525802 21.6824L1.83789 21.2762L2.77235 21.0959Z" fill="#5A9BB8"/>
<path d="M87.2589 26.6144L87.249 26.999L85.5691 27.2466L85.0123 27.2009L85.2078 26.8315L87.2589 26.6144Z" fill="#5A9BB8"/>
<path d="M112.162 27.3723L113.09 27.4484L112.716 27.5462L112.514 28.172L110.655 28.148L110.661 27.8915L112.153 27.7569L112.162 27.3723Z" fill="#39829F"/>
<path d="M20.7287 17.0449L21.2855 17.0906L21.279 17.347L19.2245 17.6924L18.671 17.5185L19.6086 17.21L20.7287 17.0449Z" fill="#39829F"/>
<path d="M101.164 28.3972L102.831 28.6625L103.01 28.9341L100.594 28.8644L100.786 28.6232L101.157 28.6537L101.164 28.3972Z" fill="#5A9BB8"/>
<path d="M34.3967 13.4126L35.3247 13.4887L34.7615 13.6995L32.8958 13.9318L32.3389 13.8862L32.3454 13.6297L34.3967 13.4126Z" fill="#5A9BB8"/>
<path d="M134.464 20.5944L137.249 20.8228L137.245 20.951L135.018 20.7683L135.012 21.0247L135.38 21.1834L134.08 21.0768L134.464 20.5944Z" fill="#5A9BB8"/>
<path d="M133.214 11.1129L134.513 11.2195L133.953 11.3021L133.947 11.5585L132.83 11.5953L131.905 11.391L131.908 11.2628L133.214 11.1129Z" fill="#5A9BB8"/>
<path d="M6.99905 30.5645L7.3638 30.8514L6.24053 31.1446L5.6773 31.3554L5.12048 31.3097L5.31572 30.9403L6.99905 30.5645Z" fill="#39829F"/>
<path d="M38.0468 31.0559L38.4116 31.3427L36.1682 31.8011L35.6146 31.6272L36.5523 31.3187L38.0468 31.0559Z" fill="#5A9BB8"/>
<path d="M74.9093 29.5837L76.0196 29.8032L75.6357 30.2856L74.522 30.1943L74.9093 29.5837Z" fill="#39829F"/>
<path d="M61.8018 25.6816L62.9154 25.773L62.352 25.9837L60.6754 26.1031L60.1153 26.1857L59.5651 25.8836L61.8018 25.6816Z" fill="#5A9BB8"/>
<path d="M18.9715 20.3695L19.8996 20.4456L19.8931 20.702L17.8418 20.9192L17.2882 20.7453L18.9715 20.3695Z" fill="#7EABC4"/>
<path d="M16.6292 17.3507L17.9285 17.4573L17.1764 17.781L15.8708 17.9309L15.8644 18.1873L15.3107 18.0134L16.6292 17.3507Z" fill="#5A9BB8"/>
<path d="M83.3777 18.2019L84.1201 18.2628L84.1135 18.5192L84.482 18.6779L83.3683 18.5865L82.9938 18.6843L81.8834 18.4647L82.4463 18.254L83.3777 18.2019Z" fill="#7EABC4"/>
<path d="M129.603 21.6086L131.082 21.9869L131.079 22.1151L129.962 22.1519L128.106 21.9997L128.483 21.7737L129.597 21.8651L129.603 21.6086Z" fill="#5A9BB8"/>
<path d="M132.413 20.8114L133.898 20.9332L133.703 21.3026L131.658 21.2633L131.85 21.0221L132.413 20.8114Z" fill="#5A9BB8"/>
<path d="M157.624 16.713L159.477 16.9935L159.282 17.3629L157.797 17.241L157.432 16.9542L157.624 16.713Z" fill="#39829F"/>
<path d="M77.5238 29.1554L78.2629 29.3445L78.9993 29.6619L77.5111 29.6683L77.5172 29.4118L76.2151 29.4335L76.9637 29.2379L77.5238 29.1554Z" fill="#5A9BB8"/>
<path d="M72.9123 27.6213L73.2835 27.6517L73.2774 27.9082L71.9715 28.058L71.2291 27.9971L71.223 28.2535L70.4806 28.1926L70.4867 27.9362L72.9123 27.6213Z" fill="#5A9BB8"/>
<path d="M32.2427 17.7325L32.982 17.9216L32.4187 18.1324L29.8138 18.1756L30.1914 17.9497L32.2427 17.7325Z" fill="#7EABC4"/>
<path d="M114.777 19.4927L115.148 19.5232L115.692 20.0817L114.022 19.9447L114.029 19.6882L113.661 19.5296L114.777 19.4927Z" fill="#5A9BB8"/>
<path d="M138.721 14.0057L140.206 14.1275L139.643 14.3383L138.9 14.2774L138.891 14.662L137.966 14.4577L138.341 14.3599L138.347 14.1035L138.721 14.0057Z" fill="#5A9BB8"/>
</svg>
