<svg width="241" height="52" viewBox="0 0 241 52" fill="none" xmlns="http://www.w3.org/2000/svg">
<g clip-path="url(#clip0_2_4533)">
<path d="M164.456 10.9717L172.451 11.5047L171.758 11.7154L168.323 11.7434L164.897 11.515L157.807 11.2994L156.669 11.0951L156.661 11.3515L167.398 12.0671L183.597 13.7893L190.21 14.6155L190.659 14.9024L189.513 14.9544L182.88 14.7693L178.997 14.5104L177.173 14.2604L173.747 14.032L173.061 13.9863L172.368 14.1971L171.454 14.1362L171.443 14.5208L186.287 15.6387L194.275 16.4281L210.246 18.135L211.612 18.3546L211.608 18.4828L215.259 18.8546L236.5 20.3989L239.237 20.7099L239.687 20.9967L238.541 21.0488L212.955 19.3434L212.719 19.5846L209.741 19.6431L209.06 19.4692L196.275 18.3601L178 17.1419L177.992 17.3983L174.112 17.0113L168.401 16.6306L169.095 16.4199L169.327 16.3069L162.242 15.9631L159.725 15.9238L159.493 16.0368L155.148 15.8757L148.295 15.4189L148.303 15.1624L137.551 14.9596L133.659 14.9572L133.198 15.0549L129.082 14.9091L128.165 14.9764L127.94 14.8329L126.341 14.7263L125.424 14.7936L122.911 14.6261L121.993 14.6934L119.937 14.5564L116.727 14.7279L110.78 14.5884L109.185 14.3536L108.948 14.5948L107.57 14.7598L115.569 15.1646L114.648 15.3601L110.76 15.2294L110.531 15.2142L110.523 15.4706L107.546 15.5291L102.284 15.4353L99.7709 15.2678L99.3222 14.9809L99.314 15.2373L98.6253 15.3199L95.4231 15.2349L100.909 15.4721L104.107 15.6853L103.186 15.8808L106.617 15.981L111.887 15.8184L114.175 15.8425L116.23 15.9795L116.227 16.1077L115.081 16.1598L118.968 16.2904L119.433 16.0645L118.058 16.1013L118.523 15.8754L116.924 15.7688L117.16 15.5276L125.4 15.5629L128.374 15.6326L131.115 15.8154L130.193 16.0109L126.762 15.9107L124.935 15.7889L124.927 16.0453L125.156 16.0605L125.616 15.9628L125.609 16.2192L126.755 16.1671L127.661 16.4844L122.398 16.3906L127.656 16.6126L130.859 16.6976L133.147 16.7217L133.836 16.6391L136.12 16.7914L141.154 16.87L143.896 17.0527L150.528 17.2378L151.206 17.5399L150.288 17.6073L139.311 17.261L137.255 17.124L136.109 17.176L133.596 17.0085L132.45 17.0606L127.645 16.9973L118.956 16.6751L113.237 16.5508L110.031 16.5941L106.829 16.5091L102.705 16.6196L94.6942 16.5995L93.3236 16.5082L93.091 16.6212L90.5741 16.5819L89.44 16.2493L89.4319 16.5057L88.2822 16.686L87.14 16.6099L86.9075 16.7229L82.784 16.8334L77.7419 17.0113L68.3485 17.2844L65.367 17.4711L61.9325 17.4991L61.9206 17.8838L61.0029 17.9511L60.7824 17.6794L60.3255 17.649L60.7745 17.9358L58.7106 18.0552L58.947 17.814L58.498 17.5272L58.2696 17.5119L58.0332 17.7531L56.8871 17.8052L56.4223 18.0312L55.0517 17.9398L54.839 17.4117L54.1458 17.6225L54.8272 17.7964L53.9055 17.9919L53.2202 17.9462L53.2281 17.6898L49.5572 17.959L46.5718 18.2739L44.2676 18.7627L41.735 19.2362L38.7495 19.5511L37.1425 19.7009L36.4612 19.527L34.3973 19.6464L35.0945 19.3075L41.7508 18.7234L43.8186 18.4758L36.4769 19.0142L34.6455 19.0206L35.3387 18.8099L40.1636 18.2321L40.6244 18.1344L40.8647 17.765L37.6587 17.8082L38.3558 17.4693L41.8022 17.0566L40.8844 17.1239L37.8989 17.4388L37.2176 17.2649L37.2215 17.1367L35.6185 17.1584L35.8549 16.9172L34.0273 16.7953L30.581 17.208L29.6672 17.1471L29.4309 17.3883L27.371 17.3794L27.3631 17.6359L25.5316 17.6423L21.6244 18.1527L21.1715 17.994L22.0971 17.6703L25.7759 17.1447L26.6896 17.2056L26.6975 16.9491L22.1011 17.5421L20.0333 17.7897L20.0254 18.0461L19.344 17.8722L20.9668 17.2095L23.9562 16.7664L26.7133 16.4363L27.1702 16.4668L27.1781 16.2103L27.8713 15.9996L24.1926 16.5252L22.3492 16.9162L20.5218 16.7944L20.5297 16.538L19.3796 16.7183L17.7647 17.1245L14.3184 17.5372L13.4006 17.6045L13.4125 17.2199L13.8733 17.1221L11.5731 17.4827L10.2025 17.3913L10.6672 17.1654L15.2637 16.5724L16.6383 16.5356L16.6461 16.2792L18.4855 16.0163L18.9345 16.3032L20.5573 15.6405L19.6475 15.4514L24.0155 14.8433L28.3875 14.1069L29.0846 13.768L29.5454 13.6702L29.7857 13.3008L28.1748 13.5788L25.1893 13.8937L22.8891 14.2543L19.2143 14.6517L16.926 14.6277L17.3908 14.4017L19.2301 14.1389L19.242 13.7542L24.0668 13.1765L24.7522 13.2222L24.7443 13.4786L22.2156 13.824L30.4869 12.8336L43.579 11.3938L51.8423 10.6599L53.9062 10.5405L59.188 9.99327L60.1096 9.79776L66.0648 9.68082L69.2705 9.63758L69.2631 9.89399L77.7392 9.68813L79.1173 9.52307L80.949 9.51668L82.0993 9.33639L82.7806 9.51028L91.7211 9.07845L103.174 8.81411L110.733 8.67555L109.827 8.35822L110.973 8.30615L115.317 8.46725L118.287 8.6652L118.279 8.92162L119.185 9.23894L118.953 9.35193L114.833 9.33426L119.181 9.36715L123.301 9.38481L125.357 9.52186L125.597 9.15245L126.05 9.31112L126.047 9.43933L132.679 9.62449L137.023 9.78559L144.109 10.1294L144.569 10.0317L148.457 10.1623L154.168 10.5429L164.456 10.9717Z" fill="#458CA8"/>
<path d="M164.455 10.9712L172.451 11.5042L171.758 11.7149L168.323 11.7429L164.897 11.5145L157.807 11.2989L156.669 11.0946L156.661 11.351L167.398 12.0667L183.597 13.7888L190.21 14.615L190.659 14.9019L189.513 14.954L182.88 14.7688L178.997 14.51L177.173 14.2599L173.747 14.0315L173.061 13.9858L172.368 14.1966L171.454 14.1357L171.443 14.5203L186.287 15.6383L194.274 16.4276L210.246 18.1345L211.612 18.3541L211.608 18.4823L215.259 18.8542L236.5 20.3985L239.237 20.7094L239.687 20.9963L238.541 21.0483L212.955 19.3429L212.719 19.5841L208.823 19.7099L208.591 19.8229L198.083 19.1225L187.807 18.309L179.812 17.7761L195.334 19.1962L204.002 20.1594L211.525 21.1747L219.966 22.1227L219.729 22.3639L218.126 22.3856L226.339 23.3184L231.135 23.6381L231.128 23.8945L223.806 23.7919L220.371 23.8199L220.367 23.9481L218.087 23.6677L213.518 23.3631L218.083 23.7959L219.221 24.0002L219.217 24.1284L205.283 23.1996L205.05 23.3126L199.559 23.2035L199.099 23.3013L199.552 23.46L202.285 23.8991L201.364 24.0946L200.678 24.0489L194.971 23.5401L199.075 24.0706L205.239 24.6099L205.916 24.912L193.809 24.105L195.861 24.3702L195.857 24.4984L194.483 24.5353L191.284 24.3221L189.918 24.1025L186.263 23.8589L188.315 24.1242L196.073 24.8983L196.294 25.1699L192.864 25.0697L195.14 25.4784L196.05 25.6675L201.986 26.1917L203.124 26.396L203.12 26.5242L198.547 26.3479L196.262 26.1956L196.258 26.3238L193.517 26.1411L190.551 25.8149L187.353 25.6018L182.332 25.1386L182.324 25.395L186.436 25.6691L186.428 25.9255L186.881 26.0841L186.889 25.8277L189.173 25.98L190.997 26.23L190.989 26.4864L195.782 26.9344L195.778 27.0626L194.175 27.0842L188.232 26.8166L186.853 26.9816L183.194 26.8662L182.733 26.964L180.445 26.9399L173.816 26.6265L169.468 26.5936L170.61 26.6698L169.917 26.8805L168.771 26.9326L171.283 27.1001L171.048 27.3413L166.022 27.0063L165.112 26.8172L162.599 26.6497L162.82 26.9213L161.673 26.9734L157.333 26.6841L151.614 26.5598L148.18 26.5878L155.045 26.66L156.873 26.7818L156.868 26.91L148.853 27.0182L159.614 26.9646L163.733 26.9822L167.617 27.2411L168.983 27.4606L168.291 27.6714L163.036 27.3212L161.658 27.4862L157.313 27.3251L146.088 27.6047L141.504 27.813L139.448 27.676L138.979 28.0301L139.428 28.317L138.51 28.3843L135.765 28.3298L130.948 28.6511L130.038 28.462L136.691 28.0061L136.698 27.7497L128.904 28.1294L126.611 28.2336L125.922 28.3161L127.285 28.6639L125.906 28.8289L124.307 28.7223L124.316 28.4659L121.562 28.6678L120.412 28.8481L118.356 28.7111L117.891 28.937L116.056 29.0716L115.591 29.2976L112.157 29.3256L110.554 29.3472L108.955 29.2407L107.348 29.3905L107.34 29.6469L105.973 29.4273L105.737 29.6685L103.212 29.8857L101.152 29.8768L100.006 29.9289L99.998 30.1853L98.1664 30.1917L96.5598 30.3416L95.642 30.4089L93.3419 30.7694L91.2737 31.017L88.9777 31.2494L88.2924 31.2037L88.3039 30.8191L90.6006 30.5867L94.2754 30.1893L91.9828 30.2934L86.4689 30.9537L83.2551 31.2533L81.1835 31.6291L79.5803 31.6508L78.2015 31.8158L76.5949 31.9656L74.9836 32.2437L67.4017 33.1515L67.1654 33.3927L65.7829 33.686L62.5848 33.4728L61.2062 33.6378L60.9659 34.0073L59.355 34.2853L57.756 34.1787L58.4571 33.7115L56.8501 33.8614L56.6059 34.359L53.8408 34.9455L51.773 35.1931L50.8633 35.004L50.4064 34.9735L48.3386 35.2211L46.9679 35.1298L46.5189 34.8429L46.7632 34.3453L47.9094 34.2932L47.9172 34.0368L46.5427 34.0736L46.066 34.6842L45.6092 34.6538L45.6171 34.3974L44.467 34.5776L44.2425 34.4342L43.5453 34.7732L41.7059 35.036L41.0246 34.8621L40.1068 34.9294L37.3498 35.2595L34.3564 35.8308L33.675 35.6569L34.3721 35.318L35.9791 35.1681L35.2938 35.1225L33.2299 35.2418L33.2379 34.9854L30.9337 35.4742L30.4769 35.4437L30.4887 35.0591L28.4209 35.3067L29.3544 34.7266L27.5111 35.1176L27.9601 35.4045L26.1168 35.7955L25.652 36.0214L24.045 36.1713L22.2175 36.0495L20.3742 36.4405L19.6888 36.3948L19.4802 35.7385L21.3235 35.3475L21.544 35.6192L22.4657 35.4236L22.9383 34.9413L24.0924 34.6328L22.4815 34.9108L21.1148 34.6912L22.2767 34.1263L22.7336 34.1568L22.7455 33.7721L26.4281 33.1183L26.2115 32.7185L24.8369 32.7553L23.6789 33.192L23.2102 33.5462L22.7533 33.5157L22.7652 33.1311L22.3044 33.2289L22.2925 33.6135L19.5236 34.3282L17.9166 34.4781L16.5381 34.6431L16.0891 34.3562L17.0108 34.1607L17.7119 33.6936L18.3932 33.8675L18.1569 34.1087L19.0746 34.0414L18.858 33.6415L20.2405 33.3482L20.9258 33.3939L20.9338 33.1375L20.4769 33.107L20.4848 32.8506L21.4025 32.7833L21.4143 32.3987L23.2576 32.0077L21.6546 32.0293L20.5045 32.2096L20.5124 31.9532L18.9094 31.9748L19.1655 31.0925L18.0114 31.401L17.5545 31.3706L17.5625 31.1142L19.6342 30.7384L19.8745 30.369L18.0312 30.76L17.3498 30.5861L18.5117 30.0212L19.4334 29.8257L18.0589 29.8625L17.3775 29.6886L15.3176 29.6798L15.3097 29.9362L14.6283 29.7623L12.3242 30.2511L11.6428 30.0772L12.5684 29.7535L12.5763 29.4971L11.4381 29.2927L11.446 29.0363L9.83108 29.4426L10.7409 29.6317L10.0476 29.8424L10.5006 30.0011L7.73955 30.4594L4.51376 31.1437L4.29322 30.872L6.83371 30.1421L8.45255 29.6076L7.53089 29.8031L6.84951 29.6292L7.77511 29.3055L5.23858 29.9073L4.78565 29.7486L5.02199 29.5074L4.10428 29.5747L4.11218 29.3183L6.88111 28.6036L9.42553 27.7454L11.9621 27.1436L12.4269 26.9176L10.8239 26.9393L10.3709 26.7806L9.89826 27.263L8.98055 27.3303L9.91797 26.6219L9.00026 26.6892L9.70531 26.0939L11.7811 25.5899L12.2498 25.2357L14.0891 24.9729L15.0147 24.6492L13.8686 24.7012L12.2537 25.1075L11.3321 25.303L10.8594 25.7854L9.93776 25.9809L9.25243 25.9352L9.26032 25.6788L6.73168 26.0241L4.65992 26.3999L4.19514 26.6259L1.44202 26.8278L1.9147 26.3454L3.52957 25.9392L4.68757 25.5025L6.07006 25.2092L6.76328 24.9985L6.3301 24.1988L7.25966 23.7468L8.64611 23.3253L11.4071 22.867L12.0925 22.9127L12.0846 23.1691L12.5414 23.1996L12.7778 22.9584L12.3248 22.7997L12.5651 22.4303L10.7218 22.8213L7.73234 23.2644L5.66058 23.6402L5.66848 23.3838L2.90746 23.8421L2.68692 23.5705L7.76001 22.367L9.3551 22.6018L9.36305 22.3453L8.91011 22.1867L9.59938 22.1042L10.7613 21.5392L11.683 21.3437L10.9976 21.298L8.23267 21.8846L7.54735 21.8389L7.55918 21.4543L7.11023 21.1674L8.72117 20.8894L8.96933 20.2635L11.049 19.6313L11.2854 19.3901L11.7422 19.4206L11.7501 19.1642L8.52434 19.8485L7.61452 19.6593L8.54012 19.3356L11.758 18.9077L13.5974 18.6449L14.7514 18.3364L15.4328 18.5103L15.6573 18.6538L15.6691 18.2691L17.2761 18.1193L18.6468 18.2107L18.891 17.713L21.6559 17.1265L25.1062 16.5857L27.1701 16.4663L27.178 16.2099L27.8713 15.9991L24.1925 16.5247L22.3492 16.9158L20.5217 16.794L20.5296 16.5375L19.3795 16.7178L17.7646 17.1241L14.3183 17.5367L13.4006 17.604L13.4124 17.2194L13.8732 17.1216L11.573 17.4822L10.2024 17.3908L10.6672 17.1649L15.2636 16.572L16.6382 16.5351L16.6461 16.2787L18.4855 16.0159L18.9344 16.3027L20.5572 15.6401L19.6474 15.451L24.0154 14.8428L28.3874 14.1064L29.0845 13.7675L29.5454 13.6697L29.7857 13.3003L28.1747 13.5784L25.1893 13.8933L22.8891 14.2538L19.2143 14.6512L16.9259 14.6272L17.3907 14.4012L19.23 14.1384L19.2419 13.7538L24.0668 13.1761L24.7521 13.2218L24.7442 13.4782L22.2156 13.8235L30.4868 12.8332L43.579 11.3933L51.8422 10.6594L53.9061 10.54L59.1879 9.99279L60.1095 9.79728L66.0647 9.68034L69.2705 9.63709L69.263 9.89351L77.7392 9.68765L79.1173 9.52259L80.9489 9.51619L82.0986 9.33591L82.7805 9.5098L91.7211 9.07797L103.174 8.81363L110.733 8.67507L109.827 8.35774L110.973 8.30566L115.317 8.46676L118.287 8.66471L118.279 8.92113L119.185 9.23846L118.953 9.35144L114.833 9.33378L119.181 9.36667L123.301 9.38433L125.357 9.52137L125.597 9.15197L126.05 9.31063L126.047 9.43884L132.679 9.624L137.023 9.7851L144.109 10.1289L144.569 10.0312L148.457 10.1618L154.168 10.5425L164.455 10.9712Z" fill="#458CA8"/>
<path d="M169.332 16.4804L169.784 16.6391L169.091 16.8498L175.944 17.3066L177.992 17.7001L178 17.4437L176.173 17.3218L176.177 17.1936L196.28 18.5336L209.521 19.6732L208.592 20.1251L198.083 19.4247L187.807 18.6112L179.812 18.0783L195.334 19.4984L204.003 20.4616L211.525 21.4769L219.966 22.425L219.729 22.6661L218.126 22.6878L226.339 23.6206L231.136 23.9403L231.128 24.1967L226.322 24.1334L223.809 23.9659L224.503 23.7552L219.024 23.2615L211.954 22.4049L208.075 22.0178L203.506 21.7133L203.747 21.3439L206.031 21.4961L195.763 20.4263L194.853 20.2372L195.527 20.6675L188.674 20.2107L181.829 19.4974L181.832 19.3692L178.409 19.0126L177.504 18.6953L174.306 18.4821L171.568 18.1712L159.232 17.3489L158.772 17.4467L158.78 17.1903L157.633 17.2424L156.944 17.3249L156.952 17.0685L156.038 17.0076L156.487 17.2944L150.316 17.0115L145.743 16.8352L145.754 16.4506L153.991 16.6141L151.478 16.4466L148.504 16.3769L143.707 16.0571L143.943 15.8159L141.659 15.6636L139.142 15.6244L136.849 15.7285L135.018 15.7349L140.276 15.9569L140.725 16.2438L132.95 15.9825L130.89 15.9737L130.887 16.1019L120.819 15.9447L117.156 15.9575L118.984 16.0793L118.976 16.3357L119.661 16.3814L118.964 16.7204L113.021 16.4527L113.025 16.3245L114.171 16.2724L109.361 16.3373L104.324 16.3869L102.953 16.2955L103.19 16.0544L95.1906 15.6496L95.4271 15.4084L99.3141 15.5391L99.3222 15.2827L100.003 15.4566L102.288 15.6088L107.55 15.7026L110.523 15.7724L110.299 15.6289L107.554 15.5744L107.79 15.3332L110.764 15.403L114.652 15.5336L106.881 15.1441L107.116 14.9029L109.185 14.6553L111.469 14.8076L118.334 14.8798L120.398 14.7604L121.997 14.867L122.914 14.7997L125.656 14.9824L126.573 14.9151L128.173 15.0217L128.165 15.2781L129.543 15.113L133.202 15.2285L133.663 15.1307L140.071 15.1724L146.247 15.3271L148.303 15.4642L148.295 15.7206L150.584 15.7446L156.066 16.1101L159.496 16.2103L159.729 16.0973L163.616 16.2279L169.332 16.4804Z" fill="#39829F"/>
<path d="M104.623 28.9971L105.532 29.1862L103.464 29.4338L105.757 29.3296L107.356 29.4362L106.891 29.6622L105.973 29.7295L105.737 29.9707L103.212 30.1878L101.152 30.179L100.006 30.231L99.998 30.4875L98.1664 30.4939L96.5598 30.6437L95.642 30.711L93.3419 31.0716L91.2737 31.3191L88.9778 31.5515L88.2924 31.5058L88.3047 31.1212L90.6006 30.8888L94.2754 30.4914L91.9829 30.5956L86.469 31.2558L83.2552 31.5555L81.1835 31.9313L79.5804 31.9529L78.2016 32.1179L76.595 32.2678L74.9837 32.5458L67.4018 33.4536L67.1655 33.6948L65.783 33.9881L62.5848 33.7749L61.2063 33.94L60.966 34.3094L59.3551 34.5874L57.756 34.4808L58.4572 34.0137L56.8502 34.1635L56.6059 34.6611L53.8409 35.2477L51.7731 35.4952L50.8633 35.3061L50.4064 35.2757L48.3386 35.5233L46.968 35.4319L46.519 35.145L46.7633 34.6474L47.9094 34.5953L47.9173 34.3389L47.4644 34.1803L49.2998 34.0457L49.288 34.4303L51.5842 34.1979L61.2379 32.9143L66.7521 32.2541L67.4334 32.428L67.8903 32.4584L76.1612 31.4681L72.0336 31.7068L69.7336 32.0674L67.8982 32.202L68.5954 31.863L71.3565 31.4047L76.406 30.9705L82.8255 30.6275L89.7182 29.8023L93.3895 29.533L94.2992 29.7222L93.6098 29.8047L94.0585 30.0916L95.4333 30.0547L100.25 29.7334L101.168 29.6661L102.543 29.6293L102.55 29.3729L101.869 29.199L104.623 28.9971Z" fill="#5A9BB8"/>
<path d="M128.374 15.9342L131.114 16.1169L130.193 16.3124L126.762 16.2122L124.935 16.0904L124.927 16.3468L125.156 16.362L125.616 16.2643L125.609 16.5207L126.754 16.4686L127.661 16.7859L122.398 16.6921L127.656 16.9142L130.859 16.9991L133.147 17.0232L133.836 16.9407L136.12 17.0929L141.154 17.1715L143.896 17.3542L150.528 17.5394L151.206 17.8415L150.288 17.9088L139.311 17.5625L137.255 17.4255L136.109 17.4775L133.596 17.3101L132.45 17.3621L127.645 17.2988L118.956 16.9766L113.237 16.8523L110.031 16.8956L106.829 16.8106L102.705 16.9212L94.6942 16.9011L93.3235 16.8097L93.091 16.9227L90.5741 16.8834L89.44 16.5508L89.4319 16.8073L88.2822 16.9875L87.14 16.9114L86.9075 17.0244L82.7839 17.1349L77.7419 17.3128L68.3485 17.586L65.3669 17.7726L61.9324 17.8007L61.9206 18.1853L61.0029 18.2526L60.7823 17.9809L60.3254 17.9505L60.7744 18.2374L58.7106 18.3567L58.9469 18.1155L58.4979 17.8287L58.2695 17.8134L58.0331 18.0546L56.887 18.1067L55.288 18.0001L55.2958 17.7437L56.2175 17.5482L59.8843 17.4072L66.9976 16.8535L70.8886 16.856L72.2675 16.6909L74.0991 16.6845L75.2488 16.5042L78.451 16.5892L80.0542 16.5676L80.2908 16.3264L84.8712 16.2463L85.5565 16.292L85.5484 16.5484L86.4621 16.6093L85.785 16.3072L88.5344 16.2335L96.313 16.3666L102.036 16.3626L104.328 16.2585L109.365 16.2088L114.174 16.144L116.23 16.281L116.227 16.4092L115.081 16.4613L118.968 16.592L119.433 16.366L118.058 16.4028L118.523 16.1769L116.924 16.0703L117.16 15.8291L125.4 15.8644L128.374 15.9342Z" fill="#5A9BB8"/>
<path d="M137.554 15.1331L139.61 15.2702L139.606 15.3984L138.461 15.4505L138.681 15.7221L135.018 15.7349L140.276 15.9569L140.725 16.2438L132.95 15.9825L130.89 15.9736L130.886 16.1019L120.819 15.9447L117.156 15.9575L118.984 16.0793L118.976 16.3357L119.661 16.3814L118.964 16.7204L113.021 16.4527L113.025 16.3245L114.171 16.2724L109.361 16.3373L104.324 16.3869L102.953 16.2955L103.19 16.0543L95.1906 15.6496L95.4271 15.4084L99.3141 15.5391L99.3222 15.2826L100.003 15.4565L102.288 15.6088L107.55 15.7026L110.523 15.7723L110.299 15.6289L107.554 15.5744L107.79 15.3332L110.764 15.4029L114.652 15.5336L106.881 15.1441L107.116 14.9029L109.185 14.6553L111.469 14.8076L118.334 14.8797L120.398 14.7604L121.997 14.867L122.914 14.7997L125.656 14.9824L126.573 14.9151L128.173 15.0217L128.165 15.2781L129.543 15.113L133.202 15.2284L133.663 15.1307L137.554 15.1331Z" fill="#39829F"/>
<path d="M177.366 15.731L181.707 16.0203L183.302 16.2551L191.065 16.901L199.281 17.7056L200.876 17.9404L202.703 18.0622L202.707 17.934L210.246 18.4365L211.612 18.6561L211.608 18.7843L215.259 19.1561L236.5 20.7004L239.238 21.0114L239.687 21.2982L238.541 21.3503L212.955 19.6449L210.896 19.6361L210.903 19.3796L196.295 18.0205L189.674 17.4507L188.308 17.2311L184.653 16.9875L182.136 16.9482L179.627 16.6525L179.639 16.2679L179.867 16.2831L177.815 16.0179L177.366 15.731Z" fill="#5A9BB8"/>
<path d="M164.999 15.9345L176.192 16.6806L192.864 17.9203L206.787 19.2338L208.383 19.4686L208.379 19.5968L201.982 19.1705L196.275 18.6616L178 17.4434L177.992 17.6999L174.112 17.3128L168.401 16.9321L169.095 16.7214L169.327 16.6084L162.242 16.2646L159.725 16.2253L159.493 16.3383L155.148 16.1772L148.295 15.7204L148.299 15.5922L151.048 15.5185L151.285 15.2773L154.711 15.5057L159.513 15.6972L164.999 15.9345Z" fill="#5A9BB8"/>
<path d="M62.7126 14.7693L63.3939 14.9432L60.4084 15.2581L54.6738 15.6467L48.2498 16.1178L44.1142 16.613L36.7725 17.1514L36.548 17.008L32.4203 17.2467L30.581 17.5095L29.6672 17.4486L29.4309 17.6898L27.3709 17.681L27.3631 17.9374L25.5316 17.9438L21.6244 18.4542L21.1715 18.2955L22.0971 17.9718L25.7759 17.4462L26.6896 17.5071L26.6975 17.2507L22.1011 17.8436L20.0333 18.0912L20.0253 18.3476L19.344 18.1737L20.9667 17.511L23.9562 17.0679L26.7133 16.7378L27.1702 16.7683L27.1781 16.5119L28.5605 16.2186L29.0174 16.2491L29.0253 15.9926L30.6362 15.7146L31.3216 15.7603L31.3294 15.5039L33.6257 15.2715L34.0905 15.0455L39.8331 14.4005L43.5039 14.1313L43.2676 14.3725L38.6711 14.9654L37.0563 15.3717L34.76 15.604L33.8462 15.5431L33.6099 15.7843L32.2314 15.9494L33.606 15.9125L33.5981 16.169L29.234 16.6489L31.294 16.6577L29.9114 16.951L31.2821 17.0424L31.735 17.201L31.9753 16.8316L33.1175 16.9078L33.1254 16.6513L34.2715 16.5993L34.7323 16.5015L34.7245 16.7579L37.4815 16.4278L37.2413 16.7972L39.3091 16.5496L44.3624 15.9872L47.8047 15.7027L51.9364 15.3358L62.7126 14.7693Z" fill="#5A9BB8"/>
<path d="M161.458 11.973L167.398 12.3689L183.597 14.091L190.21 14.9173L190.659 15.2041L189.513 15.2562L182.88 15.071L178.997 14.8122L177.173 14.5622L173.747 14.3338L172.609 14.1294L168.958 13.7576L168.961 13.6294L173.762 13.8209L172.167 13.5861L166.685 13.2207L158.922 12.5748L155.495 12.3464L152.758 12.0354L152.762 11.9072L157.106 12.0683L158.937 12.0619L168.071 12.7992L171.95 13.1863L169.213 12.8753L161.45 12.2294L161.458 11.973Z" fill="#39829F"/>
<path d="M169.332 16.4803L169.784 16.6389L169.091 16.8497L175.944 17.3065L177.992 17.6999L178 17.4435L176.173 17.3217L176.177 17.1935L196.279 18.5334L209.521 19.673L208.591 20.125L198.083 19.4245L176.161 17.7063L168.851 17.2191L167.259 16.8561L167.027 16.969L164.054 16.8993L155.601 16.3359L156.066 16.1099L159.496 16.2101L159.729 16.0972L163.616 16.2278L169.332 16.4803Z" fill="#39829F"/>
<path d="M149.914 15.1858L150.824 15.3749L150.82 15.5031L135.948 15.2826L133.659 15.2586L133.198 15.3563L129.082 15.2105L128.165 15.2778L127.94 15.1343L126.341 15.0277L125.424 15.095L122.911 14.9275L121.993 14.9948L119.937 14.8578L116.727 15.0293L110.78 14.8898L109.185 14.655L108.948 14.8962L107.57 15.0612L115.569 15.466L114.648 15.6615L110.76 15.5308L110.531 15.5156L110.523 15.772L107.546 15.8305L102.284 15.7367L99.7709 15.5692L100.015 15.0716L104.825 15.0067L104.151 14.5764L105.073 14.3809L112.855 14.3858L113.537 14.5597L113.545 14.3032L114.683 14.5076L115.833 14.3273L121.552 14.4516L122.461 14.6407L127.495 14.7192L128.866 14.8106L129.319 14.9693L129.555 14.7281L130.008 14.8867L132.982 14.9565L134.589 14.8066L137.791 14.8916L149.914 15.1858Z" fill="#5A9BB8"/>
<path d="M66.7521 32.2539L67.4334 32.4278L66.2754 32.8645L65.1253 33.0447L65.1174 33.3012L64.1958 33.4967L66.7204 33.2795L66.043 32.9774L67.8745 32.971L68.0911 33.3709L67.4018 33.4534L67.1655 33.6946L65.783 33.9879L62.5848 33.7747L61.2063 33.9398L60.966 34.3092L59.3551 34.5872L57.756 34.4806L58.4571 34.0135L56.8501 34.1633L56.6059 34.6609L53.8409 35.2475L51.7731 35.495L50.8633 35.3059L50.4064 35.2755L48.3386 35.5231L46.968 35.4317L46.519 35.1448L46.7633 34.6472L47.9094 34.5951L47.9173 34.3387L47.4644 34.1801L49.2998 34.0455L49.288 34.4301L51.5842 34.1977L61.2379 32.9141L66.7521 32.2539Z" fill="#5A9BB8"/>
<path d="M87.1597 16.2702L88.3019 16.3463L88.2937 16.6027L89.436 16.6789L88.7391 17.0178L87.14 16.9112L86.9075 17.0242L82.7839 17.1348L77.7419 17.3126L68.3485 17.5858L65.3669 17.7725L61.9324 17.8005L61.9206 18.1851L61.0029 18.2524L60.7823 17.9808L60.3254 17.9503L60.7744 18.2372L58.7106 18.3566L58.9469 18.1154L58.4979 17.8285L58.2695 17.8133L58.0331 18.0545L56.887 18.1065L55.288 17.9999L55.2958 17.7435L56.2175 17.548L59.8844 17.407L66.9976 16.8534L70.8886 16.8558L72.2675 16.6907L74.0991 16.6843L75.2488 16.5041L78.451 16.589L80.0542 16.5674L80.2908 16.3262L84.8712 16.2461L85.5565 16.2918L85.5484 16.5482L86.4621 16.6091L85.785 16.307L87.1597 16.2702Z" fill="#5A9BB8"/>
<path d="M85.6708 12.5737L86.3527 12.7476L87.2624 12.9367L87.2542 13.1931L89.0859 13.1867L90.4647 13.0216L90.9175 13.1803L90.6809 13.4215L92.745 13.3021L94.801 13.4392L94.5644 13.6804L87.4711 13.5929L81.9729 13.7403L77.6162 13.9639L73.4886 14.2026L72.5789 14.0135L70.7514 13.8917L69.601 14.072L69.8376 13.8308L68.467 13.7394L67.7936 13.3091L70.7752 13.1224L70.7833 12.866L71.472 12.7835L77.8807 12.8252L81.3188 12.669L81.7757 12.6994L81.996 12.9711L82.457 12.8733L82.2367 12.6017L84.0683 12.5953L84.0561 12.9799L85.6592 12.9583L85.6708 12.5737Z" fill="#5A9BB8"/>
<path d="M59.5263 14.1714L60.6645 14.3758L62.496 14.3694L62.4881 14.6258L62.941 14.7844L61.5625 14.9495L51.9325 15.4639L43.6692 16.1978L38.3874 16.745L37.2373 16.9253L36.5599 16.6232L36.3314 16.608L35.4177 16.5471L35.658 16.1777L40.4789 15.7282L41.1721 15.5175L42.3103 15.7218L42.0899 15.4502L45.0754 15.1353L47.8245 15.0616L49.8923 14.814L52.6454 14.6121L54.7054 14.6209L54.7132 14.3645L59.5263 14.1714Z" fill="#39829F"/>
<path d="M104.623 28.9971L105.532 29.1862L103.464 29.4338L105.757 29.3296L107.356 29.4362L106.891 29.6622L105.973 29.7295L105.737 29.9707L103.212 30.1878L101.152 30.179L100.006 30.2311L99.998 30.4875L98.1664 30.4939L96.5598 30.6437L95.642 30.711L93.3419 31.0716L91.2744 31.3192L88.9777 31.5515L88.2924 31.5058L88.3046 31.1212L90.6006 30.8889L94.2754 30.4914L91.9828 30.5956L88.9975 30.9105L88.7772 30.6388L88.0959 30.4649L91.5423 30.0523L92.456 30.1132L92.4635 29.8568L85.8034 30.5691L80.9782 31.1468L78.9188 31.138L72.0336 31.7068L69.7335 32.0674L67.8982 32.202L68.5954 31.8631L71.3564 31.4047L76.406 30.9705L82.8254 30.6276L89.7181 29.8023L93.3895 29.5331L94.2992 29.7222L93.6098 29.8047L94.0585 30.0916L95.4333 30.0547L100.25 29.7334L101.168 29.6661L102.543 29.6293L102.55 29.3729L101.869 29.199L104.623 28.9971Z" fill="#5A9BB8"/>
<path d="M156.042 16.8791L156.952 17.0682L157.177 17.2117L157.181 17.0834L158.78 17.19L159.237 17.2205L171.572 18.0427L174.538 18.3689L178.65 18.643L178.413 18.8842L182.064 19.256L182.06 19.3842L188.678 20.0822L195.527 20.6672L196.893 20.8868L196.889 21.015L188.437 20.4516L187.299 20.2473L187.283 20.7601L185.003 20.4796L179.749 20.1294L179.985 19.8882L182.498 20.0557L186.385 20.1864L182.049 19.7688L179.764 19.6166L180.686 19.4211L173.609 18.8208L173.388 18.5492L165.164 18.001L162.648 17.9617L161.273 17.9986L160.363 17.8095L145.739 16.9631L146.661 16.7676L150.548 16.8983L155.577 17.1051L156.042 16.8791Z" fill="#7EABC4"/>
<path d="M175.349 21.7632L180.375 22.0982L186.987 22.9244L190.406 23.4093L199.075 24.3725L205.239 24.9118L205.916 25.2139L193.809 24.4069L193.805 24.5351L189.241 24.1024L188.106 23.7698L188.11 23.6416L191.993 23.9005L185.605 23.2177L171.442 22.2736L171.678 22.0325L170.083 21.7977L170.087 21.6694L175.345 21.8915L175.349 21.7632Z" fill="#39829F"/>
<path d="M98.5587 10.3496L103.128 10.6541L102.206 10.8496L92.5873 10.9794L85.9509 10.9224L77.7073 11.0153L72.6659 11.1931L64.4143 11.5424L61.6612 11.7443L60.519 11.6682L61.4368 11.6009L61.4446 11.3445L62.8192 11.3076L63.5124 11.0969L65.8048 10.9928L65.7968 11.2492L66.49 11.0384L72.6815 10.6803L79.783 10.5113L82.304 10.4224L91.9182 10.4208L98.5587 10.3496Z" fill="#5A9BB8"/>
<path d="M210.919 18.8673L236.5 20.7009L239.237 21.0118L239.687 21.2987L238.541 21.3508L213.64 19.691L212.502 19.4867L212.51 19.2303L210.907 19.2519L208.855 18.9866L208.859 18.8584L210.919 18.8673Z" fill="#39829F"/>
<path d="M86.1786 18.3892L88.0062 18.5111L87.7696 18.7523L85.0167 18.9542L81.3616 18.7105L81.1291 18.8235L73.5708 18.9621L69.896 19.3595L67.8324 19.4789L65.993 19.7417L62.0977 19.8675L61.1799 19.9348L57.7416 20.091L56.8198 20.2865L55.2169 20.3081L53.8383 20.4732L51.3176 20.5621L47.6428 20.9595L43.7435 21.2135L42.8337 21.0244L43.7593 20.7007L44.673 20.7616L46.0556 20.4683L51.7863 20.2079L55.4571 19.9387L60.2781 19.4892L63.9449 19.3482L66.0127 19.1006L70.8261 18.9076L75.6465 18.4581L83.8901 18.3652L86.1786 18.3892Z" fill="#5A9BB8"/>
<path d="M100.909 15.7737L104.107 15.9869L104.104 16.1151L100.212 16.1127L90.1451 15.9555L83.5046 16.0268L78.2423 15.933L77.096 15.9851L73.1969 16.2391L66.0878 16.6645L64.9496 16.4601L60.8258 16.5707L60.8337 16.3143L65.6467 16.1212L66.785 16.3255L67.7067 16.13L73.8985 15.7719L74.8123 15.8328L74.8198 15.5764L72.7563 15.6958L72.9963 15.3264L75.0605 15.207L76.4311 15.2983L76.8839 15.457L81.0074 15.3465L91.2989 15.647L97.0222 15.6431L100.909 15.7737Z" fill="#5A9BB8"/>
<path d="M150.41 13.9342L174.625 15.5482L175.074 15.8351L178.953 16.2222L178.942 16.6068L177.118 16.3568L169.808 15.8695L169.812 15.7413L171.415 15.7197L150.399 14.3188L142.171 13.8989L137.83 13.6096L137.834 13.4814L141.037 13.5663L150.41 13.9342Z" fill="#7EABC4"/>
<path d="M200.533 21.6431L210.123 22.4109L211.029 22.7282L211.718 22.6457L215.145 22.8741L216.964 23.2523L216.957 23.5087L217.414 23.5392L217.421 23.2828L219.702 23.5632L220.151 23.8501L218.776 23.887L210.324 23.3236L205.763 22.7626L202.565 22.5494L199.143 22.1928L199.15 21.9364L198.701 21.6495L200.533 21.6431Z" fill="#39829F"/>
<path d="M155.728 12.2334L158.926 12.4466L167.603 13.1534L172.857 13.5036L173.991 13.8362L173.987 13.9644L171.242 13.9099L171.238 14.0381L173.061 14.2881L172.368 14.4988L171.454 14.4379L171.443 14.8226L169.848 14.5878L160.942 13.8657L154.546 13.4394L154.55 13.3112L160.269 13.4354L163.467 13.6486L167.126 13.764L166.909 13.3641L160.741 12.953L156.633 12.5507L155.728 12.2334Z" fill="#5A9BB8"/>
<path d="M158.028 11.873L161.454 12.1014L169.217 12.7473L173.093 13.2626L173.089 13.3908L160.989 12.3274L158.933 12.1903L155.499 12.2183L156.637 12.4227L166.909 13.3643L167.126 13.7642L156.389 13.0485L155.7 13.131L155.708 12.8746L154.566 12.7985L153.428 12.5941L153.432 12.4659L149.091 12.1766L148.87 11.905L151.387 11.9442L149.335 11.679L149.339 11.5508L155.511 11.8337L158.028 11.873Z" fill="#5A9BB8"/>
<path d="M73.3145 27.2954L74.2242 27.4845L74.216 27.741L72.8379 27.906L72.8256 28.2906L73.7353 28.4798L70.9784 28.8099L67.3076 29.0791L64.3221 29.394L62.723 29.2874L60.8916 29.2938L61.5848 29.083L63.4163 29.0766L63.4242 28.8202L61.1279 29.0526L60.4465 28.8787L61.3721 28.555L63.2036 28.5486L64.1253 28.3531L64.59 28.1271L67.8 27.9557L69.4112 27.6776L72.1641 27.4757L73.3145 27.2954Z" fill="#5A9BB8"/>
<path d="M40.1834 17.8931L41.0932 18.0822L40.8489 18.5798L35.3347 19.2401L39.234 18.9861L44.5119 18.567L44.9648 18.7257L42.6646 19.0863L35.7798 19.6551L30.498 20.2024L24.0662 20.9299L21.7739 21.0341L22.0103 20.7929L25.685 20.3955L26.1498 20.1695L29.1353 19.8546L30.0609 19.5309L36.2644 18.7881L37.8753 18.5101L39.4823 18.3603L40.396 18.4212L40.4039 18.1647L37.8792 18.3819L37.1978 18.208L40.1834 17.8931Z" fill="#5A9BB8"/>
<path d="M171.744 27.3045L176.313 27.6091L176.309 27.7373L174.025 27.585L174.017 27.8414L174.935 27.7741L179.736 27.9657L181.103 28.1852L181.099 28.3134L168.98 27.8911L166.699 27.6106L163.729 27.4126L155.718 27.3925L148.849 27.4486L147.707 27.3724L148.629 27.1769L155.041 27.0904L147.491 26.9726L147.727 26.7314L153.678 26.7426L159.393 26.9951L161.677 27.1474L160.772 26.83L162.603 26.8237L165.116 26.9911L166.026 27.1803L171.052 27.5153L171.744 27.3045Z" fill="#39829F"/>
<path d="M180.529 17.0981L192.864 17.9203L206.787 19.2338L208.383 19.4686L208.379 19.5968L201.982 19.1704L196.275 18.6615L179.599 17.55L179.379 17.2783L180.521 17.3545L180.529 17.0981Z" fill="#5A9BB8"/>
<path d="M197.118 21.0303L200.316 21.2435L201.454 21.4478L208.079 21.8894L214.239 22.557L219.714 23.1788L224.735 23.642L224.499 23.8832L223.814 23.8375L223.806 24.094L220.371 24.122L220.367 24.2502L218.087 23.9697L218.78 23.759L219.698 23.6917L217.421 23.283L217.414 23.5394L216.957 23.5089L216.964 23.2525L215.594 23.1612L215.141 23.0025L211.714 22.7741L211.025 22.8566L209.43 22.6218L208.977 22.4632L203.042 21.9391L197.796 21.3324L197.118 21.0303Z" fill="#5A9BB8"/>
<path d="M45.6566 33.4175L46.5664 33.6066L44.7231 33.9977L45.8732 33.8174L48.1615 33.8414L47.9251 34.0826L46.0897 34.2172L44.9436 34.2693L44.6954 34.8951L44.4749 34.6235L43.5453 35.0754L41.7059 35.3382L41.0246 35.1643L40.1069 35.2316L37.3498 35.5618L34.3564 36.1331L33.675 35.9592L34.3722 35.6202L35.9792 35.4704L35.9871 35.214L40.8198 34.3799L40.363 34.3494L39.6816 34.1755L45.6566 33.4175Z" fill="#5A9BB8"/>
<path d="M125.936 13.3306L132.561 13.7722L132.095 13.9982L125.006 13.7826L122.954 13.5173L122.493 13.6151L117.696 13.2953L115.636 13.2865L120.662 13.6215L120.882 13.8931L111.961 13.6839L105.786 13.5292L105.793 13.2728L110.142 13.3057L109.921 13.034L112.205 13.1863L114.494 13.2103L114.959 12.9844L119.535 13.0325L125.936 13.3306Z" fill="#7EABC4"/>
<path d="M163.733 27.2843L167.617 27.5432L168.983 27.7627L168.291 27.9735L163.036 27.6233L161.658 27.7883L157.313 27.6272L146.088 27.9068L143.796 28.0109L142.429 27.7914L142.666 27.5502L144.733 27.3026L147.711 27.2441L150.685 27.3138L159.614 27.2666L163.733 27.2843Z" fill="#39829F"/>
<path d="M162.592 19.7568L171.044 20.3202L171.721 20.6223L170.576 20.6744L166.468 20.2721L162.352 20.1262L162.348 20.2544L160.745 20.276L157.775 20.0781L157.779 19.9499L159.839 19.9587L155.951 19.828L155.715 20.0692L154.798 20.1365L154.577 19.8649L147.952 19.4233L147.035 19.4906L142.233 19.2991L142.012 19.0274L145.896 19.2863L145.904 19.0299L146.365 18.9321L162.592 19.7568Z" fill="#5A9BB8"/>
<path d="M83.1212 28.4634L84.7162 28.6982L84.7128 28.8264L79.6633 29.2607L81.4949 29.2543L83.7827 29.2784L82.8615 29.4739L79.1908 29.7431L77.351 30.0059L72.0696 30.5531L70.9274 30.477L71.3918 30.251L75.295 29.8688L76.9023 29.719L75.7641 29.5147L73.7 29.6341L72.7903 29.4449L74.3935 29.4233L74.401 29.1669L72.5694 29.1733L73.0344 28.9473L76.9376 28.5651L78.5408 28.5435L78.9895 28.8304L76.4651 29.0475L79.2139 28.9738L81.0496 28.8392L81.2862 28.598L81.518 28.485L83.1171 28.5916L83.1212 28.4634Z" fill="#5A9BB8"/>
<path d="M173.396 18.293L178.65 18.6432L178.413 18.8844L182.064 19.2563L182.06 19.3845L188.678 20.0825L195.527 20.6675L196.893 20.8871L196.889 21.0153L188.437 20.4519L187.299 20.2475L187.283 20.7604L185.003 20.4799L179.749 20.1297L179.985 19.8885L182.498 20.056L186.385 20.1866L182.049 19.7691L179.764 19.6168L180.686 19.4213L173.609 18.8211L173.396 18.293Z" fill="#5A9BB8"/>
<path d="M92.0066 29.8262L92.4635 29.8566L92.456 30.1131L88.5528 30.4953L88.769 30.8951L86.4689 31.2557L83.2551 31.5553L81.1835 31.9311L79.8163 31.7116L78.9106 31.3942L76.8465 31.5136L76.6262 31.242L79.84 30.9423L81.9001 30.9511L89.4822 30.0433L92.0066 29.8262Z" fill="#5A9BB8"/>
<path d="M20.4625 19.019L21.1438 19.1929L20.2182 19.5166L19.2966 19.7121L18.371 20.0358L17.2209 20.2161L18.3631 20.2922L18.3552 20.5487L20.6554 20.1881L21.1043 20.475L20.1827 20.6705L19.0405 20.5943L19.0326 20.8508L17.8825 21.0311L17.6501 21.144L12.1202 22.3171L11.4388 22.1432L14.2037 21.5567L12.1399 21.6761L11.9233 21.2762L16.5198 20.6833L15.1452 20.7201L13.9951 20.9004L13.0853 20.7113L15.157 20.3355L14.2472 20.1464L16.3229 19.6424L18.3867 19.523L20.4625 19.019Z" fill="#5A9BB8"/>
<path d="M63.6619 13.6763L64.8041 13.7525L64.3393 13.9784L61.5862 14.1803L62.7284 14.2565L61.8067 14.452L59.7468 14.4431L59.5223 14.2997L55.627 14.4255L54.7133 14.3646L54.7054 14.621L52.6415 14.7404L48.2814 15.0921L46.9029 15.2572L44.3821 15.3461L42.5428 15.6089L42.9957 15.7676L42.078 15.8349L41.1682 15.6458L40.0141 15.9543L35.4256 16.2908L34.5158 16.1016L38.6514 15.6065L42.3262 15.2091L46.4578 14.8421L51.2748 14.5208L53.3387 14.4014L55.178 14.1386L58.1596 13.9519L61.8265 13.8109L63.6619 13.6763Z" fill="#5A9BB8"/>
<path d="M169.332 16.4803L169.784 16.6389L169.091 16.8497L175.944 17.3065L177.535 17.6695L177.532 17.7977L168.851 17.2191L167.259 16.8561L167.027 16.969L164.054 16.8993L155.601 16.3359L156.066 16.1099L159.496 16.2101L159.729 16.0972L163.616 16.2278L169.332 16.4803Z" fill="#39829F"/>
<path d="M14.9326 20.1919L15.3854 20.3505L14.9207 20.5765L14.4598 20.6743L15.6099 20.494L16.9806 20.5853L16.5158 20.8113L11.9194 21.4042L8.23276 22.1863L7.54743 22.1406L7.55926 21.756L7.11029 21.4691L8.72119 21.1911L8.96941 20.5652L10.1195 20.3849L12.4079 20.409L13.1011 20.1983L14.9326 20.1919Z" fill="#39829F"/>
<path d="M167.263 16.7277L169.083 17.1059L176.164 17.5779L179.588 17.9345L180.95 18.2823L180.946 18.4105L174.321 17.969L168.614 17.4601L167.705 17.271L166.33 17.3078L154.908 16.5465L154.916 16.29L164.058 16.7709L167.031 16.8406L167.263 16.7277Z" fill="#5A9BB8"/>
<path d="M105.521 14.668L106.431 14.8571L107.57 15.0615L115.569 15.4662L114.648 15.6617L110.76 15.5311L110.531 15.5159L110.523 15.7723L107.546 15.8307L102.284 15.7369L99.7709 15.5694L100.015 15.0718L104.825 15.007L104.375 14.7201L105.521 14.668Z" fill="#5A9BB8"/>
<path d="M120.638 14.3906L121.548 14.5797L121.079 14.9339L118.791 14.9098L116.727 15.0292L110.78 14.8897L109.185 14.6549L108.948 14.8961L106.885 15.0155L105.974 14.8264L104.151 14.5764L105.073 14.3809L112.855 14.3857L113.537 14.5596L113.545 14.3032L114.683 14.5075L115.833 14.3273L120.638 14.3906Z" fill="#7EABC4"/>
<path d="M100.909 15.7739L104.107 15.9871L104.104 16.1153L100.212 16.1128L90.1451 15.9557L83.5047 16.0269L81.2162 16.0029L80.3105 15.6856L81.2359 15.3618L91.2989 15.6472L97.0222 15.6432L100.909 15.7739Z" fill="#5A9BB8"/>
<path d="M152.457 21.779L152.914 21.8095L152.907 22.0659L153.825 21.9986L154.045 22.2702L152.213 22.2766L151.304 22.0875L151.067 22.3287L147.637 22.2285L148.33 22.0178L146.27 22.0089L142.84 21.9087L142.379 22.0065L142.371 22.2629L141.689 22.089L141.926 21.8478L140.78 21.8999L136.207 21.7236L133.69 21.6843L133.241 21.3974L136.219 21.3389L142.851 21.5241L148.57 21.6484L152.226 21.892L152.457 21.779Z" fill="#5A9BB8"/>
<path d="M176.731 21.4697L184.27 21.9722L194.77 22.929L196.365 23.1638L197.276 23.3529L199.103 23.4747L198.41 23.6855L194.298 23.4114L194.302 23.2832L191.336 22.957L191.556 23.2287L187.22 22.8112L183.345 22.2959L178.551 21.8479L176.727 21.5979L176.731 21.4697Z" fill="#7EABC4"/>
<path d="M131.52 17.814L133.119 17.9206L133.34 18.1923L130.591 18.266L128.763 18.1442L122.583 18.1177L118.921 18.1305L112.737 18.2322L109.082 17.9885L109.086 17.8603L114.123 17.8107L117.101 17.7522L119.165 17.6328L130.146 17.8509L131.52 17.814Z" fill="#5A9BB8"/>
<path d="M170.71 16.3154L176.192 16.6808L180.528 17.0984L180.521 17.3548L178.457 17.4742L178 17.4437L177.992 17.7001L174.112 17.3131L168.401 16.9324L169.095 16.7216L169.792 16.3827L170.71 16.3154Z" fill="#5A9BB8"/>
<path d="M41.5374 25.9482L42.4473 26.1374L39.0009 26.55L36.4842 26.5107L36.2438 26.8801L34.8693 26.917L35.3341 26.691L31.8917 26.9754L30.2847 27.1253L29.1425 27.0491L29.1307 27.4338L26.8344 27.6661L23.3841 28.207L22.4743 28.0179L25.2353 27.5595L27.5395 27.0708L30.9897 26.5299L36.0431 25.9674L37.6461 25.9458L36.7205 26.2695L39.9305 26.0981L41.5374 25.9482Z" fill="#5A9BB8"/>
<path d="M45.7514 30.3403L46.2044 30.499L45.2708 31.0791L42.0529 31.507L40.9146 31.3027L37.2439 31.5719L33.5572 32.3539L31.4854 32.7297L27.8067 33.2553L26.4321 33.2922L26.2234 32.6359L28.2834 32.6447L27.3617 32.8403L28.047 32.8859L32.1905 32.1343L33.5691 31.9693L36.334 31.3827L39.3196 31.0679L42.3011 30.8812L45.7514 30.3403Z" fill="#5A9BB8"/>
<path d="M158.937 12.0619L168.071 12.7992L171.723 13.1711L172.861 13.3754L172.167 13.5862L166.685 13.2207L158.922 12.5748L155.495 12.3464L152.758 12.0355L152.762 11.9072L157.106 12.0683L158.937 12.0619Z" fill="#39829F"/>
<path d="M107.924 18.4249L110.208 18.5772L109.972 18.8184L106.077 18.9441L103.107 18.7462L101.961 18.7983L97.8407 18.7806L91.4287 18.8671L89.6012 18.7453L88.6956 18.4279L92.1297 18.3999L100.826 18.4657L104.493 18.3247L107.463 18.5226L107.924 18.4249Z" fill="#5A9BB8"/>
<path d="M43.0471 14.1011L43.5 14.2598L41.4282 14.6356L37.9819 15.0482L37.0563 15.3719L34.7601 15.6043L33.8463 15.5434L33.61 15.7846L32.2314 15.9496L33.606 15.9128L33.5981 16.1692L29.2341 16.6492L28.0919 16.573L28.0997 16.3166L29.0175 16.2493L29.0253 15.9929L30.6363 15.7149L31.3216 15.7605L31.3295 15.5041L33.6257 15.2718L34.0905 15.0458L39.8331 14.4008L43.0471 14.1011Z" fill="#5A9BB8"/>
<path d="M54.1537 17.6675L54.839 17.7132L55.0516 18.2413L57.1115 18.2501L57.1036 18.5065L49.5414 18.7733L45.4137 19.0121L45.4058 19.2685L42.4243 19.4552L43.1214 19.1162L45.1932 18.7404L47.9542 18.2821L51.8574 17.8999L53.2281 17.9912L53.2202 18.2477L54.1418 18.0522L53.4605 17.8783L54.1537 17.6675Z" fill="#5A9BB8"/>
<path d="M150.071 17.5093L151.21 17.7136L150.288 17.9092L139.311 17.5629L137.255 17.4258L136.109 17.478L133.596 17.3104L132.45 17.3624L127.645 17.2992L126.506 17.0948L126.51 16.9666L127.656 16.9146L130.859 16.9995L133.147 17.0236L133.836 16.941L136.12 17.0933L141.154 17.1719L143.896 17.3546L150.071 17.5093Z" fill="#5A9BB8"/>
<path d="M81.3188 12.6689L81.7757 12.6994L81.5357 13.0688L78.1009 13.0968L72.6027 13.2442L71.9133 13.3267L73.9733 13.3356L74.1861 13.8636L72.5789 14.0135L70.7514 13.8916L69.601 14.0719L69.8376 13.8307L68.467 13.7394L67.7936 13.3091L70.7752 13.1224L70.7833 12.866L71.472 12.7834L77.8807 12.8252L81.3188 12.6689Z" fill="#5A9BB8"/>
<path d="M21.8917 24.6387L22.3446 24.7974L22.1083 25.0386L22.7897 25.2125L19.103 25.9945L18.6462 25.9641L18.6382 26.2205L16.1056 26.694L12.8877 27.1219L11.7376 27.3022L10.8239 27.2413L10.8318 26.9849L10.3828 26.698L11.3045 26.5025L11.2966 26.7589L13.3723 26.2549L14.2939 26.0594L14.5145 26.331L14.0537 26.4288L14.735 26.6027L14.7429 26.3463L16.346 26.3246L17.2755 25.8727L19.1188 25.4817L17.5118 25.6315L17.5197 25.3751L19.1306 25.0971L19.816 25.1427L19.8081 25.3992L21.4151 25.2493L21.4308 24.7365L21.8917 24.6387Z" fill="#7EABC4"/>
<path d="M93.3895 29.5327L94.2992 29.7218L85.8034 30.5687L80.9782 31.1464L78.9188 31.1376L72.0336 31.7065L69.7335 32.067L67.8982 32.2016L68.5954 31.8627L71.3564 31.4044L76.406 30.9701L82.8254 30.6272L89.7181 29.8019L93.3895 29.5327Z" fill="#5A9BB8"/>
<path d="M98.5587 10.3496L103.128 10.6541L102.206 10.8496L92.5873 10.9793L89.6141 10.9096L87.1013 10.7421L87.1047 10.6139L88.4835 10.4488L98.5587 10.3496Z" fill="#5A9BB8"/>
<path d="M24.7982 26.8882L25.4796 27.0621L20.6508 27.768L16.9601 28.6783L15.3532 28.8281L15.1208 28.9411L13.7344 29.3625L14.6363 29.8081L14.396 30.1775L12.3242 30.5533L11.6428 30.3794L12.5685 30.0557L13.0411 29.5733L13.053 29.1887L13.2854 29.0757L12.8324 28.917L17.2123 27.9242L17.8937 28.0981L18.8193 27.7744L18.8272 27.518L19.9733 27.4659L21.5843 27.1879L24.7982 26.8882Z" fill="#5A9BB8"/>
<path d="M175.349 21.7632L180.375 22.0982L182.198 22.3483L182.194 22.4765L176.255 22.0806L179.449 22.422L181.729 22.7024L181.036 22.9132L171.442 22.2736L171.678 22.0325L170.083 21.7977L170.087 21.6694L175.345 21.8915L175.349 21.7632Z" fill="#5A9BB8"/>
<path d="M28.419 13.3828L28.8759 13.4132L28.6356 13.7826L24.5 14.2778L21.0497 14.8187L18.0681 15.0053L16.9259 14.9292L17.3907 14.7032L19.23 14.4404L19.2419 14.0558L24.0668 13.4781L24.7521 13.5238L24.7442 13.7802L22.2156 14.1255L28.419 13.3828Z" fill="#39829F"/>
<path d="M141.764 19.6533L142.221 19.6838L142.442 19.9554L143.123 20.1293L143.115 20.3858L144.947 20.3794L147.003 20.5164L146.995 20.7728L141.048 20.6333L136.246 20.4418L132.812 20.4698L130.52 20.574L129.377 20.4978L129.614 20.2566L132.824 20.0852L139.685 20.2856L140.835 20.1053L140.843 19.8489L140.39 19.6902L141.764 19.6533Z" fill="#5A9BB8"/>
<path d="M153.246 11.0396L157.13 11.2984L156.669 11.3962L156.661 11.6526L149.8 11.4522L145.916 11.1934L140.659 10.9714L137.917 10.7886L137.925 10.5322L152.786 11.1373L153.246 11.0396Z" fill="#5A9BB8"/>
<path d="M150.41 13.9342L156.807 14.3605L157.484 14.6626L156.794 14.7452L150.399 14.3188L142.171 13.8989L137.83 13.6096L137.834 13.4814L141.037 13.5663L150.41 13.9342Z" fill="#5A9BB8"/>
<path d="M164.456 11.2736L172.451 11.8066L171.758 12.0173L168.323 12.0453L164.897 11.8169L157.807 11.6013L157.122 11.5556L157.13 11.2992L158.508 11.1342L158.512 11.0059L164.456 11.2736Z" fill="#5A9BB8"/>
<path d="M133.128 10.2128L137.696 10.5173L137.004 10.7281L132.659 10.567L130.603 10.4299L133.797 10.7713L133.561 11.0125L126.247 10.6534L123.955 10.7576L122.584 10.6662L122.82 10.425L124.885 10.3057L128.319 10.2777L128.323 10.1494L133.128 10.2128Z" fill="#5A9BB8"/>
<path d="M27.8673 16.4292L29.6909 16.6792L31.2939 16.6576L30.3722 16.8531L29.6751 17.192L27.6073 17.4396L26.0082 17.333L22.101 17.8434L20.0332 18.091L20.0253 18.3474L19.3439 18.1735L20.9668 17.5109L23.9562 17.0678L26.7133 16.7377L27.1702 16.7681L27.1781 16.5117L27.8673 16.4292Z" fill="#39829F"/>
<path d="M73.3145 27.2954L74.2242 27.4845L74.216 27.741L68.9346 28.2882L65.2596 28.6856L61.1279 29.0526L60.4465 28.8787L61.3721 28.555L63.2036 28.5486L64.1253 28.3531L64.59 28.1271L67.8 27.9557L69.4112 27.6776L72.1641 27.4757L73.3145 27.2954Z" fill="#5A9BB8"/>
<path d="M176.03 21.9375L184.25 22.6139L192.458 23.6749L193.364 23.9922L188.114 23.5138L185.605 23.2181L181.722 22.9593L181.729 22.7028L177.846 22.444L176.251 22.2092L176.03 21.9375Z" fill="#5A9BB8"/>
<path d="M160.269 13.4347L168.036 13.9524L170.773 14.2634L170.765 14.5198L169.848 14.5871L160.942 13.865L154.546 13.4387L154.55 13.3105L160.269 13.4347Z" fill="#5A9BB8"/>
<path d="M195.413 16.9341L198.154 17.1168L204.086 17.7692L209.789 18.4063L209.785 18.5345L204.531 18.1842L204.07 18.282L204.078 18.0256L202.932 18.0777L202.471 18.1754L200.415 18.0384L196.539 17.5231L195.409 17.0623L195.413 16.9341Z" fill="#39829F"/>
<path d="M215.149 22.7461L224.735 23.6421L224.499 23.8833L223.814 23.8376L223.806 24.094L220.371 24.122L220.367 24.2502L218.087 23.9698L218.78 23.759L219.697 23.6917L217.421 23.283L217.413 23.5395L216.957 23.509L216.964 23.2526L215.594 23.1612L215.141 23.0026L215.149 22.7461Z" fill="#7EABC4"/>
<path d="M57.0641 19.7886L57.7455 19.9625L56.8199 20.2862L55.2169 20.3079L53.8383 20.4729L51.3176 20.5618L47.6428 20.9593L43.7436 21.2133L42.8337 21.0241L43.7593 20.7004L44.6731 20.7613L46.0556 20.4681L51.7863 20.2077L55.4571 19.9385L57.0641 19.7886Z" fill="#5A9BB8"/>
<path d="M62.7126 14.769L63.3939 14.9429L60.4084 15.2578L54.6737 15.6464L49.1675 16.0502L47.7969 15.9588L47.8048 15.7024L51.9364 15.3354L62.7126 14.769Z" fill="#5A9BB8"/>
<path d="M161.654 20.4648L165.538 20.7237L165.057 21.4625L162.541 21.4232L162.552 21.0386L159.804 21.1123L158.657 21.1644L154.088 20.8598L154.324 20.6186L158.208 20.8775L158.216 20.6211L161.194 20.5626L161.654 20.4648Z" fill="#5A9BB8"/>
<path d="M118.833 28.4023L120.432 28.5089L120.195 28.7501L118.596 28.6435L118.352 29.1411L116.289 29.2605L112.626 29.2733L113.091 29.0473L116.3 28.8759L114.697 28.8975L108.281 29.1122L105.765 29.0729L106.686 28.8774L113.106 28.5345L118.144 28.4849L118.833 28.4023Z" fill="#5A9BB8"/>
<path d="M191.608 21.562L199.146 22.0644L203.711 22.4972L208.961 22.9756L213.522 23.5366L212.829 23.7473L208.949 23.3602L207.811 23.1559L202.557 22.8057L195.712 22.0925L191.604 21.6902L191.608 21.562Z" fill="#5A9BB8"/>
<path d="M192.25 23.0181L195.219 23.216L195.215 23.3442L201.604 24.027L202.281 24.3291L200.903 24.4941L200.678 24.3507L194.971 23.8418L190.863 23.4395L191.789 23.1158L192.25 23.0181Z" fill="#39829F"/>
<path d="M180.378 21.9702L183.348 22.1681L190.418 23.0248L191.332 23.0857L191.111 22.814L192.25 23.0184L192.009 23.3878L193.376 23.6073L193.372 23.7356L190.403 23.5376L180.371 22.2266L180.378 21.9702Z" fill="#39829F"/>
<path d="M162.879 25.3002L164.703 25.5502L164.699 25.6784L158.975 25.6824L154.856 25.6647L150.275 25.7448L148.904 25.6534L149.598 25.4427L152.122 25.2256L156.699 25.2737L159.906 25.2304L162.879 25.3002Z" fill="#5A9BB8"/>
<path d="M56.1708 11.6353L57.313 11.7115L56.6198 11.9222L49.739 12.3629L45.6073 12.7298L41.9325 13.1272L40.3255 13.2771L39.4157 13.088L41.2551 12.8251L44.0082 12.6232L45.1622 12.3147L56.1708 11.6353Z" fill="#5A9BB8"/>
<path d="M56.8403 12.1934L57.5217 12.3673L53.1576 12.8472L45.808 13.642L43.9766 13.6484L44.4414 13.4225L46.7376 13.1901L46.2926 12.775L47.4427 12.5947L49.2742 12.5883L49.2662 12.8448L52.9371 12.5756L56.8403 12.1934Z" fill="#5A9BB8"/>
<path d="M123.258 11.0971L125.77 11.2646L125.766 11.3928L123.478 11.3687L124.617 11.5731L124.613 11.7013L122.096 11.662L121.186 11.4729L117.751 11.5009L116.83 11.6964L116.826 11.8246L114.537 11.8006L114.546 11.5441L111.576 11.3462L110.441 11.0136L111.359 10.9463L115.928 11.2509L123.258 11.0971Z" fill="#5A9BB8"/>
<path d="M90.2913 11.2119L92.5716 11.4924L94.1666 11.7272L93.2454 11.9227L91.6463 11.8161L91.1928 11.6574L91.1853 11.9138L90.2757 11.7247L88.6725 11.7463L88.6643 12.0028L87.0652 11.8962L86.3799 11.8505L82.2679 11.5764L83.1899 11.3809L86.8531 11.3681L88.4597 11.2183L90.2913 11.2119Z" fill="#5A9BB8"/>
<path d="M77.5319 31.5591L77.7528 31.8308L76.374 31.9958L76.3625 32.3805L70.1592 33.1232L68.5635 32.8884L69.257 32.6777L70.8642 32.5279L71.317 32.6865L71.557 32.3171L75.2359 31.7915L77.5319 31.5591Z" fill="#39829F"/>
<path d="M173.257 22.7801L174.856 22.8867L174.849 23.1431L176.227 22.9781L176.452 23.1215L183.986 23.7522L183.521 23.9782L170.729 23.1255L170.276 22.9668L170.284 22.7104L172.564 22.9909L173.257 22.7801Z" fill="#5A9BB8"/>
<path d="M111.083 12.4694L114.509 12.6978L114.502 12.9542L112.67 12.9606L112.209 13.0584L110.153 12.9213L108.55 12.943L108.543 13.1994L106.254 13.1753L106.046 12.5191L106.963 12.4517L111.083 12.4694Z" fill="#5A9BB8"/>
<path d="M56.7798 29.0195L57.922 29.0956L57.6777 29.5932L56.2991 29.7583L55.1609 29.5539L54.9206 29.9233L51.9311 30.3664L49.6349 30.5988L48.2683 30.3792L47.5908 30.0771L49.6586 29.8295L50.344 29.8752L50.3361 30.1316L53.0891 29.9297L54.9404 29.2823L56.7798 29.0195Z" fill="#7EABC4"/>
<path d="M50.3327 22.8091L51.2425 22.9982L45.7323 23.5302L42.5184 23.8299L41.3683 24.0102L40.683 23.9645L38.6152 24.2121L37.2446 24.1207L37.9378 23.91L40.9233 23.5951L43.6804 23.265L49.415 22.8764L50.3327 22.8091Z" fill="#5A9BB8"/>
<path d="M147.026 27.1987L148.164 27.4031L152.737 27.5794L151.815 27.7749L144.713 27.9439L143.796 28.0112L142.429 27.7917L142.666 27.5505L144.733 27.3029L147.026 27.1987Z" fill="#5A9BB8"/>
<path d="M67.1385 27.1406L69.6512 27.3081L69.1862 27.5341L63.9087 27.9531L58.627 28.5004L56.5591 28.7479L56.1062 28.5893L58.8672 28.1309L64.3814 27.4707L65.9844 27.4491L67.1385 27.1406Z" fill="#5A9BB8"/>
<path d="M68.8137 9.90869L69.2705 9.93914L69.0265 10.4367L63.2999 10.5689L60.5507 10.6426L61.4802 10.1907L62.8587 10.0256L68.8137 9.90869Z" fill="#5A9BB8"/>
<path d="M20.4625 19.019L21.1438 19.1929L20.2182 19.5167L19.2966 19.7122L18.371 20.0359L16.9885 20.3292L16.9806 20.5856L15.1452 20.7202L13.9951 20.9005L13.0853 20.7113L15.157 20.3355L14.2472 20.1464L16.323 19.6424L18.3868 19.523L20.4625 19.019Z" fill="#B5CBDB"/>
<path d="M79.2513 12.9165L81.5357 13.0687L80.6137 13.2643L79.6959 13.3316L81.0665 13.4229L80.1453 13.6184L78.0852 13.6096L78.0893 13.4814L75.8008 13.4573L74.6505 13.6376L73.7408 13.4485L73.0514 13.531L71.4523 13.4244L71.9173 13.1985L73.5246 13.0486L78.105 12.9686L79.2513 12.9165Z" fill="#39829F"/>
<path d="M30.5968 16.9971L31.5066 17.1862L31.4987 17.4426L29.6672 17.449L29.4309 17.6902L27.371 17.6814L27.3631 17.9378L25.5316 17.9442L21.6244 18.4546L21.1715 18.2959L22.0971 17.9722L26.6935 17.3793L30.5968 16.9971Z" fill="#7EABC4"/>
<path d="M99.1923 12.0619L99.6492 12.0924L99.6411 12.3488L103.076 12.3208L103.517 12.8641L101.685 12.8704L98.7157 12.6725L98.4832 12.7855L97.341 12.7093L97.3492 12.4529L95.9785 12.3616L95.2932 12.3159L94.616 12.0138L95.0763 11.916L96.6754 12.0226L96.6679 12.279L98.9598 12.1749L99.1923 12.0619Z" fill="#5A9BB8"/>
<path d="M32.9279 23.062L33.8377 23.2511L29.6981 23.8745L25.3301 24.4827L24.4164 24.4218L24.4085 24.6782L25.5586 24.4979L26.4684 24.687L23.7074 25.1453L22.7975 24.9562L23.9555 24.5195L24.4242 24.1653L31.0885 23.3248L32.9279 23.062Z" fill="#5A9BB8"/>
<path d="M85.0276 26.021L86.6267 26.1276L86.1623 26.3536L81.5697 26.8183L79.7306 27.0811L79.0487 26.9072L79.7421 26.6965L78.8284 26.6356L78.8365 26.3792L83.4251 26.0427L85.0276 26.021Z" fill="#5A9BB8"/>
<path d="M25.8337 30.4263L26.5151 30.6002L22.1392 31.4648L20.0596 32.097L20.0516 32.3534L18.9095 32.2773L19.1655 31.3951L18.0115 31.7036L17.5546 31.6731L17.5625 31.4167L19.6303 31.1691L20.7686 31.3734L23.7659 30.6739L25.8337 30.4263Z" fill="#5A9BB8"/>
<path d="M115.391 28.687L117.218 28.8089L116.296 29.0044L113.086 29.1758L116.292 29.1326L115.591 29.5997L111.704 29.4691L111.251 29.3104L109.195 29.1734L109.431 28.9322L114.701 28.7696L115.391 28.687Z" fill="#39829F"/>
<path d="M96.2015 27.4077L96.6543 27.5663L95.5046 27.7466L89.0804 28.2177L89.5298 28.5046L85.63 28.7586L84.7203 28.5695L85.8706 28.3892L84.961 28.2001L94.8268 27.4445L96.2015 27.4077Z" fill="#5A9BB8"/>
<path d="M21.8515 33.3721L22.3044 33.5308L22.2926 33.9154L19.5236 34.6302L17.9166 34.78L16.5381 34.9451L16.0892 34.6582L17.0108 34.4627L17.7119 33.9955L18.3933 34.1694L18.157 34.4106L19.0747 34.3433L18.8581 33.9434L20.2406 33.6502L20.9259 33.6958L20.9338 33.4394L21.8515 33.3721Z" fill="#39829F"/>
<path d="M104.623 28.9971L105.532 29.1862L103.464 29.4338L105.757 29.3297L107.356 29.4362L106.891 29.6622L105.973 29.7295L105.737 29.9707L103.444 30.0749L101.845 29.9683L101.168 29.6662L102.543 29.6293L102.55 29.3729L101.869 29.199L104.623 28.9971Z" fill="#5A9BB8"/>
<path d="M26.8456 34.7329L27.527 34.9068L22.4539 36.1103L21.5244 36.5623L20.3743 36.7425L19.6889 36.6969L19.4803 36.0406L21.3236 35.6496L21.5442 35.9212L24.3091 35.3347L26.8456 34.7329Z" fill="#5A9BB8"/>
<path d="M44.4867 34.2388L44.4749 34.6234L43.5453 35.0753L41.7059 35.3382L41.0246 35.1643L40.1069 35.2316L38.2676 35.4944L37.3577 35.3053L43.1122 34.2756L44.4867 34.2388Z" fill="#39829F"/>
<path d="M71.4272 29.0967L72.5694 29.1728L72.105 29.3988L67.7408 29.8787L66.5868 30.1872L64.5309 30.0502L64.523 30.3066L64.9759 30.4653L64.515 30.563L63.6092 30.2457L61.5453 30.3651L62.0101 30.1391L66.835 29.5614L71.4272 29.0967Z" fill="#7EABC4"/>
<path d="M100.909 15.7735L104.107 15.9867L104.104 16.1149L100.212 16.1124L94.4936 15.9882L91.9808 15.8207L92.4451 15.5947L97.0221 15.6428L100.909 15.7735Z" fill="#7EABC4"/>
<path d="M41.7507 19.0249L42.6645 19.0858L42.4242 19.4552L38.7494 19.8526L37.1425 20.0025L36.4611 19.8286L34.3972 19.9479L35.0944 19.609L41.7507 19.0249Z" fill="#39829F"/>
<path d="M107.924 18.4254L110.209 18.5777L109.972 18.8189L106.077 18.9446L103.107 18.7467L102.646 18.8444L101.28 18.6249L101.972 18.4141L104.493 18.3252L107.463 18.5232L107.924 18.4254Z" fill="#5A9BB8"/>
<path d="M101.865 29.3271L102.55 29.3728L102.543 29.6292L101.849 29.8399L100.931 29.9072L98.6396 30.0114L95.4292 30.1828L93.8267 30.2045L93.1529 29.7742L95.4489 29.5418L95.9058 29.5722L95.8983 29.8287L101.176 29.4096L101.865 29.3271Z" fill="#39829F"/>
<path d="M35.8351 17.8599L36.5164 18.0337L34.6771 18.2966L33.527 18.4768L33.7475 18.7485L30.766 18.9352L27.7804 19.2501L27.7726 19.5065L25.4842 19.4824L26.1774 19.2717L28.4815 18.7829L31.6994 18.355L35.8351 17.8599Z" fill="#5A9BB8"/>
<path d="M173.324 20.6009L180.635 21.0882L183.829 21.4296L183.136 21.6403L170.576 20.6746L170.579 20.5464L173.324 20.6009Z" fill="#5A9BB8"/>
<path d="M113.729 23.1807L113.949 23.4524L111.196 23.6543L108.219 23.7128L106.391 23.591L106.384 23.8474L105.009 23.8842L102.953 23.7472L103.875 23.5517L105.481 23.4018L107.541 23.4107L110.523 23.224L113.729 23.1807Z" fill="#5A9BB8"/>
<path d="M33.1649 15.3691L33.8502 15.4148L33.61 15.7842L32.2314 15.9493L33.606 15.9124L33.5981 16.1688L29.2341 16.6488L28.0919 16.5726L28.0997 16.3162L29.0175 16.2489L29.0253 15.9925L30.6363 15.7145L31.3216 15.7601L31.3295 15.5037L33.1649 15.3691Z" fill="#5A9BB8"/>
<path d="M92.9177 15.1126L93.1387 15.3843L88.1048 15.3057L85.356 15.3794L82.8391 15.3401L80.7831 15.2031L81.4766 14.9923L87.8886 14.9058L92.9177 15.1126Z" fill="#5A9BB8"/>
<path d="M76.9512 13.2773L78.3219 13.3686L78.5381 13.7685L76.699 14.0313L73.0317 14.1723L73.2724 13.8029L74.1861 13.8638L74.1936 13.6074L75.8049 13.3293L76.9512 13.2773Z" fill="#5A9BB8"/>
<path d="M115.461 26.3789L116.604 26.455L115.911 26.6658L110.408 26.9414L108.797 27.2194L107.423 27.2563L105.13 27.3604L105.37 26.991L111.105 26.6024L113.859 26.4005L115.461 26.3789Z" fill="#5A9BB8"/>
<path d="M8.68899 29.6685L10.745 29.8056L10.0478 30.1445L10.5007 30.3032L7.73966 30.7615L4.51388 31.4458L4.29333 31.1742L6.83382 30.4442L8.45266 29.9097L8.68899 29.6685Z" fill="#39829F"/>
<path d="M81.3188 12.6689L81.7757 12.6994L81.5357 13.0688L78.1009 13.0968L72.6027 13.2442L70.7711 13.2506L70.7833 12.866L71.472 12.7834L77.8806 12.8252L81.3188 12.6689Z" fill="#5A9BB8"/>
<path d="M101.792 9.40869L104.077 9.56096L103.383 9.7717L101.327 9.63466L101.32 9.89108L99.2596 9.88225L98.8068 9.72358L96.0574 9.79728L95.5964 9.89504L91.2485 9.86215L91.7129 9.63618L98.3574 9.43671L101.792 9.40869Z" fill="#5A9BB8"/>
<path d="M92.6961 29.7441L94.0626 29.9637L93.5901 30.4461L88.9975 30.9108L88.7772 30.6392L88.0959 30.4653L91.5423 30.0526L92.4561 30.1135L92.6961 29.7441Z" fill="#5A9BB8"/>
<path d="M140.563 21.5005L142.619 21.6375L142.836 22.0374L142.379 22.0069L142.371 22.2633L141.689 22.0895L141.926 21.8483L140.78 21.9003L136.207 21.724L133.69 21.6847L133.241 21.3979L136.219 21.3394L140.563 21.5005Z" fill="#5A9BB8"/>
<path d="M153.235 11.4242L161.458 11.9724L161.454 12.1006L155.507 11.9611L149.339 11.55L150.261 11.3545L153.235 11.4242Z" fill="#39829F"/>
<path d="M125.936 13.3309L132.561 13.7725L132.095 13.9985L125.006 13.7828L123.183 13.5328L123.19 13.2764L125.936 13.3309Z" fill="#5A9BB8"/>
<path d="M92.0066 29.8262L92.4635 29.8566L92.456 30.113L88.0918 30.593L82.5773 31.2532L81.6676 31.0641L83.0505 30.7708L89.4822 30.0433L92.0066 29.8262Z" fill="#39829F"/>
<path d="M182.068 19.1279L188.922 19.5847L189.142 19.8563L186.629 19.6888L188.453 19.9388L188.449 20.0671L184.794 19.8234L181.828 19.4973L182.068 19.1279Z" fill="#39829F"/>
<path d="M138.546 27.5327L139.688 27.6088L139.227 27.7066L138.979 28.3324L139.428 28.6193L138.51 28.6866L135.765 28.632L130.948 28.9533L130.038 28.7642L136.691 28.3083L136.698 28.0519L138.534 27.9173L138.546 27.5327Z" fill="#5A9BB8"/>
<path d="M49.5881 24.686L51.1872 24.7926L50.7224 25.0186L48.6586 25.1379L50.0252 25.3575L49.1036 25.553L47.0397 25.6724L45.6612 25.8375L44.519 25.7613L45.2123 25.5506L46.13 25.4833L46.1418 25.0987L49.5881 24.686Z" fill="#5A9BB8"/>
<path d="M173.396 18.293L178.65 18.6432L178.413 18.8844L180.694 19.1649L180.69 19.2931L173.609 18.8211L173.396 18.293Z" fill="#5A9BB8"/>
<path d="M17.6375 28.9805L18.3189 29.1544L17.3933 29.4781L18.311 29.4108L18.3032 29.6672L19.6777 29.6304L19.6698 29.8868L20.3512 30.0607L18.0589 30.1649L17.3775 29.991L15.3176 29.9821L15.3097 30.2386L14.8568 30.0799L16.0187 29.515L17.1767 29.0783L17.6375 28.9805Z" fill="#5A9BB8"/>
<path d="M175.928 25.271L176.385 25.3014L176.141 25.7991L174.08 25.7902L170.189 25.7878L168.59 25.6812L169.287 25.3423L175.928 25.271Z" fill="#5A9BB8"/>
<path d="M115.415 20.4663L117.471 20.6033L116.541 21.0553L113.107 21.0833L112.874 21.1963L111.271 21.2179L111.736 20.9919L110.831 20.6746L115.415 20.4663Z" fill="#5A9BB8"/>
<path d="M66.9607 32.9102L67.8745 32.9711L68.0911 33.371L67.4018 33.4535L67.1655 33.6947L65.783 33.988L62.3564 33.7596L61.679 33.4575L63.7468 33.2099L63.5104 33.4511L65.5743 33.3317L66.7205 33.2796L66.043 32.9775L66.9607 32.9102Z" fill="#39829F"/>
<path d="M94.2754 30.4917L95.4176 30.5679L95.181 30.8091L91.5062 31.2065L90.124 31.4998L88.2924 31.5062L88.3047 31.1215L90.6006 30.8892L94.2754 30.4917Z" fill="#39829F"/>
<path d="M103.509 13.1209L105.336 13.2427L105.329 13.4992L98.4594 13.5552L97.0887 13.4638L97.7904 12.9967L99.3936 12.9751L101.906 13.1426L103.509 13.1209Z" fill="#5A9BB8"/>
<path d="M14.0655 26.0439L14.5145 26.3307L14.0537 26.4285L15.4242 26.5199L14.7271 26.8588L12.8877 27.1216L11.7376 27.3019L10.8239 27.241L10.8318 26.9846L10.3828 26.6977L11.3045 26.5022L11.2966 26.7586L13.3723 26.2546L14.0655 26.0439Z" fill="#7EABC4"/>
<path d="M194.629 20.0938L195.767 20.298L206.035 21.368L206.484 21.6548L196.898 20.7589L193.932 20.4327L194.629 20.0938Z" fill="#5A9BB8"/>
<path d="M40.1833 17.8926L41.0931 18.0817L40.8489 18.5794L35.3348 19.2396L34.6534 19.0657L36.9575 18.5769L39.4822 18.3598L40.396 18.4207L40.4039 18.1643L37.8792 18.3814L37.1978 18.2075L40.1833 17.8926Z" fill="#5A9BB8"/>
<path d="M103.705 21.6133L105.305 21.7198L104.84 21.9458L102.772 22.1934L101.626 22.2455L97.7184 22.7559L95.6583 22.747L95.6665 22.4906L100.488 22.0411L103.705 21.6133Z" fill="#5A9BB8"/>
<path d="M48.683 16.9175L49.3644 17.0913L48.9035 17.1891L50.4987 17.4239L49.8055 17.6346L47.0523 17.8365L45.4532 17.73L43.6218 17.7364L44.315 17.5256L48.683 16.9175Z" fill="#5A9BB8"/>
<path d="M69.0815 16.0933L70.2237 16.1695L70.2156 16.4259L66.0878 16.6646L64.9496 16.4603L60.8258 16.5708L60.8337 16.3144L65.6467 16.1213L66.785 16.3257L67.7067 16.1302L69.0815 16.0933Z" fill="#5A9BB8"/>
<path d="M24.7982 26.8882L25.4796 27.0621L20.6508 27.768L16.9602 28.6783L15.3532 28.8281L16.0504 28.4892L18.8153 27.9026L18.8272 27.518L19.9733 27.4659L21.5842 27.1879L24.7982 26.8882Z" fill="#5A9BB8"/>
<path d="M99.8172 28.9336L100.498 29.1075L99.8056 29.3183L99.5649 29.6877L96.5836 29.8744L95.8983 29.8287L95.9058 29.5723L94.3033 29.5939L95.2245 29.3984L98.4384 29.0987L99.8172 28.9336Z" fill="#5A9BB8"/>
<path d="M170.836 12.2124L172.207 12.3038L172.203 12.432L179.505 13.1757L179.726 13.4473L173.786 13.0514L171.053 12.6123L170.836 12.2124Z" fill="#5A9BB8"/>
<path d="M51.5453 28.0288L52.9121 28.2484L53.81 28.8222L51.5177 28.9263L50.6 28.9936L50.6079 28.7372L49.6981 28.5481L50.8482 28.3678L49.2412 28.5176L48.099 28.4415L48.3353 28.2003L51.5453 28.0288Z" fill="#5A9BB8"/>
<path d="M162.603 26.8232L165.116 26.9907L166.026 27.1798L170.819 27.6278L169.893 27.9515L162.819 27.2231L160.768 26.9578L160.772 26.8296L162.603 26.8232Z" fill="#7EABC4"/>
<path d="M32.9128 16.123L33.3696 16.1534L33.1175 16.9074L31.9713 16.9595L31.735 17.2007L29.679 17.0637L30.1478 16.7095L29.0016 16.7616L29.238 16.5204L32.9128 16.123Z" fill="#39829F"/>
<path d="M132.679 9.92636L134.049 10.0177L133.814 10.2589L133.124 10.3415L128.547 10.2934L128.543 10.4216L126.948 10.1868L126.956 9.93032L126.047 9.74121L132.679 9.92636Z" fill="#39829F"/>
<path d="M43.5144 28.6499L44.4282 28.7108L44.4203 28.9672L42.8133 29.1171L41.2024 29.3951L38.6856 29.3558L37.307 29.5209L36.3973 29.3318L38.6975 28.9712L43.5144 28.6499Z" fill="#5A9BB8"/>
<path d="M151.285 15.2773L157.444 15.9448L157.44 16.073L152.864 16.0249L148.295 15.7204L148.299 15.5922L151.048 15.5185L151.285 15.2773Z" fill="#5A9BB8"/>
<path d="M67.6862 24.2227L68.3715 24.2684L68.3636 24.5248L65.6105 24.7267L58.9739 24.6698L59.4387 24.4438L64.2518 24.2507L64.9371 24.2964L67.6862 24.2227Z" fill="#5A9BB8"/>
<path d="M117.073 18.6493L119.586 18.8168L120.953 19.0364L120.949 19.1646L116.147 18.9731L112.252 19.0988L111.343 18.9097L110.661 18.7358L110.897 18.4946L114.095 18.7078L117.073 18.6493Z" fill="#5A9BB8"/>
<path d="M97.5144 14.5197L100.027 14.6872L99.1053 14.8828L91.3227 14.8779L90.8658 14.8474L90.8739 14.591L91.7877 14.6519L91.7952 14.3955L94.0796 14.5478L97.5144 14.5197Z" fill="#5A9BB8"/>
<path d="M25.4552 35.2827L25.912 35.3132L25.9042 35.5696L24.0608 35.9606L25.8962 35.826L27.0463 35.6458L27.0384 35.9022L25.8844 36.2107L24.045 36.4735L21.993 36.2082L23.151 35.7715L25.4552 35.2827Z" fill="#39829F"/>
<path d="M38.5197 34.7402L39.4334 34.8011L39.4255 35.0575L37.3577 35.3051L37.1174 35.6745L35.5065 35.9526L34.3564 36.1329L33.675 35.959L34.3722 35.62L35.9792 35.4702L35.9871 35.2138L38.5197 34.7402Z" fill="#7EABC4"/>
<path d="M44.5118 18.5669L44.9648 18.7256L42.6646 19.0862L36.469 19.5725L35.7877 19.3986L36.9417 19.0901L42.9048 18.7168L44.5118 18.5669Z" fill="#5A9BB8"/>
<path d="M119.535 13.0324L123.19 13.276L122.493 13.615L117.696 13.2952L114.951 13.2407L115.187 12.9995L119.535 13.0324Z" fill="#5A9BB8"/>
<path d="M43.255 22.2085L44.1648 22.3976L41.4038 22.8559L37.729 23.2533L35.4367 23.3575L35.9015 23.1315L41.648 22.3583L43.255 22.2085Z" fill="#5A9BB8"/>
<path d="M160.276 20.6304L161.19 20.6913L161.182 20.9477L161.863 21.1216L159.118 21.0671L158.657 21.1649L154.088 20.8603L154.324 20.6191L158.208 20.878L158.216 20.6216L160.276 20.6304Z" fill="#5A9BB8"/>
<path d="M224.74 23.5142L231.136 23.9405L231.128 24.1969L226.322 24.1336L223.809 23.9661L224.74 23.5142Z" fill="#39829F"/>
<path d="M86.1786 18.3892L88.0062 18.5111L87.7696 18.7523L85.0167 18.9542L81.5901 18.7258L81.3698 18.4541L83.8902 18.3652L86.1786 18.3892Z" fill="#7EABC4"/>
<path d="M151.595 20.0513L155.936 20.3406L156.384 20.6275L153.186 20.4143L147.696 20.3053L146.101 20.0705L147.022 19.875L151.595 20.0513Z" fill="#5A9BB8"/>
<path d="M99.3222 15.2827L100.003 15.4566L104.801 15.7764L103.879 15.9719L97.0181 15.7715L95.1906 15.6497L95.4271 15.4085L99.3141 15.5391L99.3222 15.2827Z" fill="#39829F"/>
<path d="M45.7513 30.3398L46.2043 30.4985L45.2708 31.0786L42.0529 31.5065L41.3715 31.3326L41.8284 31.3631L41.8402 30.9784L45.7513 30.3398Z" fill="#5A9BB8"/>
<path d="M28.6896 26.8906L29.1464 26.921L29.1307 27.4339L26.8344 27.6662L23.3841 28.2071L22.4743 28.018L25.2353 27.5596L27.5395 27.0708L28.6896 26.8906Z" fill="#5A9BB8"/>
<path d="M216.523 22.7095L220.635 22.9836L224.74 23.5141L224.735 23.6423L219.024 23.2616L216.516 22.9659L216.523 22.7095Z" fill="#39829F"/>
<path d="M170.635 18.7516L173.605 18.9496L173.596 19.206L171.54 19.0689L169.937 19.0906L165.14 18.7708L164.691 18.4839L170.635 18.7516Z" fill="#5A9BB8"/>
<path d="M77.3986 28.4673L78.9936 28.7021L78.0717 28.8976L76.0082 29.017L76 29.2734L73.7115 29.2493L72.5693 29.1732L73.0344 28.9472L76.9376 28.565L77.3986 28.4673Z" fill="#5A9BB8"/>
<path d="M27.1662 16.8965L28.076 17.0856L22.1011 17.8436L20.0333 18.0912L20.0253 18.3476L19.344 18.1737L20.9667 17.511L25.7877 17.0615L27.1662 16.8965Z" fill="#5A9BB8"/>
<path d="M59.2307 16.3359L60.3729 16.412L59.6797 16.6228L54.4019 17.0418L51.1879 17.3415L50.5105 17.0394L58.0846 16.388L59.2307 16.3359Z" fill="#5A9BB8"/>
<path d="M200.533 21.6431L203.046 21.8106L204.184 22.015L204.18 22.1432L201.663 22.1039L203.486 22.3539L202.565 22.5494L199.143 22.1928L199.15 21.9364L198.701 21.6495L200.533 21.6431Z" fill="#39829F"/>
<path d="M11.2933 19.436L11.7502 19.4665L11.7423 19.7229L11.2854 19.6925L10.8127 20.1749L9.6587 20.4833L7.82722 20.4897L7.38611 19.9464L8.52832 20.0226L11.2933 19.436Z" fill="#5A9BB8"/>
<path d="M50.6006 21.542L51.9713 21.6334L51.2781 21.8441L47.1464 22.2111L45.311 22.3457L44.3972 22.2848L44.4052 22.0284L50.6006 21.542Z" fill="#5A9BB8"/>
<path d="M125.214 21.8901L125.896 22.064L122.682 22.3637L118.79 22.3612L118.794 22.233L117.428 22.0135L118.349 21.8179L121.547 22.0311L125.214 21.8901Z" fill="#5A9BB8"/>
<path d="M15.7245 16.7764L16.4059 16.9503L15.949 16.9199L15.9411 17.1763L15.0194 17.3718L13.8733 17.4239L11.5731 17.7844L10.2025 17.6931L10.6672 17.4671L15.2637 16.8742L15.7245 16.7764ZM14.5626 17.3413L15.0155 17.5L14.3183 17.8389L13.4006 17.9062L13.4125 17.5216L14.5626 17.3413Z" fill="#39829F"/>
<path d="M171.544 26.3918L172.449 26.7091L171.761 26.7916L167.645 26.6458L166.041 26.6674L163.757 26.5151L163.994 26.2739L168.113 26.2916L171.544 26.3918Z" fill="#7EABC4"/>
<path d="M69.1447 14.042L69.5975 14.2007L69.5894 14.4571L64.7685 14.9066L64.0832 14.8609L63.8626 14.5893L62.4881 14.6261L63.4137 14.3024L65.4696 14.4394L69.1447 14.042Z" fill="#5A9BB8"/>
<path d="M131.52 17.8145L133.119 17.921L133.34 18.1927L130.591 18.2664L128.763 18.1446L126.018 18.0901L124.423 17.8553L124.427 17.7271L130.146 17.8513L131.52 17.8145Z" fill="#5A9BB8"/>
<path d="M115.317 8.76908L118.287 8.96703L118.051 9.20822L115.758 9.31237L112.785 9.24263L113.258 8.76025L115.317 8.76908Z" fill="#39829F"/>
<path d="M40.4301 32.1699L40.8831 32.3286L38.118 32.9151L33.9785 33.5385L32.8323 33.5906L33.5296 33.2516L36.0621 32.7781L38.8192 32.448L40.4301 32.1699Z" fill="#5A9BB8"/>
<path d="M94.5834 20.4907L95.7256 20.5669L95.7175 20.8233L89.0695 21.151L88.1599 20.9619L89.3095 20.7816L94.5834 20.4907Z" fill="#39829F"/>
<path d="M196.503 26.1284L201.986 26.4938L203.124 26.6982L203.12 26.8264L198.547 26.6501L194.663 26.3912L194.443 26.1196L196.503 26.1284Z" fill="#39829F"/>
<path d="M90.4647 13.022L90.9175 13.1807L90.6809 13.4219L92.745 13.3025L94.801 13.4395L94.5644 13.6807L89.5312 13.6022L87.4752 13.4651L88.168 13.2544L90.4647 13.022Z" fill="#5A9BB8"/>
<path d="M75.7084 31.3096L76.6181 31.4987L70.4148 32.2415L69.7335 32.0676L70.1986 31.8416L73.6449 31.429L75.7084 31.3096Z" fill="#39829F"/>
<path d="M104.825 15.0068L105.277 15.1655L103.899 15.3305L102.068 15.3369L104.348 15.6174L104.344 15.7456L102.284 15.7368L99.7709 15.5693L100.016 15.0717L104.825 15.0068Z" fill="#5A9BB8"/>
<path d="M81.3582 11.3872L82.0395 11.5611L81.1182 11.7566L80.6532 11.9826L80.6613 11.7261L79.05 12.0042L76.5337 11.9649L76.3012 12.0779L73.5558 12.0234L74.0209 11.7974L75.399 11.6323L79.2907 11.6348L81.3582 11.3872Z" fill="#5A9BB8"/>
<path d="M133.396 8.9463L134.302 9.26362L127.665 9.20667L126.298 8.9871L126.302 8.85889L130.194 8.86133L133.396 8.9463Z" fill="#39829F"/>
<path d="M108.495 22.189L109.404 22.3781L109.397 22.6345L103.433 23.0079L101.83 23.0295L102.295 22.8035L108.034 22.2867L108.486 22.4454L108.495 22.189Z" fill="#5A9BB8"/>
<path d="M48.6145 34L49.2958 34.1739L49.2801 34.6867L48.3584 34.8822L48.122 35.1234L48.5749 35.2821L48.3386 35.5233L46.968 35.4319L46.519 35.145L46.7633 34.6474L47.9094 34.5953L47.9173 34.3389L47.4644 34.1803L48.3821 34.113L48.6145 34Z" fill="#5A9BB8"/>
<path d="M69.2264 26.2524L69.6833 26.2828L69.8995 26.6827L64.3972 26.9583L63.2551 26.8822L63.4914 26.641L65.5553 26.5216L66.469 26.5825L66.4769 26.3261L67.8514 26.2892L69.2182 26.5088L69.2264 26.2524Z" fill="#7EABC4"/>
<path d="M113.106 28.5347L114.701 28.7695L114.697 28.8977L108.281 29.1124L105.765 29.0731L106.686 28.8776L113.106 28.5347Z" fill="#5A9BB8"/>
<path d="M147.428 21.5725L148.57 21.6487L148.791 21.9203L146.498 22.0245L142.615 21.7656L142.851 21.5244L147.428 21.5725Z" fill="#5A9BB8"/>
<path d="M192.25 23.0181L195.219 23.216L194.971 23.8418L190.863 23.4395L191.789 23.1158L192.25 23.0181Z" fill="#39829F"/>
<path d="M114.123 17.811L116.179 17.948L116.4 18.2197L112.737 18.2325L109.082 17.9889L109.086 17.8606L114.123 17.811Z" fill="#7EABC4"/>
<path d="M177.366 15.731L181.707 16.0203L183.302 16.2551L183.298 16.3833L184.436 16.5877L184.432 16.7159L181.691 16.5331L177.815 16.0179L177.366 15.731Z" fill="#5A9BB8"/>
<path d="M79.84 30.9429L80.9782 31.1473L81.4276 31.4341L81.4194 31.6905L79.8163 31.7122L78.9106 31.3948L76.8465 31.5142L76.6262 31.2426L79.84 30.9429Z" fill="#39829F"/>
<path d="M192.029 22.7466L194.77 22.9293L196.365 23.1641L197.276 23.3533L199.103 23.4751L198.41 23.6858L194.298 23.4117L194.302 23.2835L192.021 23.003L192.029 22.7466Z" fill="#5A9BB8"/>
<path d="M46.7929 11.396L48.1596 11.6156L47.4704 11.6981L47.4624 11.9546L44.2525 12.126L43.5671 12.0803L43.579 11.6957L46.7929 11.396Z" fill="#5A9BB8"/>
<path d="M61.8811 19.4673L63.4802 19.5739L63.0154 19.7998L61.6369 19.9649L57.7415 20.0907L57.9819 19.7213L60.278 19.4889L61.8811 19.4673Z" fill="#5A9BB8"/>
<path d="M166.09 17.6772L171.572 18.0426L173.396 18.2926L173.392 18.4209L168.59 18.2293L165.853 17.9184L166.09 17.6772Z" fill="#5A9BB8"/>
<path d="M171.08 11.7154L172.451 11.8067L171.758 12.0175L168.323 12.0455L165.358 11.7193L165.366 11.4629L171.08 11.7154Z" fill="#39829F"/>
<path d="M77.5318 31.5596L77.7528 31.8312L76.374 31.9963L76.3624 32.3809L74.9836 32.546L73.613 32.4546L73.8571 31.957L77.5318 31.5596Z" fill="#39829F"/>
<path d="M56.7797 29.02L57.9219 29.0961L57.6777 29.5937L56.2991 29.7588L55.1609 29.5544L54.9206 29.9238L54.0029 29.9911L54.0187 29.4783L56.7797 29.02Z" fill="#5A9BB8"/>
<path d="M11.0879 26.1025L11.9938 26.4198L10.6113 26.7131L11.0602 27L10.371 27.0825L9.8983 27.5649L8.98059 27.6322L9.91809 26.9239L9.00038 26.9912L9.70542 26.3958L11.0879 26.1025Z" fill="#39829F"/>
<path d="M58.4071 20.7773L60.2345 20.8991L59.3129 21.0947L54.2636 21.5289L53.5782 21.4832L53.8185 21.1138L58.4071 20.7773Z" fill="#5A9BB8"/>
<path d="M41.5374 25.9478L42.4472 26.1369L39.0009 26.5495L36.4841 26.5102L36.2438 26.8796L34.8692 26.9165L35.334 26.6905L34.8811 26.5319L36.0312 26.3516L39.9305 26.0976L41.5374 25.9478Z" fill="#5A9BB8"/>
<path d="M66.6704 20.0435L67.1233 20.2021L66.4301 20.4129L61.8456 20.6212L59.5572 20.5971L59.5651 20.3407L62.5427 20.2822L63.4565 20.3431L63.4644 20.0867L65.5243 20.0955L66.6704 20.0435Z" fill="#5A9BB8"/>
<path d="M216.314 22.0527L219.966 22.4246L219.729 22.6658L218.126 22.6874L218.122 22.8156L215.609 22.6481L215.854 22.1505L216.314 22.0527Z" fill="#5A9BB8"/>
<path d="M11.45 29.21L12.344 29.912L12.3361 30.1684L10.0438 30.2726L9.59082 30.1139L10.0556 29.8879L9.60272 29.7293L10.7607 29.2926L11.45 29.21Z" fill="#7EABC4"/>
<path d="M78.4578 31.2358L80.2813 31.4858L80.2697 31.8704L78.2015 32.118L76.3665 32.2526L75.6887 31.9505L77.7528 31.8312L77.9928 31.4618L78.4497 31.4922L78.4578 31.2358Z" fill="#5A9BB8"/>
<path d="M114.142 24.6216L115.052 24.8107L113.902 24.991L109.778 25.1015L109.085 25.3123L107.029 25.1752L107.265 24.934L109.329 24.8147L114.142 24.6216Z" fill="#5A9BB8"/>
<path d="M60.1865 29.8892L60.6434 29.9197L60.6355 30.1761L56.2715 30.656L54.9009 30.5647L55.8265 30.241L57.8943 29.9934L60.1865 29.8892Z" fill="#7EABC4"/>
<path d="M165.723 22.1494L167.779 22.2865L168 22.5581L166.396 22.5797L165.711 22.5341L165.703 22.7905L164.561 22.7143L163.423 22.51L162.056 22.2904L162.06 22.1622L165.491 22.2624L165.723 22.1494Z" fill="#7EABC4"/>
<path d="M80.6179 13.1367L81.5316 13.1976L81.5235 13.454L83.1266 13.4324L83.1185 13.6888L79.9087 13.8603L78.5381 13.7689L78.7747 13.5277L79.6919 13.4604L78.7822 13.2713L80.6179 13.1367Z" fill="#5A9BB8"/>
<path d="M79.2513 12.917L81.5357 13.0692L80.6138 13.2647L79.6959 13.332L81.0666 13.4234L80.1453 13.6189L78.0853 13.6101L78.0894 13.4819L76.9512 13.2775L77.1872 13.0363L79.2513 12.917Z" fill="#39829F"/>
<path d="M165.995 13.3033L166.909 13.3642L167.126 13.7641L161.187 13.3682L161.195 13.1118L165.995 13.3033Z" fill="#5A9BB8"/>
<path d="M99.6635 26.4824L100.345 26.6563L99.8886 26.6259L99.8804 26.8823L97.8163 27.0016L97.5878 26.9864L96.2097 27.1515L95.0675 27.0753L95.5319 26.8494L95.9853 27.008L95.9928 26.7516L96.6782 26.7973L96.6863 26.5409L99.6635 26.4824Z" fill="#5A9BB8"/>
<path d="M38.9463 20.8936L39.8561 21.0827L36.6382 21.5106L35.4881 21.6909L33.889 21.5843L34.5863 21.2454L38.9463 20.8936Z" fill="#5A9BB8"/>
<path d="M53.5302 30.4736L54.9009 30.565L54.893 30.8214L50.3044 31.1579L49.3828 31.3534L48.473 31.1643L51.4624 30.7212L53.5302 30.4736Z" fill="#5A9BB8"/>
<path d="M83.1212 28.4629L84.7162 28.6977L84.7128 28.8259L79.6633 29.2602L78.9821 29.0863L81.0496 28.8387L81.2862 28.5975L81.518 28.4845L83.1171 28.5911L83.1212 28.4629Z" fill="#5A9BB8"/>
<path d="M28.7259 18.2852L29.4111 18.3309L29.4032 18.5873L24.8028 19.3085L24.1215 19.1346L24.1294 18.8782L25.2795 18.6979L25.5119 18.5849L27.8042 18.4808L28.7259 18.2852Z" fill="#5A9BB8"/>
<path d="M28.4191 13.3828L28.8759 13.4132L28.6356 13.7827L24.5 14.2778L23.5823 14.3451L23.5942 13.9605L28.4191 13.3828Z" fill="#39829F"/>
<path d="M30.3472 32.5254L30.8041 32.5558L30.7962 32.8123L27.3459 33.3531L26.4322 33.2922L26.2234 32.6359L28.2834 32.6448L27.3617 32.8403L28.047 32.886L30.3472 32.5254Z" fill="#7EABC4"/>
<path d="M50.9147 33.6396L51.5961 33.8135L51.8166 34.0852L51.1194 34.4241L49.0555 34.5435L48.839 34.1436L49.2959 34.1741L49.3038 33.9177L50.9147 33.6396Z" fill="#39829F"/>
<path d="M50.3327 22.8091L51.2425 22.9983L45.7323 23.5303L44.5901 23.4541L45.2873 23.1152L50.3327 22.8091Z" fill="#7EABC4"/>
<path d="M41.739 19.4092L43.334 19.644L43.3301 19.7722L41.2742 19.6352L41.0379 19.8764L39.8917 19.9285L37.5915 20.289L37.3591 20.402L36.2169 20.3259L37.1425 20.0022L40.132 19.5591L41.739 19.4092Z" fill="#5A9BB8"/>
<path d="M39.5692 15.5396L40.4829 15.6005L40.475 15.857L36.3434 16.2239L34.5119 16.2303L35.2051 16.0196L39.5692 15.5396Z" fill="#5A9BB8"/>
<path d="M188.11 23.6416L193.132 24.1048L193.805 24.5352L189.241 24.1024L188.106 23.7699L188.11 23.6416Z" fill="#5A9BB8"/>
<path d="M50.6211 13.4492L51.7633 13.5253L51.3025 13.6231L51.2946 13.8795L47.8561 14.0357L46.7061 14.216L45.5638 14.1399L46.4894 13.8162L47.868 13.6511L50.3887 13.5622L50.6211 13.4492Z" fill="#5A9BB8"/>
<path d="M30.5085 34.7202L31.4183 34.9093L32.1036 34.955L32.5565 35.1137L30.7132 35.5047L28.4209 35.6088L29.5829 35.0439L30.5085 34.7202Z" fill="#5A9BB8"/>
<path d="M20.6554 20.188L21.1043 20.4749L20.1826 20.6704L19.0404 20.5942L19.0325 20.8507L17.8824 21.031L17.1971 20.9853L16.7402 20.9548L16.9885 20.329L18.3631 20.2922L18.3552 20.5486L20.6554 20.188Z" fill="#5A9BB8"/>
<path d="M51.6803 16.2178L52.8225 16.294L52.5823 16.6634L51.4361 16.7154L51.2116 16.572L47.0799 16.939L46.3986 16.7651L48.9272 16.4197L51.6803 16.2178Z" fill="#5A9BB8"/>
<path d="M24.0669 13.478L24.7521 13.5237L24.7442 13.7801L20.6086 14.2753L19.9233 14.2296L19.687 14.4708L19.0096 14.1687L21.0813 13.7929L24.0669 13.478Z" fill="#39829F"/>
<path d="M189.445 24.8874L193.557 25.1614L192.864 25.3722L189.433 25.272L186.924 24.9763L186.928 24.8481L189.445 24.8874Z" fill="#5A9BB8"/>
<path d="M97.6164 18.6372L99.6724 18.7742L99.6642 19.0306L98.9789 18.9849L98.743 19.2261L98.2902 19.0675L98.282 19.3239L97.8251 19.2934L97.8333 19.037L96.687 19.0891L96.6829 19.2173L95.0879 18.9825L95.3238 18.7413L97.6164 18.6372Z" fill="#39829F"/>
<path d="M194.593 21.2476L200.533 21.6435L200.521 22.0281L193.671 21.4431L194.593 21.2476Z" fill="#5A9BB8"/>
<path d="M148.949 16.7916L151.461 16.9591L152.368 17.2765L147.795 17.1001L145.739 16.9631L146.661 16.7676L148.949 16.7916Z" fill="#5A9BB8"/>
<path d="M77.7684 31.3184L78.4497 31.4923L73.3927 32.183L72.0179 32.2198L72.7148 31.8809L76.8506 31.3857L77.7684 31.3184Z" fill="#5A9BB8"/>
<path d="M61.995 23.2007L62.4479 23.3593L61.2978 23.5396L61.5183 23.8113L59.4544 23.9307L58.5407 23.8697L58.5486 23.6133L57.8672 23.4394L61.995 23.2007Z" fill="#5A9BB8"/>
<path d="M180.697 26.4878L188.236 26.9903L187.771 27.2163L186.397 27.2531L180.693 26.616L180.697 26.4878Z" fill="#7EABC4"/>
<path d="M133.27 13.0491L137.373 13.5796L137.369 13.7078L133.71 13.5924L132.568 13.5162L132.344 13.3728L130.749 13.138L130.753 13.0098L133.037 13.1621L133.27 13.0491Z" fill="#5A9BB8"/>
<path d="M125.758 26.5518L126.899 26.6279L127.581 26.8018L128.491 26.9909L126.427 27.1103L125.741 27.0646L125.749 26.8082L122.997 27.0101L122.547 26.7233L125.758 26.5518Z" fill="#5A9BB8"/>
<path d="M95.4489 29.542L95.9058 29.5724L95.8983 29.8288L96.5795 30.0027L94.9689 30.2808L93.8267 30.2046L93.1529 29.7743L95.4489 29.542Z" fill="#39829F"/>
<path d="M32.1682 18.001L32.8535 18.0467L32.8456 18.3031L29.3953 18.8439L28.0208 18.8808L28.7179 18.5418L30.0925 18.505L30.1004 18.2486L32.1682 18.001Z" fill="#39829F"/>
<path d="M97.7272 15.0479L100.012 15.2002L99.3222 15.2827L99.3141 15.5391L98.6247 15.6216L94.2809 15.4605L94.9737 15.2498L97.7231 15.1761L97.7272 15.0479Z" fill="#5A9BB8"/>
<path d="M105.25 8.61182L107.306 8.74886L106.613 8.9596L104.321 9.06375L102.036 8.91148L102.273 8.67029L105.25 8.61182Z" fill="#39829F"/>
<path d="M10.8832 25.3184L11.5646 25.4923L10.8594 26.0877L9.93779 26.2832L9.25247 26.2375L9.26042 25.9811L8.57904 25.8072L9.49281 25.8681L9.73308 25.4987L10.8832 25.3184Z" fill="#5A9BB8"/>
<path d="M11.9905 19.0967L12.6718 19.2706L12.2031 19.6247L10.8285 19.6616L8.52439 20.1504L7.61456 19.9613L8.54023 19.6375L11.7581 19.2097L11.9905 19.0967Z" fill="#39829F"/>
<path d="M197.429 18.353L202.908 18.8467L202.904 18.9749L201.301 18.9965L197.418 18.7377L196.74 18.4356L197.429 18.353Z" fill="#5A9BB8"/>
<path d="M153.474 11.0552L157.13 11.2988L156.669 11.3966L156.661 11.653L153.234 11.4246L153.474 11.0552Z" fill="#7EABC4"/>
<path d="M100.25 29.7334L103.448 29.9466L103.212 30.1878L101.152 30.1789L100.006 30.231L99.998 30.4874L99.3127 30.4417L99.3208 30.1853L98.6437 29.8832L100.25 29.7334Z" fill="#5A9BB8"/>
<path d="M38.6744 22.2886L39.3558 22.4624L34.9838 23.1988L35.4328 23.4857L34.2867 23.5378L34.2946 23.2813L33.8456 22.9945L38.6744 22.2886Z" fill="#5A9BB8"/>
<path d="M186.889 26.1299L189.173 26.2822L190.997 26.5322L190.989 26.7886L187.787 26.7037L186.881 26.3863L186.889 26.1299Z" fill="#5A9BB8"/>
<path d="M110.158 12.793L110.839 12.9669L110.603 13.2081L111.056 13.3668L111.052 13.495L107.621 13.3948L108.554 12.8146L110.158 12.793Z" fill="#39829F"/>
<path d="M58.3077 31.4341L58.989 31.608L57.1457 31.999L53.7033 32.2835L52.7936 32.0944L58.3077 31.4341Z" fill="#7EABC4"/>
<path d="M95.8119 25.1982L96.2688 25.2287L96.2572 25.6133L93.7321 25.8305L91.2152 25.7912L91.2234 25.5347L93.7444 25.4458L95.8119 25.1982Z" fill="#5A9BB8"/>
<path d="M180.922 26.6313L184.577 26.8749L186.4 27.1249L186.397 27.2531L182.509 27.1225L180.686 26.8725L180.922 26.6313Z" fill="#39829F"/>
<path d="M58.7383 17.4595L59.1912 17.6182L58.2695 17.8137L58.0331 18.0549L56.887 18.1069L55.288 18.0004L55.2958 17.7439L56.2175 17.5484L58.7383 17.4595Z" fill="#5A9BB8"/>
<path d="M95.0763 11.916L96.6754 12.0226L96.6679 12.279L98.4995 12.2727L98.7157 12.6725L98.4832 12.7855L97.341 12.7094L97.3492 12.4529L95.9785 12.3616L95.2932 12.3159L94.616 12.0138L95.0763 11.916Z" fill="#5A9BB8"/>
<path d="M147.026 27.1982L148.164 27.4026L152.737 27.5789L151.815 27.7744L148.609 27.8177L147.467 27.7415L147.471 27.6133L145.875 27.3785L145.879 27.2503L147.026 27.1982Z" fill="#5A9BB8"/>
<path d="M35.9773 13.2441L36.4342 13.2746L36.4262 13.531L32.523 13.9132L31.8338 13.9957L31.1564 13.6936L34.6027 13.281L35.9773 13.2441Z" fill="#5A9BB8"/>
<path d="M23.7857 30.0327L24.2386 30.1914L21.4736 30.7779L20.7765 31.1169L20.3314 30.7018L20.3394 30.4454L23.7857 30.0327Z" fill="#5A9BB8"/>
<path d="M17.6375 28.9805L18.3189 29.1544L17.1649 29.4629L16.708 29.4324L16.9286 29.7041L17.6099 29.878L16.6882 30.0735L15.3176 29.9821L15.3097 30.2386L14.8568 30.0799L16.0187 29.515L17.1767 29.0783L17.6375 28.9805Z" fill="#5A9BB8"/>
<path d="M33.5895 23.877L34.4993 24.0661L33.8061 24.2768L30.3597 24.6895L29.2175 24.6133L29.9107 24.4026L32.4394 24.0572L33.5895 23.877Z" fill="#5A9BB8"/>
<path d="M33.1649 15.3691L33.8502 15.4148L33.6099 15.7842L31.3137 16.0166L29.9352 16.1816L29.0253 15.9925L30.6363 15.7145L31.3216 15.7602L31.3295 15.5037L33.1649 15.3691Z" fill="#7EABC4"/>
<path d="M111.083 12.4692L114.509 12.6976L114.502 12.954L112.67 12.9604L112.209 13.0581L110.847 12.7104L111.083 12.4692Z" fill="#5A9BB8"/>
<path d="M205.468 17.4756L208.666 17.6888L210.261 17.9236L210.482 18.1952L207.969 18.0278L205.464 17.6038L205.468 17.4756Z" fill="#39829F"/>
<path d="M67.1385 27.1406L69.6513 27.3081L69.1862 27.5341L65.5157 27.8033L65.2952 27.5316L66.9061 27.2536L67.1385 27.1406Z" fill="#5A9BB8"/>
<path d="M19.4341 22.6768L19.8871 22.8354L18.0398 23.3547L15.968 23.7305L15.0622 23.4131L18.2801 22.9853L19.4341 22.6768Z" fill="#5A9BB8"/>
<path d="M98.1474 23.6836L100.66 23.8511L100.653 24.1075L96.5327 24.0898L96.5408 23.8334L98.1474 23.6836Z" fill="#7EABC4"/>
<path d="M164.19 27.3149L167.617 27.5433L168.983 27.7628L168.291 27.9736L163.954 27.5561L164.19 27.3149Z" fill="#39829F"/>
<path d="M94.544 21.7729L95.2252 21.9468L93.843 22.2401L92.6926 22.4204L89.4944 22.2072L89.4985 22.079L92.2439 22.1335L93.8546 21.8555L94.544 21.7729Z" fill="#5A9BB8"/>
<path d="M74.2174 12.8382L75.1271 13.0273L71.9133 13.327L70.7711 13.2509L70.7833 12.8662L71.472 12.7837L74.2174 12.8382Z" fill="#7EABC4"/>
<path d="M117.7 13.167L120.437 13.478L120.433 13.6062L118.83 13.6278L114.947 13.3689L115.64 13.1582L117.7 13.167Z" fill="#39829F"/>
<path d="M97.2689 29.9199L99.5534 30.0722L99.3127 30.4416L97.0249 30.4175L96.1145 30.2284L96.1227 29.972L97.2689 29.9199Z" fill="#7EABC4"/>
<path d="M178.858 26.7505L182.513 26.9942L182.733 27.2658L179.074 27.1504L178.626 26.8635L178.858 26.7505Z" fill="#5A9BB8"/>
<path d="M73.1024 19.3159L74.2405 19.5203L73.3186 19.7158L72.1764 19.6397L70.5698 19.7895L69.1992 19.6981L69.6642 19.4722L73.1024 19.3159Z" fill="#5A9BB8"/>
<path d="M40.3018 14.0464L40.7508 14.3333L38.679 14.7091L36.3867 14.8132L37.0839 14.4743L40.3018 14.0464Z" fill="#39829F"/>
<path d="M43.047 14.1011L43.5 14.2597L41.4282 14.6355L39.5888 14.8984L38.679 14.7092L39.8331 14.4007L43.047 14.1011Z" fill="#5A9BB8"/>
<path d="M26.5974 35.3584L27.964 35.578L27.7277 35.8192L26.1246 35.8408L24.5137 36.1189L23.8323 35.945L26.5974 35.3584Z" fill="#5A9BB8"/>
<path d="M46.5546 33.9907L47.4684 34.0516L47.4605 34.308L46.5428 34.3753L46.0661 34.9859L45.6092 34.9555L45.6172 34.699L44.6995 34.7664L44.9437 34.2687L46.5546 33.9907Z" fill="#39829F"/>
<path d="M3.0688 26.3389L4.43154 26.6866L4.1952 26.9278L1.44208 27.1297L1.91476 26.6473L3.0688 26.3389Z" fill="#39829F"/>
<path d="M115.607 29.0869L116.289 29.2608L115.591 29.5998L112.161 29.4996L112.397 29.2584L115.607 29.0869Z" fill="#39829F"/>
<path d="M15.61 20.4946L16.9806 20.5859L16.5158 20.8119L13.0695 21.2245L12.3921 20.9224L14.4599 20.6749L15.61 20.4946Z" fill="#5A9BB8"/>
<path d="M209.084 19.0015L212.51 19.2299L212.502 19.4863L212.955 19.645L210.896 19.6362L210.903 19.3797L209.076 19.2579L209.084 19.0015Z" fill="#5A9BB8"/>
<path d="M46.8145 32.9805L47.4999 33.0262L47.492 33.2826L44.9634 33.6279L43.1279 33.7625L43.5966 33.4084L46.8145 32.9805Z" fill="#39829F"/>
<path d="M6.14521 23.0757L6.59813 23.2344L5.90096 23.5733L2.90755 24.1446L2.68701 23.873L6.14521 23.0757Z" fill="#39829F"/>
<path d="M111.255 29.1821L111.936 29.356L112.157 29.6277L110.554 29.6493L107.584 29.4514L108.049 29.2254L111.255 29.1821Z" fill="#5A9BB8"/>
<path d="M63.6066 15.4712L64.9772 15.5626L64.9732 15.6908L60.3847 16.0273L59.7034 15.8534L60.1681 15.6274L63.6066 15.4712Z" fill="#5A9BB8"/>
<path d="M152.525 19.5996L155.266 19.7823L155.029 20.0235L155.94 20.2126L155.936 20.3408L153.423 20.1733L152.517 19.856L152.525 19.5996Z" fill="#39829F"/>
<path d="M62.8587 10.0259L64.0009 10.102L63.3117 10.1845L63.2999 10.5691L60.5507 10.6428L61.4802 10.1909L62.8587 10.0259Z" fill="#5A9BB8"/>
<path d="M110.445 10.8853L113.643 11.0985L115.467 11.3485L115.463 11.4767L114.089 11.5136L111.576 11.3461L110.441 11.0135L110.445 10.8853Z" fill="#7EABC4"/>
<path d="M36.44 35.3721L37.3498 35.5612L34.3564 36.1325L33.675 35.9587L34.3722 35.6197L36.44 35.3721Z" fill="#39829F"/>
<path d="M8.68899 29.6685L10.7449 29.8055L10.0477 30.1445L10.5007 30.3031L8.88976 30.5812L8.20837 30.4073L8.66526 30.4377L8.45259 29.9097L8.68899 29.6685Z" fill="#5A9BB8"/>
<path d="M17.2755 25.8726L18.6461 25.964L18.6382 26.2204L16.1057 26.694L14.739 26.4744L15.6606 26.2789L16.5783 26.2116L17.2755 25.8726Z" fill="#5A9BB8"/>
<path d="M157.728 21.6167L158.413 21.6624L158.405 21.9188L157.716 22.0014L157.707 22.2578L154.281 22.0294L154.285 21.9012L156.345 21.91L156.353 21.6536L157.728 21.6167Z" fill="#5A9BB8"/>
<path d="M63.9245 27.4404L65.5197 27.6752L65.0549 27.9012L62.3018 28.1031L61.392 27.9139L63.9245 27.4404Z" fill="#7EABC4"/>
<path d="M13.7509 21.3984L14.6606 21.5875L11.6672 22.1588L11.6593 22.4152L11.2025 22.3848L11.4506 21.759L12.1478 21.42L12.3723 21.5635L13.7509 21.3984Z" fill="#39829F"/>
<path d="M27.2801 20.6299L27.7331 20.7885L27.9575 20.932L28.8673 21.1211L27.2603 21.2709L26.1142 21.323L25.6613 21.1643L24.9799 20.9904L27.2801 20.6299Z" fill="#5A9BB8"/>
<path d="M119.357 26.2534L120.724 26.473L121.177 26.6317L120.937 27.0011L119.109 26.8792L118.191 26.9465L118.199 26.6901L119.577 26.5251L119.357 26.2534Z" fill="#5A9BB8"/>
<path d="M148.668 25.8945L149.125 25.925L149.113 26.3096L146.136 26.3681L144.308 26.2463L144.312 26.1181L147.065 25.9161L148.668 25.8945Z" fill="#5A9BB8"/>
<path d="M96.3178 8.78724L96.7747 8.81769L96.7665 9.07411L92.8715 9.19989L92.418 9.04122L94.0293 8.76318L96.3178 8.78724Z" fill="#5A9BB8"/>
<path d="M124.885 10.3062L126.255 10.3976L126.247 10.654L123.955 10.7582L122.584 10.6668L122.82 10.4256L124.885 10.3062Z" fill="#5A9BB8"/>
<path d="M22.9621 34.4736L23.8719 34.6627L23.4071 34.8887L22.4815 35.2124L21.1149 34.9928L22.0444 34.5409L22.9621 34.4736Z" fill="#5A9BB8"/>
<path d="M17.7119 33.9956L18.3933 34.1695L18.157 34.4107L18.8462 34.3281L18.8383 34.5846L16.995 34.9756L16.0892 34.6583L17.0108 34.4627L17.7119 33.9956Z" fill="#5A9BB8"/>
<path d="M24.1912 31.7295L25.3334 31.8056L25.5539 32.0773L23.2577 32.3096L22.1155 32.2335L23.0411 31.9098L24.1912 31.7295Z" fill="#7EABC4"/>
<path d="M88.0918 30.5933L88.7772 30.639L88.769 30.8954L86.469 31.256L84.8699 31.1494L85.3349 30.9234L88.0918 30.5933Z" fill="#39829F"/>
<path d="M61.203 26.6167L63.0265 26.8667L62.3333 27.0774L61.1871 27.1295L59.1312 26.9925L59.8244 26.7817L61.203 26.6167Z" fill="#7EABC4"/>
<path d="M41.3328 25.1641L42.0141 25.338L40.3993 25.7442L38.3315 25.9918L37.6501 25.8179L39.261 25.5399L41.3328 25.1641Z" fill="#5A9BB8"/>
<path d="M133.296 19.6025L135.352 19.7395L134.435 19.8068L134.427 20.0632L136.03 20.0416L135.337 20.2524L133.052 20.1001L133.296 19.6025Z" fill="#39829F"/>
<path d="M46.8067 33.2368L47.4881 33.4107L47.9371 33.6975L47.4802 33.6671L47.4723 33.9235L45.4084 34.0429L44.4907 34.1102L44.9594 33.756L46.338 33.591L46.8067 33.2368Z" fill="#39829F"/>
<path d="M77.3986 28.4673L78.9936 28.7021L78.0717 28.8976L76.4651 29.0474L75.5554 28.8583L77.3986 28.4673Z" fill="#5A9BB8"/>
<path d="M37.3222 36.459L38.4644 36.5352L37.5388 36.8589L34.5453 37.4302L34.0924 37.2715L37.3222 36.459Z" fill="#39829F"/>
<path d="M42.8718 34.6445L44.2425 34.7359L43.5453 35.0748L41.706 35.3376L41.0246 35.1637L41.7139 35.0812L41.7218 34.8248L42.8718 34.6445Z" fill="#5A9BB8"/>
<path d="M71.3245 32.4302L71.778 32.5889L71.7698 32.8453L70.1592 33.1233L68.5635 32.8886L69.257 32.6778L70.8642 32.528L71.317 32.6866L71.3245 32.4302Z" fill="#39829F"/>
<path d="M94.7092 23.8398L96.0799 23.9312L96.0717 24.1876L93.0904 24.3743L92.1766 24.3134L92.1848 24.0569L94.7092 23.8398Z" fill="#5A9BB8"/>
<path d="M105.253 23.3862L106.395 23.4623L106.384 23.847L105.009 23.8838L102.953 23.7468L103.875 23.5513L105.253 23.3862Z" fill="#7EABC4"/>
<path d="M44.4868 34.2383L44.4749 34.6229L42.4071 34.8705L41.4973 34.6814L43.1122 34.2752L44.4868 34.2383Z" fill="#39829F"/>
<path d="M47.4762 33.7954L48.1576 33.9693L46.0898 34.2169L44.9437 34.269L44.6954 34.8948L44.4789 34.495L44.9515 34.0126L45.8732 33.8171L47.4762 33.7954Z" fill="#5A9BB8"/>
<path d="M19.4019 31.1528L20.3117 31.3419L19.839 31.8243L19.1537 31.7786L19.1655 31.394L18.0115 31.7025L17.5546 31.672L17.5625 31.4156L19.4019 31.1528Z" fill="#5A9BB8"/>
<path d="M64.5388 29.7939L65.2241 29.8396L65.2162 30.096L64.5309 30.0503L64.523 30.3067L64.9759 30.4654L64.5151 30.5631L63.6092 30.2458L61.5453 30.3652L62.0101 30.1392L64.5388 29.7939Z" fill="#5A9BB8"/>
<path d="M63.4202 28.9482L65.4762 29.0852L65.0114 29.3112L63.6369 29.3481L60.8916 29.2935L61.5848 29.0828L63.4202 28.9482Z" fill="#7EABC4"/>
<path d="M7.70474 24.4639L8.38612 24.6378L8.15367 24.7507L8.83505 24.9246L6.99175 25.3157L6.53882 25.157L6.78701 24.5312L7.70474 24.4639Z" fill="#5A9BB8"/>
<path d="M94.2754 30.4912L95.4176 30.5673L95.181 30.8085L93.3419 31.0713L92.1997 30.9952L92.6681 30.641L94.2754 30.4912Z" fill="#39829F"/>
<path d="M72.6448 26.7373L73.0935 27.0242L70.1082 27.3391L68.97 27.1347L69.4351 26.9088L72.4123 26.8503L72.6448 26.7373Z" fill="#5A9BB8"/>
<path d="M42.1043 29.8403L43.0141 30.0294L40.4815 30.503L40.0247 30.4725L40.2689 29.9749L42.1043 29.8403Z" fill="#5A9BB8"/>
<path d="M37.7488 22.6123L38.2057 22.6428L37.9655 23.0122L35.4368 23.3575L34.7554 23.1837L37.0596 22.6949L37.7488 22.6123Z" fill="#39829F"/>
<path d="M13.1011 20.1987L14.0108 20.3878L12.1675 20.7788L10.3361 20.7852L10.5764 20.4158L12.4079 20.4094L13.1011 20.1987Z" fill="#7EABC4"/>
<path d="M15.7245 16.7764L16.4059 16.9503L15.949 16.9199L15.9411 17.1763L15.0194 17.3718L15.0313 16.9872L15.7245 16.7764ZM14.5626 17.3413L15.0155 17.5L14.3183 17.839L13.4006 17.9063L13.4125 17.5216L14.5626 17.3413Z" fill="#5A9BB8"/>
<path d="M89.8418 18.3765L92.1263 18.5287L93.0319 18.8461L91.4287 18.8677L89.6012 18.7459L88.6956 18.4285L89.8418 18.3765Z" fill="#5A9BB8"/>
<path d="M46.4578 14.8423L47.8284 14.9336L47.8205 15.19L44.386 15.2181L44.6224 14.9769L46.4578 14.8423Z" fill="#5A9BB8"/>
<path d="M41.4657 35.708L42.3755 35.8971L40.9891 36.3186L39.6106 36.4836L39.39 36.212L40.548 35.7753L41.4657 35.708Z" fill="#39829F"/>
<path d="M52.7896 32.2227L53.4709 32.3966L54.1484 32.6987L52.5414 32.8485L51.6276 32.7876L51.868 32.4182L52.7896 32.2227Z" fill="#5A9BB8"/>
<path d="M52.3446 31.8076L53.2583 31.8685L53.2504 32.1249L50.9542 32.3573L50.2728 32.1834L51.4269 31.8749L52.3446 31.8076Z" fill="#39829F"/>
<path d="M143.588 27.355L144.73 27.4311L144.713 27.944L143.796 28.0113L142.429 27.7917L142.666 27.5505L143.588 27.355Z" fill="#5A9BB8"/>
<path d="M108.495 22.189L109.404 22.3782L109.397 22.6346L107.561 22.7692L106.419 22.693L106.887 22.3389L108.034 22.2868L108.486 22.4455L108.495 22.189Z" fill="#5A9BB8"/>
<path d="M134.387 21.3457L137.357 21.5437L137.353 21.6719L133.69 21.6847L133.241 21.3978L134.387 21.3457Z" fill="#7EABC4"/>
<path d="M131.677 20.1372L132.816 20.3415L132.351 20.5675L129.377 20.4977L129.614 20.2566L131.677 20.1372Z" fill="#5A9BB8"/>
<path d="M91.7952 14.3955L94.7615 14.7217L93.8396 14.9172L90.8658 14.8475L90.8739 14.591L91.7877 14.6519L91.7952 14.3955Z" fill="#7EABC4"/>
<path d="M93.9144 12.481L94.8248 12.6701L94.3679 12.6396L94.3597 12.8961L96.4198 12.9049L95.7263 13.1156L93.6662 13.1068L92.985 12.9329L93.9028 12.8656L93.9144 12.481Z" fill="#5A9BB8"/>
<path d="M3.91213 21.2559L4.369 21.2864L4.3611 21.5428L0.90686 22.2118L1.14715 21.8424L2.76203 21.4362L3.91213 21.2559Z" fill="#5A9BB8"/>
<path d="M107.896 26.7744L107.883 27.159L105.816 27.4066L105.13 27.3609L105.371 26.9915L107.896 26.7744Z" fill="#5A9BB8"/>
<path d="M138.546 27.5322L139.688 27.6083L139.227 27.7061L138.979 28.3319L136.691 28.3079L136.698 28.0514L138.534 27.9168L138.546 27.5322Z" fill="#39829F"/>
<path d="M26.0122 17.2051L26.6975 17.2508L26.6896 17.5072L24.1609 17.8526L23.4796 17.6787L24.6337 17.3702L26.0122 17.2051Z" fill="#39829F"/>
<path d="M125.009 28.5571L127.061 28.8224L127.281 29.094L124.307 29.0243L124.544 28.7831L125.001 28.8136L125.009 28.5571Z" fill="#5A9BB8"/>
<path d="M42.8345 13.5728L43.9766 13.6489L43.2834 13.8597L40.9871 14.092L40.3018 14.0464L40.3098 13.7899L42.8345 13.5728Z" fill="#5A9BB8"/>
<path d="M165.995 20.7544L169.421 20.9828L169.417 21.111L166.676 20.9283L166.668 21.1847L167.121 21.3434L165.522 21.2368L165.995 20.7544Z" fill="#5A9BB8"/>
<path d="M164.456 11.2729L166.054 11.3795L165.366 11.4621L165.358 11.7185L163.983 11.7553L162.845 11.551L162.849 11.4228L164.456 11.2729Z" fill="#5A9BB8"/>
<path d="M9.11426 30.7246L9.56319 31.0115L8.18071 31.3047L7.4875 31.5155L6.80219 31.4698L7.04247 31.1004L9.11426 30.7246Z" fill="#39829F"/>
<path d="M47.3268 31.2158L47.7758 31.5026L45.0148 31.961L44.3334 31.7871L45.4874 31.4786L47.3268 31.2158Z" fill="#5A9BB8"/>
<path d="M92.696 29.7437L94.0626 29.9632L93.5901 30.4456L92.2194 30.3543L92.696 29.7437Z" fill="#39829F"/>
<path d="M76.5636 25.8418L77.9343 25.9332L77.2408 26.1439L75.1774 26.2633L74.488 26.3459L73.8108 26.0438L76.5636 25.8418Z" fill="#5A9BB8"/>
<path d="M23.8496 20.5298L24.9918 20.6059L24.9839 20.8623L22.4592 21.0795L21.7778 20.9056L23.8496 20.5298Z" fill="#7EABC4"/>
<path d="M20.9667 17.5107L22.5658 17.6173L21.6402 17.941L20.0332 18.0909L20.0253 18.3473L19.3439 18.1734L20.9667 17.5107Z" fill="#5A9BB8"/>
<path d="M103.119 18.3618L104.032 18.4227L104.024 18.6791L104.478 18.8378L103.107 18.7464L102.646 18.8442L101.28 18.6246L101.972 18.4139L103.119 18.3618Z" fill="#7EABC4"/>
<path d="M160.012 21.7686L161.832 22.1469L161.828 22.2751L160.453 22.3119L158.168 22.1597L158.633 21.9337L160.004 22.0251L160.012 21.7686Z" fill="#5A9BB8"/>
<path d="M163.47 20.9717L165.298 21.0935L165.057 21.4629L162.541 21.4236L162.777 21.1824L163.47 20.9717Z" fill="#5A9BB8"/>
<path d="M194.499 16.873L196.779 17.1535L196.539 17.5229L194.712 17.401L194.263 17.1142L194.499 16.873Z" fill="#39829F"/>
<path d="M95.9139 29.3154L96.8236 29.5045L97.7299 29.8219L95.8983 29.8283L95.9058 29.5718L94.3033 29.5935L95.2245 29.3979L95.9139 29.3154Z" fill="#5A9BB8"/>
<path d="M90.2382 27.7812L90.6951 27.8116L90.6876 28.0681L89.0804 28.218L88.1666 28.1571L88.1591 28.4135L87.2454 28.3526L87.2528 28.0961L90.2382 27.7812Z" fill="#5A9BB8"/>
<path d="M40.1834 17.8926L41.0932 18.0817L40.3999 18.2925L37.1939 18.3357L37.6587 18.1098L40.1834 17.8926Z" fill="#7EABC4"/>
<path d="M141.764 19.6528L142.221 19.6833L142.891 20.2418L140.835 20.1048L140.843 19.8483L140.39 19.6897L141.764 19.6528Z" fill="#5A9BB8"/>
<path d="M171.234 14.166L173.061 14.2878L172.368 14.4986L171.454 14.4377L171.443 14.8223L170.304 14.618L170.765 14.5202L170.773 14.2638L171.234 14.166Z" fill="#5A9BB8"/>
</g>
<defs>
<clipPath id="clip0_2_4533">
<rect width="240" height="51" fill="white" transform="translate(0.5 0.160156)"/>
</clipPath>
</defs>
</svg>
