<svg width="30" height="31" viewBox="0 0 30 31" fill="none" xmlns="http://www.w3.org/2000/svg">
<path fill-rule="evenodd" clip-rule="evenodd" d="M15 1.72266C14.2441 1.72266 13.548 1.91052 12.786 2.22568C12.0501 2.53001 11.1954 2.97854 10.1311 3.53707L7.54674 4.89329C6.24052 5.57874 5.1952 6.12729 4.38809 6.66629C3.55193 7.22471 2.9079 7.81267 2.4389 8.60913C1.97148 9.40292 1.7612 10.2625 1.66036 11.2861C1.56249 12.2796 1.56249 13.5015 1.5625 15.0384V15.2819C1.56249 16.8187 1.56249 18.0407 1.66036 19.0343C1.7612 20.0579 1.97148 20.9174 2.4389 21.7112C2.9079 22.5077 3.55193 23.0957 4.38809 23.654C5.1952 24.193 6.24051 24.7415 7.54671 25.427L10.131 26.7832C11.1953 27.3418 12.0501 27.7903 12.786 28.0947C13.548 28.4098 14.2441 28.5977 15 28.5977C15.7559 28.5977 16.452 28.4098 17.214 28.0947C17.9499 27.7903 18.8046 27.3418 19.8689 26.7833L22.4532 25.427C23.7595 24.7415 24.8047 24.193 25.6119 23.654C26.4481 23.0957 27.0921 22.5077 27.5611 21.7112C28.0285 20.9174 28.2387 20.0579 28.3396 19.0343C28.4375 18.0407 28.4375 16.8188 28.4375 15.282V15.0383C28.4375 13.5015 28.4375 12.2796 28.3396 11.2861C28.2387 10.2625 28.0285 9.40292 27.5611 8.60913C27.0921 7.81267 26.4481 7.22471 25.6119 6.66629C24.8047 6.12729 23.7595 5.57874 22.4532 4.89328L19.8689 3.53708C18.8046 2.97856 17.9499 2.53002 17.214 2.22568C16.452 1.91052 15.7559 1.72266 15 1.72266ZM10.9635 5.21776C12.0756 4.63412 12.855 4.22616 13.5025 3.95836C14.1327 3.69771 14.5756 3.59766 15 3.59766C15.4244 3.59766 15.8672 3.69771 16.4975 3.95836C17.145 4.22616 17.9244 4.63412 19.0365 5.21776L21.5365 6.52969C22.8986 7.24451 23.8556 7.74806 24.5706 8.22556C24.9234 8.46113 25.2005 8.67988 25.4244 8.89983L21.261 10.9815L10.6362 5.38952L10.9635 5.21776ZM8.68082 6.41564L8.4635 6.52969C7.10139 7.24449 6.14441 7.74806 5.4294 8.22556C5.07664 8.46113 4.79945 8.67988 4.57568 8.89983L15 14.112L19.1965 12.0138L8.93836 6.61477C8.8387 6.56232 8.75239 6.49444 8.68082 6.41564ZM3.6721 10.5444C3.60898 10.8117 3.56126 11.1153 3.52632 11.4699C3.43855 12.3609 3.4375 13.4907 3.4375 15.087V15.2333C3.4375 16.8297 3.43855 17.9594 3.52632 18.8504C3.61217 19.7219 3.77527 20.2854 4.05459 20.7598C4.33234 21.2314 4.73409 21.6304 5.4294 22.0948C6.14441 22.5723 7.10139 23.0758 8.4635 23.7907L10.9635 25.1025C12.0756 25.6862 12.855 26.0942 13.5025 26.3619C13.707 26.4465 13.8917 26.5142 14.0625 26.567V15.7395L3.6721 10.5444ZM15.9375 26.567C16.1082 26.5142 16.293 26.4465 16.4975 26.3619C17.145 26.0942 17.9244 25.6862 19.0365 25.1025L21.5365 23.7907C22.8986 23.0758 23.8556 22.5723 24.5706 22.0948C25.2659 21.6304 25.6676 21.2314 25.9454 20.7598C26.2247 20.2854 26.3879 19.7219 26.4736 18.8504C26.5615 17.9594 26.5625 16.8297 26.5625 15.2333V15.087C26.5625 13.4907 26.5615 12.3609 26.4736 11.4699C26.4387 11.1153 26.391 10.8117 26.3279 10.5444L22.1875 12.6146V16.4102C22.1875 16.9279 21.7677 17.3477 21.25 17.3477C20.7322 17.3477 20.3125 16.9279 20.3125 16.4102V13.552L15.9375 15.7395V26.567Z" fill="#458CA8"/>
</svg>
