<svg width="50" height="50" viewBox="0 0 50 50" fill="none" xmlns="http://www.w3.org/2000/svg">
<path d="M16.3332 24.0222C15.9886 25.5981 14.5827 26.7818 12.905 26.7818C12.4577 26.7818 12.095 27.1444 12.095 27.5918C12.095 28.0392 12.4577 28.4017 12.905 28.4017C15.4724 28.4017 17.605 26.5057 17.9769 24.0404C19.5488 23.8704 20.9999 23.17 22.1232 22.0234C22.4363 21.7039 22.431 21.191 22.1115 20.8781C21.792 20.5652 21.2792 20.5702 20.9661 20.8897C19.9727 21.9038 18.644 22.4622 17.2246 22.4622C14.3366 22.4622 11.9871 20.1126 11.9871 17.2246C11.9871 16.7772 11.6244 16.4147 11.1771 16.4147C10.7298 16.4147 10.3672 16.7772 10.3672 17.2246C10.3672 20.7035 12.9718 23.5836 16.3332 24.0222Z" fill="#458CA8"/>
<path d="M19.7624 31.0475C19.7624 30.6001 19.3998 30.2375 18.9525 30.2375C15.1713 30.2375 12.095 33.3138 12.095 37.095C12.095 37.1341 12.0965 37.1733 12.0971 37.2125C11.7959 37.1719 11.4892 37.149 11.1771 37.149C10.7298 37.149 10.3672 37.5115 10.3672 37.9589C10.3672 38.4063 10.7298 38.7689 11.1771 38.7689C14.0651 38.7689 16.4147 41.1184 16.4147 44.0064C16.4147 44.4539 16.7773 44.8164 17.2246 44.8164C17.6719 44.8164 18.0346 44.4539 18.0346 44.0064C18.0346 41.1327 16.2568 38.6677 13.744 37.6493C13.7247 37.4658 13.7149 37.2802 13.7149 37.095C13.7149 34.207 16.0645 31.8574 18.9525 31.8574C19.3998 31.8574 19.7624 31.4949 19.7624 31.0475Z" fill="#458CA8"/>
<path d="M47.4082 24.1361C47.4082 22.2921 46.6717 20.5447 45.3699 19.2596C45.576 18.6 45.6804 17.9177 45.6804 17.2246C45.6804 13.8905 43.2881 11.1059 40.1302 10.4936C40.3716 9.89201 40.4968 9.24708 40.4968 8.58531C40.4968 6.47333 39.2135 4.65583 37.386 3.8703C34.3411 1.44525 31.011 0 28.4557 0C27.0353 0 25.7757 0.698488 25 1.76933C24.2243 0.698488 22.9647 0 21.5443 0C18.989 0 15.6589 1.44525 12.614 3.8703C10.7865 4.65583 9.50324 6.47333 9.50324 8.58531C9.50324 9.24708 9.62841 9.89201 9.86977 10.4936C6.71188 11.1059 4.31966 13.8905 4.31966 17.2246C4.31966 17.9177 4.42387 18.5999 4.63013 19.2596C3.3283 20.5447 2.5918 22.2921 2.5918 24.1361C2.5918 25.5775 3.03985 26.9159 3.8027 28.0211C3.00994 29.1671 2.5918 30.5039 2.5918 31.9114C2.5918 34.4048 3.95108 36.6892 6.10324 37.8937C6.0662 38.2017 6.04752 38.5125 6.04752 38.8229C6.04752 42.1862 8.24136 45.1597 11.4244 46.1731C12.809 48.5427 15.331 50 18.0886 50C21.1118 50 23.7332 48.2526 25 45.7155C26.2669 48.2526 28.8882 50 31.9115 50C34.669 50 37.191 48.5427 38.5756 46.1731C41.7586 45.1596 43.9525 42.1861 43.9525 38.8229C43.9525 38.5125 43.9338 38.2017 43.8968 37.8937C46.0489 36.6892 47.4082 34.4048 47.4082 31.9114C47.4082 30.5039 46.9901 29.1671 46.1973 28.0211C46.9602 26.9159 47.4082 25.5775 47.4082 24.1361ZM18.0886 48.3801C15.8176 48.3801 13.7483 47.1281 12.688 45.1127C12.5829 44.9131 12.3996 44.7663 12.1818 44.7077C9.52376 43.9923 7.66739 41.5725 7.66739 38.8229C7.66739 38.4114 7.70886 37.9994 7.79061 37.5978C7.86642 37.2256 7.67322 36.8505 7.32603 36.6961C5.43413 35.8551 4.21167 33.9769 4.21167 31.9114C4.21167 30.972 4.4553 30.0741 4.9202 29.2787C6.12927 30.3447 7.71448 30.9935 9.44925 30.9935C9.89655 30.9935 10.2592 30.631 10.2592 30.1836C10.2592 29.7362 9.89655 29.3736 9.44925 29.3736C6.56124 29.3736 4.21167 27.0241 4.21167 24.1361C4.21167 22.5814 4.89763 21.1162 6.09374 20.1165C6.36372 19.8908 6.45713 19.5166 6.32484 19.1906C6.06912 18.5604 5.93953 17.8989 5.93953 17.2246C5.93953 14.3366 8.2891 11.987 11.1771 11.987C14.0651 11.987 16.4147 14.3366 16.4147 17.2246C16.4147 17.672 16.7773 18.0346 17.2246 18.0346C17.6719 18.0346 18.0346 17.672 18.0346 17.2246C18.0346 13.5916 15.1942 10.6109 11.6176 10.3828C11.2934 9.84093 11.1231 9.22473 11.1231 8.58531C11.1231 7.14158 11.9996 5.89903 13.2482 5.3608C13.2964 5.34644 13.3437 5.32765 13.3894 5.30389C13.7762 5.1568 14.1951 5.07559 14.6328 5.07559C15.9889 5.07559 17.1995 5.8338 17.7922 7.05454C17.9877 7.45702 18.4724 7.62484 18.8746 7.42927C19.277 7.23391 19.4448 6.74935 19.2494 6.34698C18.5727 4.95356 17.292 3.95205 15.8172 3.5973C17.8843 2.33596 19.9194 1.61987 21.5443 1.61987C23.0031 1.61987 24.1901 2.8067 24.1901 4.26566V14.7463C23.4623 14.169 22.5432 13.8229 21.5443 13.8229C21.097 13.8229 20.7343 14.1854 20.7343 14.6328C20.7343 15.0802 21.097 15.4428 21.5443 15.4428C23.0031 15.4428 24.1901 16.6296 24.1901 18.0886V37.5571C23.1831 36.2579 21.7634 35.2773 20.0934 34.8286C19.6616 34.713 19.2172 34.9687 19.1011 35.4006C18.985 35.8327 19.2411 36.277 19.6731 36.393C22.3326 37.1076 24.1901 39.5278 24.1901 42.2786C24.1901 45.643 21.4529 48.3801 18.0886 48.3801ZM42.674 36.6962C42.3268 36.8506 42.1336 37.2256 42.2094 37.5979C42.2911 37.9995 42.3326 38.4116 42.3326 38.823C42.3326 41.5726 40.4762 43.9924 37.8183 44.7078C37.6004 44.7664 37.417 44.9132 37.312 45.1129C36.2517 47.1281 34.1824 48.3801 31.9115 48.3801C28.5471 48.3801 25.8099 45.643 25.8099 42.2786C25.8099 42.0509 25.7994 41.8251 25.7796 41.6014C25.7988 41.5322 25.8099 41.4595 25.8099 41.3841V14.6328C25.8099 13.1739 26.9969 11.987 28.4557 11.987C28.903 11.987 29.2657 11.6245 29.2657 11.1771C29.2657 10.7297 28.903 10.3672 28.4557 10.3672C27.4568 10.3672 26.5377 10.7133 25.8099 11.2906V4.26566C25.8099 2.8067 26.9969 1.61987 28.4557 1.61987C30.0806 1.61987 32.1157 2.33596 34.1828 3.5973C32.708 3.95194 31.4273 4.95356 30.7507 6.34698C30.5552 6.74946 30.723 7.23402 31.1254 7.42927C31.5278 7.62473 32.0123 7.45702 32.2078 7.05454C32.8005 5.8338 34.0111 5.07559 35.3672 5.07559C35.8049 5.07559 36.2239 5.1568 36.6106 5.30389C36.6562 5.32765 36.7035 5.34633 36.7515 5.36069C38.0003 5.89892 38.8769 7.14147 38.8769 8.58531C38.8769 9.22473 38.7066 9.84093 38.3824 10.3828C34.8058 10.6109 31.9654 13.5916 31.9654 17.2246C31.9654 17.672 32.3281 18.0346 32.7754 18.0346C33.2227 18.0346 33.5853 17.672 33.5853 17.2246C33.5853 14.3366 35.9349 11.987 38.8229 11.987C41.7109 11.987 44.0605 14.3366 44.0605 17.2246C44.0605 17.8989 43.9309 18.5604 43.6753 19.1906C43.543 19.5167 43.6364 19.8908 43.9064 20.1165C45.1024 21.1162 45.7883 22.5814 45.7883 24.1361C45.7883 27.0241 43.4388 29.3736 40.5508 29.3736C40.1035 29.3736 39.7408 29.7362 39.7408 30.1836C39.7408 30.631 40.1035 30.9935 40.5508 30.9935C42.2855 30.9935 43.8707 30.3447 45.0798 29.2787C45.5448 30.0741 45.7883 30.972 45.7883 31.9114C45.7883 33.9769 44.5659 35.8551 42.674 36.6962Z" fill="#458CA8"/>
<path d="M38.8229 25.918C37.1451 25.918 35.7393 24.7343 35.3947 23.1583C38.7561 22.7197 41.3607 19.8397 41.3607 16.3607C41.3607 15.9133 40.9981 15.5508 40.5508 15.5508C40.1035 15.5508 39.7408 15.9133 39.7408 16.3607C39.7408 19.2487 37.3913 21.5983 34.5032 21.5983C33.0839 21.5983 31.7552 21.0399 30.7618 20.0258C30.4488 19.7064 29.936 19.7011 29.6164 20.0142C29.2969 20.3272 29.2916 20.84 29.6046 21.1595C30.728 22.3061 32.1791 23.0065 33.751 23.1765C34.1229 25.6418 36.2555 27.5378 38.8229 27.5378C39.2702 27.5378 39.6328 27.1753 39.6328 26.7279C39.6328 26.2805 39.2702 25.918 38.8229 25.918Z" fill="#458CA8"/>
<path d="M36.2311 35.4212C35.919 35.4212 35.6123 35.4441 35.3111 35.4847C35.3118 35.4455 35.3132 35.4063 35.3132 35.3672C35.3132 31.586 32.2369 28.5098 28.4557 28.5098C28.0084 28.5098 27.6458 28.8723 27.6458 29.3197C27.6458 29.7671 28.0084 30.1296 28.4557 30.1296C31.3437 30.1296 33.6933 32.4792 33.6933 35.3672C33.6933 35.5523 33.6835 35.7381 33.6642 35.9215C31.1514 36.9399 29.3736 39.4049 29.3736 42.2787C29.3736 42.7261 29.7363 43.0886 30.1836 43.0886C30.6309 43.0886 30.9935 42.7261 30.9935 42.2787C30.9935 39.3907 33.3431 37.0411 36.2311 37.0411C36.6784 37.0411 37.041 36.6786 37.041 36.2311C37.041 35.7837 36.6784 35.4212 36.2311 35.4212Z" fill="#458CA8"/>
</svg>
