<svg width="50" height="51" viewBox="0 0 50 51" fill="none" xmlns="http://www.w3.org/2000/svg">
<g clip-path="url(#clip0_2_4110)">
<path d="M48.0351 15.4285C46.1356 10.9402 42.9677 7.12607 38.979 4.43106C34.9902 1.73535 30.1723 0.159375 25.0004 0.160157C21.5525 0.160157 18.2602 0.859668 15.2686 2.1252C10.7802 4.02461 6.96611 7.19258 4.27109 11.1813C1.5752 15.17 -0.00078096 19.9879 2.90327e-07 25.1598C2.90327e-07 28.6076 0.699512 31.9 1.96504 34.8916C3.86445 39.38 7.03164 43.194 11.0212 45.8891C15.0099 48.5849 19.8278 50.1608 25.0004 50.1601C28.4476 50.1601 31.7398 49.4605 34.7316 48.1951C39.2199 46.2957 43.0341 43.1285 45.7291 39.139C48.4248 35.1503 50.0008 30.3323 50 25.1598C50 21.7127 49.3005 18.4203 48.0351 15.4285ZM23.5754 12.6733C23.9576 12.5384 24.5931 12.9731 24.439 13.3835C24.1827 14.0654 25.0729 14.4026 25.3657 14.797C25.622 15.1409 26.1064 16.2333 25.0583 16.0242C24.5608 15.9251 24.3878 16.5354 23.7279 16.1524C23.8912 15.9198 24.5465 14.4117 24.0514 14.4354C23.7502 14.4499 23.278 12.9715 23.5754 12.6733ZM22.8332 14.0548C22.6006 14.1211 23.0125 14.0029 22.8332 14.0548C23.6632 13.8168 23.6983 15.1967 23.31 15.5071C22.4991 16.1533 22.4648 15.4751 22.6028 14.9251C22.6646 14.6826 21.9735 14.3012 22.8332 14.0548ZM4.73096 16.5987C5.3085 15.2349 6.02236 13.9426 6.85088 12.7343C7.22158 12.7008 7.43896 12.5314 7.94473 12.0714C8.42305 12.6572 8.90049 13.2431 9.37959 13.8289C9.52607 14.0082 9.06221 14.2302 9.28799 14.4338C9.57324 14.6908 9.77617 14.7023 10.0744 14.3483C10.2705 14.703 10.4657 15.0585 10.6618 15.4133C10.0729 15.6559 9.58623 15.9305 8.95088 15.9183C7.94316 15.897 7.44658 15.803 6.65938 16.4773C6.98887 16.9969 7.35352 16.6687 7.79746 16.4773C7.59531 17.0724 7.88672 17.9268 8.56865 18.0205C8.26807 18.3096 7.9668 18.5979 7.66699 18.8871C7.529 19.0198 7.15596 18.5369 7.57705 18.241C7.42373 18.1235 7.10488 17.9908 6.9165 17.9466C6.85615 18.6491 6.18496 18.238 5.88818 18.6812C5.56475 19.1633 6.19404 19.4646 5.48994 19.666C4.30986 20.0031 4.64473 21.2168 3.74463 21.914C3.65166 21.9864 3.4167 22.1291 3.19014 22.2885C3.44941 20.2953 3.97578 18.3868 4.73096 16.5987ZM7.15293 27.1538C7.08809 27.1164 7.02246 27.0782 6.95684 27.0401C6.91113 26.825 7.50234 26.9143 7.5793 26.976C7.76016 27.1202 7.20166 27.1446 7.15293 27.1538ZM4.9499 26.8357C5.04375 26.8678 5.12607 26.8524 5.19785 26.7892C5.10625 26.7151 5.00791 26.6511 4.9041 26.5978C4.81865 26.2575 6.71807 26.8587 6.44883 27.0104C6.25352 27.1211 4.51973 27.1356 4.60898 26.954C4.6959 26.845 4.81035 26.8053 4.94922 26.8358C4.83398 26.7922 4.90264 26.8182 4.9499 26.8357ZM3.01231 25.6281C3.73701 25.8333 4.44492 26.1239 4.55781 26.1986C4.5876 26.2192 4.29092 26.339 4.38613 26.371C4.48232 26.3932 4.57227 26.4282 4.65918 26.474C4.74463 26.5449 3.48066 26.8317 3.55469 26.5419C3.61719 26.461 3.68818 26.3878 3.7668 26.3207C3.75225 26.3405 3.39902 26.1468 3.01914 25.9683C3.01533 25.8555 3.01533 25.741 3.01231 25.6281ZM3.40752 26.9097C3.53799 26.8829 4.29463 27.0835 3.96279 27.2521C3.85068 27.2361 3.73857 27.2193 3.62715 27.2025C3.40215 27.1599 3.32891 27.0622 3.40752 26.9097ZM16.3463 35.8598C15.868 36.3686 15.8863 36.5821 15.8223 37.2229C15.7376 38.0658 15.6332 39.7188 14.685 39.7822C13.1242 39.8859 12.6787 41.1705 12.2355 42.3887C12.1654 42.584 12.086 42.7525 12.0014 42.9028C9.95781 41.4024 8.17969 39.5603 6.75938 37.4571C5.23301 35.1962 4.11856 32.6392 3.51592 29.8886C3.73711 29.9893 3.82559 30.212 3.82637 30.4416C3.82637 30.4438 3.82637 30.4469 3.82637 30.45C3.84014 30.4317 3.85156 30.4127 3.86836 30.3951C4.02022 30.2045 5.2292 28.405 5.13008 29.6292C5.81357 29.7703 5.71973 29.2463 6.21934 29.1632C6.75635 29.0739 6.88223 29.8573 7.41084 29.6896C8.33838 29.3943 8.40557 29.5377 8.91582 30.3036C9.43984 31.0894 10.7146 30.7675 11.4193 31.2625C11.9869 31.6614 12.0898 32.1198 12.1715 32.7873C12.2051 33.0664 13.3219 33.1047 13.5842 33.1047C13.8642 33.1047 13.8214 33.5014 13.9411 33.6516C14.0388 33.7744 14.4362 33.7294 14.5636 33.7461C15.2073 33.8271 15.9382 34.0031 16.4646 34.3991C17.068 34.8528 16.7704 35.4074 16.3463 35.8598ZM19.0727 9.21777C19.2274 9.18496 19.4967 9.48398 19.5852 9.42529C19.8979 9.21543 19.8285 9.20176 20.2854 9.17588C20.4099 9.16904 22.3017 9.31543 21.7852 9.83408C21.7845 9.83486 21.7845 9.83486 21.7845 9.83486C21.7845 9.83564 21.7845 9.83564 21.7837 9.83564C21.056 10.5618 20.4892 10.32 19.6364 10.32C19.2693 10.32 18.3571 9.36572 19.0727 9.21777ZM40.6014 39.0834C40.2909 40.1567 40.3878 40.4282 39.3473 40.7898C39.0208 39.7754 39.1269 39.1574 39.1269 38.1094C39.1269 38.0735 40.548 36.7546 40.7059 36.5662C41.2094 37.5279 40.8951 38.0681 40.6014 39.0834ZM46.9793 25.9904C46.7604 25.7143 46.5644 25.3871 46.3614 25.1834C45.9229 24.7448 44.7274 25.0918 44.0433 24.9996C43.4398 24.9188 43.2888 25.0209 43.076 24.4541C42.9631 24.1528 42.5542 24.4739 42.2742 24.5007C41.4252 24.5808 41.0477 23.1985 40.2649 23.641C40.5167 24.0354 41.2771 25.227 41.5915 25.3314C42.2276 25.5436 42.0759 24.664 42.8356 24.8898C42.7753 25.1209 42.8631 25.3933 42.799 25.6236C45.0195 25.0623 43.1057 27.8823 42.1247 27.6726C41.8562 27.6145 41.9592 28.0144 41.6754 28.0967C41.2406 28.224 40.8058 28.3507 40.3702 28.4773C39.8187 28.6383 39.3298 29.0396 39.0185 28.5063C38.2931 27.2638 37.8209 25.7328 36.907 24.7312C36.7492 24.558 36.4753 24.2972 36.277 24.0111C36.2846 24.034 36.2914 24.0584 36.2998 24.0812C36.1236 23.953 35.8627 23.9378 35.6751 23.825C35.4484 24.4543 36.309 25.2919 36.6689 25.806C37.1328 26.4682 37.2434 27.3835 37.7316 28.0105C37.9414 28.2806 38.3197 28.4147 38.5104 28.7016C38.6722 28.9441 39.0139 29.7421 39.274 29.8466C39.6722 30.0067 40.9637 29.4103 41.4037 29.2958C41.1695 29.8588 40.6539 31.7696 40.1123 32.0122C39.0771 32.4761 38.8156 32.894 38.1481 33.8361C38.0955 33.9094 37.6058 34.4471 37.5996 34.4228C37.7232 34.9056 37.8468 35.3884 37.9696 35.8712C38.061 36.229 38.1978 37.8378 37.9223 37.9187C36.6521 38.2955 36.5584 38.6524 36.5271 39.9409C36.5142 40.4711 35.8963 41.2193 35.5012 41.6732C34.9215 42.3392 34.4714 43.2348 33.5759 43.3591C32.7467 43.4742 31.916 43.5817 31.0845 43.6901C31.0845 43.0182 31.1463 42.7725 30.7237 42.266C30.2271 41.6702 30.1547 41.4985 30.0555 40.7289C29.944 39.8593 28.8914 38.6556 29.1348 37.8912C29.6139 36.3892 29.4788 35.8515 29.0799 34.3045C28.9602 33.8384 28.3781 33.5874 28.2583 33.1519C28.1646 32.814 28.3683 31.9848 28.3683 31.6095C27.6474 31.6696 27.5223 31.7116 26.9631 31.2548C26.5047 30.8803 26.0652 31.2204 25.523 31.3959C25.0729 31.5416 24.3886 31.3532 23.9187 31.3204C23.5411 31.2937 22.9827 31.7201 22.6395 31.6095C21.9155 31.3761 20.8621 29.5025 20.3632 28.9099C19.894 28.3546 20.1809 27.0402 20.1458 26.279C20.0985 25.266 21.3899 24.3003 22.1169 23.8396C22.3168 23.7129 22.4205 23.0195 22.6929 22.7556C23.0789 22.3811 23.3275 21.9623 23.8691 21.9333C24.8227 21.8829 25.9104 21.4123 26.899 21.2728C27.449 21.1949 27.9998 21.1171 28.5506 21.0394C28.7779 21.0072 29.1829 21.8586 28.6246 22.0257C28.9557 22.6809 30.0731 22.478 30.1686 22.7641C30.3569 23.3293 31.0839 23.2432 31.6362 23.3469C31.5599 21.9577 32.6987 22.9586 33.3692 23.147C33.8772 23.2888 34.2168 22.9814 34.721 22.9807C35.1397 22.9799 35.6317 23.1828 36.043 23.2744C36.0437 23.2797 36.0452 23.2836 36.0467 23.2889C36.0535 23.2568 36.062 23.2248 36.075 23.1928C36.3496 22.5063 36.483 22.098 36.483 21.3643C36.0467 21.4161 34.6714 21.8326 34.3174 21.6213C34.1061 21.4954 33.9023 20.8387 33.7865 20.6205C33.5852 20.2391 33.8536 20.2437 34.203 20.0156C35.406 19.2314 36.7943 19.773 38.0987 19.4916C38.0011 19.018 37.7501 18.7906 37.4015 18.5C36.879 18.0651 36.9842 18.0064 37.1071 17.3253C36.7645 17.4229 36.4221 17.5206 36.0788 17.6189C36.2054 17.7685 36.2093 18.0225 36.3358 18.1696C35.4737 18.77 35.7148 17.6654 35.1245 17.5831C34.5981 17.5083 34.4601 18.3794 34.1931 18.6952C33.8116 19.1483 34.3563 19.5061 33.7476 19.7304C33.3227 19.8868 33.0404 20.275 32.5545 20.1163C32.9123 20.314 33.1289 20.6022 33.0312 20.9974C32.8894 20.9194 32.6926 20.9348 32.5545 20.8509C32.6255 21.0446 32.5836 21.2849 32.6644 21.474C32.08 21.2108 31.4995 20.2513 31.3974 19.6379C31.3097 19.1131 30.0022 18.4159 29.543 18.023C28.803 18.8324 30.8404 19.2564 31.0297 19.9507C31.0159 19.8988 30.6369 21.0896 30.6079 21.1071C30.096 21.4244 30.1937 20.3572 30.0259 20.2039C29.5232 19.7478 28.4957 18.3145 27.9503 18.7562C27.2012 19.3634 27.4995 18.6524 26.8938 18.8416C26.324 19.0193 26.5856 19.5678 26.234 19.673C25.2904 19.9561 26.0014 20.2459 25.4376 20.7158C24.8793 21.1812 24.7915 21.1797 24.0676 21.1651C22.6869 21.1392 22.4199 20.8112 22.558 19.4259C22.6755 18.258 23.9753 18.7409 24.9364 18.7562C25.2881 18.7622 25.1523 17.8545 24.9654 17.6677C24.6412 17.3442 24.2019 17.4357 23.9616 16.9948C25.3781 16.7416 25.7366 16.0139 26.8625 15.232C27.0434 15.1068 28.1136 14.7118 28.1052 14.5974C28.0846 14.2793 27.8328 13.0725 28.5888 13.2121C29.2936 13.3433 28.2661 14.3982 28.8382 14.4295C29.1601 14.4479 30.0114 14.8712 30.0884 14.7873C30.5423 14.2922 31.0808 14.4783 31.7407 14.4951C31.9688 14.5012 32.2739 13.4066 32.3708 13.1755C33.1793 13.9925 33.0275 12.9284 32.9208 12.4409C33.2236 12.4523 34.3465 12.6323 34.5372 12.2212C34.8874 11.4683 33.6814 11.7429 33.3435 11.8359C32.9445 11.9443 32.1933 12.0351 32.0398 11.4134C31.9902 11.2098 32.4602 10.2143 32.6523 10.1128C33.2009 9.82217 33.3962 9.52773 32.8424 9.07539C32.2245 8.56885 32.2215 9.8626 32.1506 9.94424C31.5372 10.649 29.9231 11.0159 31.2694 12.148C30.8415 12.2441 30.6821 12.4585 30.6691 12.8398C30.6432 13.5454 30.6951 13.4974 30.0024 13.6256C29.3456 13.7468 29.2396 12.5927 29.0283 12.0373C28.547 12.5461 27.5629 13.431 27.1563 12.2578C26.7826 11.1754 27.7186 10.8572 28.4478 10.5255C29.068 10.244 29.6827 8.98232 30.103 8.43691C30.3502 8.11728 30.145 7.93721 30.5165 7.63057C30.8864 7.32627 31.1962 7.29043 31.6714 7.18359C32.0711 7.09355 32.3724 6.64043 32.7629 6.63203C33.3244 6.62148 33.8881 6.66338 34.4487 6.69004C35.133 6.72363 34.6196 7.02344 34.9606 7.13477C35.4702 7.30176 35.979 7.46885 36.4878 7.63516C37.0462 7.81826 38.2225 8.31484 37.8082 8.88467C37.3627 9.49639 36.214 8.74199 35.7853 8.5124C35.4366 9.13486 36.0957 9.01357 36.41 9.35684C36.4908 9.44531 36.2559 9.81914 36.336 9.90762C36.4649 10.0488 36.7608 10.1532 36.9249 10.2486C37.4237 10.537 37.2254 9.45762 37.0348 9.65059C37.301 9.38057 37.4901 9.38057 37.915 9.65059C37.9776 9.08154 38.6237 8.87783 39.0905 9.13643C39.0981 8.85488 39.1051 8.57188 39.1127 8.28965C40.6924 9.6124 42.0846 11.1518 43.241 12.8635C45.6134 16.3755 46.9963 20.5991 46.9971 25.16C46.9969 25.4382 46.9899 25.7151 46.9793 25.9904Z" fill="#458CA8"/>
<path d="M4.94988 26.8357C4.94988 26.8357 4.94988 26.8357 4.9491 26.8357C5.00554 26.857 4.98269 26.8478 4.94988 26.8357Z" fill="#458CA8"/>
<path d="M42.285 19.6378C42.3071 19.7431 41.7502 19.1687 41.7061 19.1062C41.5192 18.8429 41.3338 18.5798 41.1469 18.3158C41.7221 18.2907 41.8984 17.9238 41.8816 17.3989C40.7946 17.3989 39.3405 17.9741 40.3742 19.1717C40.5177 19.3373 40.9593 19.6836 40.9998 19.8948C41.0296 20.0489 40.571 20.1739 40.6184 20.4144C40.7733 21.1862 40.9838 21.1146 41.7344 21.3641C41.925 21.3503 42.1409 21.2122 42.3225 21.1443C42.1951 20.869 41.9145 20.4876 41.8817 20.1886C41.8715 20.1062 42.359 19.9947 42.285 19.6378Z" fill="#458CA8"/>
</g>
<defs>
<clipPath id="clip0_2_4110">
<rect width="50" height="50" fill="white" transform="translate(0 0.160156)"/>
</clipPath>
</defs>
</svg>
