<?xml version="1.0" encoding="UTF-8"?>
<svg id="f" data-name="Bleed" xmlns="http://www.w3.org/2000/svg" viewBox="0 0 171.88 23.31">
  <defs>
    <style>
      .g, .h {
        fill: #458ca8;
      }

      .h {
        stroke: #244754;
        stroke-miterlimit: 10;
        stroke-width: .36px;
      }

      .i {
        fill: none;
        stroke: #458ca8;
      }
    </style>
  </defs>
  <g>
    <circle class="i" cx="15.93" cy="11.66" r="9.49"/>
    <g>
      <path class="g" d="M11.05,7.44v7.12h-.9v-6l-1.81.66v-.81l2.57-.97h.14Z"/>
      <path class="g" d="M17.14,7.47h.08v.76h-.08c-.48,0-.88.08-1.2.23-.32.15-.58.36-.76.62s-.32.55-.41.87c-.08.32-.12.65-.12.98v1.04c0,.31.04.59.11.83.07.24.18.45.31.61s.28.29.44.37c.16.08.33.13.51.13.21,0,.39-.04.55-.12.16-.08.3-.19.41-.34.11-.14.2-.32.26-.51.06-.2.09-.42.09-.65,0-.21-.03-.41-.08-.61-.05-.2-.13-.37-.24-.53-.11-.15-.24-.28-.4-.36-.16-.09-.35-.13-.57-.13-.25,0-.48.06-.7.18-.22.12-.39.28-.53.48-.14.2-.22.41-.24.64h-.48c.05-.37.13-.68.26-.94.12-.26.28-.47.47-.63.19-.16.4-.28.63-.36.23-.08.48-.11.74-.11.35,0,.66.07.91.2.26.13.47.31.63.53.17.22.29.47.37.75.08.28.12.56.12.85,0,.33-.05.65-.14.94s-.23.55-.42.77c-.19.22-.42.39-.69.52-.27.12-.59.18-.95.18-.38,0-.72-.08-1-.24-.29-.16-.52-.37-.71-.63s-.33-.55-.42-.88-.14-.65-.14-.98v-.42c0-.5.05-.99.15-1.47.1-.48.28-.91.52-1.3.25-.39.59-.7,1.03-.93.44-.23,1-.35,1.69-.35Z"/>
      <path class="g" d="M23.93,10.77v.85h-4.86v-.85h4.86ZM21.96,8.7v5.16h-.9v-5.16h.9Z"/>
    </g>
  </g>
  <g>
    <g>
      <path class="g" d="M74.68,13.76v.74h-4.64v-.65l2.32-2.58c.29-.32.51-.59.66-.81.16-.22.27-.42.33-.6.06-.18.1-.36.1-.54,0-.23-.05-.45-.14-.64-.1-.19-.24-.34-.42-.45-.18-.11-.41-.17-.67-.17-.31,0-.58.06-.79.18-.21.12-.37.29-.47.51-.1.22-.16.47-.16.75h-.9c0-.4.09-.76.26-1.09s.43-.59.78-.79.77-.29,1.27-.29c.45,0,.83.08,1.15.24s.56.38.73.66c.17.28.26.62.26,1,0,.21-.03.42-.1.63-.07.21-.17.42-.29.64-.12.21-.26.42-.42.62-.16.2-.33.41-.51.6l-1.9,2.06h3.55Z"/>
      <path class="g" d="M80.72,10.6v.74h-4.87v-.74h4.87Z"/>
      <path class="g" d="M86.65,12.59c0,.43-.1.8-.3,1.1-.2.3-.47.53-.81.68-.34.16-.72.23-1.15.23s-.81-.08-1.15-.23-.61-.38-.81-.68-.3-.67-.3-1.1c0-.28.05-.54.16-.78.11-.23.26-.44.46-.62.2-.18.44-.31.71-.41.27-.1.58-.14.91-.14.43,0,.82.08,1.16.25s.61.4.81.69c.2.29.29.63.29,1ZM86.48,9.26c0,.34-.09.65-.27.93-.18.28-.43.49-.74.65-.31.16-.67.24-1.07.24s-.77-.08-1.08-.24c-.32-.16-.56-.38-.74-.65-.18-.28-.27-.59-.27-.93,0-.41.09-.76.27-1.05.18-.29.43-.51.74-.66.31-.15.67-.23,1.08-.23s.77.08,1.08.23c.31.15.56.37.74.66.18.29.27.64.27,1.05ZM85.74,12.57c0-.26-.06-.49-.17-.7s-.27-.36-.48-.47c-.2-.11-.44-.17-.71-.17s-.51.06-.71.17c-.2.11-.35.27-.46.47s-.17.44-.17.7.05.51.16.7c.11.19.26.34.47.44.2.1.44.15.72.15s.52-.05.72-.15.36-.25.46-.44c.11-.19.16-.43.16-.7ZM85.58,9.28c0-.24-.05-.45-.15-.63-.1-.18-.24-.33-.42-.43s-.39-.16-.62-.16-.44.05-.62.15c-.18.1-.31.24-.41.42-.1.18-.15.4-.15.65s.05.46.15.64c.1.18.24.32.42.42.18.1.39.15.62.15s.44-.05.62-.15c.18-.1.32-.24.42-.42.1-.18.15-.39.15-.64Z"/>
    </g>
    <g>
      <path class="h" d="M53.81,12.24c.02-.09.04-.19.07-.28.25-.9.83-1.45,1.73-1.66.13-.03.28-.04.42-.04.53,0,1.06,0,1.59,0,.03,0,.06,0,.1,0,.03.58.25,1.09.67,1.51-.66.22-1.17.61-1.53,1.19-.36.59-.41,1.24-.37,1.92-.93-.05-1.81-.24-2.68-.52v-2.11Z"/>
      <path class="h" d="M56.9,15.09c0-.3,0-.59,0-.89.02-.86.62-1.69,1.43-1.99.28-.11.58-.16.88-.16.56,0,1.12-.01,1.67.02,1,.07,1.9.94,1.98,1.94.04.47.02.94.03,1.41,0,.2,0,.4,0,.6,0,.08-.03.11-.1.15-.39.19-.8.3-1.22.38-.61.12-1.23.15-1.85.13-.86-.03-1.71-.19-2.54-.44q-.29-.09-.29-.4c0-.25,0-.51,0-.76,0,0,0,0,0,0Z"/>
      <path class="h" d="M63.3,14.89c0-.26.01-.49,0-.72-.07-1.06-.61-1.82-1.55-2.29-.1-.05-.22-.09-.34-.14.41-.42.64-.91.66-1.51.07,0,.13,0,.18,0,.46,0,.92,0,1.38,0,.97.02,1.86.72,2.09,1.67.05.19.07.39.07.59,0,.57,0,1.14,0,1.71,0,.08-.03.12-.09.15-.47.22-.96.34-1.46.42-.3.05-.61.07-.94.1Z"/>
      <path class="h" d="M59.89,11.94c-.98,0-1.76-.79-1.76-1.76,0-.98.79-1.76,1.77-1.75.97,0,1.76.8,1.75,1.77,0,.97-.79,1.75-1.76,1.75Z"/>
      <path class="h" d="M55.04,8.37c0-.88.69-1.66,1.54-1.74.94-.1,1.77.5,1.95,1.4.01.05.02.11.03.16.02.17,0,.31-.16.44-.35.3-.55.7-.64,1.15,0,.05-.05.1-.09.12-1.06.61-2.42-.04-2.6-1.25-.01-.09-.02-.19-.03-.28Z"/>
      <path class="h" d="M64.57,8.37c0,1.25-1.28,2.11-2.42,1.63-.06-.03-.1-.06-.11-.13-.1-.63-.42-1.12-.94-1.49-.03-.02-.06-.09-.05-.14.01-.63.48-1.27,1.1-1.51,1.03-.4,2.14.2,2.38,1.27.03.12.03.24.04.36Z"/>
    </g>
  </g>
  <g>
    <g>
      <path class="g" d="M121.38,15.74c.18,0,.32,0,.46,0,.12,0,.17.05.18.17,0,.2,0,.41,0,.61,0,.11-.05.16-.16.17-.03,0-.07,0-.1,0-2.15,0-4.31,0-6.46,0-.23,0-.26-.03-.26-.26,0-.18,0-.35,0-.53,0-.12.06-.17.18-.17.14,0,.28,0,.44,0,0-.06,0-.11,0-.16,0-.42,0-.85.09-1.27.11-.51.35-.95.73-1.31.34-.31.68-.62,1.02-.93.25-.23.25-.53,0-.76-.38-.35-.77-.69-1.13-1.05-.4-.39-.6-.9-.66-1.45-.04-.37-.03-.74-.04-1.12,0-.04,0-.09,0-.14-.15,0-.28,0-.41,0-.16,0-.2-.05-.2-.2,0-.19,0-.38,0-.57,0-.13.05-.18.18-.18,2.2,0,4.41,0,6.61,0,.13,0,.18.05.18.19,0,.19,0,.39,0,.58,0,.14-.05.18-.19.19-.14,0-.28,0-.43,0,0,.26,0,.5,0,.75,0,.55-.11,1.08-.39,1.56-.18.3-.44.54-.69.77-.26.23-.52.47-.77.7-.22.2-.22.5,0,.71.32.29.64.59.97.88.55.49.82,1.11.87,1.83.02.32,0,.64,0,.98ZM115.98,15.73h5.1s0-.08,0-.11c0-.27,0-.53-.02-.8-.04-.65-.27-1.21-.77-1.65-.32-.29-.64-.58-.96-.87-.38-.35-.38-.84,0-1.19.32-.29.64-.58.95-.87.21-.19.38-.4.51-.65.15-.3.24-.63.26-.97.01-.35,0-.7,0-1.05h-5.1s0,.07,0,.1c0,.31,0,.61.02.92.04.64.27,1.2.76,1.63.33.29.65.59.98.89.36.33.36.83,0,1.16-.24.23-.5.44-.74.67-.19.18-.38.35-.54.54-.3.36-.43.8-.46,1.25-.02.32,0,.65,0,.98Z"/>
      <path class="g" d="M118.53,15.41c-.62,0-1.23,0-1.85,0-.17,0-.21-.04-.21-.21.03-.98.83-1.82,1.81-1.94,1.04-.13,2.05.56,2.28,1.63.02.1.03.19.04.29.02.2-.02.24-.23.24-.61,0-1.23,0-1.84,0Z"/>
      <path class="g" d="M117.84,9.31c.33,0,.64.08.94.18.5.16.98.15,1.43-.13.02-.01.05-.02.07-.03.07-.04.15-.05.21.02.06.07.05.14,0,.21-.11.14-.21.28-.33.4-.37.36-.74.71-1.12,1.07-.13.13-.22.28-.25.46-.03.16-.11.23-.24.23-.14,0-.25-.08-.27-.24-.03-.18-.11-.32-.24-.45-.42-.39-.83-.79-1.24-1.19-.13-.13-.12-.23.05-.31.32-.14.65-.21,1-.22Z"/>
      <path class="g" d="M118.54,12.07c.08,0,.15.07.15.16,0,.09-.07.15-.16.14-.08,0-.14-.07-.14-.15,0-.08.07-.15.16-.15Z"/>
      <path class="g" d="M118.53,12.96c-.08,0-.16-.07-.16-.15,0-.08.07-.15.15-.15.09,0,.14.05.15.14,0,.09-.06.15-.15.16Z"/>
    </g>
    <g>
      <path class="g" d="M127.58,11.26v-.54h.77c.45,0,.82.05,1.12.16s.53.25.7.43c.17.18.29.37.36.59.07.21.1.42.1.63,0,.33-.06.62-.17.88-.11.26-.27.47-.47.65-.2.18-.44.31-.71.4-.27.09-.57.14-.89.14s-.6-.04-.87-.13c-.27-.09-.51-.21-.72-.38-.21-.17-.37-.37-.49-.62-.12-.25-.18-.52-.18-.84h.9c0,.25.05.46.16.65.11.18.26.33.47.43.2.1.44.15.72.15s.51-.05.71-.14c.2-.1.35-.24.46-.44.11-.19.16-.44.16-.73s-.06-.54-.18-.73-.3-.33-.52-.42c-.23-.09-.49-.14-.8-.14h-.64ZM127.58,10.52h.64c.31,0,.57-.05.78-.16.21-.11.36-.25.46-.43.1-.18.15-.39.15-.62,0-.27-.05-.5-.14-.69s-.23-.32-.41-.42c-.18-.09-.41-.14-.69-.14-.25,0-.48.05-.67.15-.19.1-.34.24-.45.42-.11.18-.16.4-.16.64h-.9c0-.36.09-.69.27-.98.18-.29.44-.53.77-.71.33-.18.71-.26,1.15-.26s.8.08,1.12.23.57.37.75.67.27.67.27,1.11c0,.18-.04.37-.12.57-.08.2-.21.39-.39.57-.17.18-.4.32-.67.43s-.61.17-.99.17h-.77v-.54Z"/>
      <path class="g" d="M136.31,10.4v1.08c0,.58-.05,1.07-.16,1.47s-.25.72-.45.96-.43.42-.7.53c-.27.11-.58.16-.93.16-.27,0-.52-.03-.75-.1s-.44-.18-.62-.33c-.18-.15-.34-.35-.47-.59s-.23-.54-.3-.89c-.07-.35-.1-.75-.1-1.22v-1.08c0-.58.05-1.07.16-1.46.11-.39.26-.71.45-.95s.43-.41.7-.51c.27-.1.58-.16.92-.16.28,0,.53.03.76.1.23.07.44.17.62.32.18.14.34.34.46.57.13.24.23.53.29.87.07.34.1.75.1,1.21ZM135.41,11.62v-1.38c0-.32-.02-.6-.06-.84-.04-.24-.09-.45-.16-.62-.07-.17-.16-.31-.27-.42-.11-.11-.23-.19-.38-.24-.14-.05-.3-.08-.47-.08-.21,0-.4.04-.57.12-.17.08-.3.21-.42.38-.11.17-.2.4-.26.68-.06.28-.09.62-.09,1.02v1.38c0,.32.02.6.06.84.04.24.09.45.17.63.07.18.17.32.27.44.11.11.23.2.37.25.14.05.3.08.47.08.22,0,.41-.04.58-.13.17-.08.3-.22.42-.4.11-.18.2-.41.25-.7.05-.28.08-.62.08-1.02Z"/>
      <path class="g" d="M142.54,10.6v.74h-4.87v-.74h4.87Z"/>
      <path class="g" d="M146.96,7.38v7.12h-.9v-6l-1.81.66v-.81l2.57-.97h.14Z"/>
      <path class="g" d="M150.74,11.13l-.72-.18.36-3.53h3.63v.83h-2.87l-.21,1.93c.13-.07.29-.14.49-.21.2-.06.43-.1.69-.1.33,0,.62.06.88.17s.48.27.66.48c.18.21.32.46.42.75s.15.62.15.98c0,.34-.05.65-.14.94-.09.29-.23.53-.42.75-.18.21-.42.38-.7.49-.28.12-.61.18-.99.18-.29,0-.56-.04-.81-.12-.26-.08-.48-.2-.68-.36-.2-.16-.36-.37-.49-.61-.13-.25-.2-.53-.24-.86h.86c.04.27.12.49.23.67.12.18.27.32.46.41.19.09.41.14.66.14.21,0,.4-.04.57-.11.17-.07.31-.18.42-.32.11-.14.2-.31.26-.51.06-.2.09-.42.09-.67,0-.22-.03-.43-.09-.62-.06-.19-.15-.36-.27-.5-.12-.14-.27-.25-.45-.33-.18-.08-.38-.12-.6-.12-.3,0-.53.04-.68.12-.15.08-.31.19-.47.33Z"/>
      <path class="g" d="M159.65,10.4v1.08c0,.58-.05,1.07-.16,1.47s-.25.72-.45.96-.43.42-.7.53c-.27.11-.58.16-.93.16-.27,0-.52-.03-.75-.1s-.44-.18-.62-.33c-.18-.15-.34-.35-.47-.59s-.23-.54-.3-.89c-.07-.35-.1-.75-.1-1.22v-1.08c0-.58.05-1.07.16-1.46.11-.39.26-.71.45-.95s.43-.41.7-.51c.27-.1.58-.16.92-.16.28,0,.53.03.76.1.23.07.44.17.62.32.18.14.34.34.46.57.13.24.23.53.29.87.07.34.1.75.1,1.21ZM158.74,11.62v-1.38c0-.32-.02-.6-.06-.84-.04-.24-.09-.45-.16-.62-.07-.17-.16-.31-.27-.42-.11-.11-.23-.19-.38-.24-.14-.05-.3-.08-.47-.08-.21,0-.4.04-.57.12-.17.08-.3.21-.42.38-.11.17-.2.4-.26.68-.06.28-.09.62-.09,1.02v1.38c0,.32.02.6.06.84.04.24.09.45.17.63.07.18.17.32.27.44.11.11.23.2.37.25.14.05.3.08.47.08.22,0,.41-.04.58-.13.17-.08.3-.22.42-.4.11-.18.2-.41.25-.7.05-.28.08-.62.08-1.02Z"/>
      <path class="g" d="M165.45,10.7v.85h-4.86v-.85h4.86ZM163.47,8.64v5.16h-.9v-5.16h.9Z"/>
    </g>
  </g>
</svg>