<svg width="50" height="50" viewBox="0 0 50 50" fill="none" xmlns="http://www.w3.org/2000/svg">
<path d="M25 11.4597L23.8742 12.5432C24.1688 12.8493 24.5752 13.0222 25 13.0222C25.4248 13.0222 25.8313 12.8493 26.1259 12.5432L25 11.4597ZM19.6376 38.1707C16.48 35.6815 13.0272 33.2507 10.2881 30.1663C7.60256 27.1421 5.72919 23.6136 5.72919 19.0357H2.60419C2.60419 24.5888 4.91773 28.8253 7.95152 32.2413C10.9317 35.5971 14.7308 38.2817 17.703 40.6249L19.6376 38.1707ZM5.72919 19.0357C5.72919 14.5547 8.26121 10.797 11.7174 9.21712C15.0752 7.68231 19.5868 8.08877 23.8742 12.5432L26.1259 10.3762C21.0386 5.09073 15.1335 4.21962 10.4183 6.37498C5.8015 8.48531 2.60419 13.3855 2.60419 19.0357H5.72919ZM17.703 40.6249C18.7701 41.4661 19.9157 42.3632 21.0767 43.0415C22.2373 43.7196 23.5617 44.2709 25 44.2709V41.1459C24.355 41.1459 23.5961 40.8944 22.6534 40.3434C21.7111 39.7928 20.7335 39.0346 19.6376 38.1707L17.703 40.6249ZM32.2971 40.6249C35.2692 38.2817 39.0684 35.5971 42.0486 32.2413C45.0823 28.8253 47.3959 24.5888 47.3959 19.0357H44.2709C44.2709 23.6136 42.3975 27.1421 39.7119 30.1663C36.9727 33.2507 33.52 35.6815 30.3625 38.1707L32.2971 40.6249ZM47.3959 19.0357C47.3959 13.3855 44.1986 8.48531 39.5817 6.37498C34.8665 4.21962 28.9615 5.09073 23.8742 10.3762L26.1259 12.5432C30.4131 8.08877 34.9248 7.68231 38.2825 9.21712C41.7388 10.797 44.2709 14.5547 44.2709 19.0357H47.3959ZM30.3625 38.1707C29.2665 39.0346 28.289 39.7928 27.3467 40.3434C26.404 40.8944 25.645 41.1459 25 41.1459V44.2709C26.4384 44.2709 27.7627 43.7196 28.9234 43.0415C30.0844 42.3632 31.2298 41.4661 32.2971 40.6249L30.3625 38.1707Z" fill="#D64F7F"/>
</svg>
