<svg width="30" height="31" viewBox="0 0 30 31" fill="none" xmlns="http://www.w3.org/2000/svg">
<path d="M27.7078 2.82542C27.6403 2.56667 27.435 2.36979 27.1781 2.31354L27.1735 2.31261C27.1303 2.30323 27.0806 2.29761 27.03 2.29761C26.8069 2.29761 26.6072 2.3998 26.4769 2.56105L26.476 2.56198C24.8841 4.44167 22.7981 5.8573 20.4178 6.61198L20.325 6.63729C18.7378 7.15479 16.8919 7.52417 14.9841 7.67136L14.9016 7.67605C12.81 7.75386 10.8469 8.2198 9.05533 9.00448L9.15845 8.96417C6.0647 10.6404 4.00033 13.8626 4.00033 17.5667C4.00033 17.6248 4.00127 17.6829 4.0022 17.741V17.7326C4.01064 18.0167 4.03033 18.297 4.0622 18.5764C4.20658 19.6995 4.51595 20.7185 4.96783 21.656L4.94158 21.596C3.49877 23.4542 2.25283 25.5757 1.29845 27.8492L1.23002 28.0339C1.19439 28.1154 1.17377 28.2101 1.17377 28.3104C1.17377 28.6985 1.48877 29.0135 1.87689 29.0135C2.16564 29.0135 2.41314 28.8401 2.52189 28.5917L2.52377 28.587C3.42752 26.4242 4.48502 24.5614 5.7347 22.8467L5.67939 22.9264C6.74533 24.5717 8.21908 25.8701 9.96095 26.696L10.0238 26.7232C11.356 27.3317 12.9141 27.687 14.5547 27.687C14.58 27.687 14.6044 27.687 14.6288 27.687H14.625C16.396 27.6785 18.0806 27.3195 19.6163 26.6735L19.53 26.7054C24.4631 24.4695 27.9694 19.856 28.6031 14.3679L28.6097 14.2957C28.7475 13.2364 28.8263 12.012 28.8263 10.7689C28.8263 7.93948 28.4175 5.20479 27.6572 2.62198L27.7078 2.82542ZM27.2166 14.0867C26.6503 19.1464 23.475 23.352 19.0847 25.3648L18.9966 25.4004C17.746 25.9564 16.2863 26.2807 14.7516 26.2807C13.2525 26.2807 11.8256 25.9723 10.5319 25.4145L10.6013 25.4407C8.90439 24.641 7.53564 23.3801 6.62439 21.8182L6.60189 21.776C9.71158 18.2023 13.755 16.422 19.5403 15.8585C19.8966 15.821 20.1722 15.5229 20.1722 15.1592C20.1722 14.771 19.8572 14.456 19.4691 14.456C19.4466 14.456 19.4241 14.457 19.4016 14.4589H19.4044C14.1178 14.6548 9.39095 16.8945 5.95783 20.4054L5.95408 20.4092C5.72533 19.8307 5.55002 19.1567 5.46095 18.4564L5.45627 18.4142C5.42814 18.1742 5.41127 17.9342 5.4047 17.6942C5.40377 17.6482 5.40283 17.5929 5.40283 17.5385C5.40283 14.3904 7.15502 11.652 9.73689 10.2448L9.78002 10.2232C11.3269 9.55948 13.1222 9.14323 15.0066 9.07479L15.0328 9.07386C17.1394 8.91167 19.0922 8.51886 20.9513 7.91886L20.7713 7.96948C23.0663 7.21948 25.0341 6.01761 26.6578 4.45948L26.6522 4.46417C27.1425 6.35792 27.4238 8.53104 27.4238 10.7707C27.4238 11.9398 27.3469 13.091 27.1988 14.2189L27.2128 14.0857L27.2166 14.0867Z" fill="#458CA8"/>
</svg>
