<?xml version="1.0" encoding="UTF-8"?>
<svg id="d" data-name="Sparkles" xmlns="http://www.w3.org/2000/svg" xmlns:xlink="http://www.w3.org/1999/xlink" viewBox="0 0 356.26 257.93">
  <defs>
    <style>
      .i {
        fill: #fff;
      }

      .j {
        fill: url(#h);
      }

      .k {
        fill: url(#g);
      }

      .l {
        fill: url(#e);
      }

      .m {
        fill: url(#f);
      }
    </style>
    <radialGradient id="e" data-name="Безымянный градиент 13" cx="683.3" cy="-26.02" fx="683.3" fy="-.35" r="29.32" gradientTransform="translate(-472.08 152.86) rotate(-7.42)" gradientUnits="userSpaceOnUse">
      <stop offset="0" stop-color="#192234" stop-opacity=".7"/>
      <stop offset=".14" stop-color="#1d2637" stop-opacity=".7"/>
      <stop offset=".28" stop-color="#2a3243" stop-opacity=".71"/>
      <stop offset=".41" stop-color="#3f4756" stop-opacity=".73"/>
      <stop offset=".55" stop-color="#5d6470" stop-opacity=".76"/>
      <stop offset=".69" stop-color="#848993" stop-opacity=".79"/>
      <stop offset=".82" stop-color="#b4b7bd" stop-opacity=".84"/>
      <stop offset=".96" stop-color="#ebecee" stop-opacity=".88"/>
      <stop offset="1" stop-color="#fff" stop-opacity=".9"/>
    </radialGradient>
    <radialGradient id="f" data-name="Безымянный градиент 11" cx="713.87" cy="18.69" fx="713.87" fy="60.26" r="47.48" gradientTransform="translate(-472.08 152.86) rotate(-7.42)" gradientUnits="userSpaceOnUse">
      <stop offset="0" stop-color="#192234" stop-opacity=".7"/>
      <stop offset=".15" stop-color="#1d2235" stop-opacity=".7"/>
      <stop offset=".29" stop-color="#2a253a" stop-opacity=".72"/>
      <stop offset=".43" stop-color="#3f2942" stop-opacity=".74"/>
      <stop offset=".58" stop-color="#5d2f4e" stop-opacity=".77"/>
      <stop offset=".72" stop-color="#84365d" stop-opacity=".8"/>
      <stop offset=".86" stop-color="#b33f6f" stop-opacity=".85"/>
      <stop offset="1" stop-color="#ea4a84" stop-opacity=".9"/>
    </radialGradient>
    <radialGradient id="g" data-name="Безымянный градиент 10" cx="620.38" cy="24.42" fx="611.1" fy="91.69" r="76.84" gradientTransform="translate(-472.08 152.86) rotate(-7.42)" gradientUnits="userSpaceOnUse">
      <stop offset="0" stop-color="#192234" stop-opacity=".7"/>
      <stop offset=".18" stop-color="#192538" stop-opacity=".71"/>
      <stop offset=".36" stop-color="#1b3044" stop-opacity=".72"/>
      <stop offset=".53" stop-color="#1f4258" stop-opacity=".76"/>
      <stop offset=".71" stop-color="#255c74" stop-opacity=".8"/>
      <stop offset=".89" stop-color="#2b7d98" stop-opacity=".86"/>
      <stop offset="1" stop-color="#3197b5" stop-opacity=".9"/>
    </radialGradient>
    <linearGradient id="h" data-name="Безымянный градиент 1094" x1="161.13" y1="246.02" x2="197.86" y2="193.57" gradientUnits="userSpaceOnUse">
      <stop offset=".39" stop-color="#3197b5"/>
      <stop offset=".55" stop-color="#ea4a84"/>
      <stop offset=".71" stop-color="#ea4b85"/>
      <stop offset=".76" stop-color="#eb5289"/>
      <stop offset=".8" stop-color="#ec5e91"/>
      <stop offset=".83" stop-color="#ee6f9d"/>
      <stop offset=".86" stop-color="#f085ac"/>
      <stop offset=".88" stop-color="#f4a0be"/>
      <stop offset=".9" stop-color="#f7c0d4"/>
      <stop offset=".92" stop-color="#fce5ed"/>
      <stop offset=".93" stop-color="#fff"/>
    </linearGradient>
  </defs>
  <circle class="l" cx="206.46" cy="40.58" r="32.45"/>
  <circle class="m" cx="241.72" cy="83.1" r="52.55"/>
  <circle class="k" cx="147.04" cy="103.88" r="85.04"/>
  <path class="i" d="M48.09,193.63c2.91.45,5.23,1.04,6.97,1.75.54.18.88.41,1.04.68.15.27.25.74.31,1.39l1.17,12.51c0,.18-.15.3-.45.36-.3.06-.51-.03-.63-.27-1.68-4.92-4.08-8.69-7.2-11.29-3.12-2.61-6.87-3.92-11.25-3.92-4.08,0-7.73,1.1-10.94,3.29-3.21,2.19-5.73,5.33-7.56,9.4-1.83,4.08-2.75,8.85-2.75,14.31s.95,10.37,2.83,14.54c1.89,4.17,4.5,7.38,7.83,9.63s7.16,3.38,11.47,3.38,7.62-1.12,10.44-3.38c2.82-2.25,5.49-5.95,8.01-11.11.06-.18.24-.24.54-.18.3.06.45.18.45.36l-1.35,11.16c-.12.72-.24,1.19-.36,1.4-.12.21-.45.44-.99.67-5.52,1.98-11.1,2.97-16.74,2.97-6.42,0-12.17-1.21-17.23-3.65-5.07-2.43-9.04-5.83-11.92-10.21-2.88-4.38-4.32-9.36-4.32-14.94s1.48-10.78,4.46-15.25c2.97-4.47,7.05-7.96,12.24-10.48,5.19-2.52,10.96-3.78,17.32-3.78,2.82,0,5.68.23,8.6.68Z"/>
  <path class="i" d="M73.92,248.8c-2.79-1.71-4.94-4.02-6.44-6.93-1.5-2.91-2.25-6.07-2.25-9.49,0-3.9.99-7.21,2.97-9.95,1.98-2.73,4.5-4.77,7.56-6.12,3.06-1.35,6.21-2.03,9.45-2.03,3.72,0,6.96.87,9.72,2.61,2.76,1.74,4.87,4.04,6.34,6.88,1.47,2.85,2.21,5.9,2.21,9.14,0,3.6-.9,6.79-2.7,9.58-1.8,2.79-4.22,4.97-7.25,6.52-3.03,1.56-6.32,2.34-9.85,2.34-3.72,0-6.97-.85-9.76-2.56ZM91.74,246.01c1.23-2.31,1.85-5.62,1.85-9.94s-.54-7.8-1.62-10.8c-1.08-3-2.49-5.26-4.23-6.79-1.74-1.53-3.6-2.29-5.58-2.29-4.8,0-7.2,4.29-7.2,12.87,0,4.02.51,7.58,1.53,10.67,1.02,3.09,2.4,5.49,4.14,7.2s3.66,2.56,5.76,2.56c2.34,0,4.12-1.15,5.35-3.46Z"/>
  <path class="i" d="M152.44,249.66c0,.36-.09.54-.27.54-1.56,0-2.79-.03-3.69-.09l-5.4-.09-5.22.09c-.96.06-2.22.09-3.78.09-.18,0-.27-.18-.27-.54s.09-.54.27-.54c1.86,0,3.12-.43,3.78-1.3.66-.87.99-2.5.99-4.91v-12.96c0-3.24-.58-5.64-1.75-7.2-1.17-1.56-3.02-2.34-5.54-2.34-1.44,0-2.92.3-4.46.9-1.53.6-2.87,1.41-4,2.43v19.17c0,2.4.34,4.04,1.04,4.91.69.87,1.96,1.3,3.82,1.3.18,0,.27.18.27.54s-.09.54-.27.54c-1.56,0-2.79-.03-3.69-.09l-5.4-.09-5.31.09c-.9.06-2.13.09-3.69.09-.18,0-.27-.18-.27-.54s.09-.54.27-.54c1.86,0,3.12-.43,3.78-1.3.66-.87.99-2.5.99-4.91v-16.92c0-1.86-.23-3.22-.67-4.1-.45-.87-1.16-1.3-2.12-1.3-1.02,0-2.46.42-4.32,1.26h-.18c-.18,0-.32-.15-.41-.45-.09-.3-.08-.48.04-.54l12.51-6.12c.36-.12.57-.18.63-.18.66,0,1.29.65,1.89,1.94.6,1.29.96,3.05,1.08,5.27,4.14-4.92,8.7-7.38,13.68-7.38,3.24,0,5.8,1.03,7.7,3.1,1.89,2.07,2.83,4.79,2.83,8.15v17.28c0,2.4.34,4.04,1.04,4.91.69.87,1.96,1.3,3.82,1.3.18,0,.27.18.27.54Z"/>
  <path class="j" d="M171.03,208.8c1.11,1.68,2.47,3.15,4.09,4.41,1.62,1.26,3.81,2.79,6.57,4.59,3,1.92,5.4,3.6,7.2,5.04,1.8,1.44,3.33,3.19,4.59,5.26,1.26,2.07,1.89,4.46,1.89,7.16,0,3.12-.84,5.9-2.52,8.32-1.68,2.43-4.01,4.32-6.98,5.67-2.97,1.35-6.29,2.02-9.94,2.02-2.7,0-5.52-.38-8.46-1.12-2.94-.75-4.92-1.58-5.94-2.48-.3-.24-.53-.46-.67-.67-.15-.21-.23-.55-.23-1.04l-.27-14.31v-.09c0-.24.15-.37.45-.41.3-.03.48.08.54.31,1.8,3.66,3.38,6.63,4.72,8.91,1.35,2.28,3.06,4.29,5.13,6.03,2.07,1.74,4.42,2.61,7.07,2.61,2.4,0,4.38-.64,5.94-1.94,1.56-1.29,2.34-3.49,2.34-6.62,0-2.64-.58-4.95-1.75-6.93s-2.6-3.66-4.27-5.04c-1.68-1.38-3.99-3.03-6.93-4.95-2.88-1.86-5.12-3.45-6.71-4.77-1.59-1.32-2.96-2.91-4.09-4.77-1.14-1.86-1.71-4.05-1.71-6.57,0-3.18.91-5.86,2.75-8.06,1.83-2.19,4.18-3.81,7.07-4.86,2.88-1.05,5.91-1.58,9.09-1.58,2.1,0,4.23.2,6.39.59,2.16.39,3.9.85,5.22,1.4.54.24.9.49,1.08.76.18.27.27.62.27,1.04v13.23c0,.18-.15.31-.45.4-.3.09-.48.05-.54-.13l-.72-1.71c-1.5-3.78-3.26-6.99-5.27-9.63-2.01-2.64-4.81-3.96-8.42-3.96-2.4,0-4.36.69-5.89,2.07-1.53,1.38-2.29,3.39-2.29,6.03,0,2.16.55,4.08,1.67,5.76Z"/>
  <path class="i" d="M234.97,244.26c.12,0,.25.12.41.36.15.24.16.42.04.54-2.22,2.16-4.47,3.72-6.75,4.68-2.28.96-4.77,1.44-7.47,1.44-3.78,0-7.05-.8-9.81-2.39-2.76-1.59-4.86-3.72-6.3-6.39-1.44-2.67-2.16-5.56-2.16-8.69,0-3.48.87-6.69,2.61-9.63,1.74-2.94,4.15-5.27,7.25-6.98,3.09-1.71,6.58-2.56,10.48-2.56s6.6.84,8.64,2.52c2.04,1.68,3.06,4.29,3.06,7.83,0,1.86-.33,2.79-.99,2.79l-21.87.09c-.06.42-.09,1.11-.09,2.07,0,5.28,1.21,9.42,3.65,12.42,2.43,3,5.92,4.5,10.48,4.5,1.62,0,3-.18,4.14-.54,1.14-.36,2.64-1.02,4.5-1.98l.18-.09ZM214.9,219.01c-1.32,1.71-2.19,4.07-2.61,7.06l13.05-.18c-.06-3.06-.51-5.4-1.35-7.02-.84-1.62-2.22-2.43-4.14-2.43s-3.63.85-4.95,2.56Z"/>
  <path class="i" d="M283.75,249.66c0,.36-.09.54-.27.54-1.56,0-2.79-.03-3.69-.09l-5.4-.09-5.22.09c-.96.06-2.22.09-3.78.09-.18,0-.27-.18-.27-.54s.09-.54.27-.54c1.86,0,3.12-.43,3.78-1.3.66-.87.99-2.5.99-4.91v-12.96c0-3.24-.58-5.64-1.75-7.2-1.17-1.56-3.02-2.34-5.54-2.34-1.44,0-2.92.3-4.46.9-1.53.6-2.87,1.41-4,2.43v19.17c0,2.4.34,4.04,1.04,4.91.69.87,1.96,1.3,3.82,1.3.18,0,.27.18.27.54s-.09.54-.27.54c-1.56,0-2.79-.03-3.69-.09l-5.4-.09-5.31.09c-.9.06-2.13.09-3.69.09-.18,0-.27-.18-.27-.54s.09-.54.27-.54c1.86,0,3.12-.43,3.78-1.3.66-.87.99-2.5.99-4.91v-16.92c0-1.86-.23-3.22-.67-4.1-.45-.87-1.16-1.3-2.12-1.3-1.02,0-2.46.42-4.32,1.26h-.18c-.18,0-.32-.15-.41-.45-.09-.3-.08-.48.04-.54l12.51-6.12c.36-.12.57-.18.63-.18.66,0,1.29.65,1.89,1.94.6,1.29.96,3.05,1.08,5.27,4.14-4.92,8.7-7.38,13.68-7.38,3.24,0,5.8,1.03,7.7,3.1,1.89,2.07,2.83,4.79,2.83,8.15v17.28c0,2.4.34,4.04,1.04,4.91.69.87,1.96,1.3,3.82,1.3.18,0,.27.18.27.54Z"/>
  <path class="i" d="M297.48,224.28c1.23,1.26,3.02,2.58,5.36,3.96,2.28,1.32,3.97,2.36,5.08,3.1,1.11.75,2.11,1.8,3.01,3.15s1.35,2.99,1.35,4.91c0,2.04-.51,3.96-1.53,5.76-1.02,1.8-2.55,3.26-4.59,4.37-2.04,1.11-4.47,1.67-7.29,1.67-3.3,0-6.42-.81-9.36-2.43-.36-.36-.54-.72-.54-1.08l-.18-8.91c0-.18.16-.28.5-.31.33-.03.52.02.58.14.96,3,2.55,5.55,4.77,7.65,2.22,2.1,4.47,3.15,6.75,3.15,1.26,0,2.26-.39,3.01-1.17.75-.78,1.12-1.92,1.12-3.42,0-2.22-.63-3.97-1.89-5.27-1.26-1.29-3.12-2.62-5.58-4-2.1-1.14-3.69-2.07-4.77-2.79-1.08-.72-2.04-1.74-2.88-3.06-.84-1.32-1.26-2.94-1.26-4.86,0-3.54,1.26-6.13,3.78-7.79,2.52-1.65,5.61-2.48,9.27-2.48,1.38,0,2.62.09,3.73.27,1.11.18,2.35.54,3.74,1.08.54.18.81.51.81.99,0,1.5-.03,2.67-.09,3.51l-.09,4.5c0,.18-.18.27-.54.27s-.54-.09-.54-.27c0-1.14-.48-2.38-1.44-3.73s-2.2-2.5-3.73-3.47c-1.53-.96-3.11-1.44-4.73-1.44-2.46,0-3.69,1.17-3.69,3.51,0,1.74.61,3.24,1.84,4.5Z"/>
  <path class="i" d="M350.26,244.26c.12,0,.25.12.41.36.15.24.16.42.04.54-2.22,2.16-4.47,3.72-6.75,4.68-2.28.96-4.77,1.44-7.47,1.44-3.78,0-7.05-.8-9.81-2.39-2.76-1.59-4.86-3.72-6.3-6.39-1.44-2.67-2.16-5.56-2.16-8.69,0-3.48.87-6.69,2.61-9.63,1.74-2.94,4.15-5.27,7.25-6.98,3.09-1.71,6.58-2.56,10.48-2.56s6.6.84,8.64,2.52c2.04,1.68,3.06,4.29,3.06,7.83,0,1.86-.33,2.79-.99,2.79l-21.87.09c-.06.42-.09,1.11-.09,2.07,0,5.28,1.21,9.42,3.65,12.42,2.43,3,5.92,4.5,10.48,4.5,1.62,0,3-.18,4.14-.54,1.14-.36,2.64-1.02,4.5-1.98l.18-.09ZM330.19,219.01c-1.32,1.71-2.19,4.07-2.61,7.06l13.05-.18c-.06-3.06-.51-5.4-1.35-7.02-.84-1.62-2.22-2.43-4.14-2.43s-3.63.85-4.95,2.56Z"/>
  <g>
    <polygon class="i" points="177.87 70.03 172.52 67.95 178.26 68.02 180.85 60.07 180.27 68.42 185.61 70.5 179.88 70.42 177.54 77.07 177.87 70.03"/>
    <polygon class="i" points="201.7 60.23 198.14 58.84 201.96 58.89 203.68 53.58 203.3 59.15 206.86 60.54 203.04 60.49 201.48 64.92 201.7 60.23"/>
    <polygon class="i" points="196.49 26.09 193.82 25.05 196.68 25.09 197.98 21.11 197.69 25.28 200.36 26.32 197.49 26.29 196.33 29.61 196.49 26.09"/>
    <circle class="i" cx="173.72" cy="99.72" r="3.54"/>
    <circle class="i" cx="188.15" cy="41.4" r="2.13"/>
    <circle class="i" cx="223.46" cy="116.42" r="2.83"/>
    <circle class="i" cx="194.33" cy="81.25" r="2.48"/>
    <circle class="i" cx="210.81" cy="73.93" r="1.42"/>
    <circle class="i" cx="191.2" cy="105.78" r="1.42"/>
    <polygon class="i" points="227.34 95.05 224.07 93.78 227.58 93.82 229.16 88.96 228.8 94.06 232.07 95.33 228.56 95.29 227.14 99.35 227.34 95.05"/>
    <path class="i" d="M190.13,124.09h0c-.54,1.96.61,3.98,2.57,4.52h0c-1.96-.54-3.98.61-4.52,2.57h0c.54-1.96-.61-3.98-2.57-4.52h0c1.96.54,3.98-.61,4.52-2.57Z"/>
    <path class="i" d="M207.82,94.27h0c-.64,2.35.74,4.77,3.08,5.42h0c-2.35-.64-4.77.74-5.41,3.09h0c.64-2.35-.74-4.77-3.08-5.42h0c2.35.64,4.77-.74,5.41-3.09Z"/>
    <path class="i" d="M207.72,35.44h0c-.41,3.29,1.92,6.29,5.21,6.7h0c-3.29-.41-6.29,1.92-6.7,5.21h0c.41-3.29-1.92-6.29-5.21-6.7h0c3.29.41,6.29-1.92,6.7-5.21Z"/>
    <path class="i" d="M212.44,143.23l10.08.13-9.23-3.59c.07-.06.15-.11.22-.17,1.06-.84,2.09-1.72,3.04-2.71-1.29.49-2.49,1.11-3.67,1.76-.07.04-.14.08-.21.12l1.03-14.74-4.59,14.12c-.13-.18-.25-.36-.39-.53-.82-1.07-1.69-2.11-2.68-3.07.47,1.3,1.07,2.51,1.71,3.7.09.18.2.34.29.52l-9.76-.12,9.12,3.55c-.41.3-.82.6-1.22.92-1.06.84-2.09,1.72-3.03,2.72,1.29-.49,2.5-1.1,3.68-1.76.45-.25.89-.51,1.32-.77l-.57,12.24,3.98-11.34c.2.27.39.54.59.8.82,1.07,1.69,2.11,2.68,3.07-.48-1.29-1.08-2.51-1.72-3.69-.21-.39-.43-.77-.65-1.16Z"/>
    <path class="i" d="M217.09,86.16l4.63.06-4.24-1.65s.07-.05.1-.08c.49-.38.96-.79,1.39-1.25-.59.23-1.14.51-1.69.81-.03.02-.06.04-.1.06l.47-6.77-2.11,6.48c-.06-.08-.12-.16-.18-.24-.38-.49-.78-.97-1.23-1.41.22.6.49,1.15.78,1.7.04.08.09.16.14.24l-4.48-.06,4.18,1.63c-.19.14-.38.28-.56.42-.49.38-.96.79-1.39,1.25.59-.22,1.15-.5,1.69-.81.21-.11.41-.23.61-.36l-.26,5.62,1.83-5.21c.09.12.18.25.27.37.38.49.78.97,1.23,1.41-.22-.59-.49-1.15-.79-1.7-.1-.18-.2-.35-.3-.53Z"/>
  </g>
</svg>