<svg width="50" height="50" viewBox="0 0 50 50" fill="none" xmlns="http://www.w3.org/2000/svg">
<path fill-rule="evenodd" clip-rule="evenodd" d="M7.29168 16.6666C7.29209 14.6915 7.80308 12.7499 8.77505 11.0305C9.74702 9.31098 11.147 7.87195 12.839 6.85302C14.5311 5.8341 16.4579 5.26987 18.4323 5.2151C20.4067 5.16033 22.3617 5.61687 24.1077 6.54043C25.8537 7.46398 27.3312 8.82319 28.397 10.4861C29.4628 12.1491 30.0807 14.0593 30.1906 16.0314C30.3005 18.0035 29.8988 19.9706 29.0243 21.7417C28.1499 23.5127 26.8325 25.0277 25.2 26.1396C28.7156 27.429 31.765 29.741 33.9555 32.7781C36.1461 35.8152 37.3776 39.4383 37.4917 43.1812C37.4978 43.3864 37.4635 43.5908 37.3907 43.7827C37.3178 43.9747 37.2079 44.1504 37.0672 44.2998C36.7829 44.6016 36.3905 44.7782 35.9761 44.7906C35.5616 44.803 35.1593 44.6503 34.8575 44.3661C34.5557 44.0819 34.3791 43.6894 34.3667 43.275C34.2426 39.2155 32.5428 35.3639 29.6275 32.5362C26.7121 29.7086 22.8103 28.1273 18.749 28.1273C14.6876 28.1273 10.7858 29.7086 7.87049 32.5362C4.95514 35.3639 3.25532 39.2155 3.13126 43.275C3.1104 43.683 2.93059 44.0665 2.63034 44.3436C2.3301 44.6206 1.9333 44.769 1.52496 44.757C1.11661 44.745 0.729204 44.5736 0.445723 44.2794C0.162243 43.9853 0.00523848 43.5918 0.00834605 43.1833C0.121995 39.44 1.35336 35.8165 3.54394 32.779C5.73452 29.7415 8.78406 27.4291 12.3 26.1396C10.7557 25.0891 9.49184 23.6766 8.61884 22.0254C7.74585 20.3742 7.29021 18.5344 7.29168 16.6666ZM18.75 8.33331C16.5399 8.33331 14.4203 9.21128 12.8575 10.7741C11.2947 12.3369 10.4167 14.4565 10.4167 16.6666C10.4167 18.8768 11.2947 20.9964 12.8575 22.5592C14.4203 24.122 16.5399 25 18.75 25C20.9601 25 23.0798 24.122 24.6426 22.5592C26.2054 20.9964 27.0833 18.8768 27.0833 16.6666C27.0833 14.4565 26.2054 12.3369 24.6426 10.7741C23.0798 9.21128 20.9601 8.33331 18.75 8.33331Z" fill="#458CA8"/>
<path d="M36.0209 16.6667C35.7125 16.6667 35.4125 16.6875 35.1167 16.7292C34.9102 16.7662 34.6983 16.7612 34.4937 16.7145C34.2891 16.6678 34.0961 16.5804 33.926 16.4575C33.7559 16.3346 33.6124 16.1787 33.5039 15.9991C33.3954 15.8195 33.3242 15.6199 33.2945 15.4121C33.2648 15.2044 33.2773 14.9928 33.3312 14.79C33.385 14.5872 33.4792 14.3974 33.608 14.2318C33.7369 14.0661 33.8978 13.9282 34.0811 13.8261C34.2644 13.724 34.4664 13.6599 34.675 13.6375C36.7471 13.338 38.8599 13.7359 40.681 14.7686C42.5021 15.8014 43.9281 17.4104 44.7346 19.3424C45.5411 21.2744 45.6823 23.4197 45.136 25.4407C44.5896 27.4618 43.3868 29.2438 41.7167 30.5063C44.1717 31.6055 46.2561 33.3917 47.7185 35.6493C49.1809 37.9068 49.9588 40.5394 49.9584 43.2292C49.9584 43.6436 49.7938 44.041 49.5007 44.3341C49.2077 44.6271 48.8103 44.7917 48.3959 44.7917C47.9815 44.7917 47.584 44.6271 47.291 44.3341C46.998 44.041 46.8334 43.6436 46.8334 43.2292C46.8331 40.9045 46.0841 38.6417 44.6972 36.776C43.3103 34.9104 41.3594 33.541 39.1334 32.8709L38.0209 32.5375V29.0459L38.875 28.6105C40.1412 27.9691 41.1543 26.9197 41.7507 25.6318C42.3471 24.3439 42.4921 22.8925 42.1622 21.512C41.8323 20.1316 41.0468 18.9026 39.9325 18.0234C38.8182 17.1443 37.4402 16.6663 36.0209 16.6667Z" fill="#458CA8"/>
</svg>
