<svg width="271" height="51" viewBox="0 0 271 51" fill="none" xmlns="http://www.w3.org/2000/svg">
<path d="M185.134 10.8116L194.161 11.3446L193.379 11.5553L189.5 11.5833L185.631 11.3549L177.626 11.1393L176.341 10.935L176.332 11.1914L188.456 11.907L206.747 13.6292L214.214 14.4554L214.721 14.7423L213.427 14.7943L205.938 14.6092L201.553 14.3503L199.494 14.1003L195.624 13.8719L194.851 13.8262L194.067 14.037L193.036 13.9761L193.023 14.3607L209.785 15.4786L218.804 16.268L236.838 17.9749L238.381 18.1945L238.376 18.3227L242.499 18.6945L266.484 20.2388L269.574 20.5498L270.082 20.8366L268.787 20.8887L239.897 19.1833L239.631 19.4245L236.268 19.483L235.499 19.3091L221.063 18.2L200.427 16.9818L200.418 17.2382L196.037 16.8512L189.589 16.4705L190.372 16.2598L190.634 16.1468L182.633 15.803L179.791 15.7637L179.529 15.8767L174.624 15.7156L166.885 15.2588L166.895 15.0023L154.753 14.7995L150.359 14.7971L149.838 14.8948L145.191 14.749L144.155 14.8163L143.901 14.6728L142.095 14.5662L141.06 14.6335L138.222 14.466L137.186 14.5333L134.864 14.3963L131.24 14.5678L124.524 14.4283L122.723 14.1935L122.456 14.4347L120.9 14.5997L129.932 15.0045L128.892 15.2L124.502 15.0693L124.244 15.0541L124.235 15.3105L120.873 15.369L114.931 15.2752L112.093 15.1077L111.587 14.8208L111.578 15.0772L110.8 15.1598L107.184 15.0748L113.379 15.312L116.99 15.5252L115.95 15.7207L119.823 15.8209L125.774 15.6583L128.358 15.6824L130.679 15.8194L130.675 15.9476L129.381 15.9997L133.77 16.1303L134.295 15.9044L132.742 15.9412L133.268 15.7153L131.462 15.6087L131.729 15.3675L141.033 15.4028L144.391 15.4725L147.486 15.6553L146.445 15.8508L142.571 15.7506L140.508 15.6288L140.499 15.8852L140.757 15.9004L141.277 15.8027L141.269 16.0591L142.563 16.007L143.585 16.3243L137.643 16.2305L143.581 16.4525L147.197 16.5375L149.781 16.5616L150.559 16.479L153.138 16.6313L158.822 16.7099L161.917 16.8926L169.406 17.0777L170.172 17.3798L169.135 17.4472L156.741 17.1009L154.419 16.9639L153.125 17.0159L150.288 16.8484L148.993 16.9005L143.568 16.8372L133.757 16.515L127.299 16.3907L123.679 16.434L120.063 16.349L115.407 16.4595L106.361 16.4394L104.813 16.3481L104.551 16.4611L101.709 16.4218L100.428 16.0892L100.419 16.3456L99.1207 16.5259L97.831 16.4498L97.5684 16.5628L92.9123 16.6733L87.219 16.8512L76.6123 17.1243L73.2456 17.311L69.3675 17.339L69.3541 17.7237L68.3179 17.791L68.0688 17.5193L67.553 17.4889L68.0599 17.7757L65.7295 17.8951L65.9964 17.6539L65.4894 17.3671L65.2315 17.3518L64.9646 17.593L63.6704 17.6451L63.1456 17.8711L61.5979 17.7797L61.3578 17.2516L60.575 17.4624L61.3444 17.6363L60.3037 17.8318L59.5299 17.7861L59.5388 17.5297L55.3938 17.7989L52.0227 18.1138L49.4209 18.6026L46.5612 19.0761L43.19 19.391L41.3755 19.5408L40.6062 19.3669L38.2757 19.4863L39.0629 19.1474L46.5791 18.5633L48.914 18.3157L40.624 18.8541L38.5559 18.8605L39.3387 18.6498L44.7868 18.072L45.3071 17.9743L45.5785 17.6049L41.9583 17.6481L42.7455 17.3092L46.637 16.8965L45.6008 16.9638L42.2296 17.2787L41.4602 17.1048L41.4647 16.9766L39.6547 16.9983L39.9215 16.7571L37.8579 16.6352L33.9664 17.0479L32.9346 16.987L32.6678 17.2282L30.3418 17.2193L30.3329 17.4758L28.2648 17.4822L23.853 17.9926L23.3416 17.8339L24.3868 17.5102L28.5407 16.9846L29.5725 17.0455L29.5814 16.789L24.3912 17.382L22.0563 17.6296L22.0474 17.886L21.278 17.7121L23.1104 17.0494L26.486 16.6063L29.5992 16.2762L30.1151 16.3067L30.124 16.0502L30.9067 15.8395L26.7528 16.3651L24.6714 16.7561L22.6079 16.6343L22.6168 16.3779L21.3182 16.5582L19.4947 16.9644L15.6032 17.3771L14.567 17.4444L14.5803 17.0598L15.1007 16.962L12.5034 17.3226L10.9557 17.2312L11.4805 17.0053L16.6706 16.4123L18.2228 16.3755L18.2317 16.1191L20.3086 15.8562L20.8156 16.1431L22.6481 15.4804L21.6207 15.2913L26.5529 14.6832L31.4896 13.9468L32.2768 13.6079L32.7971 13.5101L33.0684 13.1407L31.2494 13.4187L27.8783 13.7336L25.281 14.0942L21.1315 14.4916L18.5477 14.4676L19.0725 14.2416L21.1494 13.9788L21.1628 13.5941L26.6109 13.0164L27.3847 13.0621L27.3758 13.3185L24.5206 13.6639L33.8602 12.6735L48.6433 11.2337L57.974 10.4998L60.3045 10.3804L66.2685 9.83312L67.3092 9.63761L74.0336 9.52067L77.6534 9.47743L77.645 9.73384L87.2159 9.52798L88.7721 9.36292L90.8403 9.35653L92.1392 9.17624L92.9085 9.35013L103.004 8.9183L115.937 8.65396L124.471 8.5154L123.449 8.19807L124.743 8.146L129.648 8.3071L133.001 8.50505L132.993 8.76147L134.015 9.07879L133.753 9.19178L129.101 9.17411L134.011 9.207L138.663 9.22466L140.984 9.36171L141.255 8.9923L141.767 9.15097L141.763 9.27918L149.252 9.46434L154.158 9.62544L162.159 9.96926L162.678 9.8715L167.068 10.0022L173.517 10.3828L185.134 10.8116Z" fill="#D64F7F"/>
<path d="M185.133 10.811L194.161 11.344L193.379 11.5547L189.5 11.5827L185.631 11.3543L177.626 11.1387L176.341 10.9344L176.332 11.1908L188.456 11.9065L206.747 13.6286L214.214 14.4548L214.721 14.7417L213.427 14.7938L205.938 14.6086L201.553 14.3498L199.494 14.0997L195.624 13.8713L194.851 13.8256L194.067 14.0364L193.036 13.9755L193.023 14.3601L209.785 15.4781L218.804 16.2674L236.838 17.9743L238.381 18.1939L238.376 18.3221L242.499 18.694L266.484 20.2383L269.574 20.5492L270.082 20.8361L268.787 20.8881L239.897 19.1827L239.631 19.4239L235.232 19.5497L234.969 19.6627L223.104 18.9623L211.501 18.1488L202.473 17.6159L220 19.036L229.788 19.9992L238.283 21.0145L247.814 21.9625L247.547 22.2037L245.736 22.2254L255.009 23.1582L260.426 23.4779L260.417 23.7343L252.15 23.6317L248.271 23.6597L248.267 23.7879L245.692 23.5075L240.533 23.2029L245.687 23.6357L246.972 23.84L246.969 23.9682L231.234 23.0394L230.971 23.1524L224.771 23.0433L224.251 23.1411L224.763 23.2998L227.849 23.7389L226.809 23.9344L226.035 23.8887L219.59 23.3799L224.224 23.9104L231.184 24.4497L231.949 24.7518L218.278 23.9448L220.596 24.21L220.591 24.3382L219.039 24.3751L215.427 24.1619L213.884 23.9423L209.757 23.6987L212.074 23.964L220.835 24.7381L221.085 25.0097L217.211 24.9095L219.781 25.3182L220.808 25.5073L227.511 26.0315L228.796 26.2358L228.792 26.364L223.628 26.1877L221.048 26.0354L221.044 26.1636L217.948 25.9809L214.6 25.6547L210.988 25.4416L205.318 24.9784L205.31 25.2348L209.953 25.5089L209.944 25.7653L210.455 25.9239L210.464 25.6675L213.044 25.8198L215.103 26.0698L215.093 26.3262L220.506 26.7742L220.502 26.9024L218.692 26.924L211.98 26.6564L210.423 26.8214L206.292 26.706L205.772 26.8038L203.188 26.7797L195.703 26.4663L190.793 26.4334L192.083 26.5096L191.3 26.7203L190.006 26.7724L192.843 26.9399L192.577 27.1811L186.902 26.8461L185.875 26.657L183.037 26.4895L183.286 26.7611L181.991 26.8132L177.09 26.5239L170.633 26.3996L166.755 26.4276L174.507 26.4998L176.571 26.6216L176.566 26.7498L167.516 26.858L179.666 26.8044L184.318 26.822L188.703 27.0809L190.246 27.3004L189.464 27.5112L183.531 27.161L181.974 27.326L177.068 27.1649L164.393 27.4445L159.217 27.6528L156.895 27.5158L156.366 27.8699L156.873 28.1568L155.837 28.2241L152.737 28.1696L147.297 28.4909L146.27 28.3018L153.782 27.8459L153.791 27.5895L144.99 27.9692L142.401 28.0734L141.622 28.1559L143.162 28.5037L141.605 28.6687L139.799 28.5621L139.808 28.3057L136.699 28.5076L135.401 28.6879L133.079 28.5509L132.554 28.7768L130.482 28.9114L129.957 29.1374L126.079 29.1654L124.269 29.187L122.464 29.0805L120.649 29.2303L120.64 29.4867L119.096 29.2671L118.83 29.5083L115.979 29.7255L113.653 29.7166L112.359 29.7687L112.35 30.0251L110.282 30.0315L108.468 30.1814L107.431 30.2487L104.834 30.6092L102.499 30.8568L99.9061 31.0892L99.1323 31.0435L99.1453 30.6589L101.739 30.4265L105.888 30.0291L103.299 30.1332L97.0733 30.7935L93.4443 31.0931L91.1051 31.4689L89.2949 31.4906L87.738 31.6556L85.9239 31.8054L84.1044 32.0835L75.5432 32.9913L75.2764 33.2325L73.7153 33.5258L70.1041 33.3126L68.5475 33.4776L68.2761 33.8471L66.4571 34.1251L64.6515 34.0185L65.4432 33.5513L63.6287 33.7012L63.3529 34.1988L60.2307 34.7853L57.8958 35.0329L56.8685 34.8438L56.3526 34.8133L54.0177 35.0609L52.4701 34.9696L51.9631 34.6827L52.2389 34.1851L53.5331 34.133L53.542 33.8766L51.9899 33.9134L51.4516 34.524L50.9358 34.4936L50.9447 34.2372L49.6461 34.4174L49.3926 34.274L48.6054 34.613L46.5284 34.8758L45.759 34.7019L44.7228 34.7692L41.6096 35.0993L38.2295 35.6706L37.4601 35.4967L38.2473 35.1578L40.0619 35.0079L39.288 34.9623L36.9576 35.0816L36.9666 34.8252L34.3648 35.314L33.8489 35.2835L33.8623 34.8989L31.5274 35.1465L32.5814 34.5664L30.5 34.9574L31.007 35.2443L28.9256 35.6353L28.4008 35.8612L26.5863 36.0111L24.5227 35.8893L22.4413 36.2803L21.6674 36.2346L21.4318 35.5783L23.5132 35.1873L23.7622 35.459L24.803 35.2634L25.3367 34.7811L26.6398 34.4726L24.8208 34.7506L23.2775 34.531L24.5896 33.9661L25.1055 33.9966L25.1189 33.6119L29.2772 32.9581L29.0326 32.5583L27.4805 32.5951L26.1729 33.0318L25.6437 33.386L25.1278 33.3555L25.1411 32.9709L24.6208 33.0687L24.6074 33.4533L21.4809 34.168L19.6663 34.3179L18.1097 34.4829L17.6027 34.196L18.6434 34.0005L19.4351 33.5334L20.2045 33.7073L19.9376 33.9485L20.9739 33.8812L20.7293 33.4813L22.2903 33.188L23.0642 33.2337L23.0732 32.9773L22.5573 32.9468L22.5662 32.6904L23.6024 32.6231L23.6158 32.2385L25.6972 31.8475L23.8871 31.8691L22.5884 32.0494L22.5974 31.793L20.7873 31.8146L21.0764 30.9323L19.7733 31.2408L19.2574 31.2104L19.2664 30.954L21.6058 30.5782L21.8771 30.2088L19.7957 30.5998L19.0263 30.4259L20.3383 29.861L21.379 29.6655L19.8269 29.7023L19.0575 29.5284L16.7315 29.5196L16.7226 29.776L15.9532 29.6021L13.3515 30.0909L12.5821 29.917L13.6272 29.5933L13.6361 29.3369L12.3509 29.1325L12.3598 28.8761L10.5364 29.2824L11.5637 29.4715L10.7809 29.6822L11.2923 29.8409L8.17468 30.2992L4.53223 30.9835L4.28321 30.7118L7.15184 29.9819L8.97978 29.4474L7.93907 29.6429L7.16968 29.469L8.21483 29.1453L5.35067 29.7471L4.83924 29.5884L5.10611 29.3472L4.06986 29.4145L4.07878 29.1581L7.20536 28.4434L10.0784 27.5852L12.9426 26.9834L13.4675 26.7574L11.6574 26.7791L11.1459 26.6204L10.6122 27.1028L9.57598 27.1701L10.6345 26.4617L9.59824 26.529L10.3944 25.9337L12.7382 25.4297L13.2675 25.0755L15.3444 24.8127L16.3896 24.489L15.0954 24.541L13.2719 24.9473L12.2312 25.1428L11.6975 25.6252L10.6568 25.8207L9.88298 25.775L9.89189 25.5186L7.03663 25.8639L4.69727 26.2397L4.17246 26.4657L1.06372 26.6676L1.59746 26.1852L3.42092 25.779L4.72849 25.3423L6.28955 25.049L7.07231 24.8383L6.58318 24.0386L7.63281 23.5866L9.19834 23.1651L12.316 22.7068L13.0898 22.7525L13.0809 23.0089L13.5968 23.0394L13.8637 22.7982L13.3522 22.6395L13.6235 22.2701L11.5421 22.6611L8.16655 23.1042L5.82719 23.48L5.83611 23.2236L2.71846 23.6819L2.46943 23.4103L8.19779 22.2068L9.99891 22.4416L10.0079 22.1851L9.49644 22.0265L10.2747 21.944L11.5868 21.379L12.6275 21.1835L11.8536 21.1378L8.7315 21.7244L7.95765 21.6787L7.97101 21.2941L7.46407 21.0072L9.2831 20.7292L9.56331 20.1033L11.9116 19.4711L12.1785 19.2299L12.6944 19.2604L12.7033 19.004L9.06085 19.6883L8.0335 19.4991L9.07866 19.1754L12.7122 18.7475L14.7892 18.4847L16.0923 18.1762L16.8617 18.3501L17.1152 18.4936L17.1285 18.1089L18.9431 17.9591L20.4908 18.0505L20.7665 17.5528L23.8886 16.9663L27.7846 16.4255L30.115 16.3061L30.1239 16.0497L30.9067 15.8389L26.7528 16.3645L24.6714 16.7556L22.6079 16.6338L22.6168 16.3773L21.3181 16.5576L19.4947 16.9639L15.6032 17.3765L14.5669 17.4438L14.5803 17.0592L15.1006 16.9614L12.5033 17.322L10.9556 17.2306L11.4805 17.0047L16.6706 16.4118L18.2227 16.3749L18.2317 16.1185L20.3087 15.8557L20.8156 16.1425L22.648 15.4799L21.6207 15.2908L26.5529 14.6826L31.4895 13.9462L32.2767 13.6073L32.7971 13.5095L33.0685 13.1401L31.2494 13.4182L27.8783 13.7331L25.281 14.0936L21.1316 14.491L18.5476 14.467L19.0724 14.241L21.1494 13.9782L21.1627 13.5936L26.6108 13.0159L27.3847 13.0616L27.3758 13.318L24.5205 13.6633L33.8601 12.673L48.6434 11.2331L57.974 10.4992L60.3044 10.3798L66.2684 9.83252L67.3091 9.63701L74.0335 9.52007L77.6534 9.47682L77.645 9.73324L87.2159 9.52738L88.7721 9.36232L90.8403 9.35592L92.1385 9.17564L92.9085 9.34953L103.004 8.9177L115.937 8.65336L124.471 8.5148L123.449 8.19747L124.743 8.14539L129.648 8.30649L133.001 8.50444L132.993 8.76086L134.015 9.07819L133.753 9.19117L129.101 9.17351L134.011 9.2064L138.663 9.22406L140.984 9.3611L141.255 8.9917L141.767 9.15036L141.763 9.27857L149.252 9.46373L154.158 9.62483L162.159 9.96865L162.678 9.8709L167.068 10.0016L173.517 10.3823L185.133 10.811Z" fill="#D64F7F"/>
<path d="M190.639 16.3202L191.15 16.4789L190.367 16.6896L198.106 17.1464L200.418 17.5399L200.427 17.2835L198.364 17.1616L198.368 17.0334L221.068 18.3734L236.019 19.513L234.97 19.9649L223.104 19.2645L211.501 18.451L202.473 17.9181L220 19.3382L229.789 20.3014L238.283 21.3167L247.814 22.2648L247.547 22.5059L245.736 22.5276L255.009 23.4604L260.426 23.7801L260.417 24.0365L254.991 23.9732L252.154 23.8057L252.937 23.595L246.75 23.1013L238.767 22.2447L234.387 21.8576L229.228 21.5531L229.499 21.1837L232.079 21.3359L220.484 20.2661L219.457 20.077L220.218 20.5073L212.479 20.0505L204.75 19.3372L204.754 19.209L200.889 18.8524L199.867 18.5351L196.255 18.3219L193.165 18.011L179.235 17.1887L178.715 17.2865L178.724 17.0301L177.43 17.0822L176.651 17.1647L176.661 16.9083L175.629 16.8474L176.135 17.1342L169.167 16.8513L164.003 16.675L164.016 16.2904L173.316 16.4539L170.479 16.2864L167.121 16.2167L161.704 15.8969L161.971 15.6557L159.392 15.5034L156.55 15.4642L153.961 15.5683L151.893 15.5747L157.83 15.7967L158.338 16.0836L149.558 15.8223L147.232 15.8135L147.228 15.9417L135.86 15.7845L131.724 15.7973L133.788 15.9191L133.779 16.1755L134.553 16.2212L133.766 16.5602L127.054 16.2925L127.059 16.1643L128.353 16.1122L122.923 16.1771L117.235 16.2267L115.687 16.1353L115.954 15.8942L106.921 15.4894L107.189 15.2482L111.578 15.3789L111.587 15.1225L112.356 15.2964L114.935 15.4486L120.878 15.5424L124.235 15.6122L123.981 15.4687L120.881 15.4142L121.149 15.173L124.506 15.2428L128.896 15.3734L120.121 14.9839L120.388 14.7427L122.723 14.4951L125.303 14.6474L133.054 14.7196L135.385 14.6002L137.19 14.7068L138.226 14.6395L141.321 14.8222L142.358 14.7549L144.164 14.8615L144.155 15.1179L145.711 14.9528L149.843 15.0683L150.364 14.9705L157.599 15.0122L164.573 15.1669L166.895 15.304L166.885 15.5604L169.469 15.5844L175.66 15.9499L179.533 16.0501L179.796 15.9371L184.186 16.0677L190.639 16.3202Z" fill="#CA4B79"/>
<path d="M117.572 28.8368L118.599 29.0259L116.264 29.2735L118.852 29.1693L120.658 29.2759L120.133 29.5019L119.096 29.5692L118.83 29.8104L115.979 30.0275L113.653 30.0187L112.359 30.0707L112.35 30.3272L110.282 30.3336L108.468 30.4834L107.431 30.5507L104.834 30.9113L102.499 31.1588L99.9061 31.3912L99.1323 31.3455L99.1461 30.9609L101.739 30.7285L105.888 30.3311L103.299 30.4353L97.0733 31.0955L93.4443 31.3952L91.1051 31.771L89.2949 31.7926L87.738 31.9576L85.9239 32.1075L84.1044 32.3855L75.5433 33.2933L75.2764 33.5345L73.7154 33.8278L70.1041 33.6146L68.5475 33.7797L68.2762 34.1491L66.4572 34.4271L64.6515 34.3205L65.4433 33.8534L63.6287 34.0032L63.3529 34.5008L60.2308 35.0874L57.8959 35.3349L56.8685 35.1458L56.3526 35.1154L54.0177 35.363L52.4701 35.2716L51.9631 34.9847L52.2389 34.4871L53.5331 34.435L53.542 34.1786L53.0306 34.02L55.1031 33.8854L55.0897 34.27L57.6825 34.0376L68.5832 32.754L74.8096 32.0938L75.579 32.2677L76.0949 32.2981L85.4341 31.3078L80.7733 31.5465L78.1762 31.9071L76.1038 32.0417L76.8911 31.7027L80.0087 31.2444L85.7105 30.8102L92.9591 30.4672L100.742 29.642L104.888 29.3727L105.915 29.5619L105.136 29.6444L105.643 29.9313L107.195 29.8944L112.635 29.5731L113.671 29.5058L115.223 29.469L115.232 29.2126L114.463 29.0387L117.572 28.8368Z" fill="#E7648F"/>
<path d="M144.391 15.7739L147.485 15.9566L146.445 16.1521L142.571 16.0519L140.508 15.9301L140.499 16.1865L140.757 16.2017L141.277 16.104L141.269 16.3604L142.562 16.3083L143.585 16.6256L137.643 16.5318L143.581 16.7539L147.197 16.8388L149.781 16.8629L150.559 16.7804L153.138 16.9326L158.822 17.0112L161.917 17.1939L169.406 17.3791L170.172 17.6812L169.135 17.7485L156.741 17.4022L154.419 17.2652L153.125 17.3172L150.288 17.1498L148.993 17.2018L143.568 17.1385L133.757 16.8163L127.299 16.692L123.679 16.7353L120.063 16.6503L115.407 16.7609L106.361 16.7408L104.813 16.6494L104.551 16.7624L101.709 16.7231L100.428 16.3905L100.419 16.647L99.1207 16.8272L97.831 16.7511L97.5684 16.8641L92.9123 16.9746L87.219 17.1525L76.6122 17.4257L73.2456 17.6123L69.3675 17.6404L69.3541 18.025L68.3178 18.0923L68.0688 17.8206L67.5529 17.7902L68.0599 18.0771L65.7295 18.1964L65.9963 17.9552L65.4893 17.6684L65.2314 17.6531L64.9645 17.8943L63.6703 17.9464L61.8647 17.8398L61.8736 17.5834L62.9144 17.3879L67.0548 17.2469L75.0869 16.6932L79.4805 16.6957L81.0374 16.5306L83.1056 16.5242L84.4038 16.3439L88.0197 16.4289L89.83 16.4073L90.0971 16.1661L95.2691 16.086L96.043 16.1317L96.0338 16.3881L97.0656 16.449L96.3009 16.1469L99.4055 16.0732L108.189 16.2063L114.651 16.2023L117.239 16.0982L122.927 16.0485L128.357 15.9837L130.679 16.1207L130.675 16.2489L129.381 16.301L133.77 16.4317L134.295 16.2057L132.742 16.2425L133.267 16.0166L131.462 15.91L131.729 15.6688L141.033 15.7041L144.391 15.7739Z" fill="#E7648F"/>
<path d="M154.757 14.9727L157.079 15.1098L157.074 15.238L155.78 15.2901L156.029 15.5617L151.893 15.5745L157.83 15.7965L158.338 16.0834L149.558 15.8221L147.232 15.8132L147.227 15.9415L135.86 15.7843L131.724 15.7971L133.788 15.9189L133.779 16.1753L134.553 16.221L133.766 16.56L127.054 16.2923L127.059 16.1641L128.353 16.112L122.923 16.1769L117.235 16.2265L115.687 16.1351L115.954 15.8939L106.921 15.4892L107.189 15.248L111.578 15.3787L111.587 15.1222L112.356 15.2961L114.935 15.4484L120.878 15.5422L124.235 15.6119L123.981 15.4685L120.881 15.414L121.149 15.1728L124.506 15.2425L128.896 15.3732L120.121 14.9837L120.388 14.7425L122.723 14.4949L125.303 14.6472L133.054 14.7193L135.385 14.6L137.19 14.7066L138.226 14.6393L141.321 14.822L142.358 14.7547L144.164 14.8613L144.155 15.1177L145.711 14.9526L149.843 15.068L150.364 14.9703L154.757 14.9727Z" fill="#CA4B79"/>
<path d="M199.712 15.5708L204.613 15.8601L206.414 16.0949L215.179 16.7408L224.456 17.5454L226.257 17.7802L228.321 17.902L228.326 17.7738L236.838 18.2763L238.381 18.4959L238.376 18.6241L242.499 18.9959L266.484 20.5402L269.574 20.8512L270.082 21.138L268.788 21.1901L239.897 19.4847L237.572 19.4759L237.58 19.2194L221.085 17.8603L213.609 17.2905L212.066 17.0709L207.939 16.8273L205.097 16.788L202.264 16.4923L202.277 16.1077L202.535 16.1229L200.218 15.8577L199.712 15.5708Z" fill="#E7648F"/>
<path d="M185.746 15.7741L198.386 16.5202L217.212 17.7599L232.933 19.0734L234.734 19.3082L234.73 19.4364L227.507 19.0101L221.063 18.5012L200.427 17.283L200.418 17.5395L196.037 17.1524L189.589 16.7717L190.372 16.561L190.634 16.448L182.633 16.1042L179.791 16.0649L179.529 16.1779L174.624 16.0168L166.885 15.56L166.89 15.4318L169.994 15.3581L170.261 15.1169L174.13 15.3453L179.552 15.5368L185.746 15.7741Z" fill="#E7648F"/>
<path d="M70.2484 14.6093L71.0177 14.7832L67.6466 15.0981L61.1712 15.4867L53.9175 15.9578L49.2477 16.453L40.9578 16.9914L40.7043 16.848L36.0434 17.0867L33.9664 17.3495L32.9346 17.2886L32.6678 17.5298L30.3418 17.521L30.3329 17.7774L28.2648 17.7838L23.853 18.2942L23.3415 18.1355L24.3868 17.8118L28.5407 17.2862L29.5724 17.3471L29.5814 17.0907L24.3912 17.6836L22.0563 17.9312L22.0473 18.1876L21.278 18.0137L23.1104 17.351L26.486 16.9079L29.5992 16.5778L30.1151 16.6083L30.124 16.3519L31.685 16.0586L32.2009 16.0891L32.2098 15.8326L34.0288 15.5546L34.8027 15.6003L34.8116 15.3439L37.4044 15.1115L37.9293 14.8855L44.4136 14.2405L48.5586 13.9713L48.2917 14.2125L43.1016 14.8054L41.2781 15.2117L38.6853 15.444L37.6535 15.3831L37.3866 15.6243L35.83 15.7894L37.3822 15.7525L37.3733 16.009L32.4455 16.4889L34.7715 16.4977L33.2104 16.791L34.7581 16.8824L35.2695 17.041L35.5408 16.6716L36.8306 16.7478L36.8395 16.4913L38.1337 16.4393L38.654 16.3415L38.6451 16.5979L41.7583 16.2678L41.487 16.6372L43.8219 16.3896L49.528 15.8272L53.4149 15.5427L58.0803 15.1758L70.2484 14.6093Z" fill="#E7648F"/>
<path d="M181.749 11.813L188.456 12.2089L206.747 13.931L214.214 14.7573L214.721 15.0441L213.427 15.0962L205.938 14.911L201.553 14.6522L199.494 14.4022L195.624 14.1738L194.339 13.9694L190.217 13.5976L190.221 13.4694L195.642 13.6609L193.841 13.4261L187.65 13.0607L178.885 12.4148L175.015 12.1864L171.925 11.8754L171.929 11.7472L176.835 11.9083L178.902 11.9019L189.216 12.6392L193.596 13.0263L190.505 12.7153L181.74 12.0694L181.749 11.813Z" fill="#CA4B79"/>
<path d="M190.639 16.3199L191.15 16.4785L190.367 16.6893L198.106 17.1461L200.418 17.5395L200.427 17.2831L198.364 17.1613L198.368 17.0331L221.068 18.373L236.02 19.5126L234.969 19.9646L223.104 19.2641L198.351 17.5459L190.096 17.0587L188.299 16.6957L188.037 16.8086L184.679 16.7389L175.135 16.1755L175.66 15.9495L179.533 16.0497L179.796 15.9368L184.186 16.0674L190.639 16.3199Z" fill="#CA4B79"/>
<path d="M168.713 15.0255L169.74 15.2146L169.736 15.3428L152.943 15.1223L150.359 15.0983L149.838 15.196L145.191 15.0502L144.155 15.1175L143.901 14.974L142.095 14.8674L141.06 14.9347L138.222 14.7672L137.186 14.8345L134.864 14.6975L131.24 14.869L124.524 14.7295L122.723 14.4947L122.456 14.7359L120.9 14.9009L129.932 15.3057L128.892 15.5012L124.502 15.3705L124.244 15.3553L124.235 15.6117L120.873 15.6702L114.931 15.5764L112.093 15.4089L112.369 14.9113L117.8 14.8464L117.039 14.4161L118.08 14.2206L126.868 14.2255L127.637 14.3994L127.646 14.1429L128.931 14.3473L130.23 14.167L136.688 14.2913L137.715 14.4804L143.399 14.5589L144.947 14.6503L145.458 14.809L145.725 14.5678L146.236 14.7264L149.594 14.7962L151.408 14.6463L155.024 14.7313L168.713 15.0255Z" fill="#E7648F"/>
<path d="M74.8096 32.0939L75.579 32.2678L74.2713 32.7045L72.9727 32.8847L72.9638 33.1412L71.9231 33.3367L74.7739 33.1195L74.0089 32.8174L76.077 32.811L76.3216 33.2109L75.5433 33.2934L75.2764 33.5346L73.7154 33.8279L70.1041 33.6147L68.5475 33.7798L68.2762 34.1492L66.4572 34.4272L64.6515 34.3206L65.4432 33.8535L63.6286 34.0033L63.3529 34.5009L60.2308 35.0875L57.8959 35.335L56.8685 35.1459L56.3526 35.1155L54.0177 35.3631L52.4701 35.2717L51.9631 34.9848L52.2389 34.4872L53.5331 34.4351L53.542 34.1787L53.0305 34.0201L55.103 33.8855L55.0897 34.2701L57.6825 34.0377L68.5832 32.7541L74.8096 32.0939Z" fill="#E7648F"/>
<path d="M97.8532 16.1102L99.143 16.1863L99.1338 16.4427L100.424 16.5189L99.6366 16.8578L97.831 16.7512L97.5684 16.8642L92.9123 16.9748L87.219 17.1526L76.6123 17.4258L73.2456 17.6125L69.3675 17.6405L69.3541 18.0251L68.3178 18.0924L68.0688 17.8208L67.5529 17.7903L68.0599 18.0772L65.7295 18.1966L65.9963 17.9554L65.4893 17.6685L65.2314 17.6533L64.9645 17.8945L63.6703 17.9465L61.8647 17.8399L61.8736 17.5835L62.9144 17.388L67.0549 17.247L75.0869 16.6934L79.4805 16.6958L81.0374 16.5307L83.1056 16.5243L84.4038 16.3441L88.0197 16.429L89.83 16.4074L90.0971 16.1662L95.2691 16.0861L96.043 16.1318L96.0338 16.3882L97.0656 16.4491L96.3009 16.147L97.8532 16.1102Z" fill="#E7648F"/>
<path d="M96.172 12.4138L96.942 12.5877L97.9692 12.7768L97.96 13.0332L100.028 13.0268L101.585 12.8617L102.096 13.0204L101.829 13.2616L104.16 13.1422L106.482 13.2793L106.214 13.5205L98.2049 13.433L91.9965 13.5804L87.077 13.804L82.4163 14.0427L81.3891 13.8536L79.3255 13.7318L78.0265 13.9121L78.2937 13.6709L76.7461 13.5795L75.9857 13.1492L79.3524 12.9625L79.3616 12.7061L80.1393 12.6236L87.3756 12.6653L91.2579 12.5091L91.7738 12.5395L92.0226 12.8112L92.5431 12.7134L92.2943 12.4418L94.3625 12.4354L94.3487 12.82L96.159 12.7984L96.172 12.4138Z" fill="#E7648F"/>
<path d="M66.6506 14.0114L67.9358 14.2158L70.0038 14.2094L69.9949 14.4658L70.5064 14.6244L68.9498 14.7895L58.0759 15.3039L48.7452 16.0378L42.7812 16.585L41.4826 16.7653L40.7176 16.4632L40.4597 16.448L39.428 16.3871L39.6993 16.0177L45.1429 15.5682L45.9257 15.3575L47.2109 15.5618L46.9619 15.2902L50.3331 14.9753L53.4373 14.9016L55.7722 14.654L58.8809 14.4521L61.2069 14.4609L61.2158 14.2045L66.6506 14.0114Z" fill="#CA4B79"/>
<path d="M117.572 28.8367L118.599 29.0258L116.264 29.2734L118.852 29.1692L120.658 29.2758L120.133 29.5018L119.096 29.5691L118.83 29.8103L115.979 30.0274L113.653 30.0186L112.359 30.0707L112.35 30.3271L110.282 30.3335L108.468 30.4833L107.431 30.5506L104.834 30.9112L102.499 31.1588L99.9061 31.3911L99.1322 31.3454L99.146 30.9608L101.739 30.7285L105.888 30.331L103.299 30.4352L99.9283 30.7501L99.6796 30.4784L98.9104 30.3045L102.802 29.8919L103.834 29.9528L103.842 29.6964L96.3217 30.4087L90.8733 30.9864L88.5479 30.9776L80.7733 31.5464L78.1762 31.907L76.1038 32.0416L76.891 31.7027L80.0087 31.2443L85.7104 30.8101L92.9591 30.4672L100.742 29.6419L104.888 29.3727L105.915 29.5618L105.136 29.6443L105.643 29.9312L107.195 29.8943L112.635 29.573L113.671 29.5057L115.223 29.4689L115.232 29.2125L114.463 29.0386L117.572 28.8367Z" fill="#E7648F"/>
<path d="M175.633 16.7189L176.661 16.908L176.914 17.0515L176.919 16.9232L178.724 17.0298L179.24 17.0603L193.169 17.8825L196.518 18.2087L201.161 18.4828L200.894 18.724L205.017 19.0958L205.012 19.224L212.484 19.922L220.218 20.507L221.761 20.7266L221.756 20.8548L212.212 20.2914L210.927 20.0871L210.909 20.5999L208.335 20.3194L202.402 19.9692L202.668 19.728L205.506 19.8955L209.895 20.0262L204.999 19.6086L202.419 19.4564L203.46 19.2609L195.469 18.6606L195.219 18.389L185.933 17.8408L183.092 17.8015L181.539 17.8384L180.512 17.6493L163.999 16.8029L165.04 16.6074L169.429 16.7381L175.108 16.9449L175.633 16.7189Z" fill="#EC8EAB"/>
<path d="M197.434 21.6031L203.109 21.9381L210.575 22.7643L214.435 23.2492L224.224 24.2124L231.184 24.7517L231.949 25.0538L218.279 24.2468L218.274 24.375L213.12 23.9423L211.838 23.6097L211.843 23.4815L216.228 23.7404L209.015 23.0576L193.022 22.1135L193.289 21.8724L191.487 21.6376L191.492 21.5093L197.429 21.7314L197.434 21.6031Z" fill="#CA4B79"/>
<path d="M110.725 10.1893L115.884 10.4938L114.843 10.6893L103.982 10.8191L96.4883 10.7621L87.1798 10.855L81.4873 11.0328L72.1699 11.3821L69.0612 11.584L67.7715 11.5079L68.8077 11.4406L68.8166 11.1842L70.3688 11.1473L71.1515 10.9366L73.7399 10.8325L73.731 11.0889L74.5137 10.8781L81.505 10.52L89.5236 10.351L92.3703 10.2621L103.226 10.2605L110.725 10.1893Z" fill="#E7648F"/>
<path d="M237.598 18.7069L266.484 20.5405L269.574 20.8514L270.082 21.1383L268.788 21.1904L240.671 19.5306L239.386 19.3263L239.395 19.0699L237.585 19.0915L235.268 18.8262L235.273 18.698L237.598 18.7069Z" fill="#CA4B79"/>
<path d="M96.7454 18.229L98.809 18.3509L98.5419 18.5921L95.4334 18.794L91.3062 18.5503L91.0437 18.6633L82.5091 18.8019L78.3597 19.1993L76.0294 19.3187L73.9525 19.5815L69.554 19.7073L68.5177 19.7746L64.6352 19.9308L63.5945 20.1263L61.7844 20.1479L60.2278 20.313L57.3815 20.4019L53.232 20.7993L48.8291 21.0533L47.8018 20.8642L48.847 20.5405L49.8787 20.6014L51.4398 20.3081L57.9107 20.0477L62.0557 19.7785L67.4994 19.329L71.6399 19.188L73.9748 18.9404L79.4099 18.7474L84.8529 18.2979L94.1613 18.205L96.7454 18.229Z" fill="#E7648F"/>
<path d="M113.379 15.6135L116.99 15.8267L116.986 15.9549L112.592 15.9525L101.224 15.7953L93.7261 15.8666L87.7841 15.7728L86.4897 15.8249L82.0869 16.0789L74.0596 16.5043L72.7744 16.2999L68.1179 16.4105L68.1268 16.1541L73.5616 15.961L74.8469 16.1653L75.8876 15.9698L82.8792 15.6117L83.911 15.6726L83.9194 15.4162L81.5895 15.5356L81.8605 15.1662L84.1912 15.0468L85.7389 15.1381L86.2502 15.2968L90.9063 15.1863L102.527 15.4868L108.99 15.4829L113.379 15.6135Z" fill="#E7648F"/>
<path d="M169.274 13.774L196.616 15.388L197.123 15.6749L201.504 16.062L201.49 16.4466L199.431 16.1966L191.177 15.7093L191.181 15.5811L192.991 15.5595L169.261 14.1586L159.97 13.7387L155.069 13.4494L155.073 13.3212L158.689 13.4061L169.274 13.774Z" fill="#EC8EAB"/>
<path d="M225.87 21.4832L236.7 22.251L237.722 22.5683L238.501 22.4858L242.37 22.7142L244.424 23.0924L244.416 23.3488L244.932 23.3793L244.94 23.1229L247.515 23.4033L248.023 23.6902L246.47 23.7271L236.926 23.1637L231.776 22.6027L228.165 22.3895L224.301 22.0329L224.309 21.7765L223.802 21.4896L225.87 21.4832Z" fill="#CA4B79"/>
<path d="M175.278 12.0732L178.889 12.2864L188.687 12.9932L194.619 13.3434L195.9 13.676L195.895 13.8042L192.796 13.7497L192.792 13.8779L194.851 14.1279L194.067 14.3386L193.036 14.2777L193.023 14.6624L191.222 14.4276L181.166 13.7055L173.944 13.2792L173.948 13.151L180.405 13.2752L184.017 13.4884L188.148 13.6038L187.904 13.2039L180.939 12.7928L176.3 12.3905L175.278 12.0732Z" fill="#E7648F"/>
<path d="M177.875 11.7126L181.744 11.941L190.51 12.5869L194.886 13.1022L194.882 13.2304L181.219 12.167L178.898 12.0299L175.02 12.0579L176.305 12.2623L187.904 13.2039L188.148 13.6038L176.025 12.8881L175.246 12.9706L175.256 12.7142L173.966 12.6381L172.681 12.4337L172.685 12.3055L167.784 12.0162L167.535 11.7446L170.377 11.7838L168.06 11.5186L168.065 11.3904L175.033 11.6733L177.875 11.7126Z" fill="#E7648F"/>
<path d="M82.2197 27.1354L83.2469 27.3245L83.2377 27.581L81.6815 27.746L81.6677 28.1306L82.6949 28.3198L79.5819 28.6499L75.4369 28.9191L72.0658 29.234L70.2601 29.1274L68.1922 29.1338L68.9749 28.923L71.043 28.9166L71.0519 28.6602L68.459 28.8926L67.6896 28.7187L68.7348 28.395L70.8028 28.3886L71.8435 28.1931L72.3683 27.9671L75.993 27.7957L77.8123 27.5176L80.9207 27.3157L82.2197 27.1354Z" fill="#E7648F"/>
<path d="M44.8091 17.7328L45.8365 17.9219L45.5606 18.4195L39.3342 19.0798L43.7372 18.8258L49.6967 18.4067L50.2082 18.5654L47.6109 18.926L39.8368 19.4948L33.8728 20.0421L26.6101 20.7696L24.0217 20.8738L24.2887 20.6326L28.438 20.2352L28.9629 20.0092L32.334 19.6943L33.3792 19.3706L40.3839 18.6278L42.2029 18.3498L44.0175 18.2L45.0492 18.2609L45.0582 18.0044L42.2074 18.2216L41.438 18.0477L44.8091 17.7328Z" fill="#E7648F"/>
<path d="M193.364 27.1443L198.523 27.4489L198.518 27.5771L195.938 27.4248L195.93 27.6812L196.966 27.6139L202.387 27.8055L203.931 28.025L203.926 28.1532L190.242 27.7309L187.666 27.4504L184.313 27.2524L175.267 27.2323L167.511 27.2884L166.221 27.2122L167.262 27.0167L174.503 26.9302L165.977 26.8124L166.244 26.5712L172.964 26.5824L179.417 26.8349L181.996 26.9872L180.974 26.6698L183.042 26.6635L185.879 26.8309L186.906 27.0201L192.581 27.3551L193.364 27.1443Z" fill="#CA4B79"/>
<path d="M203.282 16.938L217.212 17.7602L232.933 19.0737L234.734 19.3085L234.73 19.4367L227.507 19.0103L221.063 18.5014L202.233 17.3899L201.984 17.1182L203.274 17.1944L203.282 16.938Z" fill="#E7648F"/>
<path d="M222.014 20.8701L225.626 21.0833L226.911 21.2876L234.391 21.7292L241.347 22.3968L247.529 23.0186L253.199 23.4818L252.932 23.723L252.158 23.6773L252.15 23.9338L248.271 23.9618L248.267 24.09L245.692 23.8095L246.475 23.5988L247.511 23.5315L244.94 23.1228L244.932 23.3792L244.416 23.3487L244.424 23.0923L242.877 23.001L242.365 22.8423L238.496 22.6139L237.718 22.6964L235.917 22.4616L235.405 22.303L228.703 21.7789L222.78 21.1722L222.014 20.8701Z" fill="#E7648F"/>
<path d="M50.9893 33.2571L52.0166 33.4462L49.9352 33.8373L51.2339 33.657L53.8178 33.681L53.5509 33.9222L51.4784 34.0568L50.1843 34.1089L49.904 34.7347L49.6549 34.4631L48.6053 34.915L46.5284 35.1778L45.759 35.0039L44.7227 35.0712L41.6095 35.4014L38.2295 35.9727L37.4601 35.7988L38.2474 35.4598L40.0619 35.31L40.0708 35.0536L45.5278 34.2195L45.0119 34.189L44.2425 34.0151L50.9893 33.2571Z" fill="#E7648F"/>
<path d="M141.638 13.1705L149.118 13.6121L148.593 13.8381L140.588 13.6225L138.271 13.3572L137.751 13.455L132.334 13.1352L130.008 13.1264L135.683 13.4614L135.932 13.733L125.858 13.5238L118.885 13.3691L118.894 13.1127L123.804 13.1456L123.555 12.8739L126.134 13.0262L128.718 13.0502L129.243 12.8243L134.411 12.8724L141.638 13.1705Z" fill="#EC8EAB"/>
<path d="M184.318 27.1241L188.703 27.383L190.246 27.6025L189.464 27.8133L183.531 27.4631L181.974 27.6281L177.068 27.467L164.393 27.7466L161.805 27.8507L160.262 27.6312L160.529 27.39L162.863 27.1424L166.226 27.0839L169.584 27.1536L179.666 27.1064L184.318 27.1241Z" fill="#CA4B79"/>
<path d="M183.029 19.5966L192.573 20.16L193.337 20.4621L192.044 20.5142L187.405 20.1119L182.758 19.966L182.753 20.0942L180.943 20.1158L177.589 19.9179L177.594 19.7897L179.92 19.7985L175.531 19.6678L175.263 19.909L174.228 19.9763L173.978 19.7047L166.498 19.2631L165.462 19.3304L160.041 19.1389L159.791 18.8672L164.176 19.1261L164.185 18.8697L164.706 18.7719L183.029 19.5966Z" fill="#E7648F"/>
<path d="M93.2931 28.3031L95.0941 28.5379L95.0903 28.6661L89.3885 29.1004L91.4567 29.094L94.0401 29.1181L92.9998 29.3136L88.855 29.5828L86.7776 29.8456L80.814 30.3928L79.5243 30.3167L80.0486 30.0907L84.456 29.7085L86.2709 29.5587L84.9857 29.3544L82.655 29.4738L81.6278 29.2846L83.4381 29.263L83.4465 29.0066L81.3783 29.013L81.9034 28.787L86.3108 28.4048L88.1211 28.3832L88.6277 28.6701L85.7773 28.8872L88.8811 28.8135L90.9539 28.6789L91.2211 28.4377L91.4828 28.3247L93.2885 28.4313L93.2931 28.3031Z" fill="#E7648F"/>
<path d="M195.228 18.1328L201.161 18.483L200.894 18.7242L205.017 19.0961L205.012 19.2243L212.484 19.9223L220.218 20.5073L221.761 20.7269L221.756 20.8551L212.212 20.2917L210.927 20.0873L210.909 20.6002L208.335 20.3197L202.402 19.9695L202.668 19.7283L205.506 19.8958L209.895 20.0264L204.999 19.6089L202.419 19.4566L203.46 19.2611L195.469 18.6609L195.228 18.1328Z" fill="#E7648F"/>
<path d="M103.326 29.6663L103.842 29.6967L103.834 29.9532L99.4263 30.3354L99.6704 30.7352L97.0733 31.0958L93.4444 31.3954L91.1052 31.7712L89.5613 31.5517L88.5387 31.2343L86.208 31.3537L85.9592 31.0821L89.5882 30.7824L91.9143 30.7912L100.476 29.8834L103.326 29.6663Z" fill="#E7648F"/>
<path d="M22.541 18.859L23.3103 19.0329L22.2651 19.3566L21.2244 19.5521L20.1793 19.8758L18.8806 20.0561L20.1704 20.1322L20.1615 20.3887L22.7588 20.0281L23.2657 20.315L22.225 20.5105L20.9352 20.4343L20.9263 20.6908L19.6277 20.8711L19.3653 20.984L13.1211 22.1571L12.3517 21.9832L15.4738 21.3967L13.1433 21.5161L12.8988 21.1162L18.089 20.5233L16.5368 20.5601L15.2382 20.7404L14.2108 20.5513L16.5502 20.1755L15.5228 19.9864L17.8667 19.4824L20.1971 19.363L22.541 18.859Z" fill="#E7648F"/>
<path d="M71.3203 13.5164L72.6101 13.5926L72.0853 13.8185L68.9765 14.0204L70.2663 14.0966L69.2255 14.2921L66.8995 14.2832L66.6461 14.1398L62.2476 14.2656L61.2158 14.2047L61.2069 14.4611L58.8765 14.5805L53.9532 14.9322L52.3966 15.0973L49.5503 15.1862L47.4733 15.449L47.9848 15.6077L46.9485 15.675L45.9212 15.4859L44.6181 15.7944L39.4369 16.1309L38.4095 15.9417L43.0793 15.4466L47.2288 15.0492L51.8941 14.6822L57.3333 14.3609L59.6637 14.2415L61.7407 13.9787L65.1073 13.792L69.2479 13.651L71.3203 13.5164Z" fill="#E7648F"/>
<path d="M190.639 16.3199L191.15 16.4785L190.367 16.6893L198.106 17.1461L199.902 17.5091L199.898 17.6373L190.096 17.0587L188.299 16.6957L188.037 16.8086L184.679 16.7389L175.135 16.1755L175.66 15.9495L179.533 16.0497L179.796 15.9368L184.186 16.0674L190.639 16.3199Z" fill="#CA4B79"/>
<path d="M16.2968 20.0319L16.8081 20.1905L16.2833 20.4165L15.763 20.5143L17.0616 20.334L18.6093 20.4253L18.0845 20.6513L12.8944 21.2442L8.73156 22.0263L7.95771 21.9806L7.97107 21.596L7.46411 21.3091L9.28308 21.0311L9.56337 20.4052L10.862 20.2249L13.446 20.249L14.2287 20.0383L16.2968 20.0319Z" fill="#CA4B79"/>
<path d="M188.304 16.5673L190.359 16.9455L198.354 17.4175L202.22 17.7741L203.758 18.1219L203.754 18.2501L196.273 17.8086L189.829 17.2997L188.802 17.1106L187.25 17.1474L174.352 16.3861L174.361 16.1296L184.684 16.6105L188.041 16.6802L188.304 16.5673Z" fill="#E7648F"/>
<path d="M118.587 14.5076L119.614 14.6967L120.9 14.9011L129.932 15.3058L128.892 15.5013L124.502 15.3707L124.244 15.3555L124.235 15.6119L120.873 15.6703L114.931 15.5765L112.093 15.409L112.369 14.9114L117.8 14.8466L117.292 14.5597L118.587 14.5076Z" fill="#E7648F"/>
<path d="M135.656 14.2306L136.683 14.4197L136.154 14.7739L133.57 14.7498L131.24 14.8692L124.524 14.7297L122.723 14.4949L122.456 14.7361L120.126 14.8555L119.098 14.6664L117.039 14.4164L118.08 14.2209L126.868 14.2257L127.637 14.3996L127.646 14.1432L128.931 14.3475L130.23 14.1673L135.656 14.2306Z" fill="#EC8EAB"/>
<path d="M113.379 15.6136L116.99 15.8268L116.986 15.955L112.592 15.9525L101.224 15.7954L93.7261 15.8666L91.142 15.8426L90.1194 15.5253L91.1642 15.2015L102.527 15.4869L108.99 15.4829L113.379 15.6136Z" fill="#E7648F"/>
<path d="M171.585 21.6189L172.101 21.6494L172.093 21.9058L173.129 21.8385L173.378 22.1101L171.31 22.1165L170.282 21.9274L170.015 22.1686L166.142 22.0684L166.925 21.8577L164.598 21.8488L160.725 21.7486L160.205 21.8464L160.196 22.1028L159.426 21.9289L159.694 21.6877L158.399 21.7398L153.236 21.5635L150.394 21.5242L149.887 21.2373L153.249 21.1788L160.738 21.364L167.196 21.4883L171.323 21.7319L171.585 21.6189Z" fill="#E7648F"/>
<path d="M198.995 21.3096L207.507 21.8121L219.363 22.7689L221.164 23.0037L222.192 23.1928L224.256 23.3146L223.473 23.5254L218.83 23.2513L218.834 23.1231L215.486 22.7969L215.734 23.0686L210.838 22.6511L206.462 22.1358L201.049 21.6878L198.99 21.4378L198.995 21.3096Z" fill="#EC8EAB"/>
<path d="M147.944 17.6539L149.749 17.7605L149.998 18.0322L146.894 18.1059L144.831 17.9841L137.852 17.9576L133.717 17.9704L126.734 18.0721L122.607 17.8284L122.612 17.7002L128.3 17.6506L131.662 17.5921L133.992 17.4727L146.391 17.6908L147.944 17.6539Z" fill="#E7648F"/>
<path d="M192.195 16.1552L198.386 16.5206L203.282 16.9382L203.274 17.1946L200.943 17.314L200.427 17.2835L200.418 17.5399L196.037 17.1529L189.589 16.7722L190.372 16.5614L191.159 16.2225L192.195 16.1552Z" fill="#E7648F"/>
<path d="M46.3381 25.7882L47.3654 25.9774L43.4739 26.39L40.6321 26.3507L40.3607 26.7201L38.8086 26.757L39.3335 26.531L35.4464 26.8154L33.6319 26.9653L32.3421 26.8891L32.3288 27.2738L29.7359 27.5061L25.84 28.047L24.8126 27.8579L27.9303 27.3995L30.532 26.9108L34.428 26.3699L40.134 25.8074L41.9441 25.7858L40.899 26.1095L44.5236 25.9381L46.3381 25.7882Z" fill="#E7648F"/>
<path d="M51.0964 30.1801L51.6079 30.3388L50.5537 30.9189L46.9202 31.3468L45.6349 31.1425L41.49 31.4117L37.3271 32.1937L34.9877 32.5695L30.8338 33.0951L29.2817 33.132L29.0461 32.4757L31.3721 32.4845L30.3314 32.6801L31.1052 32.7257L35.7839 31.9741L37.3405 31.8091L40.4626 31.2225L43.8338 30.9077L47.2005 30.721L51.0964 30.1801Z" fill="#E7648F"/>
<path d="M178.902 11.9018L189.216 12.6391L193.339 13.011L194.624 13.2153L193.841 13.4261L187.65 13.0606L178.885 12.4147L175.015 12.1863L171.925 11.8754L171.929 11.7471L176.835 11.9082L178.902 11.9018Z" fill="#CA4B79"/>
<path d="M121.3 18.2649L123.878 18.4172L123.612 18.6584L119.214 18.7841L115.861 18.5862L114.566 18.6383L109.914 18.6206L102.674 18.7071L100.61 18.5853L99.5875 18.2679L103.465 18.2399L113.285 18.3057L117.426 18.1647L120.779 18.3626L121.3 18.2649Z" fill="#E7648F"/>
<path d="M48.0427 13.9409L48.5541 14.0996L46.2148 14.4754L42.3233 14.888L41.2781 15.2117L38.6853 15.4441L37.6535 15.3832L37.3866 15.6244L35.83 15.7894L37.3822 15.7526L37.3733 16.009L32.4455 16.489L31.1558 16.4128L31.1647 16.1564L32.2009 16.0891L32.2098 15.8327L34.0288 15.5547L34.8027 15.6003L34.8116 15.3439L37.4044 15.1116L37.9292 14.8856L44.4136 14.2406L48.0427 13.9409Z" fill="#E7648F"/>
<path d="M60.5839 17.5074L61.3578 17.5531L61.5978 18.0812L63.9238 18.09L63.9149 18.3464L55.376 18.6132L50.7151 18.852L50.7062 19.1084L47.3395 19.2951L48.1267 18.9561L50.466 18.5803L53.5837 18.122L57.9911 17.7398L59.5388 17.8311L59.5299 18.0876L60.5706 17.8921L59.8012 17.7182L60.5839 17.5074Z" fill="#E7648F"/>
<path d="M168.891 17.3491L170.176 17.5535L169.135 17.749L156.741 17.4027L154.419 17.2657L153.125 17.3178L150.287 17.1503L148.993 17.2023L143.568 17.139L142.282 16.9346L142.286 16.8064L143.581 16.7544L147.197 16.8393L149.781 16.8634L150.558 16.7809L153.138 16.9331L158.822 17.0117L161.917 17.1944L168.891 17.3491Z" fill="#E7648F"/>
<path d="M91.2579 12.5087L91.7738 12.5392L91.5028 12.9086L87.6244 12.9366L81.4159 13.084L80.6375 13.1665L82.9636 13.1754L83.2039 13.7034L81.3891 13.8533L79.3255 13.7314L78.0265 13.9117L78.2937 13.6705L76.7461 13.5792L75.9857 13.1489L79.3524 12.9622L79.3616 12.7058L80.1393 12.6232L87.3756 12.665L91.2579 12.5087Z" fill="#E7648F"/>
<path d="M24.1548 24.4786L24.6662 24.6373L24.3994 24.8785L25.1688 25.0524L21.006 25.8344L20.4901 25.804L20.4811 26.0604L17.6214 26.5339L13.9878 26.9618L12.6892 27.1421L11.6574 27.0812L11.6664 26.8248L11.1594 26.5379L12.2001 26.3424L12.1912 26.5988L14.535 26.0948L15.5757 25.8993L15.8247 26.1709L15.3044 26.2687L16.0738 26.4426L16.0827 26.1862L17.8928 26.1645L18.9424 25.7126L21.0238 25.3216L19.2092 25.4714L19.2181 25.215L21.0371 24.937L21.811 24.9826L21.8021 25.2391L23.6166 25.0892L23.6344 24.5764L24.1548 24.4786Z" fill="#EC8EAB"/>
<path d="M104.888 29.3728L105.915 29.5619L96.3217 30.4088L90.8733 30.9865L88.5479 30.9777L80.7733 31.5466L78.1762 31.9071L76.1038 32.0417L76.891 31.7028L80.0087 31.2445L85.7104 30.8102L92.9591 30.4673L100.742 29.642L104.888 29.3728Z" fill="#E7648F"/>
<path d="M110.725 10.1896L115.884 10.4941L114.843 10.6896L103.982 10.8193L100.625 10.7496L97.7872 10.5821L97.7911 10.4539L99.348 10.2888L110.725 10.1896Z" fill="#E7648F"/>
<path d="M27.4367 26.7278L28.2061 26.9017L22.7536 27.6076L18.5862 28.5179L16.7717 28.6677L16.5093 28.7807L14.9438 29.2021L15.9622 29.6477L15.6908 30.0171L13.3515 30.3929L12.5821 30.219L13.6273 29.8953L14.161 29.4129L14.1744 29.0283L14.4368 28.9153L13.9253 28.7566L18.871 27.7638L19.6404 27.9377L20.6855 27.614L20.6944 27.3576L21.9886 27.3055L23.8076 27.0275L27.4367 26.7278Z" fill="#E7648F"/>
<path d="M197.434 21.6031L203.109 21.9381L205.168 22.1882L205.163 22.3164L198.456 21.9205L202.063 22.2619L204.638 22.5423L203.856 22.7531L193.022 22.1135L193.289 21.8724L191.487 21.6376L191.492 21.5093L197.429 21.7314L197.434 21.6031Z" fill="#E7648F"/>
<path d="M31.5252 13.2228L32.0411 13.2532L31.7698 13.6226L27.1 14.1178L23.204 14.6587L19.8374 14.8453L18.5476 14.7692L19.0724 14.5432L21.1494 14.2804L21.1628 13.8958L26.6109 13.3181L27.3847 13.3638L27.3758 13.6202L24.5205 13.9655L31.5252 13.2228Z" fill="#CA4B79"/>
<path d="M159.511 19.493L160.027 19.5235L160.276 19.7951L161.045 19.969L161.036 20.2255L163.104 20.2191L165.426 20.3561L165.417 20.6125L158.702 20.473L153.28 20.2815L149.402 20.3095L146.814 20.4137L145.524 20.3375L145.791 20.0963L149.415 19.9249L157.163 20.1253L158.461 19.945L158.471 19.6886L157.959 19.5299L159.511 19.493Z" fill="#E7648F"/>
<path d="M172.476 10.8796L176.861 11.1384L176.341 11.2362L176.332 11.4926L168.584 11.2922L164.199 11.0334L158.263 10.8114L155.167 10.6286L155.176 10.3722L171.956 10.9773L172.476 10.8796Z" fill="#E7648F"/>
<path d="M169.274 13.774L176.496 14.2003L177.261 14.5024L176.482 14.585L169.261 14.1586L159.97 13.7387L155.069 13.4494L155.073 13.3212L158.689 13.4061L169.274 13.774Z" fill="#E7648F"/>
<path d="M185.134 11.1132L194.161 11.6462L193.379 11.8569L189.5 11.8849L185.631 11.6565L177.626 11.4409L176.852 11.3952L176.861 11.1388L178.418 10.9738L178.422 10.8455L185.134 11.1132Z" fill="#E7648F"/>
<path d="M149.759 10.0525L154.918 10.357L154.135 10.5678L149.23 10.4067L146.908 10.2696L150.515 10.611L150.248 10.8522L141.989 10.4931L139.401 10.5973L137.853 10.5059L138.12 10.2647L140.451 10.1454L144.329 10.1174L144.333 9.98914L149.759 10.0525Z" fill="#E7648F"/>
<path d="M30.9023 16.269L32.9614 16.519L34.7715 16.4974L33.7308 16.6929L32.9435 17.0318L30.6086 17.2794L28.803 17.1728L24.3912 17.6832L22.0563 17.9308L22.0473 18.1872L21.278 18.0133L23.1104 17.3507L26.486 16.9076L29.5992 16.5775L30.1151 16.6079L30.124 16.3515L30.9023 16.269Z" fill="#CA4B79"/>
<path d="M82.2197 27.1354L83.2469 27.3245L83.2377 27.581L77.2741 28.1282L73.1244 28.5256L68.459 28.8926L67.6896 28.7187L68.7348 28.395L70.8028 28.3886L71.8435 28.1931L72.3683 27.9671L75.993 27.7957L77.8123 27.5176L80.9207 27.3157L82.2197 27.1354Z" fill="#E7648F"/>
<path d="M198.203 21.7773L207.485 22.4537L216.753 23.5147L217.776 23.832L211.848 23.3536L209.015 23.0579L204.63 22.7991L204.638 22.5426L200.253 22.2838L198.452 22.049L198.203 21.7773Z" fill="#E7648F"/>
<path d="M180.405 13.2747L189.176 13.7924L192.266 14.1034L192.258 14.3598L191.222 14.4271L181.166 13.705L173.944 13.2787L173.948 13.1505L180.405 13.2747Z" fill="#E7648F"/>
<path d="M220.089 16.7739L223.184 16.9566L229.882 17.609L236.322 18.2461L236.317 18.3743L230.385 18.024L229.864 18.1218L229.873 17.8654L228.579 17.9175L228.058 18.0152L225.737 17.8782L221.361 17.3629L220.084 16.9021L220.089 16.7739Z" fill="#CA4B79"/>
<path d="M242.375 22.5859L253.199 23.4819L252.932 23.7231L252.158 23.6774L252.15 23.9338L248.271 23.9618L248.267 24.09L245.692 23.8096L246.475 23.5988L247.511 23.5315L244.94 23.1228L244.931 23.3793L244.416 23.3488L244.424 23.0924L242.877 23.001L242.365 22.8424L242.375 22.5859Z" fill="#EC8EAB"/>
<path d="M63.8703 19.6285L64.6397 19.8024L63.5946 20.1261L61.7845 20.1478L60.2279 20.3128L57.3815 20.4017L53.2321 20.7992L48.8292 21.0532L47.8019 20.864L48.847 20.5403L49.8788 20.6012L51.4399 20.308L57.9108 20.0476L62.0558 19.7784L63.8703 19.6285Z" fill="#E7648F"/>
<path d="M70.2484 14.6089L71.0178 14.7828L67.6466 15.0977L61.1712 15.4863L54.9538 15.8901L53.4061 15.7987L53.415 15.5423L58.0803 15.1753L70.2484 14.6089Z" fill="#E7648F"/>
<path d="M181.97 20.3047L186.355 20.5636L185.812 21.3024L182.971 21.2631L182.984 20.8785L179.88 20.9522L178.586 21.0043L173.427 20.6997L173.693 20.4585L178.079 20.7174L178.088 20.461L181.45 20.4025L181.97 20.3047Z" fill="#E7648F"/>
<path d="M133.618 28.2424L135.423 28.349L135.156 28.5902L133.35 28.4836L133.075 28.9812L130.745 29.1006L126.608 29.1134L127.134 28.8874L130.758 28.716L128.948 28.7376L121.703 28.9523L118.862 28.913L119.902 28.7175L127.151 28.3746L132.839 28.325L133.618 28.2424Z" fill="#E7648F"/>
<path d="M215.793 21.4019L224.304 21.9043L229.46 22.3371L235.388 22.8155L240.537 23.3765L239.754 23.5872L235.374 23.2001L234.089 22.9958L228.156 22.6456L220.427 21.9324L215.788 21.5301L215.793 21.4019Z" fill="#E7648F"/>
<path d="M216.518 22.858L219.871 23.0559L219.866 23.1841L227.08 23.8669L227.844 24.169L226.288 24.334L226.035 24.1906L219.591 23.6817L214.951 23.2794L215.997 22.9557L216.518 22.858Z" fill="#CA4B79"/>
<path d="M203.113 21.8101L206.466 22.008L214.449 22.8647L215.481 22.9256L215.232 22.6539L216.517 22.8583L216.246 23.2277L217.789 23.4472L217.785 23.5755L214.432 23.3775L203.104 22.0665L203.113 21.8101Z" fill="#CA4B79"/>
<path d="M183.353 25.1398L185.412 25.3898L185.408 25.518L178.945 25.522L174.294 25.5043L169.121 25.5844L167.573 25.493L168.356 25.2823L171.207 25.0652L176.375 25.1133L179.995 25.07L183.353 25.1398Z" fill="#E7648F"/>
<path d="M62.8617 11.4753L64.1513 11.5515L63.3686 11.7622L55.599 12.2029L50.9337 12.5698L46.7842 12.9672L44.9697 13.1171L43.9423 12.928L46.0193 12.6651L49.128 12.4632L50.4311 12.1547L62.8617 11.4753Z" fill="#E7648F"/>
<path d="M63.6176 12.0334L64.387 12.2073L59.4592 12.6872L51.1603 13.482L49.0923 13.4884L49.6172 13.2625L52.2099 13.0301L51.7075 12.615L53.0061 12.4347L55.0742 12.4283L55.0652 12.6848L59.2102 12.4156L63.6176 12.0334Z" fill="#E7648F"/>
<path d="M138.614 10.9367L141.451 11.1042L141.447 11.2324L138.863 11.2083L140.148 11.4127L140.144 11.5409L137.302 11.5016L136.275 11.3125L132.396 11.3405L131.356 11.536L131.351 11.6642L128.767 11.6402L128.776 11.3837L125.423 11.1858L124.142 10.8532L125.178 10.7859L130.337 11.0905L138.614 10.9367Z" fill="#E7648F"/>
<path d="M101.389 11.052L103.964 11.3325L105.765 11.5673L104.725 11.7628L102.919 11.6562L102.407 11.4975L102.399 11.7539L101.372 11.5648L99.5614 11.5864L99.5522 11.8429L97.7465 11.7363L96.9727 11.6906L92.3296 11.4165L93.3706 11.221L97.507 11.2082L99.3211 11.0584L101.389 11.052Z" fill="#E7648F"/>
<path d="M86.9818 31.399L87.2313 31.6707L85.6744 31.8357L85.6613 32.2204L78.6568 32.9631L76.855 32.7283L77.638 32.5176L79.4529 32.3678L79.9642 32.5264L80.2352 32.157L84.3892 31.6314L86.9818 31.399Z" fill="#CA4B79"/>
<path d="M195.072 22.6197L196.877 22.7263L196.869 22.9827L198.425 22.8177L198.679 22.9611L207.187 23.5918L206.662 23.8178L192.216 22.9651L191.705 22.8064L191.714 22.55L194.289 22.8305L195.072 22.6197Z" fill="#E7648F"/>
<path d="M124.867 12.3091L128.736 12.5375L128.727 12.7939L126.659 12.8003L126.139 12.8981L123.817 12.761L122.007 12.7827L121.998 13.0391L119.414 13.015L119.179 12.3588L120.215 12.2914L124.867 12.3091Z" fill="#E7648F"/>
<path d="M63.5492 28.8596L64.8389 28.9357L64.5631 29.4333L63.0065 29.5984L61.7213 29.394L61.4499 29.7634L58.0743 30.2065L55.4814 30.4389L53.9383 30.2193L53.1733 29.9172L55.5082 29.6696L56.2821 29.7153L56.2732 29.9717L59.3818 29.7698L61.4722 29.1224L63.5492 28.8596Z" fill="#EC8EAB"/>
<path d="M56.2694 22.6487L57.2968 22.8378L51.0748 23.3698L47.4457 23.6695L46.1471 23.8498L45.3732 23.8041L43.0383 24.0517L41.4907 23.9603L42.2735 23.7496L45.6446 23.4347L48.7578 23.1046L55.2332 22.716L56.2694 22.6487Z" fill="#E7648F"/>
<path d="M165.452 27.0385L166.737 27.2429L171.901 27.4192L170.86 27.6147L162.841 27.7837L161.805 27.851L160.262 27.6315L160.529 27.3903L162.863 27.1427L165.452 27.0385Z" fill="#E7648F"/>
<path d="M75.2459 26.9803L78.0833 27.1478L77.5582 27.3738L71.599 27.7928L65.635 28.3401L63.3001 28.5876L62.7887 28.429L65.9064 27.9706L72.1327 27.3104L73.9428 27.2888L75.2459 26.9803Z" fill="#E7648F"/>
<path d="M77.1375 9.74841L77.6534 9.77886L77.3778 10.2765L70.9115 10.4087L67.8072 10.4824L68.8568 10.0305L70.4134 9.86535L77.1375 9.74841Z" fill="#E7648F"/>
<path d="M22.541 18.8588L23.3103 19.0327L22.2651 19.3565L21.2244 19.552L20.1793 19.8757L18.6182 20.169L18.6093 20.4254L16.5368 20.56L15.2382 20.7403L14.2108 20.5511L16.5502 20.1753L15.5228 19.9862L17.8667 19.4822L20.1972 19.3628L22.541 18.8588Z" fill="#F5C5D3"/>
<path d="M88.9233 12.7565L91.5028 12.9087L90.4618 13.1043L89.4254 13.1716L90.9731 13.2629L89.9328 13.4584L87.6067 13.4496L87.6113 13.3214L85.0272 13.2973L83.7282 13.4776L82.701 13.2885L81.9226 13.371L80.1169 13.2644L80.6421 13.0385L82.4569 12.8886L87.6289 12.8086L88.9233 12.7565Z" fill="#CA4B79"/>
<path d="M33.9843 16.8367L35.0116 17.0258L35.0027 17.2822L32.9346 17.2886L32.6678 17.5298L30.3418 17.521L30.3329 17.7774L28.2648 17.7838L23.853 18.2942L23.3416 18.1355L24.3867 17.8118L29.5769 17.2189L33.9843 16.8367Z" fill="#EC8EAB"/>
<path d="M111.44 11.9018L111.956 11.9323L111.947 12.1887L115.825 12.1607L116.324 12.704L114.255 12.7103L110.902 12.5124L110.639 12.6254L109.35 12.5492L109.359 12.2928L107.811 12.2015L107.037 12.1558L106.273 11.8537L106.792 11.7559L108.598 11.8625L108.59 12.1189L111.178 12.0148L111.44 11.9018Z" fill="#E7648F"/>
<path d="M36.6165 22.9019L37.6438 23.091L32.9696 23.7144L28.0374 24.3226L27.0056 24.2617L26.9967 24.5181L28.2953 24.3378L29.3227 24.5269L26.205 24.9852L25.1777 24.7961L26.4852 24.3594L27.0145 24.0052L34.5395 23.1647L36.6165 22.9019Z" fill="#E7648F"/>
<path d="M95.4457 25.8608L97.2514 25.9674L96.727 26.1934L91.5412 26.6581L89.4645 26.9209L88.6945 26.747L89.4776 26.5363L88.4458 26.4754L88.455 26.219L93.6363 25.8825L95.4457 25.8608Z" fill="#E7648F"/>
<path d="M28.606 30.2659L29.3754 30.4398L24.4343 31.3044L22.086 31.9366L22.0771 32.193L20.7874 32.1169L21.0765 31.2347L19.7734 31.5432L19.2575 31.5127L19.2664 31.2563L21.6013 31.0087L22.8866 31.213L26.2711 30.5135L28.606 30.2659Z" fill="#E7648F"/>
<path d="M129.731 28.5269L131.794 28.6488L130.753 28.8443L127.129 29.0157L130.749 28.9725L129.957 29.4396L125.567 29.309L125.056 29.1503L122.735 29.0133L123.002 28.7721L128.952 28.6095L129.731 28.5269Z" fill="#CA4B79"/>
<path d="M108.063 27.2477L108.574 27.4063L107.276 27.5866L100.022 28.0577L100.53 28.3446L96.1259 28.5986L95.0988 28.4095L96.3977 28.2292L95.3705 28.0401L106.511 27.2845L108.063 27.2477Z" fill="#E7648F"/>
<path d="M24.1094 33.2117L24.6208 33.3704L24.6075 33.755L21.4808 34.4698L19.6663 34.6196L18.1097 34.7847L17.6028 34.4978L18.6435 34.3023L19.4351 33.8351L20.2045 34.009L19.9377 34.2502L20.9739 34.1829L20.7293 33.783L22.2904 33.4898L23.0642 33.5354L23.0731 33.279L24.1094 33.2117Z" fill="#CA4B79"/>
<path d="M117.572 28.8368L118.599 29.0259L116.264 29.2735L118.852 29.1694L120.658 29.2759L120.133 29.5019L119.096 29.5692L118.83 29.8104L116.241 29.9146L114.436 29.808L113.671 29.5059L115.223 29.469L115.232 29.2126L114.463 29.0387L117.572 28.8368Z" fill="#E7648F"/>
<path d="M29.7486 34.5728L30.518 34.7467L24.7896 35.9502L23.74 36.4022L22.4413 36.5824L21.6675 36.5368L21.4319 35.8805L23.5133 35.4895L23.7623 35.7611L26.8844 35.1746L29.7486 34.5728Z" fill="#E7648F"/>
<path d="M49.6684 34.0785L49.655 34.4631L48.6053 34.915L46.5284 35.1779L45.7591 35.004L44.7228 35.0713L42.6459 35.3341L41.6185 35.145L48.1162 34.1153L49.6684 34.0785Z" fill="#CA4B79"/>
<path d="M80.0886 28.9365L81.3783 29.0126L80.854 29.2386L75.9261 29.7185L74.623 30.027L72.3015 29.89L72.2926 30.1464L72.804 30.3051L72.2836 30.4028L71.2608 30.0855L68.9304 30.2049L69.4552 29.9789L74.9033 29.4012L80.0886 28.9365Z" fill="#EC8EAB"/>
<path d="M113.379 15.6134L116.99 15.8266L116.986 15.9548L112.592 15.9523L106.135 15.8281L103.297 15.6606L103.821 15.4346L108.99 15.4827L113.379 15.6134Z" fill="#EC8EAB"/>
<path d="M46.579 18.8647L47.6108 18.9256L47.3395 19.295L43.19 19.6924L41.3755 19.8423L40.6061 19.6684L38.2756 19.7877L39.0628 19.4488L46.579 18.8647Z" fill="#CA4B79"/>
<path d="M121.3 18.2652L123.879 18.4175L123.612 18.6587L119.214 18.7844L115.861 18.5865L115.34 18.6842L113.797 18.4647L114.579 18.2539L117.426 18.165L120.779 18.363L121.3 18.2652Z" fill="#E7648F"/>
<path d="M114.458 29.167L115.232 29.2127L115.223 29.4691L114.44 29.6798L113.404 29.7471L110.816 29.8513L107.191 30.0227L105.381 30.0444L104.621 29.6141L107.213 29.3817L107.729 29.4121L107.721 29.6686L113.68 29.2495L114.458 29.167Z" fill="#CA4B79"/>
<path d="M39.8992 17.7L40.6686 17.8738L38.5916 18.1367L37.293 18.3169L37.542 18.5886L34.1753 18.7753L30.8042 19.0902L30.7952 19.3466L28.2113 19.3225L28.9941 19.1118L31.5958 18.623L35.2294 18.1951L39.8992 17.7Z" fill="#E7648F"/>
<path d="M195.148 20.4405L203.402 20.9278L207.009 21.2692L206.226 21.4799L192.044 20.5142L192.048 20.386L195.148 20.4405Z" fill="#E7648F"/>
<path d="M127.854 23.0203L128.103 23.292L124.995 23.4939L121.632 23.5524L119.569 23.4306L119.56 23.687L118.008 23.7238L115.686 23.5868L116.727 23.3913L118.541 23.2414L120.868 23.2503L124.234 23.0636L127.854 23.0203Z" fill="#E7648F"/>
<path d="M36.8841 15.209L37.6579 15.2547L37.3866 15.6241L35.83 15.7892L37.3822 15.7523L37.3733 16.0087L32.4455 16.4887L31.1558 16.4125L31.1647 16.1561L32.2009 16.0888L32.2098 15.8324L34.0288 15.5544L34.8027 15.6L34.8116 15.3436L36.8841 15.209Z" fill="#E7648F"/>
<path d="M104.355 14.9525L104.604 15.2242L98.9204 15.1456L95.8165 15.2193L92.9745 15.18L90.653 15.043L91.436 14.8322L98.6762 14.7457L104.355 14.9525Z" fill="#E7648F"/>
<path d="M86.3262 13.1173L87.8738 13.2086L88.118 13.6085L86.0413 13.8713L81.9003 14.0123L82.1721 13.6429L83.2039 13.7038L83.2123 13.4474L85.0318 13.1693L86.3262 13.1173Z" fill="#E7648F"/>
<path d="M129.811 26.2189L131.1 26.295L130.318 26.5058L124.105 26.7814L122.286 27.0594L120.734 27.0963L118.145 27.2004L118.416 26.831L124.892 26.4424L128.001 26.2405L129.811 26.2189Z" fill="#E7648F"/>
<path d="M9.24669 29.5085L11.5682 29.6456L10.781 29.9845L11.2924 30.1432L8.17474 30.6015L4.53229 31.2858L4.28326 31.0142L7.1519 30.2842L8.97983 29.7497L9.24669 29.5085Z" fill="#CA4B79"/>
<path d="M91.2579 12.509L91.7738 12.5395L91.5028 12.9089L87.6243 12.9369L81.4159 13.0843L79.3477 13.0907L79.3615 12.7061L80.1392 12.6235L87.3756 12.6653L91.2579 12.509Z" fill="#E7648F"/>
<path d="M114.376 9.24878L116.955 9.40105L116.172 9.61179L113.851 9.47475L113.842 9.73117L111.516 9.72234L111.005 9.56367L107.9 9.63737L107.38 9.73513L102.47 9.70224L102.995 9.47627L110.497 9.2768L114.376 9.24878Z" fill="#E7648F"/>
<path d="M104.105 29.5837L105.648 29.8033L105.114 30.2857L99.9284 30.7504L99.6796 30.4788L98.9104 30.3049L102.802 29.8922L103.834 29.9531L104.105 29.5837Z" fill="#E7648F"/>
<path d="M158.154 21.3403L160.476 21.4773L160.721 21.8772L160.205 21.8467L160.196 22.1031L159.426 21.9293L159.694 21.6881L158.399 21.7401L153.236 21.5638L150.394 21.5245L149.887 21.2377L153.249 21.1792L158.154 21.3403Z" fill="#E7648F"/>
<path d="M172.463 11.2642L181.749 11.8124L181.744 11.9406L175.029 11.8011L168.065 11.39L169.105 11.1945L172.463 11.2642Z" fill="#CA4B79"/>
<path d="M141.638 13.1705L149.118 13.6121L148.593 13.8381L140.588 13.6224L138.529 13.3724L138.538 13.116L141.638 13.1705Z" fill="#E7648F"/>
<path d="M103.326 29.6663L103.842 29.6967L103.834 29.9531L98.9058 30.4331L92.6789 31.0933L91.6517 30.9042L93.2132 30.6109L100.476 29.8834L103.326 29.6663Z" fill="#CA4B79"/>
<path d="M205.021 18.9679L212.76 19.4247L213.008 19.6963L210.171 19.5288L212.231 19.7788L212.226 19.9071L208.099 19.6634L204.75 19.3373L205.021 18.9679Z" fill="#CA4B79"/>
<path d="M155.876 27.3726L157.166 27.4487L156.646 27.5465L156.366 28.1723L156.873 28.4592L155.837 28.5265L152.737 28.4719L147.297 28.7932L146.27 28.6041L153.782 28.1482L153.791 27.8918L155.863 27.7572L155.876 27.3726Z" fill="#E7648F"/>
<path d="M55.4287 24.5259L57.2343 24.6325L56.7095 24.8585L54.3791 24.9778L55.9223 25.1974L54.8816 25.3929L52.5511 25.5123L50.9945 25.6774L49.7048 25.6012L50.4876 25.3905L51.5238 25.3232L51.5372 24.9386L55.4287 24.5259Z" fill="#E7648F"/>
<path d="M195.228 18.1328L201.161 18.483L200.894 18.7242L203.469 19.0047L203.464 19.1329L195.469 18.6609L195.228 18.1328Z" fill="#E7648F"/>
<path d="M19.3512 28.8204L20.1206 28.9943L19.0754 29.318L20.1116 29.2507L20.1027 29.5071L21.6548 29.4703L21.6459 29.7267L22.4153 29.9006L19.8269 30.0048L19.0575 29.8309L16.7316 29.822L16.7226 30.0785L16.2112 29.9198L17.5233 29.3549L18.8308 28.9182L19.3512 28.8204Z" fill="#E7648F"/>
<path d="M198.087 25.1108L198.603 25.1412L198.327 25.6389L196.001 25.63L191.607 25.6276L189.801 25.521L190.589 25.1821L198.087 25.1108Z" fill="#E7648F"/>
<path d="M129.758 20.306L132.08 20.443L131.03 20.895L127.152 20.923L126.889 21.036L125.079 21.0576L125.604 20.8316L124.582 20.5143L129.758 20.306Z" fill="#E7648F"/>
<path d="M75.0452 32.7501L76.077 32.811L76.3216 33.2109L75.5433 33.2934L75.2764 33.5346L73.7154 33.8279L69.8461 33.5995L69.0812 33.2974L71.4161 33.0498L71.1492 33.291L73.4797 33.1716L74.7739 33.1195L74.0089 32.8174L75.0452 32.7501Z" fill="#CA4B79"/>
<path d="M105.888 30.3314L107.178 30.4076L106.911 30.6488L102.761 31.0462L101.2 31.3395L99.1323 31.3459L99.1461 30.9612L101.739 30.7289L105.888 30.3314Z" fill="#CA4B79"/>
<path d="M116.314 12.9605L118.378 13.0823L118.369 13.3388L110.613 13.3948L109.065 13.3034L109.857 12.8363L111.667 12.8147L114.504 12.9822L116.314 12.9605Z" fill="#E7648F"/>
<path d="M15.3177 25.8838L15.8247 26.1706L15.3044 26.2684L16.852 26.3598L16.0648 26.6987L13.9878 26.9615L12.6892 27.1418L11.6574 27.0809L11.6664 26.8245L11.1594 26.5376L12.2001 26.3421L12.1912 26.5985L14.535 26.0945L15.3177 25.8838Z" fill="#EC8EAB"/>
<path d="M219.204 19.9333L220.489 20.1376L232.083 21.2076L232.59 21.4944L221.765 20.5984L218.417 20.2723L219.204 19.9333Z" fill="#E7648F"/>
<path d="M44.809 17.7325L45.8364 17.9216L45.5606 18.4193L39.3342 19.0795L38.5648 18.9056L41.1666 18.4168L44.0174 18.1997L45.0492 18.2606L45.0581 18.0042L42.2073 18.2213L41.4379 18.0474L44.809 17.7325Z" fill="#E7648F"/>
<path d="M116.536 21.4529L118.342 21.5594L117.817 21.7854L115.482 22.033L114.188 22.0851L109.776 22.5955L107.45 22.5866L107.459 22.3302L112.903 21.8807L116.536 21.4529Z" fill="#E7648F"/>
<path d="M54.4067 16.7574L55.176 16.9312L54.6556 17.029L56.4568 17.2638L55.6741 17.4745L52.5653 17.6764L50.7597 17.5699L48.6917 17.5763L49.4745 17.3655L54.4067 16.7574Z" fill="#E7648F"/>
<path d="M77.44 15.9329L78.7298 16.0091L78.7205 16.2655L74.0596 16.5042L72.7744 16.2999L68.1179 16.4104L68.1268 16.154L73.5616 15.9609L74.8469 16.1653L75.8876 15.9698L77.44 15.9329Z" fill="#E7648F"/>
<path d="M27.4367 26.7278L28.2061 26.9017L22.7535 27.6076L18.5863 28.5179L16.7717 28.6677L17.5589 28.3288L20.681 27.7422L20.6944 27.3576L21.9886 27.3055L23.8076 27.0275L27.4367 26.7278Z" fill="#E7648F"/>
<path d="M112.146 28.7736L112.915 28.9475L112.133 29.1583L111.861 29.5277L108.494 29.7144L107.721 29.6687L107.729 29.4123L105.92 29.4339L106.96 29.2384L110.589 28.9387L112.146 28.7736Z" fill="#E7648F"/>
<path d="M192.338 12.0522L193.886 12.1436L193.881 12.2718L202.127 13.0155L202.376 13.2871L195.669 12.8912L192.583 12.4521L192.338 12.0522Z" fill="#E7648F"/>
<path d="M57.6387 27.8685L59.1819 28.0881L60.1958 28.6619L57.6074 28.766L56.5713 28.8333L56.5802 28.5769L55.5528 28.3878L56.8515 28.2075L55.0369 28.3573L53.7472 28.2812L54.014 28.04L57.6387 27.8685Z" fill="#E7648F"/>
<path d="M183.042 26.6633L185.879 26.8308L186.906 27.0199L192.319 27.4679L191.273 27.7916L183.286 27.0632L180.969 26.7979L180.973 26.6697L183.042 26.6633Z" fill="#EC8EAB"/>
<path d="M36.5994 15.963L37.1153 15.9934L36.8306 16.7474L35.5364 16.7995L35.2695 17.0407L32.948 16.9037L33.4773 16.5495L32.1831 16.6016L32.45 16.3604L36.5994 15.963Z" fill="#CA4B79"/>
<path d="M149.252 9.76633L150.8 9.8577L150.533 10.0988L149.755 10.1814L144.587 10.1333L144.582 10.2615L142.781 10.0267L142.79 9.77029L141.763 9.58118L149.252 9.76633Z" fill="#CA4B79"/>
<path d="M48.5704 28.4896L49.6022 28.5505L49.5933 28.8069L47.7788 28.9568L45.9598 29.2348L43.1179 29.1955L41.5613 29.3606L40.534 29.1715L43.1313 28.8109L48.5704 28.4896Z" fill="#E7648F"/>
<path d="M170.261 15.1174L177.216 15.7849L177.212 15.9131L172.044 15.865L166.885 15.5605L166.89 15.4323L169.994 15.3586L170.261 15.1174Z" fill="#E7648F"/>
<path d="M75.8644 24.0625L76.6382 24.1082L76.6293 24.3646L73.5206 24.5665L66.0268 24.5096L66.5516 24.2836L71.9863 24.0905L72.7602 24.1362L75.8644 24.0625Z" fill="#E7648F"/>
<path d="M131.631 18.4893L134.468 18.6568L136.011 18.8764L136.007 19.0046L130.585 18.8131L126.187 18.9388L125.16 18.7497L124.391 18.5758L124.657 18.3346L128.268 18.5478L131.631 18.4893Z" fill="#E7648F"/>
<path d="M109.545 14.3596L112.383 14.5271L111.342 14.7227L102.554 14.7178L102.038 14.6873L102.047 14.4309L103.079 14.4918L103.088 14.2354L105.667 14.3877L109.545 14.3596Z" fill="#E7648F"/>
<path d="M28.1785 35.1224L28.6944 35.1529L28.6855 35.4093L26.6041 35.8003L28.6765 35.6657L29.9752 35.4855L29.9663 35.7419L28.6632 36.0504L26.5862 36.3132L24.2692 36.0479L25.5768 35.6112L28.1785 35.1224Z" fill="#CA4B79"/>
<path d="M42.9306 34.58L43.9624 34.6409L43.9535 34.8973L41.6186 35.1449L41.3472 35.5143L39.5282 35.7924L38.2295 35.9727L37.4602 35.7988L38.2474 35.4598L40.062 35.31L40.0709 35.0536L42.9306 34.58Z" fill="#EC8EAB"/>
<path d="M49.6967 18.4067L50.2082 18.5654L47.6109 18.926L40.6151 19.4123L39.8457 19.2384L41.1488 18.9299L47.8822 18.5566L49.6967 18.4067Z" fill="#E7648F"/>
<path d="M134.411 12.8724L138.538 13.116L137.751 13.455L132.334 13.1352L129.234 13.0807L129.501 12.8395L134.411 12.8724Z" fill="#E7648F"/>
<path d="M48.2776 22.0485L49.3049 22.2376L46.1872 22.6959L42.0378 23.0933L39.4494 23.1975L39.9742 22.9715L46.463 22.1983L48.2776 22.0485Z" fill="#E7648F"/>
<path d="M180.414 20.4702L181.446 20.5311L181.436 20.7875L182.206 20.9614L179.106 20.9069L178.586 21.0047L173.427 20.7001L173.693 20.4589L178.079 20.7178L178.088 20.4614L180.414 20.4702Z" fill="#E7648F"/>
<path d="M253.204 23.3539L260.426 23.7802L260.417 24.0366L254.991 23.9733L252.154 23.8058L253.204 23.3539Z" fill="#CA4B79"/>
<path d="M96.7455 18.229L98.8091 18.3509L98.5419 18.5921L95.4335 18.794L91.5642 18.5656L91.3155 18.2939L94.1614 18.205L96.7455 18.229Z" fill="#EC8EAB"/>
<path d="M170.612 19.8913L175.513 20.1806L176.02 20.4675L172.408 20.2543L166.209 20.1453L164.408 19.9105L165.448 19.715L170.612 19.8913Z" fill="#E7648F"/>
<path d="M111.587 15.1227L112.356 15.2966L117.773 15.6164L116.732 15.8119L108.985 15.6115L106.921 15.4897L107.189 15.2485L111.578 15.3791L111.587 15.1227Z" fill="#CA4B79"/>
<path d="M51.0963 30.1799L51.6078 30.3386L50.5537 30.9187L46.9202 31.3466L46.1508 31.1727L46.6667 31.2032L46.68 30.8185L51.0963 30.1799Z" fill="#E7648F"/>
<path d="M31.8308 26.7305L32.3466 26.7609L32.3288 27.2738L29.7359 27.5061L25.84 28.047L24.8126 27.8579L27.9303 27.3995L30.5321 26.9107L31.8308 26.7305Z" fill="#E7648F"/>
<path d="M243.926 22.5493L248.569 22.8234L253.204 23.3539L253.199 23.4821L246.75 23.1014L243.918 22.8057L243.926 22.5493Z" fill="#CA4B79"/>
<path d="M192.111 18.5912L195.464 18.7892L195.455 19.0456L193.133 18.9085L191.323 18.9302L185.906 18.6104L185.399 18.3235L192.111 18.5912Z" fill="#E7648F"/>
<path d="M86.8313 28.3071L88.6323 28.5419L87.5913 28.7374L85.2613 28.8568L85.2521 29.1132L82.668 29.0891L81.3783 29.013L81.9034 28.787L86.3108 28.4048L86.8313 28.3071Z" fill="#E7648F"/>
<path d="M30.1106 16.7365L31.1379 16.9256L24.3912 17.6835L22.0563 17.9312L22.0473 18.1875L21.278 18.0137L23.1104 17.351L28.554 16.9015L30.1106 16.7365Z" fill="#E7648F"/>
<path d="M66.3167 16.1758L67.6064 16.2519L66.8237 16.4627L60.8642 16.8817L57.2351 17.1814L56.4702 16.8793L65.0225 16.2279L66.3167 16.1758Z" fill="#E7648F"/>
<path d="M225.87 21.4832L228.708 21.6507L229.993 21.8551L229.988 21.9833L227.146 21.944L229.205 22.194L228.165 22.3895L224.301 22.0329L224.309 21.7765L223.802 21.4896L225.87 21.4832Z" fill="#CA4B79"/>
<path d="M12.1874 19.2759L12.7033 19.3064L12.6944 19.5628L12.1785 19.5324L11.6448 20.0148L10.3417 20.3232L8.27366 20.3296L7.77557 19.7863L9.06532 19.8625L12.1874 19.2759Z" fill="#E7648F"/>
<path d="M56.572 21.3818L58.1197 21.4732L57.3369 21.6839L52.6716 22.0509L50.5991 22.1855L49.5673 22.1246L49.5762 21.8682L56.572 21.3818Z" fill="#E7648F"/>
<path d="M140.823 21.7302L141.593 21.9041L137.964 22.2038L133.569 22.2013L133.574 22.0731L132.031 21.8536L133.071 21.658L136.682 21.8712L140.823 21.7302Z" fill="#E7648F"/>
<path d="M17.191 16.6165L17.9604 16.7904L17.4445 16.76L17.4356 17.0164L16.3949 17.2119L15.1007 17.264L12.5034 17.6245L10.9557 17.5332L11.4805 17.3072L16.6706 16.7143L17.191 16.6165ZM15.879 17.1814L16.3904 17.3401L15.6031 17.679L14.5669 17.7463L14.5803 17.3617L15.879 17.1814Z" fill="#CA4B79"/>
<path d="M193.137 26.2315L194.16 26.5488L193.382 26.6313L188.734 26.4855L186.924 26.5071L184.344 26.3548L184.612 26.1136L189.263 26.1313L193.137 26.2315Z" fill="#EC8EAB"/>
<path d="M77.5114 13.882L78.0227 14.0407L78.0135 14.2971L72.5699 14.7466L71.796 14.7009L71.547 14.4293L69.9949 14.4661L71.0401 14.1424L73.3616 14.2794L77.5114 13.882Z" fill="#E7648F"/>
<path d="M147.944 17.6542L149.749 17.7607L149.998 18.0324L146.894 18.1061L144.831 17.9843L141.731 17.9298L139.93 17.695L139.934 17.5668L146.391 17.691L147.944 17.6542Z" fill="#E7648F"/>
<path d="M129.648 8.60893L133.001 8.80688L132.735 9.04807L130.146 9.15222L126.788 9.08248L127.322 8.6001L129.648 8.60893Z" fill="#CA4B79"/>
<path d="M45.0878 32.0098L45.5992 32.1685L42.4771 32.755L37.8028 33.3784L36.5086 33.4305L37.2959 33.0915L40.1556 32.618L43.2688 32.2879L45.0878 32.0098Z" fill="#E7648F"/>
<path d="M106.236 20.3306L107.526 20.4068L107.516 20.6632L100.01 20.9909L98.9825 20.8018L100.281 20.6215L106.236 20.3306Z" fill="#CA4B79"/>
<path d="M221.32 25.9682L227.511 26.3336L228.796 26.538L228.792 26.6662L223.628 26.4899L219.243 26.231L218.994 25.9594L221.32 25.9682Z" fill="#CA4B79"/>
<path d="M101.585 12.8621L102.096 13.0208L101.829 13.262L104.16 13.1426L106.481 13.2796L106.214 13.5208L100.531 13.4423L98.2095 13.3052L98.9918 13.0945L101.585 12.8621Z" fill="#E7648F"/>
<path d="M84.9228 31.1493L85.95 31.3384L78.9454 32.0812L78.1762 31.9073L78.7013 31.6813L82.5928 31.2687L84.9228 31.1493Z" fill="#CA4B79"/>
<path d="M117.8 14.8467L118.311 15.0054L116.754 15.1704L114.687 15.1768L117.262 15.4573L117.257 15.5855L114.931 15.5767L112.093 15.4092L112.37 14.9116L117.8 14.8467Z" fill="#E7648F"/>
<path d="M91.3024 11.2272L92.0717 11.4011L91.0314 11.5966L90.5063 11.8226L90.5155 11.5661L88.6961 11.8442L85.8548 11.8049L85.5922 11.9179L82.4922 11.8634L83.0174 11.6374L84.5735 11.4723L88.9678 11.4748L91.3024 11.2272Z" fill="#E7648F"/>
<path d="M150.062 8.78602L151.084 9.10334L143.591 9.04639L142.047 8.82682L142.052 8.69861L146.446 8.70105L150.062 8.78602Z" fill="#CA4B79"/>
<path d="M121.944 22.0291L122.971 22.2182L122.963 22.4746L116.229 22.848L114.419 22.8696L114.944 22.6436L121.423 22.1268L121.935 22.2855L121.944 22.0291Z" fill="#E7648F"/>
<path d="M54.3292 33.8397L55.0986 34.0136L55.0808 34.5264L54.0401 34.7219L53.7732 34.9631L54.2846 35.1218L54.0177 35.363L52.4701 35.2716L51.9631 34.9847L52.2389 34.4871L53.5331 34.435L53.542 34.1786L53.0305 34.02L54.0668 33.9527L54.3292 33.8397Z" fill="#E7648F"/>
<path d="M77.6035 26.0922L78.1194 26.1226L78.3635 26.5225L72.1506 26.7981L70.8609 26.722L71.1278 26.4808L73.4582 26.3614L74.4899 26.4223L74.4989 26.1659L76.051 26.129L77.5943 26.3486L77.6035 26.0922Z" fill="#EC8EAB"/>
<path d="M127.151 28.3745L128.952 28.6093L128.948 28.7375L121.703 28.9522L118.862 28.9129L119.902 28.7174L127.151 28.3745Z" fill="#E7648F"/>
<path d="M165.907 21.4125L167.196 21.4887L167.445 21.7603L164.856 21.8645L160.471 21.6056L160.738 21.3644L165.907 21.4125Z" fill="#E7648F"/>
<path d="M216.518 22.858L219.871 23.0559L219.591 23.6817L214.951 23.2794L215.997 22.9557L216.518 22.858Z" fill="#CA4B79"/>
<path d="M128.3 17.6509L130.621 17.7879L130.87 18.0596L126.734 18.0724L122.607 17.8288L122.612 17.7005L128.3 17.6509Z" fill="#EC8EAB"/>
<path d="M199.712 15.5708L204.613 15.8601L206.414 16.0949L206.409 16.2231L207.694 16.4275L207.69 16.5557L204.594 16.3729L200.218 15.8577L199.712 15.5708Z" fill="#E7648F"/>
<path d="M89.5882 30.7825L90.8733 30.9869L91.3808 31.2737L91.3715 31.5301L89.5613 31.5518L88.5387 31.2344L86.208 31.3538L85.9592 31.0822L89.5882 30.7825Z" fill="#CA4B79"/>
<path d="M216.268 22.5864L219.363 22.7691L221.164 23.0039L222.192 23.1931L224.256 23.3149L223.473 23.5256L218.83 23.2515L218.834 23.1233L216.26 22.8428L216.268 22.5864Z" fill="#E7648F"/>
<path d="M52.2725 11.2356L53.8157 11.4552L53.0374 11.5377L53.0284 11.7942L49.4039 11.9656L48.63 11.9199L48.6434 11.5353L52.2725 11.2356Z" fill="#E7648F"/>
<path d="M69.3094 19.3073L71.1151 19.4139L70.5903 19.6397L69.0337 19.8048L64.6352 19.9307L64.9066 19.5613L67.4993 19.3288L69.3094 19.3073Z" fill="#E7648F"/>
<path d="M186.978 17.5172L193.169 17.8826L195.228 18.1326L195.224 18.2609L189.802 18.0693L186.711 17.7584L186.978 17.5172Z" fill="#E7648F"/>
<path d="M192.613 11.555L194.161 11.6463L193.379 11.8571L189.5 11.8851L186.152 11.5589L186.161 11.3025L192.613 11.555Z" fill="#CA4B79"/>
<path d="M86.9818 31.3995L87.2313 31.6711L85.6744 31.8362L85.6614 32.2208L84.1045 32.3859L82.5568 32.2945L82.8324 31.7969L86.9818 31.3995Z" fill="#CA4B79"/>
<path d="M63.5492 28.86L64.8389 28.9361L64.5631 29.4337L63.0065 29.5988L61.7213 29.3944L61.4499 29.7638L60.4136 29.8311L60.4315 29.3183L63.5492 28.86Z" fill="#E7648F"/>
<path d="M11.9555 25.9421L12.9784 26.2594L11.4173 26.5527L11.9242 26.8396L11.1459 26.9221L10.6122 27.4045L9.57599 27.4718L10.6346 26.7635L9.59833 26.8308L10.3944 26.2354L11.9555 25.9421Z" fill="#CA4B79"/>
<path d="M65.3868 20.6171L67.4503 20.7389L66.4096 20.9345L60.7081 21.3687L59.9342 21.323L60.2055 20.9536L65.3868 20.6171Z" fill="#E7648F"/>
<path d="M46.3381 25.7878L47.3654 25.9769L43.4739 26.3895L40.6321 26.3502L40.3607 26.7196L38.8086 26.7565L39.3335 26.5305L38.822 26.3719L40.1207 26.1916L44.5236 25.9376L46.3381 25.7878Z" fill="#E7648F"/>
<path d="M74.7174 19.8832L75.2288 20.0418L74.4461 20.2526L69.2694 20.4609L66.6854 20.4368L66.6943 20.1804L70.0566 20.1219L71.0884 20.1828L71.0973 19.9264L73.4233 19.9352L74.7174 19.8832Z" fill="#E7648F"/>
<path d="M243.69 21.8928L247.814 22.2647L247.547 22.5059L245.736 22.5275L245.732 22.6557L242.894 22.4882L243.171 21.9906L243.69 21.8928Z" fill="#E7648F"/>
<path d="M12.3644 29.05L13.3738 29.7521L13.3649 30.0084L10.7765 30.1126L10.2651 29.9539L10.7899 29.7279L10.2785 29.5693L11.5861 29.1327L12.3644 29.05Z" fill="#EC8EAB"/>
<path d="M88.0274 31.0758L90.0864 31.3258L90.0733 31.7104L87.738 31.958L85.6659 32.0926L84.9005 31.7905L87.2313 31.6712L87.5023 31.3018L88.0182 31.3322L88.0274 31.0758Z" fill="#E7648F"/>
<path d="M128.321 24.4613L129.348 24.6504L128.05 24.8307L123.393 24.9412L122.611 25.152L120.289 25.0149L120.556 24.7737L122.887 24.6544L128.321 24.4613Z" fill="#E7648F"/>
<path d="M67.396 29.7291L67.9119 29.7596L67.903 30.016L62.9752 30.4959L61.4276 30.4046L62.4728 30.0809L64.8077 29.8333L67.396 29.7291Z" fill="#EC8EAB"/>
<path d="M186.564 21.9893L188.885 22.1264L189.135 22.398L187.325 22.4196L186.551 22.374L186.542 22.6304L185.252 22.5542L183.967 22.3499L182.424 22.1303L182.428 22.0021L186.302 22.1023L186.564 21.9893Z" fill="#EC8EAB"/>
<path d="M90.4664 12.9764L91.4982 13.0373L91.489 13.2937L93.2992 13.2721L93.29 13.5285L89.6657 13.7L88.118 13.6086L88.3851 13.3674L89.4208 13.3001L88.3936 13.111L90.4664 12.9764Z" fill="#E7648F"/>
<path d="M88.9233 12.7568L91.5028 12.909L90.4618 13.1045L89.4254 13.1718L90.9731 13.2632L89.9329 13.4587L87.6067 13.4499L87.6113 13.3217L86.3262 13.1173L86.5926 12.8761L88.9233 12.7568Z" fill="#CA4B79"/>
<path d="M186.872 13.143L187.904 13.2039L188.148 13.6038L181.442 13.2079L181.451 12.9515L186.872 13.143Z" fill="#E7648F"/>
<path d="M111.972 26.3221L112.742 26.496L112.226 26.4656L112.217 26.722L109.886 26.8413L109.628 26.8261L108.072 26.9912L106.782 26.915L107.307 26.6891L107.819 26.8477L107.827 26.5913L108.601 26.637L108.61 26.3806L111.972 26.3221Z" fill="#E7648F"/>
<path d="M43.4123 20.7334L44.4396 20.9225L40.8061 21.3504L39.5074 21.5307L37.7018 21.4241L38.4891 21.0852L43.4123 20.7334Z" fill="#E7648F"/>
<path d="M59.8799 30.3135L61.4276 30.4049L61.4187 30.6613L56.2375 30.9978L55.1968 31.1933L54.1694 31.0042L57.545 30.5611L59.8799 30.3135Z" fill="#E7648F"/>
<path d="M93.2931 28.3029L95.0941 28.5377L95.0903 28.6659L89.3886 29.1002L88.6193 28.9263L90.9539 28.6787L91.2211 28.4375L91.4829 28.3245L93.2885 28.4311L93.2931 28.3029Z" fill="#E7648F"/>
<path d="M31.8717 18.1248L32.6454 18.1705L32.6365 18.4269L27.4419 19.1481L26.6725 18.9742L26.6815 18.7178L27.9802 18.5375L28.2426 18.4245L30.831 18.3204L31.8717 18.1248Z" fill="#E7648F"/>
<path d="M31.5253 13.2227L32.0411 13.2531L31.7698 13.6226L27.1 14.1177L26.0637 14.185L26.0772 13.8004L31.5253 13.2227Z" fill="#CA4B79"/>
<path d="M33.7025 32.3654L34.2184 32.3958L34.2095 32.6523L30.3136 33.1931L29.2818 33.1322L29.0461 32.4759L31.3721 32.4848L30.3314 32.6803L31.1052 32.726L33.7025 32.3654Z" fill="#EC8EAB"/>
<path d="M56.9266 33.4792L57.696 33.6531L57.9449 33.9248L57.1577 34.2637L54.8273 34.3831L54.5828 33.9832L55.0987 34.0137L55.1076 33.7573L56.9266 33.4792Z" fill="#CA4B79"/>
<path d="M56.2694 22.6487L57.2968 22.8379L51.0748 23.3699L49.7851 23.2937L50.5724 22.9548L56.2694 22.6487Z" fill="#EC8EAB"/>
<path d="M46.5656 19.2491L48.3667 19.4839L48.3623 19.6121L46.0408 19.4751L45.774 19.7163L44.4798 19.7684L41.8825 20.1289L41.6201 20.2419L40.3303 20.1658L41.3755 19.8421L44.7511 19.399L46.5656 19.2491Z" fill="#E7648F"/>
<path d="M44.1156 15.3794L45.1474 15.4403L45.1384 15.6968L40.4731 16.0637L38.4051 16.0701L39.1878 15.8594L44.1156 15.3794Z" fill="#E7648F"/>
<path d="M211.843 23.4814L217.513 23.9446L218.274 24.375L213.12 23.9422L211.838 23.6097L211.843 23.4814Z" fill="#E7648F"/>
<path d="M56.5951 13.2891L57.8848 13.3652L57.3645 13.463L57.3556 13.7194L53.473 13.8756L52.1743 14.0559L50.8846 13.9798L51.9297 13.6561L53.4863 13.491L56.3327 13.4021L56.5951 13.2891Z" fill="#E7648F"/>
<path d="M33.8846 34.5599L34.9119 34.749L35.6858 34.7947L36.1971 34.9534L34.1157 35.3444L31.5273 35.4485L32.8394 34.8836L33.8846 34.5599Z" fill="#E7648F"/>
<path d="M22.7588 20.028L23.2657 20.3149L22.225 20.5104L20.9353 20.4342L20.9263 20.6907L19.6277 20.871L18.8539 20.8253L18.338 20.7948L18.6182 20.169L20.1704 20.1322L20.1615 20.3886L22.7588 20.028Z" fill="#E7648F"/>
<path d="M57.7911 16.0577L59.0808 16.1339L58.8095 16.5033L57.5153 16.5553L57.2618 16.4119L52.5965 16.7789L51.8271 16.605L54.6823 16.2596L57.7911 16.0577Z" fill="#E7648F"/>
<path d="M26.6109 13.3179L27.3847 13.3636L27.3758 13.62L22.706 14.1152L21.9321 14.0695L21.6653 14.3107L20.9004 14.0086L23.2397 13.6328L26.6109 13.3179Z" fill="#CA4B79"/>
<path d="M213.351 24.727L217.994 25.001L217.211 25.2118L213.337 25.1116L210.504 24.8159L210.509 24.6877L213.351 24.727Z" fill="#E7648F"/>
<path d="M109.661 18.4771L111.982 18.614L111.973 18.8705L111.199 18.8248L110.933 19.066L110.421 18.9074L110.412 19.1637L109.896 19.1333L109.905 18.8769L108.611 18.929L108.606 19.0571L106.805 18.8223L107.072 18.5812L109.661 18.4771Z" fill="#CA4B79"/>
<path d="M219.164 21.0873L225.87 21.4832L225.857 21.8678L218.123 21.2828L219.164 21.0873Z" fill="#E7648F"/>
<path d="M167.623 16.6315L170.461 16.799L171.484 17.1164L166.32 16.94L163.999 16.803L165.04 16.6075L167.623 16.6315Z" fill="#E7648F"/>
<path d="M87.2489 31.158L88.0182 31.3319L82.308 32.0226L80.7557 32.0594L81.5426 31.7205L86.2125 31.2253L87.2489 31.158Z" fill="#E7648F"/>
<path d="M69.4381 23.0406L69.9496 23.1992L68.6509 23.3795L68.8999 23.6512L66.5694 23.7706L65.5377 23.7096L65.5466 23.4532L64.7772 23.2793L69.4381 23.0406Z" fill="#E7648F"/>
<path d="M203.473 26.3276L211.985 26.8301L211.46 27.0561L209.908 27.0929L203.468 26.4558L203.473 26.3276Z" fill="#EC8EAB"/>
<path d="M149.919 12.8887L154.553 13.4192L154.548 13.5474L150.417 13.432L149.127 13.3558L148.873 13.2124L147.072 12.9776L147.077 12.8494L149.656 13.0017L149.919 12.8887Z" fill="#E7648F"/>
<path d="M141.437 26.3914L142.726 26.4675L143.496 26.6414L144.523 26.8305L142.192 26.9499L141.418 26.9042L141.427 26.6478L138.319 26.8497L137.812 26.5629L141.437 26.3914Z" fill="#E7648F"/>
<path d="M107.213 29.3818L107.729 29.4122L107.721 29.6686L108.49 29.8425L106.671 30.1206L105.381 30.0444L104.621 29.6141L107.213 29.3818Z" fill="#CA4B79"/>
<path d="M35.7587 17.8409L36.5325 17.8866L36.5236 18.143L32.6276 18.6838L31.0755 18.7207L31.8627 18.3817L33.4149 18.3449L33.4238 18.0885L35.7587 17.8409Z" fill="#CA4B79"/>
<path d="M109.786 14.8876L112.365 15.0399L111.587 15.1224L111.577 15.3788L110.799 15.4613L105.894 15.3002L106.676 15.0895L109.781 15.0158L109.786 14.8876Z" fill="#E7648F"/>
<path d="M118.28 8.45142L120.602 8.58846L119.82 8.7992L117.231 8.90335L114.651 8.75108L114.919 8.50989L118.28 8.45142Z" fill="#CA4B79"/>
<path d="M11.7243 25.1581L12.4937 25.332L11.6975 25.9274L10.6568 26.1229L9.88297 26.0772L9.89195 25.8208L9.12256 25.6469L10.1544 25.7078L10.4257 25.3384L11.7243 25.1581Z" fill="#E7648F"/>
<path d="M12.9747 18.9363L13.744 19.1102L13.2148 19.4643L11.6626 19.5012L9.06085 19.99L8.03351 19.8009L9.07874 19.4771L12.7123 19.0493L12.9747 18.9363Z" fill="#CA4B79"/>
<path d="M222.366 18.1931L228.552 18.6868L228.547 18.815L226.738 18.8366L222.353 18.5778L221.587 18.2757L222.366 18.1931Z" fill="#E7648F"/>
<path d="M172.734 10.8951L176.861 11.1387L176.341 11.2365L176.332 11.4929L172.463 11.2645L172.734 10.8951Z" fill="#EC8EAB"/>
<path d="M112.635 29.5734L116.246 29.7866L115.979 30.0278L113.653 30.0189L112.359 30.071L112.35 30.3274L111.576 30.2817L111.585 30.0253L110.821 29.7232L112.635 29.5734Z" fill="#E7648F"/>
<path d="M43.1053 22.1284L43.8747 22.3022L38.938 23.0386L39.4449 23.3255L38.1508 23.3776L38.1597 23.1211L37.6527 22.8343L43.1053 22.1284Z" fill="#E7648F"/>
<path d="M210.464 25.9697L213.044 26.122L215.103 26.372L215.093 26.6284L211.478 26.5435L210.455 26.2261L210.464 25.9697Z" fill="#E7648F"/>
<path d="M123.822 12.6328L124.591 12.8067L124.325 13.0479L124.836 13.2066L124.831 13.3348L120.957 13.2346L122.011 12.6544L123.822 12.6328Z" fill="#CA4B79"/>
<path d="M65.2746 31.274L66.0439 31.4479L63.9625 31.8389L60.0754 32.1234L59.0482 31.9343L65.2746 31.274Z" fill="#EC8EAB"/>
<path d="M107.623 25.0378L108.139 25.0683L108.126 25.4529L105.275 25.6701L102.433 25.6308L102.442 25.3743L105.288 25.2854L107.623 25.0378Z" fill="#E7648F"/>
<path d="M203.726 26.4713L207.853 26.7149L209.912 26.9649L209.908 27.0931L205.519 26.9625L203.46 26.7125L203.726 26.4713Z" fill="#CA4B79"/>
<path d="M65.7607 17.2992L66.2721 17.4579L65.2314 17.6534L64.9645 17.8946L63.6703 17.9466L61.8647 17.8401L61.8736 17.5836L62.9144 17.3881L65.7607 17.2992Z" fill="#E7648F"/>
<path d="M106.792 11.756L108.598 11.8626L108.59 12.119L110.658 12.1127L110.902 12.5125L110.639 12.6255L109.35 12.5494L109.359 12.2929L107.811 12.2016L107.037 12.1559L106.273 11.8538L106.792 11.756Z" fill="#E7648F"/>
<path d="M165.452 27.038L166.737 27.2424L171.901 27.4187L170.86 27.6142L167.24 27.6575L165.95 27.5813L165.955 27.4531L164.153 27.2183L164.158 27.0901L165.452 27.038Z" fill="#E7648F"/>
<path d="M40.0598 13.0839L40.5757 13.1144L40.5667 13.3708L36.1593 13.753L35.3811 13.8355L34.6161 13.5334L38.5076 13.1208L40.0598 13.0839Z" fill="#E7648F"/>
<path d="M26.2934 29.8724L26.8048 30.0311L23.6827 30.6176L22.8955 30.9566L22.3929 30.5415L22.4019 30.2851L26.2934 29.8724Z" fill="#E7648F"/>
<path d="M19.3512 28.8204L20.1206 28.9943L18.8174 29.3028L18.3016 29.2723L18.5506 29.544L19.3199 29.7179L18.2792 29.9134L16.7316 29.822L16.7226 30.0785L16.2112 29.9198L17.5233 29.3549L18.8308 28.9182L19.3512 28.8204Z" fill="#E7648F"/>
<path d="M37.3635 23.7166L38.3909 23.9057L37.6081 24.1164L33.7166 24.5291L32.4269 24.4529L33.2096 24.2422L36.0649 23.8968L37.3635 23.7166Z" fill="#E7648F"/>
<path d="M36.8841 15.2091L37.6579 15.2548L37.3866 15.6242L34.7938 15.8566L33.2372 16.0216L32.2098 15.8325L34.0288 15.5545L34.8027 15.6002L34.8116 15.3437L36.8841 15.2091Z" fill="#EC8EAB"/>
<path d="M124.866 12.3092L128.736 12.5376L128.727 12.794L126.659 12.8004L126.139 12.8981L124.6 12.5504L124.866 12.3092Z" fill="#E7648F"/>
<path d="M231.443 17.3154L235.055 17.5286L236.856 17.7634L237.104 18.035L234.267 17.8676L231.439 17.4436L231.443 17.3154Z" fill="#CA4B79"/>
<path d="M75.246 26.9807L78.0833 27.1482L77.5582 27.3742L73.4136 27.6434L73.1646 27.3717L74.9836 27.0937L75.246 26.9807Z" fill="#E7648F"/>
<path d="M21.3798 22.5164L21.8913 22.675L19.8053 23.1943L17.466 23.5701L16.4432 23.2527L20.0767 22.8249L21.3798 22.5164Z" fill="#E7648F"/>
<path d="M110.26 23.5236L113.098 23.6911L113.089 23.9475L108.437 23.9298L108.446 23.6734L110.26 23.5236Z" fill="#EC8EAB"/>
<path d="M184.834 27.1549L188.703 27.3833L190.246 27.6028L189.464 27.8136L184.567 27.3961L184.834 27.1549Z" fill="#CA4B79"/>
<path d="M106.191 21.6128L106.96 21.7867L105.4 22.08L104.101 22.2603L100.49 22.0471L100.494 21.9189L103.594 21.9734L105.413 21.6954L106.191 21.6128Z" fill="#E7648F"/>
<path d="M83.2392 12.6782L84.2664 12.8673L80.6375 13.167L79.3477 13.0909L79.3615 12.7062L80.1392 12.6237L83.2392 12.6782Z" fill="#EC8EAB"/>
<path d="M132.339 13.0068L135.429 13.3178L135.425 13.446L133.615 13.4676L129.229 13.2087L130.012 12.998L132.339 13.0068Z" fill="#CA4B79"/>
<path d="M109.268 29.7596L111.848 29.9119L111.576 30.2813L108.993 30.2572L107.965 30.0681L107.974 29.8117L109.268 29.7596Z" fill="#EC8EAB"/>
<path d="M201.396 26.5905L205.523 26.8342L205.772 27.1058L201.64 26.9904L201.133 26.7035L201.396 26.5905Z" fill="#E7648F"/>
<path d="M81.9802 19.1558L83.2654 19.3602L82.2243 19.5557L80.9346 19.4796L79.1205 19.6294L77.5728 19.538L78.0979 19.3121L81.9802 19.1558Z" fill="#E7648F"/>
<path d="M44.9428 13.8864L45.4498 14.1733L43.1105 14.5491L40.5221 14.6532L41.3093 14.3143L44.9428 13.8864Z" fill="#CA4B79"/>
<path d="M48.0427 13.9407L48.5541 14.0993L46.2148 14.4751L44.1378 14.738L43.1105 14.5488L44.4136 14.2403L48.0427 13.9407Z" fill="#E7648F"/>
<path d="M29.4683 35.1982L31.0115 35.4178L30.7446 35.659L28.9345 35.6806L27.1155 35.9587L26.3461 35.7848L29.4683 35.1982Z" fill="#E7648F"/>
<path d="M52.0033 33.8308L53.0351 33.8917L53.0262 34.1481L51.9899 34.2154L51.4517 34.826L50.9358 34.7956L50.9448 34.5391L49.9085 34.6065L50.1843 34.1088L52.0033 33.8308Z" fill="#CA4B79"/>
<path d="M2.90062 26.179L4.43938 26.5267L4.17251 26.7679L1.06378 26.9698L1.59751 26.4874L2.90062 26.179Z" fill="#CA4B79"/>
<path d="M129.975 28.9266L130.745 29.1005L129.957 29.4395L126.083 29.3393L126.351 29.0981L129.975 28.9266Z" fill="#CA4B79"/>
<path d="M17.0617 20.3344L18.6093 20.4257L18.0845 20.6517L14.193 21.0643L13.4282 20.7622L15.7631 20.5147L17.0617 20.3344Z" fill="#E7648F"/>
<path d="M235.526 18.8413L239.395 19.0697L239.386 19.3261L239.897 19.4848L237.572 19.476L237.58 19.2195L235.517 19.0977L235.526 18.8413Z" fill="#E7648F"/>
<path d="M52.2968 32.8203L53.0707 32.866L53.0618 33.1224L50.2065 33.4677L48.134 33.6023L48.6633 33.2482L52.2968 32.8203Z" fill="#CA4B79"/>
<path d="M6.37436 22.9154L6.88579 23.0741L6.09857 23.413L2.71851 23.9843L2.46948 23.7127L6.37436 22.9154Z" fill="#CA4B79"/>
<path d="M125.061 29.0219L125.83 29.1958L126.079 29.4675L124.269 29.489L120.916 29.2912L121.44 29.0652L125.061 29.0219Z" fill="#E7648F"/>
<path d="M71.2579 15.3112L72.8055 15.4026L72.801 15.5308L67.6199 15.8673L66.8505 15.6934L67.3753 15.4674L71.2579 15.3112Z" fill="#E7648F"/>
<path d="M171.661 19.4395L174.757 19.6222L174.49 19.8634L175.517 20.0525L175.513 20.1807L172.675 20.0132L171.653 19.6959L171.661 19.4395Z" fill="#CA4B79"/>
<path d="M70.4134 9.8656L71.7031 9.94173L70.9248 10.0243L70.9115 10.4089L67.8072 10.4826L68.8568 10.0307L70.4134 9.8656Z" fill="#E7648F"/>
<path d="M124.146 10.7251L127.758 10.9383L129.817 11.1883L129.812 11.3165L128.261 11.3534L125.423 11.1859L124.142 10.8533L124.146 10.7251Z" fill="#EC8EAB"/>
<path d="M40.5823 35.212L41.6097 35.4011L38.2296 35.9724L37.4602 35.7986L38.2474 35.4596L40.5823 35.212Z" fill="#CA4B79"/>
<path d="M9.24673 29.5085L11.5682 29.6455L10.781 29.9845L11.2924 30.1431L9.47343 30.4212L8.70404 30.2473L9.21994 30.2777L8.9798 29.7497L9.24673 29.5085Z" fill="#E7648F"/>
<path d="M18.9424 25.7124L20.49 25.8038L20.4811 26.0602L17.6214 26.5338L16.0781 26.3142L17.1188 26.1187L18.1551 26.0514L18.9424 25.7124Z" fill="#E7648F"/>
<path d="M177.537 21.4564L178.31 21.5021L178.301 21.7585L177.523 21.8411L177.513 22.0975L173.645 21.8691L173.649 21.7409L175.975 21.7497L175.984 21.4933L177.537 21.4564Z" fill="#E7648F"/>
<path d="M71.6168 27.2803L73.418 27.5151L72.8932 27.7411L69.7845 27.943L68.7571 27.7538L71.6168 27.2803Z" fill="#EC8EAB"/>
<path d="M14.9624 21.2383L15.9897 21.4274L12.6096 21.9987L12.6007 22.2551L12.0848 22.2247L12.3651 21.5989L13.1523 21.2599L13.4058 21.4034L14.9624 21.2383Z" fill="#CA4B79"/>
<path d="M30.2392 20.4697L30.7507 20.6283L31.0041 20.7718L32.0314 20.9609L30.2169 21.1107L28.9227 21.1628L28.4113 21.0041L27.6419 20.8302L30.2392 20.4697Z" fill="#E7648F"/>
<path d="M134.209 26.0933L135.753 26.3129L136.264 26.4716L135.993 26.841L133.929 26.7191L132.893 26.7864L132.902 26.53L134.458 26.365L134.209 26.0933Z" fill="#E7648F"/>
<path d="M167.307 25.7346L167.823 25.7651L167.809 26.1497L164.447 26.2082L162.384 26.0864L162.388 25.9582L165.497 25.7562L167.307 25.7346Z" fill="#E7648F"/>
<path d="M108.194 8.62697L108.71 8.65742L108.701 8.91384L104.303 9.03962L103.791 8.88095L105.61 8.60291L108.194 8.62697Z" fill="#E7648F"/>
<path d="M140.451 10.1459L141.999 10.2373L141.989 10.4937L139.401 10.5979L137.853 10.5065L138.12 10.2653L140.451 10.1459Z" fill="#E7648F"/>
<path d="M25.3634 34.3137L26.3908 34.5028L25.8659 34.7288L24.8208 35.0525L23.2776 34.8329L24.3272 34.381L25.3634 34.3137Z" fill="#E7648F"/>
<path d="M19.4351 33.8356L20.2045 34.0095L19.9377 34.2507L20.716 34.1681L20.707 34.4246L18.6256 34.8156L17.6028 34.4983L18.6435 34.3027L19.4351 33.8356Z" fill="#E7648F"/>
<path d="M26.7513 31.5692L28.0411 31.6453L28.2901 31.917L25.6973 32.1493L24.4075 32.0732L25.4527 31.7495L26.7513 31.5692Z" fill="#EC8EAB"/>
<path d="M98.9058 30.4329L99.6796 30.4786L99.6704 30.735L97.0733 31.0956L95.2676 30.989L95.7927 30.763L98.9058 30.4329Z" fill="#CA4B79"/>
<path d="M68.5438 26.4564L70.6029 26.7064L69.8201 26.9171L68.5259 26.9692L66.2045 26.8322L66.9872 26.6214L68.5438 26.4564Z" fill="#EC8EAB"/>
<path d="M46.107 25.0039L46.8764 25.1778L45.053 25.584L42.7181 25.8316L41.9487 25.6577L43.7677 25.3797L46.107 25.0039Z" fill="#E7648F"/>
<path d="M149.949 19.4425L152.27 19.5795L151.235 19.6468L151.226 19.9032L153.036 19.8816L152.253 20.0924L149.673 19.9401L149.949 19.4425Z" fill="#CA4B79"/>
<path d="M52.288 33.0767L53.0574 33.2506L53.5644 33.5374L53.0484 33.507L53.0395 33.7634L50.7091 33.8828L49.6729 33.9501L50.2021 33.5959L51.7587 33.4309L52.288 33.0767Z" fill="#CA4B79"/>
<path d="M86.8313 28.3069L88.6323 28.5417L87.5913 28.7372L85.7773 28.887L84.7501 28.6979L86.8313 28.3069Z" fill="#E7648F"/>
<path d="M41.5784 36.2986L42.868 36.3748L41.8229 36.6985L38.4428 37.2698L37.9314 37.1111L41.5784 36.2986Z" fill="#CA4B79"/>
<path d="M47.8449 34.4846L49.3926 34.576L48.6054 34.9149L46.5284 35.1777L45.759 35.0038L46.5373 34.9213L46.5462 34.6649L47.8449 34.4846Z" fill="#E7648F"/>
<path d="M79.9726 32.2701L80.4847 32.4288L80.4755 32.6852L78.6568 32.9632L76.855 32.7285L77.638 32.5177L79.4529 32.3679L79.9642 32.5265L79.9726 32.2701Z" fill="#CA4B79"/>
<path d="M106.378 23.6797L107.926 23.7711L107.916 24.0275L104.55 24.2142L103.518 24.1533L103.527 23.8968L106.378 23.6797Z" fill="#E7648F"/>
<path d="M118.283 23.226L119.573 23.3021L119.56 23.6868L118.008 23.7236L115.686 23.5866L116.727 23.3911L118.283 23.226Z" fill="#EC8EAB"/>
<path d="M49.6684 34.0782L49.655 34.4628L47.3201 34.7104L46.2928 34.5213L48.1162 34.1151L49.6684 34.0782Z" fill="#CA4B79"/>
<path d="M53.044 33.6354L53.8134 33.8093L51.4785 34.0569L50.1843 34.109L49.904 34.7348L49.6595 34.335L50.1932 33.8526L51.2339 33.6571L53.044 33.6354Z" fill="#E7648F"/>
<path d="M21.3434 30.9929L22.3707 31.182L21.8369 31.6644L21.0631 31.6187L21.0765 31.2341L19.7734 31.5426L19.2575 31.5121L19.2664 31.2557L21.3434 30.9929Z" fill="#E7648F"/>
<path d="M72.3104 29.634L73.0843 29.6797L73.0754 29.9361L72.3015 29.8904L72.2926 30.1468L72.804 30.3055L72.2837 30.4032L71.2608 30.0859L68.9304 30.2053L69.4552 29.9793L72.3104 29.634Z" fill="#E7648F"/>
<path d="M71.0474 28.7881L73.369 28.9251L72.8442 29.1511L71.292 29.188L68.1922 29.1334L68.975 28.9227L71.0474 28.7881Z" fill="#EC8EAB"/>
<path d="M8.13536 24.3037L8.90476 24.4776L8.64228 24.5905L9.41167 24.7644L7.33028 25.1555L6.81885 24.9968L7.0991 24.371L8.13536 24.3037Z" fill="#E7648F"/>
<path d="M105.888 30.3309L107.178 30.407L106.911 30.6482L104.834 30.911L103.544 30.8349L104.073 30.4807L105.888 30.3309Z" fill="#CA4B79"/>
<path d="M81.4635 26.5771L81.9702 26.864L78.5992 27.1789L77.3141 26.9745L77.8392 26.7486L81.201 26.6901L81.4635 26.5771Z" fill="#E7648F"/>
<path d="M46.9782 29.6801L48.0055 29.8692L45.1458 30.3428L44.6299 30.3123L44.9057 29.8147L46.9782 29.6801Z" fill="#E7648F"/>
<path d="M42.0601 22.4523L42.576 22.4828L42.3047 22.8522L39.4494 23.1975L38.6801 23.0237L41.2818 22.5349L42.0601 22.4523Z" fill="#CA4B79"/>
<path d="M14.2287 20.0387L15.256 20.2278L13.1746 20.6188L11.1066 20.6252L11.378 20.2558L13.446 20.2494L14.2287 20.0387Z" fill="#EC8EAB"/>
<path d="M17.191 16.6161L17.9604 16.79L17.4445 16.7596L17.4356 17.016L16.3949 17.2115L16.4082 16.8269L17.191 16.6161ZM15.879 17.181L16.3904 17.3397L15.6032 17.6787L14.567 17.746L14.5803 17.3613L15.879 17.181Z" fill="#E7648F"/>
<path d="M100.882 18.2163L103.461 18.3685L104.484 18.6859L102.674 18.7075L100.61 18.5857L99.5875 18.2683L100.882 18.2163Z" fill="#E7648F"/>
<path d="M51.894 14.682L53.4417 14.7733L53.4327 15.0297L49.5547 15.0578L49.8215 14.8166L51.894 14.682Z" fill="#E7648F"/>
<path d="M46.2571 35.5477L47.2844 35.7368L45.7189 36.1583L44.1623 36.3233L43.9133 36.0517L45.2208 35.615L46.2571 35.5477Z" fill="#CA4B79"/>
<path d="M59.0437 32.0625L59.813 32.2364L60.578 32.5385L58.7634 32.6883L57.7316 32.6274L58.003 32.258L59.0437 32.0625Z" fill="#E7648F"/>
<path d="M58.5411 31.6473L59.5729 31.7082L59.5639 31.9646L56.9712 32.197L56.2018 32.0231L57.5049 31.7146L58.5411 31.6473Z" fill="#CA4B79"/>
<path d="M161.57 27.1948L162.86 27.2709L162.841 27.7838L161.805 27.8511L160.262 27.6315L160.529 27.3903L161.57 27.1948Z" fill="#E7648F"/>
<path d="M121.944 22.0286L122.971 22.2178L122.963 22.4742L120.89 22.6088L119.6 22.5326L120.129 22.1785L121.423 22.1264L121.935 22.2851L121.944 22.0286Z" fill="#E7648F"/>
<path d="M151.181 21.1855L154.535 21.3835L154.53 21.5117L150.394 21.5245L149.887 21.2376L151.181 21.1855Z" fill="#EC8EAB"/>
<path d="M148.121 19.9771L149.407 20.1814L148.882 20.4074L145.524 20.3376L145.791 20.0965L148.121 19.9771Z" fill="#E7648F"/>
<path d="M103.088 14.2352L106.437 14.5614L105.396 14.7569L102.038 14.6872L102.047 14.4307L103.079 14.4916L103.088 14.2352Z" fill="#EC8EAB"/>
<path d="M105.48 12.3207L106.508 12.5098L105.992 12.4793L105.983 12.7358L108.309 12.7446L107.526 12.9553L105.2 12.9465L104.431 12.7726L105.467 12.7053L105.48 12.3207Z" fill="#E7648F"/>
<path d="M3.85286 21.0959L4.36875 21.1264L4.35983 21.3828L0.459412 22.0518L0.730739 21.6824L2.55421 21.2762L3.85286 21.0959Z" fill="#E7648F"/>
<path d="M121.268 26.6144L121.254 26.999L118.919 27.2466L118.145 27.2009L118.417 26.8315L121.268 26.6144Z" fill="#E7648F"/>
<path d="M155.876 27.3723L157.166 27.4484L156.646 27.5462L156.366 28.172L153.782 28.148L153.791 27.8915L155.863 27.7569L155.876 27.3723Z" fill="#CA4B79"/>
<path d="M28.8075 17.0449L29.5814 17.0906L29.5724 17.347L26.7171 17.6924L25.9478 17.5185L27.2509 17.21L28.8075 17.0449Z" fill="#CA4B79"/>
<path d="M140.591 28.3972L142.908 28.6625L143.157 28.9341L139.799 28.8644L140.066 28.6232L140.582 28.6537L140.591 28.3972Z" fill="#E7648F"/>
<path d="M47.8026 13.4126L49.0923 13.4887L48.3096 13.6995L45.7167 13.9318L44.9429 13.8862L44.9519 13.6297L47.8026 13.4126Z" fill="#E7648F"/>
<path d="M186.871 20.5944L190.74 20.8228L190.736 20.951L187.64 20.7683L187.632 21.0247L188.143 21.1834L186.337 21.0768L186.871 20.5944Z" fill="#E7648F"/>
<path d="M185.134 11.1129L186.939 11.2195L186.161 11.3021L186.152 11.5585L184.599 11.5953L183.314 11.391L183.319 11.2628L185.134 11.1129Z" fill="#E7648F"/>
<path d="M9.72693 30.5645L10.2338 30.8514L8.6728 31.1446L7.89004 31.3554L7.11621 31.3097L7.38753 30.9403L9.72693 30.5645Z" fill="#CA4B79"/>
<path d="M52.8752 31.0559L53.3822 31.3427L50.2646 31.8011L49.4952 31.6272L50.7983 31.3187L52.8752 31.0559Z" fill="#E7648F"/>
<path d="M104.105 29.5837L105.648 29.8032L105.114 30.2856L103.567 30.1943L104.105 29.5837Z" fill="#CA4B79"/>
<path d="M85.8886 25.6816L87.4363 25.773L86.6532 25.9837L84.3232 26.1031L83.5448 26.1857L82.7802 25.8836L85.8886 25.6816Z" fill="#E7648F"/>
<path d="M26.3655 20.3695L27.6553 20.4456L27.6464 20.702L24.7956 20.9192L24.0262 20.7453L26.3655 20.3695Z" fill="#EC8EAB"/>
<path d="M23.1103 17.3507L24.916 17.4573L23.8708 17.781L22.0563 17.9309L22.0473 18.1873L21.278 18.0134L23.1103 17.3507Z" fill="#E7648F"/>
<path d="M115.874 18.2019L116.905 18.2628L116.896 18.5192L117.408 18.6779L115.861 18.5865L115.34 18.6843L113.797 18.4647L114.579 18.254L115.874 18.2019Z" fill="#EC8EAB"/>
<path d="M180.115 21.6086L182.17 21.9869L182.166 22.1151L180.613 22.1519L178.034 21.9997L178.559 21.7737L180.107 21.8651L180.115 21.6086Z" fill="#E7648F"/>
<path d="M184.021 20.8114L186.084 20.9332L185.812 21.3026L182.971 21.2633L183.237 21.0221L184.021 20.8114Z" fill="#E7648F"/>
<path d="M219.057 16.713L221.632 16.9935L221.361 17.3629L219.297 17.241L218.791 16.9542L219.057 16.713Z" fill="#CA4B79"/>
<path d="M107.738 29.1554L108.765 29.3445L109.789 29.6619L107.721 29.6683L107.729 29.4118L105.92 29.4335L106.96 29.2379L107.738 29.1554Z" fill="#E7648F"/>
<path d="M101.329 27.6213L101.845 27.6517L101.837 27.9082L100.022 28.058L98.9902 27.9971L98.9818 28.2535L97.95 28.1926L97.9585 27.9362L101.329 27.6213Z" fill="#E7648F"/>
<path d="M44.8091 17.7325L45.8365 17.9216L45.0536 18.1324L41.4335 18.1756L41.9583 17.9497L44.8091 17.7325Z" fill="#EC8EAB"/>
<path d="M159.511 19.4927L160.027 19.5232L160.783 20.0817L158.461 19.9447L158.471 19.6882L157.959 19.5296L159.511 19.4927Z" fill="#E7648F"/>
<path d="M192.787 14.0057L194.851 14.1275L194.068 14.3383L193.036 14.2774L193.023 14.662L191.738 14.4577L192.258 14.3599L192.266 14.1035L192.787 14.0057Z" fill="#E7648F"/>
</svg>
