<svg width="275" height="52" viewBox="0 0 275 52" fill="none" xmlns="http://www.w3.org/2000/svg">
<path d="M187.866 10.9717L197.027 11.5047L196.233 11.7154L192.297 11.7434L188.371 11.515L180.248 11.2994L178.944 11.0951L178.935 11.3515L191.237 12.0671L209.799 13.7893L217.376 14.6155L217.89 14.9024L216.578 14.9544L208.977 14.7693L204.528 14.5104L202.438 14.2604L198.512 14.032L197.727 13.9863L196.932 14.1971L195.885 14.1362L195.872 14.5208L212.881 15.6387L222.033 16.4281L240.334 18.135L241.9 18.3546L241.895 18.4828L246.078 18.8546L270.417 20.3989L273.553 20.7099L274.068 20.9967L272.755 21.0488L243.438 19.3434L243.168 19.5846L239.756 19.6431L238.975 19.4692L224.326 18.3601L203.385 17.1419L203.376 17.3983L198.931 17.0113L192.387 16.6306L193.182 16.4199L193.448 16.3069L185.329 15.9631L182.445 15.9238L182.179 16.0368L177.201 15.8757L169.349 15.4189L169.358 15.1624L157.037 14.9596L152.578 14.9572L152.05 15.0549L147.334 14.9091L146.283 14.9764L146.025 14.8329L144.193 14.7263L143.142 14.7936L140.262 14.6261L139.211 14.6934L136.855 14.5564L133.177 14.7279L126.362 14.5884L124.535 14.3536L124.263 14.5948L122.684 14.7598L131.85 15.1646L130.794 15.3601L126.34 15.2294L126.078 15.2142L126.068 15.4706L122.657 15.5291L116.627 15.4353L113.748 15.2678L113.234 14.9809L113.224 15.2373L112.435 15.3199L108.766 15.2349L115.052 15.4721L118.717 15.6853L117.661 15.8808L121.592 15.981L127.63 15.8184L130.253 15.8425L132.608 15.9795L132.604 16.1077L131.29 16.1598L135.745 16.2904L136.277 16.0645L134.702 16.1013L135.235 15.8754L133.402 15.7688L133.673 15.5276L143.115 15.5629L146.522 15.6326L149.663 15.8154L148.607 16.0109L144.676 15.9107L142.582 15.7889L142.573 16.0453L142.835 16.0605L143.362 15.9628L143.354 16.2192L144.667 16.1671L145.705 16.4844L139.675 16.3906L145.7 16.6126L149.369 16.6976L151.992 16.7217L152.781 16.6391L155.398 16.7914L161.166 16.87L164.307 17.0527L171.907 17.2378L172.684 17.5399L171.632 17.6073L159.054 17.261L156.699 17.124L155.385 17.176L152.506 17.0085L151.192 17.0606L145.687 16.9973L135.731 16.6751L129.178 16.5508L125.504 16.5941L121.835 16.5091L117.11 16.6196L107.931 16.5995L106.36 16.5082L106.094 16.6212L103.21 16.5819L101.911 16.2493L101.901 16.5057L100.584 16.686L99.275 16.6099L99.0086 16.7229L94.2837 16.8334L88.5064 17.0113L77.7432 17.2844L74.3268 17.4711L70.3914 17.4991L70.3778 17.8838L69.3263 17.9511L69.0736 17.6794L68.5501 17.649L69.0645 17.9358L66.6997 18.0552L66.9706 17.814L66.4561 17.5272L66.1943 17.5119L65.9235 17.7531L64.6102 17.8052L64.0777 18.0312L62.5071 17.9398L62.2635 17.4117L61.4692 17.6225L62.2499 17.7964L61.1938 17.9919L60.4086 17.9462L60.4176 17.6898L56.2114 17.959L52.7906 18.2739L50.1504 18.7627L47.2485 19.2362L43.8276 19.5511L41.9862 19.7009L41.2055 19.527L38.8407 19.6464L39.6395 19.3075L47.2666 18.7234L49.636 18.4758L41.2236 19.0142L39.1251 19.0206L39.9194 18.8099L45.4479 18.2321L45.9759 18.1344L46.2513 17.765L42.5777 17.8082L43.3765 17.4693L47.3254 17.0566L46.2739 17.1239L42.853 17.4388L42.0722 17.2649L42.0767 17.1367L40.24 17.1584L40.5108 16.9172L38.4167 16.7953L34.4678 17.208L33.4208 17.1471L33.15 17.3883L30.7897 17.3794L30.7806 17.6359L28.6821 17.6423L24.2051 18.1527L23.6862 17.994L24.7468 17.6703L28.962 17.1447L30.009 17.2056L30.018 16.9491L24.7513 17.5421L22.3819 17.7897L22.3729 18.0461L21.5921 17.8722L23.4515 17.2095L26.877 16.7664L30.0361 16.4363L30.5596 16.4668L30.5687 16.2103L31.363 15.9996L27.1478 16.5252L25.0356 16.9162L22.9417 16.7944L22.9507 16.538L21.6329 16.7183L19.7825 17.1245L15.8336 17.5372L14.782 17.6045L14.7956 17.2199L15.3236 17.1221L12.688 17.4827L11.1174 17.3913L11.65 17.1654L16.9167 16.5724L18.4918 16.5356L18.5008 16.2792L20.6084 16.0163L21.1229 16.3032L22.9824 15.6405L21.9399 15.4514L26.9449 14.8433L31.9544 14.1069L32.7532 13.768L33.2813 13.6702L33.5566 13.3008L31.7107 13.5788L28.2898 13.8937L25.6542 14.2543L21.4435 14.6517L18.8215 14.6277L19.354 14.4017L21.4616 14.1389L21.4752 13.7542L27.0037 13.1765L27.789 13.2222L27.7799 13.4786L24.8825 13.824L34.36 12.8336L49.3614 11.3938L58.8298 10.6599L61.1946 10.5405L67.2466 9.99327L68.3027 9.79776L75.1264 9.68082L78.7996 9.63758L78.791 9.89399L88.5033 9.68813L90.0824 9.52307L92.1811 9.51668L93.4993 9.33639L94.2798 9.51028L104.524 9.07845L117.648 8.81411L126.308 8.67555L125.271 8.35822L126.584 8.30615L131.561 8.46725L134.964 8.6652L134.956 8.92162L135.993 9.23894L135.727 9.35193L131.007 9.33426L135.989 9.36715L140.71 9.38481L143.065 9.52186L143.34 9.15245L143.859 9.31112L143.855 9.43933L151.455 9.62449L156.433 9.78559L164.552 10.1294L165.079 10.0317L169.534 10.1623L176.078 10.5429L187.866 10.9717Z" fill="#D64F7F"/>
<path d="M187.866 10.9712L197.027 11.5042L196.233 11.7149L192.298 11.7429L188.371 11.5145L180.248 11.2989L178.944 11.0946L178.935 11.351L191.237 12.0667L209.799 13.7888L217.376 14.615L217.89 14.9019L216.577 14.954L208.977 14.7688L204.528 14.51L202.438 14.2599L198.512 14.0315L197.727 13.9858L196.932 14.1966L195.885 14.1357L195.872 14.5203L212.881 15.6383L222.033 16.4276L240.334 18.1345L241.9 18.3541L241.895 18.4823L246.078 18.8542L270.417 20.3985L273.553 20.7094L274.068 20.9963L272.755 21.0483L243.438 19.3429L243.168 19.5841L238.704 19.7099L238.438 19.8229L226.397 19.1225L214.623 18.309L205.462 17.7761L223.247 19.1962L233.18 20.1594L241.8 21.1747L251.472 22.1227L251.2 22.3639L249.364 22.3856L258.773 23.3184L264.27 23.6381L264.261 23.8945L255.872 23.7919L251.936 23.8199L251.931 23.9481L249.318 23.6677L244.083 23.3631L249.314 23.7959L250.618 24.0002L250.614 24.1284L234.647 23.1996L234.38 23.3126L228.089 23.2035L227.561 23.3013L228.08 23.46L231.212 23.8991L230.156 24.0946L229.371 24.0489L222.831 23.5401L227.534 24.0706L234.597 24.6099L235.373 24.912L221.5 24.105L223.852 24.3702L223.847 24.4984L222.272 24.5353L218.607 24.3221L217.041 24.1025L212.853 23.8589L215.204 24.1242L224.095 24.8983L224.348 25.1699L220.417 25.0697L223.025 25.4784L224.067 25.6675L230.869 26.1917L232.173 26.396L232.169 26.5242L226.929 26.3479L224.311 26.1956L224.307 26.3238L221.165 26.1411L217.767 25.8149L214.103 25.6018L208.349 25.1386L208.34 25.395L213.052 25.6691L213.042 25.9255L213.561 26.0841L213.571 25.8277L216.188 25.98L218.278 26.23L218.268 26.4864L223.76 26.9344L223.757 27.0626L221.92 27.0842L215.109 26.8166L213.529 26.9816L209.337 26.8662L208.809 26.964L206.187 26.9399L198.591 26.6265L193.609 26.5936L194.918 26.6698L194.124 26.8805L192.81 26.9326L195.689 27.1001L195.419 27.3413L189.66 27.0063L188.618 26.8172L185.739 26.6497L185.991 26.9213L184.678 26.9734L179.704 26.6841L173.152 26.5598L169.216 26.5878L177.083 26.66L179.177 26.7818L179.172 26.91L169.988 27.0182L182.318 26.9646L187.038 26.9822L191.488 27.2411L193.054 27.4606L192.26 27.6714L186.24 27.3212L184.66 27.4862L179.682 27.3251L166.82 27.6047L161.567 27.813L159.211 27.676L158.674 28.0301L159.188 28.317L158.137 28.3843L154.991 28.3298L149.472 28.6511L148.429 28.462L156.052 28.0061L156.061 27.7497L147.13 28.1294L144.503 28.2336L143.713 28.3161L145.275 28.6639L143.695 28.8289L141.863 28.7223L141.872 28.4659L138.717 28.6678L137.4 28.8481L135.044 28.7111L134.511 28.937L132.408 29.0716L131.875 29.2976L127.94 29.3256L126.104 29.3472L124.271 29.2407L122.43 29.3905L122.421 29.6469L120.854 29.4273L120.584 29.6685L117.691 29.8857L115.331 29.8768L114.018 29.9289L114.008 30.1853L111.909 30.1917L110.069 30.3416L109.017 30.4089L106.381 30.7694L104.012 31.017L101.381 31.2494L100.596 31.2037L100.609 30.8191L103.24 30.5867L107.451 30.1893L104.824 30.2934L98.5061 30.9537L94.8236 31.2533L92.4499 31.6291L90.6129 31.6508L89.0331 31.8158L87.1922 31.9656L85.3459 32.2437L76.6583 33.1515L76.3875 33.3927L74.8034 33.686L71.1389 33.4728L69.5593 33.6378L69.2839 34.0073L67.4381 34.2853L65.6059 34.1787L66.4092 33.7115L64.5679 33.8614L64.288 34.359L61.1198 34.9455L58.7504 35.1931L57.708 35.004L57.1845 34.9735L54.8151 35.2211L53.2446 35.1298L52.7301 34.8429L53.01 34.3453L54.3233 34.2932L54.3323 34.0368L52.7573 34.0736L52.2111 34.6842L51.6877 34.6538L51.6967 34.3974L50.3789 34.5776L50.1216 34.4342L49.3228 34.7732L47.2152 35.036L46.4345 34.8621L45.3829 34.9294L42.2238 35.2595L38.7938 35.8308L38.0131 35.6569L38.8119 35.318L40.6532 35.1681L39.868 35.1225L37.5031 35.2418L37.5122 34.9854L34.8721 35.4742L34.3486 35.4437L34.3621 35.0591L31.9928 35.3067L33.0624 34.7266L30.9503 35.1176L31.4647 35.4045L29.3526 35.7955L28.8201 36.0214L26.9787 36.1713L24.8847 36.0495L22.7725 36.4405L21.9873 36.3948L21.7482 35.7385L23.8603 35.3475L24.113 35.6192L25.1691 35.4236L25.7107 34.9413L27.033 34.6328L25.1872 34.9108L23.6211 34.6912L24.9526 34.1263L25.4761 34.1568L25.4897 33.7721L29.7094 33.1183L29.4612 32.7185L27.8861 32.7553L26.5593 33.192L26.0222 33.5462L25.4987 33.5157L25.5123 33.1311L24.9842 33.2289L24.9707 33.6135L21.798 34.3282L19.9566 34.4781L18.3771 34.6431L17.8626 34.3562L18.9186 34.1607L19.722 33.6936L20.5027 33.8675L20.2319 34.1087L21.2835 34.0414L21.0353 33.6415L22.6194 33.3482L23.4047 33.3939L23.4138 33.1375L22.8903 33.107L22.8993 32.8506L23.9508 32.7833L23.9644 32.3987L26.0765 32.0077L24.2397 32.0293L22.9219 32.2096L22.931 31.9532L21.0942 31.9748L21.3876 31.0925L20.0652 31.401L19.5417 31.3706L19.5508 31.1142L21.9247 30.7384L22.2 30.369L20.0879 30.76L19.3072 30.5861L20.6385 30.0212L21.6946 29.8257L20.1196 29.8625L19.3389 29.6886L16.9785 29.6798L16.9695 29.9362L16.1887 29.7623L13.5486 30.2511L12.7678 30.0772L13.8284 29.7535L13.8375 29.4971L12.5333 29.2927L12.5423 29.0363L10.6919 29.4426L11.7344 29.6317L10.9401 29.8424L11.4591 30.0011L8.29539 30.4594L4.59917 31.1437L4.34648 30.872L7.25745 30.1421L9.11237 29.6076L8.0563 29.8031L7.27555 29.6292L8.33613 29.3055L5.4297 29.9073L4.91072 29.7486L5.18153 29.5074L4.12998 29.5747L4.13903 29.3183L7.31176 28.6036L10.2272 27.7454L13.1337 27.1436L13.6663 26.9176L11.8295 26.9393L11.3105 26.7806L10.7689 27.263L9.71737 27.3303L10.7915 26.6219L9.73996 26.6892L10.5478 26.0939L12.9263 25.5899L13.4634 25.2357L15.571 24.9729L16.6316 24.6492L15.3183 24.7012L13.4679 25.1075L12.4118 25.303L11.8702 25.7854L10.8142 25.9809L10.0289 25.9352L10.0379 25.6788L7.14054 26.0241L4.76665 26.3999L4.23409 26.6259L1.07947 26.8278L1.62109 26.3454L3.47146 25.9392L4.79833 25.5025L6.38243 25.2092L7.17675 24.9985L6.6804 24.1988L7.74551 23.7468L9.33416 23.3253L12.4978 22.867L13.2831 22.9127L13.2741 23.1691L13.7975 23.1996L14.0684 22.9584L13.5494 22.7997L13.8247 22.4303L11.7126 22.8213L8.28713 23.2644L5.91324 23.6402L5.9223 23.3838L2.75863 23.8421L2.50592 23.5705L8.31884 22.367L10.1465 22.6018L10.1557 22.3453L9.63666 22.1867L10.4264 22.1042L11.7578 21.5392L12.8139 21.3437L12.0286 21.298L8.86042 21.8846L8.07516 21.8389L8.08871 21.4543L7.57429 21.1674L9.42016 20.8894L9.70451 20.2635L12.0875 19.6313L12.3583 19.3901L12.8818 19.4206L12.8909 19.1642L9.19463 19.8485L8.15212 19.6593L9.21271 19.3356L12.8999 18.9077L15.0075 18.6449L16.3298 18.3364L17.1106 18.5103L17.3678 18.6538L17.3814 18.2691L19.2227 18.1193L20.7932 18.2107L21.0731 17.713L24.2413 17.1265L28.1947 16.5857L30.5596 16.4663L30.5686 16.2099L31.363 15.9991L27.1478 16.5247L25.0356 16.9158L22.9416 16.794L22.9506 16.5375L21.6328 16.7178L19.7824 17.1241L15.8335 17.5367L14.782 17.604L14.7955 17.2194L15.3235 17.1216L12.6879 17.4822L11.1174 17.3908L11.65 17.1649L16.9168 16.572L18.4917 16.5351L18.5009 16.2787L20.6085 16.0159L21.1229 16.3027L22.9823 15.6401L21.9398 15.451L26.9448 14.8428L31.9543 14.1064L32.7532 13.7675L33.2812 13.6697L33.5566 13.3003L31.7107 13.5784L28.2898 13.8933L25.6542 14.2538L21.4435 14.6512L18.8214 14.6272L19.354 14.4012L21.4616 14.1384L21.4751 13.7538L27.0036 13.1761L27.7889 13.2218L27.7799 13.4782L24.8825 13.8235L34.3599 12.8332L49.3614 11.3933L58.8297 10.6594L61.1946 10.54L67.2466 9.99279L68.3026 9.79728L75.1263 9.68034L78.7996 9.63709L78.7911 9.89351L88.5033 9.68765L90.0824 9.52259L92.1811 9.51619L93.4985 9.33591L94.2799 9.5098L104.524 9.07797L117.648 8.81363L126.308 8.67507L125.271 8.35774L126.584 8.30566L131.561 8.46676L134.964 8.66471L134.956 8.92113L135.993 9.23846L135.727 9.35144L131.007 9.33378L135.989 9.36667L140.71 9.38433L143.065 9.52137L143.34 9.15197L143.859 9.31063L143.855 9.43884L151.455 9.624L156.433 9.7851L164.552 10.1289L165.08 10.0312L169.534 10.1618L176.078 10.5425L187.866 10.9712Z" fill="#D64F7F"/>
<path d="M193.453 16.4804L193.972 16.6391L193.177 16.8498L201.03 17.3066L203.376 17.7001L203.386 17.4437L201.291 17.3218L201.296 17.1936L224.331 18.5336L239.503 19.6732L238.438 20.1251L226.398 19.4247L214.623 18.6112L205.462 18.0783L223.247 19.4984L233.181 20.4616L241.8 21.4769L251.472 22.425L251.2 22.6661L249.364 22.6878L258.773 23.6206L264.27 23.9403L264.261 24.1967L258.755 24.1334L255.875 23.9659L256.67 23.7552L250.393 23.2615L242.291 22.4049L237.846 22.0178L232.611 21.7133L232.887 21.3439L235.504 21.4961L223.739 20.4263L222.696 20.2372L223.468 20.6675L215.616 20.2107L207.772 19.4974L207.776 19.3692L203.855 19.0126L202.817 18.6953L199.152 18.4821L196.016 18.1712L181.881 17.3489L181.353 17.4467L181.362 17.1903L180.049 17.2424L179.259 17.3249L179.268 17.0685L178.221 17.0076L178.735 17.2944L171.664 17.0115L166.424 16.8352L166.437 16.4506L175.875 16.6141L172.995 16.4466L169.588 16.3769L164.091 16.0571L164.362 15.8159L161.744 15.6636L158.86 15.6244L156.234 15.7285L154.135 15.7349L160.16 15.9569L160.675 16.2438L151.766 15.9825L149.405 15.9737L149.401 16.1019L137.865 15.9447L133.669 15.9575L135.763 16.0793L135.753 16.3357L136.539 16.3814L135.74 16.7204L128.93 16.4527L128.935 16.3245L130.248 16.2724L124.737 16.3373L118.965 16.3869L117.395 16.2955L117.666 16.0544L108.5 15.6496L108.771 15.4084L113.224 15.5391L113.234 15.2827L114.014 15.4566L116.632 15.6088L122.662 15.7026L126.068 15.7724L125.811 15.6289L122.666 15.5744L122.937 15.3332L126.344 15.403L130.799 15.5336L121.894 15.1441L122.165 14.9029L124.535 14.6553L127.152 14.8076L135.018 14.8798L137.383 14.7604L139.215 14.867L140.266 14.7997L143.407 14.9824L144.459 14.9151L146.291 15.0217L146.283 15.2781L147.862 15.113L152.055 15.2285L152.583 15.1307L159.925 15.1724L167.002 15.3271L169.358 15.4642L169.349 15.7206L171.971 15.7446L178.253 16.1101L182.183 16.2103L182.45 16.0973L186.904 16.2279L193.453 16.4804Z" fill="#CA4B79"/>
<path d="M119.307 28.9971L120.349 29.1862L117.98 29.4338L120.607 29.3296L122.439 29.4362L121.906 29.6622L120.854 29.7295L120.584 29.9707L117.691 30.1878L115.331 30.179L114.017 30.231L114.008 30.4875L111.909 30.4939L110.069 30.6437L109.017 30.711L106.381 31.0716L104.012 31.3191L101.381 31.5515L100.595 31.5058L100.609 31.1212L103.24 30.8888L107.451 30.4914L104.824 30.5956L98.5061 31.2558L94.8236 31.5555L92.4498 31.9313L90.6129 31.9529L89.033 32.1179L87.1921 32.2678L85.3458 32.5458L76.6583 33.4536L76.3875 33.6948L74.8034 33.9881L71.1388 33.7749L69.5592 33.94L69.2839 34.3094L67.4381 34.5874L65.6058 34.4808L66.4092 34.0137L64.5679 34.1635L64.288 34.6611L61.1198 35.2477L58.7504 35.4952L57.7079 35.3061L57.1844 35.2757L54.815 35.5233L53.2446 35.4319L52.7301 35.145L53.0099 34.6474L54.3232 34.5953L54.3323 34.3389L53.8133 34.1803L55.9164 34.0457L55.9028 34.4303L58.5339 34.1979L69.5955 32.9143L75.9138 32.2541L76.6945 32.428L77.218 32.4584L86.6951 31.4681L81.9656 31.7068L79.3301 32.0674L77.2271 32.202L78.026 31.863L81.1896 31.4047L86.9755 30.9705L94.3312 30.6275L102.229 29.8023L106.436 29.533L107.478 29.7222L106.688 29.8047L107.202 30.0916L108.778 30.0547L114.297 29.7334L115.349 29.6661L116.924 29.6293L116.933 29.3729L116.152 29.199L119.307 28.9971Z" fill="#E7648F"/>
<path d="M146.522 15.934L149.662 16.1167L148.607 16.3122L144.676 16.212L142.582 16.0902L142.573 16.3466L142.835 16.3618L143.362 16.2641L143.354 16.5205L144.666 16.4684L145.705 16.7857L139.675 16.6919L145.7 16.914L149.369 16.9989L151.992 17.023L152.781 16.9405L155.398 17.0927L161.166 17.1713L164.307 17.354L171.907 17.5392L172.684 17.8413L171.632 17.9086L159.054 17.5623L156.699 17.4253L155.385 17.4773L152.506 17.3099L151.192 17.3619L145.687 17.2986L135.731 16.9764L129.178 16.8521L125.504 16.8954L121.835 16.8104L117.11 16.921L107.931 16.9009L106.36 16.8095L106.094 16.9225L103.21 16.8832L101.911 16.5506L101.901 16.8071L100.584 16.9873L99.2751 16.9112L99.0086 17.0242L94.2838 17.1347L88.5064 17.3126L77.7431 17.5858L74.3268 17.7724L70.3914 17.8005L70.3778 18.1851L69.3263 18.2524L69.0736 17.9807L68.5501 17.9503L69.0645 18.2372L66.6997 18.3565L66.9705 18.1153L66.456 17.8285L66.1943 17.8132L65.9235 18.0544L64.6102 18.1065L62.778 17.9999L62.787 17.7435L63.8431 17.548L68.0446 17.407L76.1952 16.8533L80.6537 16.8558L82.2336 16.6907L84.3323 16.6843L85.6497 16.504L89.319 16.589L91.1559 16.5674L91.427 16.3262L96.6754 16.2461L97.4607 16.2918L97.4513 16.5482L98.4983 16.6091L97.7224 16.307L100.873 16.2333L109.786 16.3664L116.343 16.3624L118.97 16.2583L124.742 16.2086L130.252 16.1438L132.608 16.2808L132.604 16.409L131.29 16.4611L135.745 16.5918L136.277 16.3658L134.702 16.4026L135.235 16.1767L133.402 16.0701L133.673 15.8289L143.115 15.8642L146.522 15.934Z" fill="#E7648F"/>
<path d="M157.041 15.1328L159.397 15.2699L159.393 15.3981L158.08 15.4502L158.332 15.7218L154.135 15.7346L160.16 15.9566L160.675 16.2435L151.766 15.9822L149.405 15.9733L149.401 16.1016L137.865 15.9444L133.669 15.9572L135.763 16.079L135.753 16.3354L136.539 16.3811L135.74 16.7201L128.93 16.4524L128.935 16.3242L130.248 16.2721L124.737 16.337L118.965 16.3866L117.395 16.2952L117.666 16.054L108.5 15.6493L108.771 15.4081L113.224 15.5388L113.234 15.2823L114.014 15.4562L116.632 15.6085L122.662 15.7023L126.068 15.772L125.811 15.6286L122.666 15.5741L122.937 15.3329L126.344 15.4026L130.799 15.5333L121.894 15.1438L122.165 14.9026L124.535 14.655L127.152 14.8073L135.018 14.8794L137.383 14.7601L139.215 14.8667L140.266 14.7994L143.407 14.9821L144.459 14.9148L146.291 15.0214L146.283 15.2778L147.862 15.1127L152.055 15.2281L152.583 15.1304L157.041 15.1328Z" fill="#CA4B79"/>
<path d="M202.659 15.731L207.633 16.0203L209.46 16.2551L218.355 16.901L227.769 17.7056L229.597 17.9404L231.691 18.0622L231.696 17.934L240.334 18.4365L241.9 18.6561L241.895 18.7843L246.078 19.1561L270.417 20.7004L273.553 21.0114L274.068 21.2982L272.755 21.3503L243.438 19.6449L241.078 19.6361L241.087 19.3796L224.349 18.0205L216.762 17.4507L215.196 17.2311L211.008 16.9875L208.124 16.9482L205.25 16.6525L205.263 16.2679L205.525 16.2831L203.174 16.0179L202.659 15.731Z" fill="#E7648F"/>
<path d="M188.488 15.9343L201.314 16.6804L220.418 17.9201L236.371 19.2336L238.199 19.4684L238.194 19.5966L230.865 19.1703L224.326 18.6614L203.386 17.4432L203.376 17.6997L198.931 17.3126L192.387 16.9319L193.182 16.7212L193.448 16.6082L185.329 16.2644L182.445 16.2251L182.179 16.3381L177.201 16.177L169.349 15.7202L169.353 15.592L172.503 15.5183L172.774 15.2771L176.7 15.5055L182.202 15.697L188.488 15.9343Z" fill="#E7648F"/>
<path d="M71.2852 14.7693L72.0659 14.9432L68.645 15.2581L62.0741 15.6467L54.7133 16.1178L49.9745 16.613L41.5623 17.1514L41.305 17.008L36.5753 17.2467L34.4677 17.5095L33.4207 17.4486L33.1499 17.6898L30.7896 17.681L30.7805 17.9374L28.682 17.9438L24.205 18.4542L23.686 18.2955L24.7467 17.9718L28.9619 17.4462L30.0088 17.5071L30.0179 17.2507L24.7512 17.8436L22.3818 18.0912L22.3727 18.3476L21.592 18.1737L23.4514 17.511L26.8769 17.0679L30.036 16.7378L30.5595 16.7683L30.5686 16.5119L32.1527 16.2186L32.6762 16.2491L32.6852 15.9926L34.5311 15.7146L35.3163 15.7603L35.3254 15.5039L37.9565 15.2715L38.4891 15.0455L45.0691 14.4005L49.2753 14.1313L49.0045 14.3725L43.7377 14.9654L41.8874 15.3717L39.2562 15.604L38.2092 15.5431L37.9384 15.7843L36.3588 15.9494L37.9339 15.9125L37.9249 16.169L32.9244 16.6489L35.2847 16.6577L33.7005 16.951L35.2711 17.0424L35.7901 17.201L36.0654 16.8316L37.3742 16.9078L37.3832 16.6513L38.6965 16.5993L39.2245 16.5015L39.2155 16.7579L42.3746 16.4278L42.0993 16.7972L44.4687 16.5496L50.259 15.9872L54.2033 15.7027L58.9375 15.3358L71.2852 14.7693Z" fill="#E7648F"/>
<path d="M184.431 11.9733L191.237 12.3692L209.798 14.0913L217.376 14.9176L217.89 15.2044L216.578 15.2565L208.977 15.0713L204.528 14.8125L202.438 14.5625L198.512 14.3341L197.208 14.1297L193.024 13.7579L193.028 13.6297L198.53 13.8212L196.702 13.5864L190.42 13.221L181.525 12.5751L177.599 12.3467L174.462 12.0357L174.467 11.9075L179.445 12.0686L181.543 12.0622L192.008 12.7995L196.454 13.1866L193.317 12.8756L184.422 12.2297L184.431 11.9733Z" fill="#CA4B79"/>
<path d="M193.453 16.48L193.972 16.6386L193.177 16.8494L201.03 17.3062L203.376 17.6996L203.385 17.4432L201.291 17.3214L201.296 17.1932L224.331 18.5331L239.503 19.6727L238.437 20.1247L226.397 19.4242L201.278 17.706L192.902 17.2188L191.078 16.8558L190.813 16.9687L187.405 16.899L177.72 16.3356L178.253 16.1096L182.183 16.2098L182.45 16.0969L186.904 16.2275L193.453 16.48Z" fill="#CA4B79"/>
<path d="M171.203 15.1858L172.246 15.3749L172.241 15.5031L155.2 15.2826L152.578 15.2586L152.05 15.3563L147.334 15.2105L146.283 15.2778L146.025 15.1343L144.193 15.0277L143.142 15.095L140.262 14.9275L139.211 14.9948L136.855 14.8578L133.177 15.0293L126.362 14.8898L124.534 14.655L124.263 14.8962L122.684 15.0612L131.85 15.466L130.794 15.6615L126.339 15.5308L126.078 15.5156L126.068 15.772L122.657 15.8305L116.627 15.7367L113.748 15.5692L114.028 15.0716L119.539 15.0067L118.766 14.5764L119.823 14.3809L128.74 14.3858L129.521 14.5597L129.53 14.3032L130.835 14.5076L132.153 14.3273L138.705 14.4516L139.747 14.6407L145.515 14.7192L147.086 14.8106L147.605 14.9693L147.876 14.7281L148.395 14.8867L151.802 14.9565L153.643 14.8066L157.312 14.8916L171.203 15.1858Z" fill="#E7648F"/>
<path d="M75.9138 32.2542L76.6945 32.4281L75.3676 32.8647L74.0498 33.045L74.0407 33.3015L72.9847 33.497L75.8775 33.2798L75.1013 32.9777L77.1999 32.9713L77.4481 33.3712L76.6583 33.4537L76.3875 33.6949L74.8034 33.9882L71.1388 33.775L69.5592 33.9401L69.2839 34.3095L67.4381 34.5875L65.6058 34.4809L66.4091 34.0138L64.5678 34.1636L64.288 34.6612L61.1198 35.2478L58.7504 35.4953L57.7079 35.3062L57.1844 35.2758L54.815 35.5233L53.2446 35.432L52.7301 35.1451L53.0099 34.6475L54.3232 34.5954L54.3323 34.339L53.8133 34.1804L55.9164 34.0458L55.9028 34.4304L58.5339 34.198L69.5955 32.9144L75.9138 32.2542Z" fill="#E7648F"/>
<path d="M99.2976 16.2704L100.606 16.3465L100.597 16.6029L101.906 16.6791L101.107 17.018L99.2751 16.9114L99.0086 17.0244L94.2838 17.135L88.5064 17.3128L77.7432 17.586L74.3268 17.7727L70.3914 17.8007L70.3778 18.1853L69.3263 18.2526L69.0736 17.981L68.5501 17.9505L69.0645 18.2374L66.6997 18.3568L66.9705 18.1156L66.456 17.8287L66.1943 17.8135L65.9235 18.0547L64.6102 18.1067L62.778 18.0001L62.787 17.7437L63.8431 17.5482L68.0447 17.4072L76.1952 16.8536L80.6537 16.856L82.2336 16.6909L84.3323 16.6845L85.6497 16.5043L89.319 16.5892L91.1559 16.5676L91.427 16.3264L96.6754 16.2463L97.4607 16.292L97.4513 16.5484L98.4983 16.6093L97.7224 16.3072L99.2976 16.2704Z" fill="#E7648F"/>
<path d="M97.5915 12.574L98.3729 12.7479L99.4152 12.937L99.4059 13.1934L101.505 13.187L103.084 13.0219L103.603 13.1806L103.332 13.4218L105.697 13.3024L108.053 13.4395L107.782 13.6807L99.6544 13.5932L93.3543 13.7406L88.3622 13.9642L83.6327 14.2029L82.5903 14.0138L80.4963 13.892L79.1782 14.0723L79.4493 13.8311L77.8788 13.7397L77.1072 13.3094L80.5236 13.1227L80.5329 12.8663L81.3221 12.7838L88.6653 12.8255L92.6049 12.6693L93.1284 12.6997L93.3808 12.9714L93.909 12.8736L93.6566 12.602L95.7553 12.5956L95.7413 12.9802L97.5782 12.9586L97.5915 12.574Z" fill="#E7648F"/>
<path d="M67.6343 14.1716L68.9385 14.376L71.0371 14.3696L71.028 14.626L71.547 14.7846L69.9674 14.9497L58.9331 15.4641L49.4647 16.198L43.4126 16.7452L42.0948 16.9255L41.3186 16.6234L41.0568 16.6082L40.0099 16.5473L40.2852 16.1779L45.8092 15.7284L46.6035 15.5177L47.9077 15.722L47.655 15.4504L51.076 15.1355L54.226 15.0618L56.5954 14.8142L59.75 14.6123L62.1103 14.6211L62.1193 14.3647L67.6343 14.1716Z" fill="#CA4B79"/>
<path d="M119.307 28.9968L120.349 29.1859L117.98 29.4335L120.607 29.3293L122.439 29.4359L121.906 29.6619L120.854 29.7292L120.584 29.9704L117.691 30.1875L115.331 30.1787L114.017 30.2308L114.008 30.4872L111.909 30.4936L110.069 30.6434L109.017 30.7107L106.381 31.0713L104.012 31.3189L101.381 31.5512L100.595 31.5055L100.609 31.1209L103.24 30.8886L107.451 30.4911L104.824 30.5953L101.403 30.9102L101.151 30.6385L100.37 30.4646L104.319 30.052L105.366 30.1129L105.375 29.8565L97.7434 30.5688L92.2146 31.1465L89.8549 31.1377L81.9655 31.7065L79.3301 32.0671L77.2271 32.2017L78.026 31.8628L81.1896 31.4044L86.9755 30.9702L94.3312 30.6273L102.229 29.802L106.436 29.5328L107.478 29.7219L106.688 29.8044L107.202 30.0913L108.778 30.0544L114.297 29.7331L115.349 29.6658L116.924 29.629L116.933 29.3726L116.152 29.1987L119.307 28.9968Z" fill="#E7648F"/>
<path d="M178.226 16.8791L179.268 17.0682L179.525 17.2117L179.53 17.0834L181.362 17.19L181.886 17.2205L196.021 18.0427L199.419 18.3689L204.13 18.643L203.859 18.8842L208.043 19.256L208.038 19.3842L215.62 20.0822L223.468 20.6672L225.034 20.8868L225.029 21.015L215.345 20.4516L214.04 20.2473L214.022 20.7601L211.41 20.4796L205.389 20.1294L205.66 19.8882L208.539 20.0557L212.993 20.1864L208.025 19.7688L205.407 19.6166L206.463 19.4211L198.354 18.8208L198.101 18.5492L188.677 18.001L185.794 17.9617L184.219 17.9986L183.177 17.8095L166.419 16.9631L167.476 16.7676L171.93 16.8983L177.693 17.1051L178.226 16.8791Z" fill="#EC8EAB"/>
<path d="M200.348 21.7632L206.107 22.0982L213.684 22.9244L217.601 23.4093L227.534 24.3725L234.597 24.9118L235.373 25.2139L221.5 24.4069L221.496 24.5351L216.265 24.1024L214.965 23.7698L214.97 23.6416L219.42 23.9005L212.1 23.2177L195.871 22.2736L196.142 22.0325L194.314 21.7977L194.318 21.6694L200.343 21.8915L200.348 21.7632Z" fill="#CA4B79"/>
<path d="M112.359 10.3494L117.594 10.6539L116.538 10.8494L105.517 10.9792L97.9125 10.9222L88.4667 11.0151L82.6901 11.1929L73.2352 11.5422L70.0806 11.7441L68.7719 11.668L69.8234 11.6007L69.8324 11.3443L71.4075 11.3074L72.2018 11.0967L74.8284 10.9926L74.8193 11.249L75.6136 11.0382L82.708 10.6801L90.8451 10.5111L93.7337 10.4222L104.75 10.4206L112.359 10.3494Z" fill="#E7648F"/>
<path d="M241.105 18.8671L270.417 20.7007L273.553 21.0116L274.068 21.2985L272.755 21.3506L244.223 19.6908L242.919 19.4865L242.929 19.2301L241.092 19.2517L238.74 18.9864L238.745 18.8582L241.105 18.8671Z" fill="#CA4B79"/>
<path d="M98.1734 18.389L100.267 18.5109L99.9964 18.7521L96.842 18.954L92.6539 18.7103L92.3875 18.8233L83.727 18.9619L79.5163 19.3593L77.1516 19.4787L75.044 19.7415L70.5806 19.8673L69.5291 19.9346L65.5893 20.0908L64.5331 20.2863L62.6964 20.3079L61.1168 20.473L58.2285 20.5619L54.0178 20.9593L49.5498 21.2133L48.5073 21.0242L49.568 20.7005L50.6149 20.7614L52.1991 20.4681L58.7655 20.2077L62.9717 19.9385L68.4957 19.489L72.6973 19.348L75.0666 19.1004L80.582 18.9074L86.1054 18.4579L95.5512 18.365L98.1734 18.389Z" fill="#E7648F"/>
<path d="M115.052 15.7735L118.717 15.9867L118.713 16.1149L114.254 16.1125L102.718 15.9553L95.1095 16.0266L89.0797 15.9328L87.7663 15.9849L83.2985 16.2389L75.1526 16.6643L73.8485 16.4599L69.1233 16.5705L69.1323 16.3141L74.6473 16.121L75.9515 16.3253L77.0076 16.1298L84.1025 15.7717L85.1495 15.8326L85.158 15.5762L82.7937 15.6956L83.0687 15.3262L85.4338 15.2068L87.0044 15.2981L87.5232 15.4568L92.2481 15.3463L104.04 15.6468L110.598 15.6429L115.052 15.7735Z" fill="#E7648F"/>
<path d="M171.772 13.9342L199.518 15.5482L200.033 15.8351L204.478 16.2222L204.464 16.6068L202.375 16.3568L193.999 15.8695L194.003 15.7413L195.84 15.7197L171.759 14.3188L162.331 13.8989L157.358 13.6096L157.362 13.4814L161.032 13.5663L171.772 13.9342Z" fill="#EC8EAB"/>
<path d="M229.204 21.6433L240.193 22.4111L241.231 22.7284L242.021 22.6459L245.947 22.8743L248.032 23.2525L248.024 23.5089L248.547 23.5394L248.556 23.283L251.168 23.5634L251.683 23.8503L250.108 23.8872L240.423 23.3238L235.197 22.7628L231.533 22.5496L227.611 22.193L227.62 21.9366L227.106 21.6497L229.204 21.6433Z" fill="#CA4B79"/>
<path d="M177.865 12.2334L181.53 12.4466L191.472 13.1534L197.492 13.5036L198.791 13.8362L198.787 13.9644L195.642 13.9099L195.637 14.0381L197.726 14.2881L196.932 14.4988L195.885 14.4379L195.872 14.8226L194.044 14.5878L183.84 13.8657L176.511 13.4394L176.516 13.3112L183.068 13.4354L186.733 13.6486L190.925 13.764L190.677 13.3641L183.61 12.953L178.903 12.5507L177.865 12.2334Z" fill="#E7648F"/>
<path d="M180.501 11.8727L184.427 12.1011L193.322 12.747L197.762 13.2623L197.759 13.3905L183.894 12.3271L181.538 12.19L177.603 12.218L178.907 12.4224L190.677 13.364L190.926 13.7639L178.623 13.0482L177.833 13.1307L177.842 12.8743L176.534 12.7982L175.23 12.5938L175.234 12.4656L170.261 12.1763L170.008 11.9047L172.892 11.9439L170.541 11.6787L170.545 11.5505L177.617 11.8334L180.501 11.8727Z" fill="#E7648F"/>
<path d="M83.4332 27.2957L84.4756 27.4848L84.4662 27.7413L82.8871 27.9063L82.8731 28.2909L83.9155 28.4801L80.7565 28.8102L76.5504 29.0794L73.1295 29.3943L71.2972 29.2877L69.1987 29.2941L69.993 29.0833L72.0916 29.0769L72.1006 28.8205L69.4695 29.0529L68.6887 28.879L69.7493 28.5553L71.8479 28.5489L72.9039 28.3534L73.4365 28.1274L77.1146 27.956L78.9608 27.6779L82.1151 27.476L83.4332 27.2957Z" fill="#E7648F"/>
<path d="M45.4706 17.8931L46.5131 18.0822L46.2332 18.5798L39.9149 19.2401L44.3828 18.9861L50.4303 18.567L50.9493 18.7257L48.3137 19.0863L40.4248 19.6551L34.3728 20.2024L27.0029 20.9299L24.3763 21.0341L24.6472 20.7929L28.8578 20.3955L29.3905 20.1695L32.8113 19.8546L33.8719 19.5309L40.98 18.7881L42.8259 18.5101L44.6672 18.3603L45.7142 18.4212L45.7233 18.1647L42.8304 18.3819L42.0496 18.208L45.4706 17.8931Z" fill="#E7648F"/>
<path d="M196.218 27.3045L201.453 27.6091L201.448 27.7373L198.83 27.585L198.822 27.8414L199.874 27.7741L205.374 27.9657L206.941 28.1852L206.936 28.3134L193.05 27.8911L190.436 27.6106L187.034 27.4126L177.854 27.3925L169.984 27.4486L168.675 27.3724L169.731 27.1769L177.078 27.0904L168.427 26.9726L168.697 26.7314L175.517 26.7426L182.065 26.9951L184.682 27.1474L183.645 26.83L185.743 26.8237L188.623 26.9911L189.665 27.1803L195.424 27.5153L196.218 27.3045Z" fill="#CA4B79"/>
<path d="M206.283 17.0981L220.418 17.9203L236.371 19.2338L238.199 19.4686L238.194 19.5968L230.865 19.1704L224.326 18.6615L205.218 17.55L204.965 17.2783L206.274 17.3545L206.283 17.0981Z" fill="#E7648F"/>
<path d="M225.291 21.0303L228.956 21.2435L230.26 21.4478L237.851 21.8894L244.909 22.557L251.183 23.1788L256.937 23.642L256.665 23.8832L255.88 23.8375L255.872 24.094L251.936 24.122L251.931 24.2502L249.318 23.9697L250.113 23.759L251.165 23.6917L248.556 23.283L248.547 23.5394L248.024 23.5089L248.032 23.2525L246.462 23.1612L245.943 23.0025L242.016 22.7741L241.226 22.8566L239.399 22.6218L238.88 22.4632L232.079 21.9391L226.068 21.3324L225.291 21.0303Z" fill="#E7648F"/>
<path d="M51.742 33.4172L52.7845 33.6063L50.6723 33.9974L51.9901 33.8171L54.6122 33.8411L54.3414 34.0823L52.2383 34.2169L50.9251 34.269L50.6406 34.8948L50.3879 34.6232L49.3228 35.0751L47.2152 35.3379L46.4345 35.164L45.3829 35.2313L42.2238 35.5615L38.7938 36.1328L38.0131 35.9589L38.812 35.6199L40.6533 35.4701L40.6623 35.2137L46.1999 34.3796L45.6764 34.3491L44.8956 34.1752L51.742 33.4172Z" fill="#E7648F"/>
<path d="M143.728 13.3306L151.319 13.7722L150.787 13.9982L142.664 13.7826L140.312 13.5173L139.784 13.6151L134.287 13.2953L131.927 13.2865L137.685 13.6215L137.938 13.8931L127.716 13.6839L120.64 13.5292L120.649 13.2728L125.631 13.3057L125.378 13.034L127.996 13.1863L130.618 13.2103L131.151 12.9844L136.395 13.0325L143.728 13.3306Z" fill="#EC8EAB"/>
<path d="M187.038 27.2843L191.488 27.5432L193.054 27.7627L192.26 27.9735L186.24 27.6233L184.66 27.7883L179.682 27.6272L166.82 27.9068L164.194 28.0109L162.627 27.7914L162.898 27.5502L165.267 27.3026L168.679 27.2441L172.087 27.3138L182.318 27.2666L187.038 27.2843Z" fill="#CA4B79"/>
<path d="M185.73 19.7566L195.415 20.32L196.191 20.6221L194.878 20.6742L190.171 20.2719L185.455 20.126L185.451 20.2542L183.614 20.2758L180.211 20.0779L180.215 19.9497L182.576 19.9585L178.121 19.8278L177.85 20.069L176.799 20.1363L176.546 19.8647L168.955 19.4231L167.904 19.4904L162.403 19.2989L162.15 19.0272L166.599 19.2861L166.609 19.0297L167.137 18.9319L185.73 19.7566Z" fill="#E7648F"/>
<path d="M94.6701 28.4634L96.4978 28.6982L96.4939 28.8264L90.708 29.2607L92.8067 29.2543L95.4282 29.2784L94.3726 29.4739L90.1665 29.7431L88.0585 30.0059L82.0069 30.5531L80.6981 30.477L81.2302 30.251L85.7027 29.8688L87.5443 29.719L86.2402 29.5147L83.875 29.6341L82.8327 29.4449L84.6696 29.4233L84.6782 29.1669L82.5795 29.1733L83.1124 28.9473L87.5848 28.5651L89.4218 28.5435L89.9359 28.8304L87.0434 29.0475L90.193 28.9738L92.2964 28.8392L92.5675 28.598L92.8332 28.485L94.6655 28.5916L94.6701 28.4634Z" fill="#E7648F"/>
<path d="M198.11 18.293L204.13 18.6432L203.859 18.8844L208.043 19.2563L208.038 19.3845L215.62 20.0825L223.468 20.6675L225.034 20.8871L225.029 21.0153L215.345 20.4519L214.04 20.2475L214.022 20.7604L211.41 20.4799L205.389 20.1297L205.66 19.8885L208.539 20.056L212.993 20.1866L208.025 19.7691L205.407 19.6168L206.463 19.4213L198.354 18.8211L198.11 18.293Z" fill="#E7648F"/>
<path d="M104.851 29.8264L105.375 29.8568L105.366 30.1133L100.894 30.4955L101.142 30.8953L98.5061 31.2559L94.8236 31.5555L92.4499 31.9313L90.8833 31.7118L89.8456 31.3944L87.4804 31.5138L87.228 31.2422L90.9105 30.9425L93.271 30.9513L101.959 30.0435L104.851 29.8264Z" fill="#E7648F"/>
<path d="M22.8737 19.019L23.6544 19.1929L22.5938 19.5166L21.5378 19.7121L20.4772 20.0358L19.1594 20.2161L20.4682 20.2922L20.4591 20.5487L23.0948 20.1881L23.6092 20.475L22.5531 20.6705L21.2443 20.5943L21.2353 20.8508L19.9175 21.0311L19.6512 21.144L13.3148 22.3171L12.5341 22.1432L15.7022 21.5567L13.3374 21.6761L13.0893 21.2762L18.356 20.6833L16.781 20.7201L15.4632 20.9004L14.4207 20.7113L16.7945 20.3355L15.752 20.1464L18.1304 19.6424L20.4953 19.523L22.8737 19.019Z" fill="#E7648F"/>
<path d="M72.373 13.6765L73.6817 13.7527L73.1492 13.9786L69.9946 14.1805L71.3034 14.2567L70.2473 14.4522L67.887 14.4433L67.6297 14.2999L63.1664 14.4257L62.1194 14.3648L62.1103 14.6212L59.7455 14.7406L54.7495 15.0923L53.1699 15.2574L50.2816 15.3463L48.174 15.6091L48.693 15.7678L47.6414 15.8351L46.5989 15.646L45.2766 15.9545L40.0189 16.291L38.9764 16.1018L43.7152 15.6067L47.9259 15.2093L52.66 14.8423L58.1795 14.521L60.5443 14.4016L62.6519 14.1388L66.0683 13.9521L70.27 13.8111L72.373 13.6765Z" fill="#E7648F"/>
<path d="M193.453 16.48L193.972 16.6386L193.177 16.8494L201.03 17.3062L202.853 17.6692L202.849 17.7974L192.902 17.2188L191.078 16.8558L190.813 16.9687L187.405 16.899L177.72 16.3356L178.253 16.1096L182.183 16.2098L182.45 16.0969L186.904 16.2275L193.453 16.48Z" fill="#CA4B79"/>
<path d="M16.5374 20.1921L17.0563 20.3507L16.5237 20.5767L15.9957 20.6745L17.3135 20.4942L18.8841 20.5855L18.3515 20.8115L13.0847 21.4044L8.8605 22.1865L8.07523 22.1408L8.08879 21.7562L7.57434 21.4693L9.42016 21.1913L9.70459 20.5654L11.0224 20.3851L13.6445 20.4092L14.4388 20.1985L16.5374 20.1921Z" fill="#CA4B79"/>
<path d="M191.083 16.7275L193.168 17.1057L201.282 17.5777L205.205 17.9343L206.766 18.2821L206.761 18.4103L199.17 17.9688L192.631 17.4599L191.589 17.2708L190.013 17.3076L176.926 16.5463L176.935 16.2898L187.41 16.7707L190.817 16.8404L191.083 16.7275Z" fill="#E7648F"/>
<path d="M120.337 14.6677L121.379 14.8568L122.684 15.0612L131.85 15.4659L130.794 15.6614L126.339 15.5308L126.078 15.5156L126.068 15.772L122.657 15.8304L116.627 15.7366L113.748 15.5691L114.028 15.0715L119.539 15.0067L119.024 14.7198L120.337 14.6677Z" fill="#E7648F"/>
<path d="M137.658 14.3909L138.7 14.58L138.164 14.9342L135.541 14.9101L133.177 15.0295L126.362 14.89L124.534 14.6552L124.263 14.8964L121.899 15.0158L120.856 14.8267L118.766 14.5767L119.823 14.3812L128.74 14.386L129.521 14.5599L129.53 14.3035L130.835 14.5078L132.153 14.3276L137.658 14.3909Z" fill="#EC8EAB"/>
<path d="M115.052 15.7737L118.717 15.9869L118.713 16.1151L114.254 16.1126L102.718 15.9555L95.1095 16.0267L92.4873 16.0027L91.4496 15.6854L92.5099 15.3616L104.04 15.647L110.598 15.643L115.052 15.7737Z" fill="#E7648F"/>
<path d="M174.118 21.779L174.641 21.8095L174.633 22.0659L175.684 21.9986L175.937 22.2702L173.838 22.2766L172.796 22.0875L172.525 22.3287L168.594 22.2285L169.388 22.0178L167.028 22.0089L163.098 21.9087L162.569 22.0065L162.56 22.2629L161.779 22.089L162.051 21.8478L160.737 21.8999L155.497 21.7236L152.613 21.6843L152.099 21.3974L155.511 21.3389L163.111 21.5241L169.664 21.6484L173.852 21.892L174.118 21.779Z" fill="#E7648F"/>
<path d="M201.932 21.4697L210.57 21.9722L222.601 22.929L224.429 23.1638L225.472 23.3529L227.566 23.4747L226.771 23.6855L222.06 23.4114L222.064 23.2832L218.666 22.957L218.919 23.2287L213.95 22.8112L209.509 22.2959L204.017 21.8479L201.927 21.5979L201.932 21.4697Z" fill="#EC8EAB"/>
<path d="M150.127 17.814L151.96 17.9206L152.212 18.1923L149.062 18.266L146.968 18.1442L139.887 18.1177L135.69 18.1305L128.605 18.2322L124.417 17.9885L124.422 17.8603L130.193 17.8107L133.606 17.7522L135.97 17.6328L148.552 17.8509L150.127 17.814Z" fill="#E7648F"/>
<path d="M195.032 16.3154L201.314 16.6808L206.283 17.0984L206.274 17.3548L203.909 17.4742L203.386 17.4437L203.376 17.7001L198.931 17.3131L192.387 16.9324L193.182 16.7216L193.98 16.3827L195.032 16.3154Z" fill="#E7648F"/>
<path d="M47.022 25.9484L48.0645 26.1376L44.1156 26.5502L41.2318 26.5109L40.9564 26.8803L39.3814 26.9172L39.914 26.6912L35.9696 26.9756L34.1283 27.1255L32.8195 27.0493L32.8059 27.434L30.1748 27.6663L26.2213 28.2072L25.1788 28.0181L28.3425 27.5597L30.9827 27.071L34.9361 26.5301L40.7264 25.9676L42.5632 25.946L41.5026 26.2697L45.1808 26.0983L47.022 25.9484Z" fill="#E7648F"/>
<path d="M51.8505 30.3401L52.3695 30.4988L51.2998 31.0789L47.6127 31.5068L46.3084 31.3025L42.1023 31.5717L37.878 32.3537L35.5041 32.7295L31.2889 33.2551L29.7138 33.292L29.4747 32.6357L31.8351 32.6445L30.779 32.8401L31.5643 32.8857L36.312 32.1341L37.8916 31.9691L41.0598 31.3825L44.4807 31.0677L47.8971 30.881L51.8505 30.3401Z" fill="#E7648F"/>
<path d="M181.543 12.0619L192.008 12.7992L196.193 13.1711L197.497 13.3754L196.702 13.5862L190.42 13.2207L181.525 12.5748L177.599 12.3464L174.462 12.0355L174.467 11.9072L179.445 12.0683L181.543 12.0619Z" fill="#CA4B79"/>
<path d="M123.09 18.4252L125.707 18.5775L125.437 18.8187L120.973 18.9444L117.571 18.7465L116.257 18.7986L111.536 18.7809L104.189 18.8674L102.095 18.7456L101.057 18.4282L104.992 18.4002L114.957 18.466L119.159 18.325L122.562 18.5229L123.09 18.4252Z" fill="#E7648F"/>
<path d="M48.7518 14.1011L49.2708 14.2598L46.8969 14.6356L42.9479 15.0482L41.8874 15.3719L39.2562 15.6043L38.2092 15.5434L37.9384 15.7846L36.3588 15.9496L37.9339 15.9128L37.9249 16.1692L32.9244 16.6492L31.6156 16.573L31.6246 16.3166L32.6762 16.2493L32.6852 15.9929L34.5311 15.7149L35.3163 15.7605L35.3254 15.5041L37.9565 15.2718L38.489 15.0458L45.0691 14.4008L48.7518 14.1011Z" fill="#E7648F"/>
<path d="M61.4782 17.6677L62.2634 17.7134L62.507 18.2415L64.8673 18.2503L64.8583 18.5067L56.1933 18.7735L51.4636 19.0123L51.4546 19.2687L48.0382 19.4554L48.837 19.1164L51.2109 18.7406L54.3746 18.2823L58.847 17.9001L60.4176 17.9914L60.4085 18.2479L61.4646 18.0524L60.6838 17.8785L61.4782 17.6677Z" fill="#E7648F"/>
<path d="M171.383 17.5093L172.688 17.7136L171.632 17.9092L159.054 17.5629L156.699 17.4258L155.385 17.478L152.506 17.3104L151.192 17.3624L145.687 17.2992L144.382 17.0948L144.387 16.9666L145.7 16.9146L149.369 16.9995L151.992 17.0236L152.781 16.941L155.398 17.0933L161.166 17.1719L164.307 17.3546L171.383 17.5093Z" fill="#E7648F"/>
<path d="M92.6049 12.6689L93.1284 12.6994L92.8534 13.0688L88.9177 13.0968L82.6176 13.2442L81.8277 13.3267L84.1882 13.3356L84.432 13.8636L82.5904 14.0135L80.4963 13.8916L79.1782 14.0719L79.4493 13.8307L77.8788 13.7394L77.1072 13.3091L80.5236 13.1224L80.5329 12.866L81.3221 12.7834L88.6653 12.8252L92.6049 12.6689Z" fill="#E7648F"/>
<path d="M24.5113 24.6387L25.0303 24.7974L24.7595 25.0386L25.5403 25.2125L21.316 25.9945L20.7925 25.9641L20.7834 26.2205L17.8815 26.694L14.1943 27.1219L12.8765 27.3022L11.8295 27.2413L11.8386 26.9849L11.3241 26.698L12.3802 26.5025L12.3711 26.7589L14.7495 26.2549L15.8056 26.0594L16.0583 26.331L15.5303 26.4288L16.311 26.6027L16.3201 26.3463L18.1569 26.3246L19.222 25.8727L21.3341 25.4817L19.4928 25.6315L19.5018 25.3751L21.3477 25.0971L22.1329 25.1427L22.1239 25.3992L23.9652 25.2493L23.9833 24.7365L24.5113 24.6387Z" fill="#EC8EAB"/>
<path d="M106.436 29.533L107.478 29.7221L97.7434 30.569L92.2146 31.1467L89.8549 31.1379L81.9655 31.7068L79.3301 32.0673L77.2271 32.2019L78.026 31.863L81.1896 31.4047L86.9755 30.9704L94.3312 30.6275L102.229 29.8022L106.436 29.533Z" fill="#E7648F"/>
<path d="M112.359 10.3499L117.594 10.6544L116.538 10.8499L105.517 10.9796L102.11 10.9099L99.2306 10.7424L99.2345 10.6142L100.814 10.4491L112.359 10.3499Z" fill="#E7648F"/>
<path d="M27.8417 26.8879L28.6225 27.0618L23.0894 27.7677L18.8606 28.678L17.0193 28.8278L16.753 28.9408L15.1644 29.3622L16.1978 29.8078L15.9225 30.1772L13.5486 30.553L12.7678 30.3791L13.8285 30.0554L14.3701 29.573L14.3836 29.1884L14.6499 29.0754L14.1309 28.9167L19.1495 27.9239L19.9303 28.0978L20.9909 27.7741L20.9999 27.5177L22.3132 27.4656L24.1591 27.1876L27.8417 26.8879Z" fill="#E7648F"/>
<path d="M200.348 21.7632L206.107 22.0982L208.196 22.3483L208.191 22.4765L201.386 22.0806L205.046 22.422L207.659 22.7024L206.865 22.9132L195.871 22.2736L196.142 22.0325L194.314 21.7977L194.318 21.6694L200.343 21.8915L200.348 21.7632Z" fill="#E7648F"/>
<path d="M31.9906 13.3831L32.5141 13.4135L32.2388 13.7829L27.5 14.2781L23.5466 14.819L20.1302 15.0056L18.8214 14.9295L19.354 14.7035L21.4616 14.4407L21.4752 14.0561L27.0037 13.4784L27.7889 13.5241L27.7799 13.7805L24.8825 14.1258L31.9906 13.3831Z" fill="#CA4B79"/>
<path d="M161.865 19.6533L162.389 19.6838L162.642 19.9554L163.422 20.1293L163.413 20.3858L165.512 20.3794L167.868 20.5164L167.859 20.7728L161.044 20.6333L155.542 20.4418L151.608 20.4698L148.981 20.574L147.672 20.4978L147.943 20.2566L151.621 20.0852L159.483 20.2856L160.8 20.1053L160.81 19.8489L160.291 19.6902L161.865 19.6533Z" fill="#E7648F"/>
<path d="M175.022 11.0399L179.471 11.2987L178.944 11.3965L178.935 11.6529L171.073 11.4525L166.623 11.1937L160.598 10.9717L157.457 10.7889L157.466 10.5325L174.494 11.1376L175.022 11.0399Z" fill="#E7648F"/>
<path d="M171.772 13.9342L179.101 14.3605L179.877 14.6626L179.087 14.7452L171.759 14.3188L162.331 13.8989L157.358 13.6096L157.362 13.4814L161.032 13.5663L171.772 13.9342Z" fill="#E7648F"/>
<path d="M187.866 11.2733L197.027 11.8063L196.233 12.017L192.298 12.045L188.371 11.8166L180.248 11.601L179.463 11.5553L179.471 11.2989L181.051 11.1339L181.056 11.0056L187.866 11.2733Z" fill="#E7648F"/>
<path d="M151.97 10.2128L157.204 10.5173L156.41 10.7281L151.432 10.567L149.076 10.4299L152.736 10.7713L152.466 11.0125L144.085 10.6534L141.458 10.7576L139.888 10.6662L140.159 10.425L142.524 10.3057L146.459 10.2777L146.464 10.1494L151.97 10.2128Z" fill="#E7648F"/>
<path d="M31.3584 16.4292L33.4479 16.6792L35.2847 16.6576L34.2286 16.8531L33.4298 17.192L31.0605 17.4396L29.2282 17.333L24.7512 17.8434L22.3818 18.091L22.3728 18.3474L21.592 18.1735L23.4515 17.5109L26.8769 17.0678L30.0361 16.7377L30.5596 16.7681L30.5686 16.5117L31.3584 16.4292Z" fill="#CA4B79"/>
<path d="M83.4332 27.2957L84.4756 27.4848L84.4662 27.7413L78.4147 28.2885L74.2037 28.6859L69.4695 29.0529L68.6887 28.879L69.7493 28.5553L71.8479 28.5489L72.9039 28.3534L73.4365 28.1274L77.1146 27.956L78.9608 27.6779L82.1151 27.476L83.4332 27.2957Z" fill="#E7648F"/>
<path d="M201.129 21.9375L210.547 22.6139L219.953 23.6749L220.99 23.9922L214.974 23.5138L212.1 23.2181L207.65 22.9593L207.659 22.7028L203.209 22.444L201.381 22.2092L201.129 21.9375Z" fill="#E7648F"/>
<path d="M183.068 13.4347L191.968 13.9524L195.104 14.2634L195.096 14.5198L194.044 14.5871L183.84 13.865L176.511 13.4387L176.516 13.3105L183.068 13.4347Z" fill="#E7648F"/>
<path d="M223.337 16.9341L226.479 17.1168L233.276 17.7692L239.81 18.4063L239.805 18.5345L233.785 18.1842L233.257 18.282L233.266 18.0256L231.953 18.0777L231.425 18.1754L229.069 18.0384L224.628 17.5231L223.333 17.0623L223.337 16.9341Z" fill="#CA4B79"/>
<path d="M245.952 22.7461L256.937 23.6421L256.665 23.8833L255.88 23.8376L255.872 24.094L251.936 24.122L251.931 24.2502L249.318 23.9698L250.113 23.759L251.164 23.6917L248.556 23.283L248.546 23.5395L248.024 23.509L248.032 23.2526L246.462 23.1612L245.943 23.0026L245.952 22.7461Z" fill="#EC8EAB"/>
<path d="M64.8131 19.7888L65.5938 19.9627L64.5332 20.2864L62.6964 20.3081L61.1169 20.4731L58.2285 20.562L54.0178 20.9595L49.55 21.2135L48.5074 21.0243L49.568 20.7006L50.6151 20.7615L52.1991 20.4683L58.7656 20.2079L62.9717 19.9387L64.8131 19.7888Z" fill="#E7648F"/>
<path d="M71.2852 14.769L72.066 14.9429L68.6451 15.2578L62.0741 15.6464L55.7649 16.0502L54.1943 15.9588L54.2034 15.7024L58.9376 15.3354L71.2852 14.769Z" fill="#E7648F"/>
<path d="M184.656 20.4648L189.106 20.7237L188.555 21.4625L185.672 21.4232L185.685 21.0386L182.535 21.1123L181.222 21.1644L175.987 20.8598L176.257 20.6186L180.707 20.8775L180.716 20.6211L184.129 20.5626L184.656 20.4648Z" fill="#E7648F"/>
<path d="M135.59 28.4026L137.422 28.5092L137.151 28.7504L135.319 28.6438L135.039 29.1414L132.675 29.2608L128.477 29.2736L129.01 29.0476L132.688 28.8762L130.851 28.8978L123.499 29.1125L120.616 29.0732L121.672 28.8777L129.028 28.5348L134.8 28.4852L135.59 28.4026Z" fill="#E7648F"/>
<path d="M218.978 21.562L227.615 22.0644L232.846 22.4972L238.862 22.9756L244.088 23.5366L243.293 23.7473L238.848 23.3602L237.544 23.1559L231.524 22.8057L223.68 22.0925L218.973 21.6902L218.978 21.562Z" fill="#E7648F"/>
<path d="M219.713 23.0181L223.116 23.216L223.111 23.3442L230.431 24.027L231.207 24.3291L229.628 24.4941L229.371 24.3507L222.832 23.8418L218.124 23.4395L219.185 23.1158L219.713 23.0181Z" fill="#CA4B79"/>
<path d="M206.111 21.9702L209.513 22.1681L217.615 23.0248L218.662 23.0857L218.408 22.814L219.713 23.0184L219.437 23.3878L221.003 23.6073L220.999 23.7356L217.597 23.5376L206.102 22.2266L206.111 21.9702Z" fill="#CA4B79"/>
<path d="M186.059 25.2999L188.149 25.5499L188.144 25.6781L181.587 25.6821L176.866 25.6644L171.617 25.7445L170.047 25.6531L170.841 25.4424L173.734 25.2253L178.978 25.2734L182.652 25.2301L186.059 25.2999Z" fill="#E7648F"/>
<path d="M63.7895 11.6355L65.0982 11.7117L64.3039 11.9224L56.4197 12.3631L51.6855 12.73L47.4748 13.1274L45.6334 13.2773L44.5909 13.0882L46.6986 12.8253L49.8532 12.6234L51.1755 12.3149L63.7895 11.6355Z" fill="#E7648F"/>
<path d="M64.5566 12.1936L65.3373 12.3675L60.3369 12.8474L51.9155 13.6422L49.8169 13.6486L50.3495 13.4227L52.9806 13.1903L52.4707 12.7752L53.7885 12.5949L55.8871 12.5885L55.878 12.845L60.0841 12.5758L64.5566 12.1936Z" fill="#E7648F"/>
<path d="M140.66 11.0968L143.539 11.2643L143.534 11.3925L140.912 11.3684L142.217 11.5728L142.212 11.701L139.328 11.6617L138.286 11.4726L134.35 11.5006L133.295 11.6961L133.29 11.8243L130.668 11.8003L130.677 11.5438L127.274 11.3459L125.974 11.0133L127.026 10.946L132.261 11.2506L140.66 11.0968Z" fill="#E7648F"/>
<path d="M102.886 11.2122L105.499 11.4927L107.326 11.7275L106.271 11.923L104.438 11.8164L103.919 11.6577L103.91 11.9141L102.868 11.725L101.031 11.7466L101.022 12.0031L99.1893 11.8965L98.404 11.8508L93.6924 11.5767L94.7488 11.3812L98.9462 11.3684L100.787 11.2186L102.886 11.2122Z" fill="#E7648F"/>
<path d="M88.2657 31.5591L88.5188 31.8308L86.939 31.9958L86.9257 32.3805L79.8178 33.1232L77.9894 32.8884L78.784 32.6777L80.6256 32.5279L81.1445 32.6865L81.4195 32.3171L85.6348 31.7915L88.2657 31.5591Z" fill="#CA4B79"/>
<path d="M197.951 22.7799L199.783 22.8865L199.775 23.1429L201.354 22.9779L201.612 23.1213L210.245 23.752L209.712 23.978L195.054 23.1253L194.535 22.9666L194.544 22.7102L197.157 22.9907L197.951 22.7799Z" fill="#E7648F"/>
<path d="M126.71 12.4694L130.636 12.6978L130.627 12.9542L128.529 12.9606L128 13.0584L125.645 12.9213L123.808 12.943L123.799 13.1994L121.177 13.1753L120.938 12.5191L121.989 12.4517L126.71 12.4694Z" fill="#E7648F"/>
<path d="M64.4872 29.0198L65.796 29.0959L65.5161 29.5935L63.9365 29.7586L62.6324 29.5542L62.357 29.9236L58.9315 30.3667L56.3004 30.5991L54.7345 30.3795L53.9583 30.0774L56.3276 29.8298L57.1129 29.8755L57.1038 30.1319L60.2584 29.93L62.3796 29.2826L64.4872 29.0198Z" fill="#EC8EAB"/>
<path d="M57.1 22.8088L58.1425 22.9979L51.8287 23.5299L48.1461 23.8296L46.8282 24.0099L46.043 23.9642L43.6736 24.2118L42.1031 24.1204L42.8975 23.9097L46.3184 23.5948L49.4775 23.2647L56.0485 22.8761L57.1 22.8088Z" fill="#E7648F"/>
<path d="M167.894 27.1985L169.198 27.4029L174.438 27.5792L173.382 27.7747L165.245 27.9437L164.194 28.011L162.627 27.7915L162.898 27.5503L165.267 27.3027L167.894 27.1985Z" fill="#E7648F"/>
<path d="M76.3566 27.1406L79.2358 27.3081L78.703 27.5341L72.6558 27.9531L66.6038 28.5004L64.2344 28.7479L63.7155 28.5893L66.8791 28.1309L73.1974 27.4707L75.0342 27.4491L76.3566 27.1406Z" fill="#E7648F"/>
<path d="M78.276 9.90845L78.7995 9.9389L78.5198 10.4365L71.9581 10.5687L68.808 10.6424L69.8731 10.1905L71.4527 10.0254L78.276 9.90845Z" fill="#E7648F"/>
<path d="M22.8737 19.019L23.6544 19.1929L22.5938 19.5167L21.5378 19.7122L20.4772 20.0359L18.8931 20.3292L18.8841 20.5856L16.781 20.7202L15.4632 20.9005L14.4207 20.7113L16.7945 20.3355L15.752 20.1464L18.1305 19.6424L20.4954 19.523L22.8737 19.019Z" fill="#F5C5D3"/>
<path d="M90.2359 12.9167L92.8535 13.0689L91.7971 13.2645L90.7454 13.3318L92.3159 13.4231L91.2603 13.6186L88.8998 13.6098L88.9045 13.4816L86.2823 13.4575L84.9642 13.6378L83.9218 13.4487L83.1319 13.5312L81.2996 13.4246L81.8324 13.1987L83.6741 13.0488L88.9224 12.9688L90.2359 12.9167Z" fill="#CA4B79"/>
<path d="M34.4858 16.9968L35.5283 17.1859L35.5193 17.4423L33.4207 17.4487L33.1499 17.6899L30.7896 17.6811L30.7806 17.9375L28.682 17.9439L24.205 18.4543L23.686 18.2956L24.7466 17.9719L30.0134 17.379L34.4858 16.9968Z" fill="#EC8EAB"/>
<path d="M113.085 12.0619L113.609 12.0924L113.599 12.3488L117.535 12.3208L118.04 12.8641L115.942 12.8704L112.539 12.6725L112.272 12.7855L110.964 12.7093L110.973 12.4529L109.402 12.3616L108.617 12.3159L107.841 12.0138L108.369 11.916L110.201 12.0226L110.192 12.279L112.819 12.1749L113.085 12.0619Z" fill="#E7648F"/>
<path d="M37.157 23.062L38.1995 23.2511L33.4562 23.8745L28.4512 24.4827L27.4042 24.4218L27.3952 24.6782L28.713 24.4979L29.7555 24.687L26.5918 25.1453L25.5493 24.9562L26.8762 24.5195L27.4132 24.1653L35.0494 23.3248L37.157 23.062Z" fill="#E7648F"/>
<path d="M96.8545 26.021L98.6868 26.1276L98.1547 26.3536L92.8923 26.8183L90.785 27.0811L90.0036 26.9072L90.7982 26.6965L89.7512 26.6356L89.7606 26.3792L95.0183 26.0427L96.8545 26.021Z" fill="#E7648F"/>
<path d="M29.0282 30.426L29.809 30.5999L24.7949 31.4645L22.412 32.0967L22.4029 32.3531L21.0942 32.277L21.3876 31.3948L20.0653 31.7033L19.5417 31.6728L19.5508 31.4164L21.9201 31.1688L23.2244 31.3731L26.6589 30.6736L29.0282 30.426Z" fill="#E7648F"/>
<path d="M131.646 28.687L133.74 28.8089L132.683 29.0044L129.005 29.1758L132.679 29.1326L131.875 29.5997L127.421 29.4691L126.902 29.3104L124.546 29.1734L124.817 28.9322L130.856 28.7696L131.646 28.687Z" fill="#CA4B79"/>
<path d="M109.658 27.408L110.177 27.5666L108.86 27.7469L101.498 28.218L102.013 28.5049L97.5448 28.7589L96.5024 28.5698L97.8206 28.3895L96.7782 28.2004L108.083 27.4448L109.658 27.408Z" fill="#E7648F"/>
<path d="M24.4653 33.3718L24.9843 33.5305L24.9708 33.9151L21.798 34.6299L19.9566 34.7797L18.3771 34.9448L17.8627 34.6579L18.9187 34.4624L19.7221 33.9952L20.5028 34.1691L20.232 34.4103L21.2836 34.343L21.0354 33.9431L22.6195 33.6499L23.4047 33.6955L23.4138 33.4391L24.4653 33.3718Z" fill="#CA4B79"/>
<path d="M119.307 28.9971L120.35 29.1862L117.98 29.4338L120.607 29.3297L122.439 29.4362L121.906 29.6622L120.854 29.7295L120.584 29.9707L117.957 30.0749L116.125 29.9683L115.349 29.6662L116.924 29.6293L116.933 29.3729L116.152 29.199L119.307 28.9971Z" fill="#E7648F"/>
<path d="M30.1876 34.7329L30.9684 34.9068L25.1554 36.1103L24.0903 36.5623L22.7725 36.7425L21.9873 36.6969L21.7482 36.0406L23.8603 35.6496L24.113 35.9212L27.2812 35.3347L30.1876 34.7329Z" fill="#E7648F"/>
<path d="M50.4015 34.2388L50.3879 34.6234L49.3227 35.0753L47.2151 35.3382L46.4344 35.1643L45.3829 35.2316L43.2753 35.4944L42.2328 35.3053L48.8264 34.2756L50.4015 34.2388Z" fill="#CA4B79"/>
<path d="M81.2707 29.0967L82.5794 29.1728L82.0474 29.3988L77.0467 29.8787L75.7244 30.1872L73.3687 30.0502L73.3596 30.3066L73.8785 30.4653L73.3505 30.563L72.3126 30.2457L69.9478 30.3651L70.4803 30.1391L76.0088 29.5614L81.2707 29.0967Z" fill="#EC8EAB"/>
<path d="M115.052 15.7735L118.717 15.9867L118.713 16.1149L114.254 16.1124L107.701 15.9882L104.822 15.8207L105.354 15.5947L110.598 15.6428L115.052 15.7735Z" fill="#EC8EAB"/>
<path d="M47.2665 19.0249L48.3135 19.0858L48.0382 19.4552L43.8275 19.8526L41.9862 20.0025L41.2054 19.8286L38.8406 19.9479L39.6394 19.609L47.2665 19.0249Z" fill="#CA4B79"/>
<path d="M123.09 18.4254L125.708 18.5777L125.437 18.8189L120.973 18.9446L117.571 18.7467L117.042 18.8444L115.477 18.6249L116.27 18.4141L119.159 18.3252L122.562 18.5232L123.09 18.4254Z" fill="#E7648F"/>
<path d="M116.147 29.3271L116.933 29.3728L116.924 29.6292L116.129 29.8399L115.078 29.9072L112.452 30.0114L108.773 30.1828L106.937 30.2045L106.165 29.7742L108.796 29.5418L109.319 29.5722L109.311 29.8287L115.358 29.4096L116.147 29.3271Z" fill="#CA4B79"/>
<path d="M40.4881 17.8601L41.2688 18.0339L39.1612 18.2968L37.8434 18.477L38.0961 18.7487L34.6797 18.9354L31.2588 19.2503L31.2498 19.5067L28.6277 19.4826L29.422 19.2719L32.0621 18.7831L35.7493 18.3552L40.4881 17.8601Z" fill="#E7648F"/>
<path d="M198.028 20.6006L206.404 21.0879L210.064 21.4293L209.27 21.64L194.878 20.6743L194.882 20.5461L198.028 20.6006Z" fill="#E7648F"/>
<path d="M129.742 23.1804L129.994 23.4521L126.84 23.654L123.427 23.7125L121.333 23.5907L121.325 23.8471L119.75 23.8839L117.394 23.7469L118.45 23.5514L120.291 23.4015L122.652 23.4104L126.068 23.2237L129.742 23.1804Z" fill="#E7648F"/>
<path d="M37.4285 15.3691L38.2137 15.4148L37.9384 15.7842L36.3588 15.9493L37.9339 15.9124L37.9249 16.1688L32.9244 16.6488L31.6156 16.5726L31.6246 16.3162L32.6762 16.2489L32.6852 15.9925L34.5311 15.7145L35.3163 15.7601L35.3254 15.5037L37.4285 15.3691Z" fill="#E7648F"/>
<path d="M105.895 15.1126L106.148 15.3843L100.38 15.3057L97.2308 15.3794L94.3468 15.3401L91.991 15.2031L92.7856 14.9923L100.133 14.9058L105.895 15.1126Z" fill="#E7648F"/>
<path d="M87.6004 13.2773L89.1709 13.3686L89.4187 13.7685L87.3114 14.0313L83.1093 14.1723L83.385 13.8029L84.4321 13.8638L84.4406 13.6074L86.2869 13.3293L87.6004 13.2773Z" fill="#E7648F"/>
<path d="M131.727 26.3792L133.035 26.4552L132.241 26.666L125.937 26.9417L124.09 27.2197L122.516 27.2565L119.889 27.3606L120.164 26.9912L126.735 26.6026L129.89 26.4007L131.727 26.3792Z" fill="#E7648F"/>
<path d="M9.38324 29.6687L11.739 29.8058L10.9402 30.1447L11.4591 30.3034L8.29547 30.7617L4.59926 31.446L4.34656 31.1744L7.25753 30.4444L9.11245 29.9099L9.38324 29.6687Z" fill="#CA4B79"/>
<path d="M92.6049 12.6692L93.1284 12.6997L92.8534 13.0691L88.9177 13.0971L82.6176 13.2445L80.5189 13.2509L80.5329 12.8663L81.3221 12.7837L88.6653 12.8255L92.6049 12.6692Z" fill="#E7648F"/>
<path d="M116.064 9.40894L118.682 9.56121L117.887 9.77195L115.531 9.63491L115.523 9.89133L113.162 9.8825L112.643 9.72383L109.493 9.79753L108.965 9.89529L103.983 9.8624L104.515 9.63643L112.128 9.43696L116.064 9.40894Z" fill="#E7648F"/>
<path d="M105.641 29.7439L107.207 29.9635L106.666 30.4459L101.403 30.9106L101.151 30.639L100.37 30.4651L104.319 30.0524L105.366 30.1133L105.641 29.7439Z" fill="#E7648F"/>
<path d="M160.489 21.5005L162.844 21.6375L163.093 22.0374L162.569 22.0069L162.56 22.2633L161.779 22.0895L162.051 21.8483L160.737 21.9003L155.497 21.724L152.613 21.6847L152.099 21.3979L155.511 21.3394L160.489 21.5005Z" fill="#E7648F"/>
<path d="M175.008 11.4244L184.431 11.9726L184.427 12.1008L177.613 11.9613L170.545 11.5502L171.601 11.3547L175.008 11.4244Z" fill="#CA4B79"/>
<path d="M143.728 13.3306L151.319 13.7722L150.786 13.9982L142.663 13.7825L140.574 13.5325L140.583 13.2761L143.728 13.3306Z" fill="#E7648F"/>
<path d="M104.851 29.8264L105.375 29.8568L105.366 30.1132L100.366 30.5932L94.0469 31.2534L93.0045 31.0643L94.5891 30.771L101.959 30.0435L104.851 29.8264Z" fill="#CA4B79"/>
<path d="M208.047 19.1282L215.9 19.585L216.152 19.8566L213.273 19.6891L215.363 19.9391L215.358 20.0674L211.17 19.8237L207.772 19.4976L208.047 19.1282Z" fill="#CA4B79"/>
<path d="M158.177 27.5327L159.486 27.6088L158.959 27.7066L158.674 28.3324L159.188 28.6193L158.137 28.6866L154.991 28.632L149.471 28.9533L148.429 28.7642L156.052 28.3083L156.061 28.0519L158.164 27.9173L158.177 27.5327Z" fill="#E7648F"/>
<path d="M56.2468 24.686L58.0791 24.7926L57.5465 25.0186L55.1817 25.1379L56.7477 25.3575L55.6916 25.553L53.3268 25.6724L51.7472 25.8375L50.4385 25.7613L51.2328 25.5506L52.2843 25.4833L52.2979 25.0987L56.2468 24.686Z" fill="#E7648F"/>
<path d="M198.11 18.293L204.13 18.6432L203.859 18.8844L206.472 19.1649L206.467 19.2931L198.354 18.8211L198.11 18.293Z" fill="#E7648F"/>
<path d="M19.6368 28.9805L20.4176 29.1544L19.357 29.4781L20.4085 29.4108L20.3995 29.6672L21.9745 29.6304L21.9654 29.8868L22.7462 30.0607L20.1196 30.1649L19.3388 29.991L16.9786 29.9821L16.9695 30.2386L16.4506 30.0799L17.7819 29.515L19.1088 29.0783L19.6368 28.9805Z" fill="#E7648F"/>
<path d="M201.011 25.271L201.534 25.3014L201.255 25.7991L198.894 25.7902L194.435 25.7878L192.603 25.6812L193.402 25.3423L201.011 25.271Z" fill="#E7648F"/>
<path d="M131.674 20.4661L134.029 20.6031L132.964 21.0551L129.029 21.0831L128.762 21.1961L126.925 21.2177L127.458 20.9917L126.421 20.6744L131.674 20.4661Z" fill="#E7648F"/>
<path d="M76.1529 32.9102L77.1999 32.9711L77.4481 33.371L76.6583 33.4535L76.3875 33.6947L74.8034 33.988L70.8771 33.7596L70.1008 33.4575L72.4702 33.2099L72.1994 33.4511L74.5642 33.3317L75.8775 33.2796L75.1013 32.9775L76.1529 32.9102Z" fill="#CA4B79"/>
<path d="M107.451 30.4915L108.76 30.5677L108.489 30.8089L104.278 31.2063L102.694 31.4996L100.595 31.506L100.609 31.1213L103.24 30.889L107.451 30.4915Z" fill="#CA4B79"/>
<path d="M118.031 13.1207L120.125 13.2425L120.117 13.499L112.245 13.555L110.675 13.4636L111.479 12.9965L113.316 12.9749L116.194 13.1424L118.031 13.1207Z" fill="#E7648F"/>
<path d="M15.5438 26.0439L16.0583 26.3307L15.5303 26.4285L17.1007 26.5199L16.3019 26.8588L14.1943 27.1216L12.8765 27.3019L11.8295 27.241L11.8386 26.9846L11.3241 26.6977L12.3802 26.5022L12.3711 26.7586L14.7495 26.2546L15.5438 26.0439Z" fill="#EC8EAB"/>
<path d="M222.439 20.0935L223.743 20.2978L235.509 21.3677L236.023 21.6545L225.039 20.7586L221.641 20.4324L222.439 20.0935Z" fill="#E7648F"/>
<path d="M45.4704 17.8928L46.5129 18.0819L46.2331 18.5796L39.9148 19.2398L39.134 19.0659L41.7742 18.5771L44.6671 18.36L45.7141 18.4209L45.7231 18.1645L42.8303 18.3816L42.0495 18.2077L45.4704 17.8928Z" fill="#E7648F"/>
<path d="M118.256 21.613L120.088 21.7195L119.556 21.9455L117.187 22.1931L115.873 22.2452L111.396 22.7556L109.036 22.7467L109.045 22.4903L114.569 22.0408L118.256 21.613Z" fill="#E7648F"/>
<path d="M55.2097 16.9175L55.9903 17.0913L55.4623 17.1891L57.2901 17.4239L56.4958 17.6346L53.3411 17.8365L51.5088 17.73L49.4103 17.7364L50.2047 17.5256L55.2097 16.9175Z" fill="#E7648F"/>
<path d="M78.583 16.093L79.8918 16.1692L79.8824 16.4256L75.1526 16.6643L73.8485 16.46L69.1233 16.5705L69.1323 16.3141L74.6473 16.121L75.9515 16.3254L77.0076 16.1299L78.583 16.093Z" fill="#E7648F"/>
<path d="M27.8417 26.8879L28.6224 27.0618L23.0894 27.7677L18.8606 28.678L17.0193 28.8278L17.8181 28.4889L20.9863 27.9023L20.9999 27.5177L22.3132 27.4656L24.159 27.1876L27.8417 26.8879Z" fill="#E7648F"/>
<path d="M113.801 28.9338L114.581 29.1077L113.788 29.3185L113.512 29.6879L110.096 29.8746L109.311 29.8289L109.319 29.5725L107.483 29.5941L108.539 29.3986L112.221 29.0989L113.801 28.9338Z" fill="#E7648F"/>
<path d="M195.177 12.2124L196.747 12.3038L196.743 12.432L205.11 13.1757L205.363 13.4473L198.557 13.0514L195.425 12.6123L195.177 12.2124Z" fill="#E7648F"/>
<path d="M58.4895 28.0286L60.0555 28.2482L61.0844 28.822L58.4578 28.9261L57.4063 28.9934L57.4153 28.737L56.3728 28.5479L57.6906 28.3676L55.8493 28.5174L54.5405 28.4413L54.8113 28.2001L58.4895 28.0286Z" fill="#E7648F"/>
<path d="M185.743 26.8235L188.623 26.991L189.665 27.1801L195.157 27.6281L194.096 27.9518L185.991 27.2234L183.64 26.9581L183.645 26.8299L185.743 26.8235Z" fill="#EC8EAB"/>
<path d="M37.1397 16.123L37.6632 16.1534L37.3743 16.9074L36.061 16.9595L35.7902 17.2007L33.4344 17.0637L33.9715 16.7095L32.6582 16.7616L32.929 16.5204L37.1397 16.123Z" fill="#CA4B79"/>
<path d="M151.455 9.92636L153.025 10.0177L152.755 10.2589L151.965 10.3415L146.721 10.2934L146.716 10.4216L144.888 10.1868L144.898 9.93032L143.855 9.74121L151.455 9.92636Z" fill="#CA4B79"/>
<path d="M49.2874 28.6497L50.3344 28.7106L50.3254 28.967L48.484 29.1169L46.6382 29.3949L43.7543 29.3556L42.1748 29.5207L41.1323 29.3316L43.768 28.971L49.2874 28.6497Z" fill="#E7648F"/>
<path d="M172.774 15.2776L179.832 15.9451L179.827 16.0733L174.584 16.0252L169.349 15.7207L169.353 15.5925L172.503 15.5188L172.774 15.2776Z" fill="#E7648F"/>
<path d="M76.9842 24.2227L77.7694 24.2684L77.7604 24.5248L74.6058 24.7267L67.0013 24.6698L67.5339 24.4438L73.0489 24.2507L73.8341 24.2964L76.9842 24.2227Z" fill="#E7648F"/>
<path d="M133.574 18.6496L136.453 18.8171L138.019 19.0367L138.014 19.1649L132.513 18.9734L128.05 19.0991L127.007 18.91L126.227 18.7361L126.497 18.4949L130.161 18.7081L133.574 18.6496Z" fill="#E7648F"/>
<path d="M111.162 14.5197L114.042 14.6872L112.985 14.8828L104.068 14.8779L103.544 14.8474L103.553 14.591L104.6 14.6519L104.609 14.3955L107.227 14.5478L111.162 14.5197Z" fill="#E7648F"/>
<path d="M28.5945 35.2825L29.118 35.313L29.1089 35.5694L26.9968 35.9604L29.0998 35.8258L30.4176 35.6456L30.4086 35.902L29.0863 36.2105L26.9787 36.4733L24.6274 36.208L25.9543 35.7713L28.5945 35.2825Z" fill="#CA4B79"/>
<path d="M43.5642 34.7402L44.6112 34.8011L44.6022 35.0575L42.2328 35.3051L41.9574 35.6745L40.1116 35.9526L38.7937 36.1329L38.0131 35.959L38.8119 35.62L40.6532 35.4702L40.6623 35.2138L43.5642 34.7402Z" fill="#EC8EAB"/>
<path d="M50.4303 18.5669L50.9493 18.7256L48.3136 19.0862L41.2146 19.5725L40.4338 19.3986L41.7562 19.0901L48.5889 18.7168L50.4303 18.5669Z" fill="#E7648F"/>
<path d="M136.395 13.0327L140.583 13.2763L139.784 13.6153L134.287 13.2955L131.141 13.241L131.413 12.9998L136.395 13.0327Z" fill="#E7648F"/>
<path d="M48.9901 22.2087L50.0326 22.3978L46.8689 22.8561L42.6582 23.2535L40.0316 23.3577L40.5642 23.1317L47.1487 22.3585L48.9901 22.2087Z" fill="#E7648F"/>
<path d="M183.077 20.6304L184.124 20.6913L184.115 20.9477L184.895 21.1216L181.75 21.0671L181.222 21.1649L175.987 20.8603L176.257 20.6191L180.707 20.878L180.716 20.6216L183.077 20.6304Z" fill="#E7648F"/>
<path d="M256.941 23.5142L264.27 23.9405L264.261 24.1969L258.755 24.1336L255.875 23.9661L256.941 23.5142Z" fill="#CA4B79"/>
<path d="M98.1735 18.389L100.268 18.5109L99.9964 18.7521L96.8421 18.954L92.9157 18.7256L92.6633 18.4539L95.5512 18.365L98.1735 18.389Z" fill="#EC8EAB"/>
<path d="M173.13 20.0515L178.103 20.3408L178.618 20.6277L174.953 20.4145L168.662 20.3055L166.835 20.0707L167.89 19.8752L173.13 20.0515Z" fill="#E7648F"/>
<path d="M113.234 15.283L114.014 15.4569L119.511 15.7767L118.455 15.9722L110.594 15.7718L108.5 15.65L108.771 15.4088L113.224 15.5394L113.234 15.283Z" fill="#CA4B79"/>
<path d="M51.8505 30.3401L52.3695 30.4988L51.2998 31.0789L47.6127 31.5068L46.8319 31.3329L47.3554 31.3634L47.369 30.9787L51.8505 30.3401Z" fill="#E7648F"/>
<path d="M32.3006 26.8906L32.824 26.921L32.8059 27.4339L30.1748 27.6662L26.2213 28.2071L25.1788 28.018L28.3425 27.5596L30.9827 27.0708L32.3006 26.8906Z" fill="#E7648F"/>
<path d="M247.527 22.7095L252.238 22.9836L256.941 23.5141L256.936 23.6423L250.393 23.2616L247.518 22.9659L247.527 22.7095Z" fill="#CA4B79"/>
<path d="M194.946 18.7513L198.349 18.9493L198.34 19.2057L195.984 19.0686L194.147 19.0903L188.65 18.7705L188.136 18.4836L194.946 18.7513Z" fill="#E7648F"/>
<path d="M88.113 28.4673L89.9406 28.7021L88.8842 28.8976L86.5198 29.017L86.5105 29.2734L83.8882 29.2493L82.5795 29.1732L83.1123 28.9472L87.5848 28.565L88.113 28.4673Z" fill="#E7648F"/>
<path d="M30.555 16.8967L31.5974 17.0858L24.7512 17.8438L22.3818 18.0914L22.3727 18.3478L21.592 18.1739L23.4514 17.5112L28.9754 17.0617L30.555 16.8967Z" fill="#E7648F"/>
<path d="M67.2956 16.3359L68.6043 16.412L67.81 16.6228L61.7626 17.0418L58.0799 17.3415L57.3037 17.0394L65.9823 16.388L67.2956 16.3359Z" fill="#E7648F"/>
<path d="M229.204 21.6433L232.084 21.8108L233.388 22.0152L233.383 22.1434L230.499 22.1041L232.588 22.3541L231.533 22.5496L227.611 22.193L227.62 21.9366L227.106 21.6497L229.204 21.6433Z" fill="#CA4B79"/>
<path d="M12.3672 19.436L12.8907 19.4665L12.8817 19.7229L12.3582 19.6925L11.8166 20.1749L10.4943 20.4833L8.3957 20.4897L7.89026 19.9464L9.19904 20.0226L12.3672 19.436Z" fill="#E7648F"/>
<path d="M57.407 21.542L58.9776 21.6334L58.1833 21.8441L53.4491 22.2111L51.346 22.3457L50.299 22.2848L50.3081 22.0284L57.407 21.542Z" fill="#E7648F"/>
<path d="M142.902 21.8903L143.682 22.0642L140 22.3639L135.541 22.3614L135.545 22.2332L133.979 22.0137L135.035 21.8181L138.7 22.0313L142.902 21.8903Z" fill="#E7648F"/>
<path d="M17.4448 16.7766L18.2255 16.9505L17.702 16.9201L17.693 17.1765L16.6369 17.372L15.3236 17.4241L12.688 17.7846L11.1174 17.6933L11.65 17.4673L16.9167 16.8744L17.4448 16.7766ZM16.1134 17.3415L16.6324 17.5002L15.8335 17.8391L14.7819 17.9064L14.7956 17.5218L16.1134 17.3415Z" fill="#CA4B79"/>
<path d="M195.988 26.3918L197.025 26.7091L196.236 26.7916L191.52 26.6458L189.683 26.6674L187.065 26.5151L187.337 26.2739L192.057 26.2916L195.988 26.3918Z" fill="#EC8EAB"/>
<path d="M78.6555 14.0422L79.1743 14.2009L79.165 14.4573L73.641 14.9068L72.8558 14.8611L72.6031 14.5895L71.0281 14.6263L72.0887 14.3026L74.4444 14.4396L78.6555 14.0422Z" fill="#E7648F"/>
<path d="M150.127 17.8145L151.96 17.921L152.212 18.1927L149.062 18.2664L146.968 18.1446L143.823 18.0901L141.995 17.8553L142 17.7271L148.552 17.8513L150.127 17.8145Z" fill="#E7648F"/>
<path d="M131.561 8.76908L134.964 8.96703L134.694 9.20822L132.067 9.31237L128.659 9.24263L129.202 8.76025L131.561 8.76908Z" fill="#CA4B79"/>
<path d="M45.7533 32.1699L46.2723 32.3286L43.104 32.9151L38.3608 33.5385L37.0475 33.5906L37.8464 33.2516L40.7483 32.7781L43.9074 32.448L45.7533 32.1699Z" fill="#E7648F"/>
<path d="M107.804 20.4907L109.113 20.5669L109.103 20.8233L101.486 21.151L100.444 20.9619L101.761 20.7816L107.804 20.4907Z" fill="#CA4B79"/>
<path d="M224.587 26.1282L230.869 26.4936L232.173 26.698L232.169 26.8262L226.929 26.6499L222.479 26.391L222.226 26.1194L224.587 26.1282Z" fill="#CA4B79"/>
<path d="M103.084 13.0222L103.603 13.1809L103.332 13.4221L105.697 13.3027L108.053 13.4397L107.782 13.6809L102.015 13.6024L99.6591 13.4653L100.453 13.2546L103.084 13.0222Z" fill="#E7648F"/>
<path d="M86.1763 31.3096L87.2186 31.4987L80.1107 32.2415L79.3301 32.0676L79.8629 31.8416L83.8119 31.429L86.1763 31.3096Z" fill="#CA4B79"/>
<path d="M119.539 15.0068L120.057 15.1655L118.477 15.3305L116.38 15.3369L118.992 15.6174L118.988 15.7456L116.627 15.7368L113.748 15.5693L114.028 15.0717L119.539 15.0068Z" fill="#E7648F"/>
<path d="M92.6501 11.3875L93.4307 11.5614L92.3751 11.7569L91.8422 11.9829L91.8516 11.7264L90.0052 12.0045L87.122 11.9652L86.8556 12.0782L83.7098 12.0237L84.2427 11.7977L85.8218 11.6326L90.281 11.6351L92.6501 11.3875Z" fill="#E7648F"/>
<path d="M152.277 8.94605L153.315 9.26337L145.71 9.20642L144.144 8.98685L144.148 8.85864L148.608 8.86108L152.277 8.94605Z" fill="#CA4B79"/>
<path d="M123.744 22.1892L124.786 22.3783L124.778 22.6347L117.945 23.0081L116.108 23.0297L116.641 22.8037L123.216 22.2869L123.734 22.4456L123.744 22.1892Z" fill="#E7648F"/>
<path d="M55.1311 33.9998L55.9118 34.1737L55.8938 34.6865L54.8377 34.882L54.5668 35.1232L55.0858 35.2819L54.815 35.5231L53.2445 35.4317L52.7301 35.1448L53.0099 34.6472L54.3232 34.5951L54.3323 34.3387L53.8133 34.1801L54.8648 34.1128L55.1311 33.9998Z" fill="#E7648F"/>
<path d="M78.749 26.2524L79.2725 26.2828L79.5202 26.6827L73.2156 26.9583L71.9069 26.8822L72.1777 26.641L74.5425 26.5216L75.5894 26.5825L75.5986 26.3261L77.1735 26.2892L78.7396 26.5088L78.749 26.2524Z" fill="#EC8EAB"/>
<path d="M129.028 28.5347L130.856 28.7695L130.851 28.8977L123.499 29.1124L120.616 29.0731L121.672 28.8776L129.028 28.5347Z" fill="#E7648F"/>
<path d="M168.355 21.5728L169.664 21.649L169.916 21.9206L167.29 22.0248L162.84 21.7659L163.111 21.5247L168.355 21.5728Z" fill="#E7648F"/>
<path d="M219.713 23.0181L223.116 23.216L222.832 23.8418L218.124 23.4395L219.185 23.1158L219.713 23.0181Z" fill="#CA4B79"/>
<path d="M130.193 17.811L132.549 17.948L132.802 18.2197L128.605 18.2325L124.417 17.9889L124.422 17.8606L130.193 17.811Z" fill="#EC8EAB"/>
<path d="M202.659 15.731L207.633 16.0203L209.46 16.2551L209.456 16.3833L210.76 16.5877L210.755 16.7159L207.614 16.5331L203.174 16.0179L202.659 15.731Z" fill="#E7648F"/>
<path d="M90.9105 30.9426L92.2146 31.147L92.7296 31.4338L92.7202 31.6902L90.8833 31.7119L89.8456 31.3945L87.4804 31.5139L87.228 31.2423L90.9105 30.9426Z" fill="#CA4B79"/>
<path d="M219.46 22.7466L222.601 22.9293L224.429 23.1641L225.472 23.3533L227.566 23.4751L226.771 23.6858L222.06 23.4117L222.064 23.2835L219.452 23.003L219.46 22.7466Z" fill="#E7648F"/>
<path d="M53.044 11.3958L54.61 11.6154L53.8202 11.6979L53.8111 11.9544L50.133 12.1258L49.3478 12.0801L49.3613 11.6955L53.044 11.3958Z" fill="#E7648F"/>
<path d="M70.3325 19.4675L72.1648 19.5741L71.6322 19.8L70.0526 19.9651L65.5892 20.0909L65.8646 19.7215L68.4957 19.4891L70.3325 19.4675Z" fill="#E7648F"/>
<path d="M189.738 17.6772L196.02 18.0426L198.11 18.2926L198.105 18.4209L192.604 18.2293L189.467 17.9184L189.738 17.6772Z" fill="#E7648F"/>
<path d="M195.456 11.7151L197.027 11.8064L196.233 12.0172L192.297 12.0452L188.899 11.719L188.909 11.4626L195.456 11.7151Z" fill="#CA4B79"/>
<path d="M88.2656 31.5596L88.5188 31.8312L86.9389 31.9963L86.9257 32.3809L85.3458 32.546L83.7753 32.4546L84.0549 31.957L88.2656 31.5596Z" fill="#CA4B79"/>
<path d="M64.4872 29.0203L65.796 29.0964L65.5161 29.594L63.9365 29.7591L62.6324 29.5547L62.357 29.9241L61.3054 29.9914L61.3236 29.4786L64.4872 29.0203Z" fill="#E7648F"/>
<path d="M12.1319 26.1023L13.1699 26.4196L11.5858 26.7129L12.1002 26.9998L11.3104 27.0823L10.7688 27.5647L9.71729 27.632L10.7915 26.9237L9.73995 26.991L10.5478 26.3956L12.1319 26.1023Z" fill="#CA4B79"/>
<path d="M66.3519 20.7773L68.4459 20.8991L67.3898 21.0947L61.6041 21.5289L60.8188 21.4832L61.0942 21.1138L66.3519 20.7773Z" fill="#E7648F"/>
<path d="M47.022 25.948L48.0645 26.1371L44.1156 26.5497L41.2318 26.5104L40.9564 26.8798L39.3813 26.9167L39.914 26.6907L39.395 26.5321L40.7128 26.3518L45.1807 26.0978L47.022 25.948Z" fill="#E7648F"/>
<path d="M75.8202 20.0435L76.3392 20.2021L75.5449 20.4129L70.2918 20.6212L67.6697 20.5971L67.6787 20.3407L71.0906 20.2822L72.1376 20.3431L72.1466 20.0867L74.507 20.0955L75.8202 20.0435Z" fill="#E7648F"/>
<path d="M247.287 22.053L251.472 22.4249L251.2 22.6661L249.363 22.6877L249.359 22.8159L246.479 22.6484L246.76 22.1508L247.287 22.053Z" fill="#E7648F"/>
<path d="M12.5469 29.2102L13.5713 29.9122L13.5622 30.1686L10.9356 30.2728L10.4166 30.1141L10.9492 29.8881L10.4303 29.7295L11.7571 29.2928L12.5469 29.2102Z" fill="#EC8EAB"/>
<path d="M89.3267 31.2358L91.4161 31.4858L91.4028 31.8704L89.033 32.118L86.9304 32.2526L86.1537 31.9505L88.5188 31.8312L88.7938 31.4618L89.3174 31.4922L89.3267 31.2358Z" fill="#E7648F"/>
<path d="M130.215 24.6213L131.258 24.8104L129.94 24.9907L125.215 25.1012L124.421 25.312L122.065 25.1749L122.335 24.9337L124.7 24.8144L130.215 24.6213Z" fill="#E7648F"/>
<path d="M68.3908 29.8892L68.9143 29.9197L68.9053 30.1761L63.9048 30.656L62.3344 30.5647L63.3949 30.241L65.7643 29.9934L68.3908 29.8892Z" fill="#EC8EAB"/>
<path d="M189.318 22.1494L191.673 22.2865L191.927 22.5581L190.09 22.5797L189.304 22.5341L189.295 22.7905L187.986 22.7143L186.682 22.51L185.116 22.2904L185.121 22.1622L189.052 22.2624L189.318 22.1494Z" fill="#EC8EAB"/>
<path d="M91.8017 13.1365L92.8487 13.1974L92.8393 13.4538L94.6763 13.4322L94.6669 13.6886L90.9891 13.8601L89.4186 13.7687L89.6897 13.5275L90.7406 13.4602L89.6983 13.2711L91.8017 13.1365Z" fill="#E7648F"/>
<path d="M90.2358 12.917L92.8534 13.0692L91.797 13.2647L90.7453 13.332L92.3159 13.4234L91.2603 13.6189L88.8998 13.6101L88.9045 13.4819L87.6003 13.2775L87.8707 13.0363L90.2358 12.917Z" fill="#CA4B79"/>
<path d="M189.63 13.3031L190.677 13.364L190.926 13.7639L184.12 13.368L184.129 13.1116L189.63 13.3031Z" fill="#E7648F"/>
<path d="M113.625 26.4822L114.406 26.6561L113.883 26.6257L113.873 26.8821L111.508 27.0014L111.246 26.9862L109.667 27.1513L108.359 27.0751L108.891 26.8492L109.41 27.0078L109.419 26.7514L110.204 26.7971L110.213 26.5407L113.625 26.4822Z" fill="#E7648F"/>
<path d="M44.0531 20.8936L45.0956 21.0827L41.4084 21.5106L40.0906 21.6909L38.2583 21.5843L39.0572 21.2454L44.0531 20.8936Z" fill="#E7648F"/>
<path d="M60.7638 30.4736L62.3343 30.565L62.3253 30.8214L57.0676 31.1579L56.0115 31.3534L54.969 31.1643L58.3944 30.7212L60.7638 30.4736Z" fill="#E7648F"/>
<path d="M94.6701 28.4631L96.4978 28.6979L96.4939 28.8261L90.708 29.2604L89.9274 29.0865L92.2964 28.8389L92.5675 28.5977L92.8332 28.4847L94.6655 28.5913L94.6701 28.4631Z" fill="#E7648F"/>
<path d="M32.3422 18.2849L33.1273 18.3306L33.1183 18.587L27.847 19.3082L27.0663 19.1343L27.0754 18.8779L28.3932 18.6976L28.6595 18.5846L31.2861 18.4805L32.3422 18.2849Z" fill="#E7648F"/>
<path d="M31.9906 13.3828L32.5141 13.4132L32.2388 13.7827L27.5 14.2778L26.4485 14.3451L26.4621 13.9605L31.9906 13.3828Z" fill="#CA4B79"/>
<path d="M34.1999 32.5256L34.7234 32.556L34.7144 32.8125L30.7609 33.3533L29.7139 33.2924L29.4747 32.6361L31.8351 32.645L30.779 32.8405L31.5643 32.8862L34.1999 32.5256Z" fill="#EC8EAB"/>
<path d="M57.7668 33.6394L58.5476 33.8133L58.8002 34.085L58.0014 34.4239L55.6365 34.5433L55.3884 34.1434L55.9119 34.1739L55.921 33.9175L57.7668 33.6394Z" fill="#CA4B79"/>
<path d="M57.1 22.8088L58.1425 22.998L51.8287 23.53L50.5199 23.4538L51.3188 23.1149L57.1 22.8088Z" fill="#EC8EAB"/>
<path d="M47.253 19.4094L49.0807 19.6442L49.0762 19.7724L46.7204 19.6354L46.4497 19.8766L45.1364 19.9287L42.5007 20.2892L42.2344 20.4022L40.9257 20.3261L41.9862 20.0024L45.4117 19.5593L47.253 19.4094Z" fill="#E7648F"/>
<path d="M44.7667 15.5396L45.8137 15.6005L45.8046 15.857L41.0705 16.2239L38.9719 16.2303L39.7662 16.0196L44.7667 15.5396Z" fill="#E7648F"/>
<path d="M214.97 23.6416L220.724 24.1048L221.496 24.5352L216.265 24.1024L214.965 23.7699L214.97 23.6416Z" fill="#E7648F"/>
<path d="M57.4304 13.4492L58.7392 13.5253L58.2112 13.6231L58.2021 13.8795L54.2622 14.0357L52.9444 14.216L51.6356 14.1399L52.6962 13.8162L54.2758 13.6511L57.1641 13.5622L57.4304 13.4492Z" fill="#E7648F"/>
<path d="M34.3847 34.72L35.4272 34.9091L36.2125 34.9548L36.7314 35.1135L34.6193 35.5045L31.9927 35.6086L33.3241 35.0437L34.3847 34.72Z" fill="#E7648F"/>
<path d="M23.0947 20.188L23.6091 20.4749L22.5531 20.6704L21.2443 20.5942L21.2352 20.8507L19.9174 21.031L19.1322 20.9853L18.6086 20.9548L18.8931 20.329L20.4681 20.2922L20.4591 20.5486L23.0947 20.188Z" fill="#E7648F"/>
<path d="M58.6441 16.2178L59.9528 16.294L59.6775 16.6634L58.3642 16.7154L58.107 16.572L53.3728 16.939L52.592 16.7651L55.4894 16.4197L58.6441 16.2178Z" fill="#E7648F"/>
<path d="M27.0036 13.478L27.7888 13.5237L27.7798 13.7801L23.0411 14.2753L22.2558 14.2296L21.985 14.4708L21.2089 14.1687L23.5827 13.7929L27.0036 13.478Z" fill="#CA4B79"/>
<path d="M216.5 24.8872L221.211 25.1612L220.417 25.372L216.486 25.2718L213.611 24.9761L213.616 24.8479L216.5 24.8872Z" fill="#E7648F"/>
<path d="M111.279 18.6372L113.635 18.7742L113.626 19.0306L112.84 18.9849L112.57 19.2261L112.051 19.0675L112.042 19.3239L111.518 19.2934L111.528 19.037L110.214 19.0891L110.21 19.2173L108.382 18.9825L108.652 18.7413L111.279 18.6372Z" fill="#CA4B79"/>
<path d="M222.399 21.2476L229.204 21.6435L229.19 22.0281L221.342 21.4431L222.399 21.2476Z" fill="#E7648F"/>
<path d="M170.097 16.7918L172.977 16.9593L174.015 17.2767L168.775 17.1003L166.419 16.9633L167.476 16.7678L170.097 16.7918Z" fill="#E7648F"/>
<path d="M88.5367 31.3181L89.3173 31.492L83.5228 32.1827L81.9476 32.2195L82.7461 31.8806L87.485 31.3854L88.5367 31.3181Z" fill="#E7648F"/>
<path d="M70.4631 23.2009L70.9821 23.3595L69.6643 23.5398L69.9169 23.8115L67.5521 23.9309L66.5051 23.8699L66.5141 23.6135L65.7334 23.4396L70.4631 23.2009Z" fill="#E7648F"/>
<path d="M206.476 26.4878L215.114 26.9903L214.581 27.2163L213.007 27.2531L206.471 26.616L206.476 26.4878Z" fill="#EC8EAB"/>
<path d="M152.132 13.0488L156.834 13.5793L156.829 13.7075L152.637 13.5921L151.328 13.5159L151.071 13.3725L149.243 13.1377L149.248 13.0095L151.865 13.1618L152.132 13.0488Z" fill="#E7648F"/>
<path d="M143.524 26.5515L144.832 26.6276L145.614 26.8015L146.656 26.9906L144.291 27.11L143.506 27.0643L143.515 26.8079L140.361 27.0098L139.846 26.723L143.524 26.5515Z" fill="#E7648F"/>
<path d="M108.796 29.542L109.319 29.5724L109.311 29.8288L110.091 30.0027L108.246 30.2808L106.937 30.2046L106.165 29.7743L108.796 29.542Z" fill="#CA4B79"/>
<path d="M36.2865 18.0012L37.0717 18.0469L37.0627 18.3033L33.1092 18.8441L31.5342 18.881L32.333 18.542L33.9081 18.5052L33.9171 18.2488L36.2865 18.0012Z" fill="#CA4B79"/>
<path d="M111.406 15.0479L114.024 15.2002L113.234 15.2827L113.224 15.5391L112.435 15.6216L107.457 15.4605L108.251 15.2498L111.402 15.1761L111.406 15.0479Z" fill="#E7648F"/>
<path d="M120.026 8.61157L122.382 8.74861L121.588 8.95935L118.961 9.0635L116.344 8.91123L116.615 8.67004L120.026 8.61157Z" fill="#CA4B79"/>
<path d="M11.8974 25.3184L12.6781 25.4923L11.8702 26.0877L10.8141 26.2832L10.0288 26.2375L10.038 25.9811L9.2572 25.8072L10.3042 25.8681L10.5795 25.4987L11.8974 25.3184Z" fill="#E7648F"/>
<path d="M13.1662 19.0964L13.9469 19.2703L13.4098 19.6244L11.8348 19.6613L9.19461 20.1501L8.1521 19.961L9.21276 19.6372L12.8999 19.2094L13.1662 19.0964Z" fill="#CA4B79"/>
<path d="M225.648 18.3533L231.925 18.847L231.921 18.9752L230.085 18.9968L225.635 18.738L224.858 18.4359L225.648 18.3533Z" fill="#E7648F"/>
<path d="M175.283 11.0552L179.471 11.2988L178.944 11.3966L178.935 11.653L175.008 11.4246L175.283 11.0552Z" fill="#EC8EAB"/>
<path d="M114.297 29.7336L117.962 29.9468L117.691 30.188L115.331 30.1791L114.017 30.2312L114.008 30.4876L113.223 30.4419L113.232 30.1855L112.456 29.8834L114.297 29.7336Z" fill="#E7648F"/>
<path d="M43.7415 22.2886L44.5223 22.4624L39.5128 23.1988L40.0272 23.4857L38.7139 23.5378L38.723 23.2813L38.2085 22.9945L43.7415 22.2886Z" fill="#E7648F"/>
<path d="M213.571 26.1299L216.188 26.2822L218.278 26.5322L218.268 26.7886L214.6 26.7037L213.561 26.3863L213.571 26.1299Z" fill="#E7648F"/>
<path d="M125.649 12.793L126.43 12.9669L126.16 13.2081L126.678 13.3668L126.674 13.495L122.743 13.3948L123.812 12.8146L125.649 12.793Z" fill="#CA4B79"/>
<path d="M66.238 31.4343L67.0187 31.6082L64.9065 31.9992L60.9621 32.2837L59.9197 32.0946L66.238 31.4343Z" fill="#EC8EAB"/>
<path d="M109.212 25.198L109.735 25.2285L109.722 25.6131L106.829 25.8303L103.945 25.791L103.954 25.5345L106.843 25.4456L109.212 25.198Z" fill="#E7648F"/>
<path d="M206.733 26.6313L210.921 26.8749L213.01 27.1249L213.007 27.2531L208.552 27.1225L206.463 26.8725L206.733 26.6313Z" fill="#CA4B79"/>
<path d="M66.7314 17.4595L67.2504 17.6182L66.1943 17.8137L65.9235 18.0549L64.6102 18.1069L62.778 18.0004L62.787 17.7439L63.8431 17.5484L66.7314 17.4595Z" fill="#E7648F"/>
<path d="M108.369 11.9163L110.201 12.0229L110.192 12.2793L112.291 12.273L112.539 12.6728L112.272 12.7858L110.964 12.7097L110.973 12.4532L109.402 12.3619L108.617 12.3162L107.841 12.0141L108.369 11.9163Z" fill="#E7648F"/>
<path d="M167.894 27.1982L169.198 27.4026L174.438 27.5789L173.382 27.7744L169.708 27.8177L168.4 27.7415L168.404 27.6133L166.576 27.3785L166.581 27.2503L167.894 27.1982Z" fill="#E7648F"/>
<path d="M40.6511 13.2441L41.1746 13.2746L41.1655 13.531L36.693 13.9132L35.9033 13.9957L35.1271 13.6936L39.076 13.281L40.6511 13.2441Z" fill="#E7648F"/>
<path d="M26.6816 30.0325L27.2005 30.1912L24.0323 30.7777L23.2335 31.1167L22.7235 30.7016L22.7326 30.4452L26.6816 30.0325Z" fill="#E7648F"/>
<path d="M19.6368 28.9805L20.4176 29.1544L19.0952 29.4629L18.5717 29.4324L18.8244 29.7041L19.6051 29.878L18.5491 30.0735L16.9786 29.9821L16.9695 30.2386L16.4506 30.0799L17.7819 29.515L19.1088 29.0783L19.6368 28.9805Z" fill="#E7648F"/>
<path d="M37.915 23.8767L38.9575 24.0658L38.1632 24.2765L34.2143 24.6892L32.9055 24.613L33.6998 24.4023L36.5972 24.0569L37.915 23.8767Z" fill="#E7648F"/>
<path d="M37.4285 15.3691L38.2138 15.4148L37.9385 15.7842L35.3074 16.0166L33.7278 16.1816L32.6853 15.9925L34.5312 15.7145L35.3164 15.7602L35.3255 15.5037L37.4285 15.3691Z" fill="#EC8EAB"/>
<path d="M126.71 12.4692L130.636 12.6976L130.627 12.954L128.529 12.9604L128 13.0581L126.439 12.7104L126.71 12.4692Z" fill="#E7648F"/>
<path d="M234.859 17.4756L238.524 17.6888L240.351 17.9236L240.604 18.1952L237.725 18.0278L234.855 17.6038L234.859 17.4756Z" fill="#CA4B79"/>
<path d="M76.3566 27.1409L79.2359 27.3084L78.703 27.5344L74.4972 27.8036L74.2445 27.5319L76.0904 27.2539L76.3566 27.1409Z" fill="#E7648F"/>
<path d="M21.6954 22.6765L22.2144 22.8351L20.0977 23.3544L17.7238 23.7302L16.6859 23.4128L20.3731 22.985L21.6954 22.6765Z" fill="#E7648F"/>
<path d="M111.888 23.6838L114.767 23.8513L114.758 24.1077L110.037 24.09L110.047 23.8336L111.888 23.6838Z" fill="#EC8EAB"/>
<path d="M187.562 27.3149L191.488 27.5433L193.054 27.7628L192.26 27.9736L187.291 27.5561L187.562 27.3149Z" fill="#CA4B79"/>
<path d="M107.759 21.7729L108.539 21.9468L106.956 22.2401L105.637 22.4204L101.973 22.2072L101.977 22.079L105.123 22.1335L106.969 21.8555L107.759 21.7729Z" fill="#E7648F"/>
<path d="M84.4679 12.8382L85.5102 13.0273L81.8277 13.327L80.5189 13.2509L80.5329 12.8662L81.3221 12.7837L84.4679 12.8382Z" fill="#EC8EAB"/>
<path d="M134.292 13.167L137.428 13.478L137.424 13.6062L135.587 13.6278L131.137 13.3689L131.931 13.1582L134.292 13.167Z" fill="#CA4B79"/>
<path d="M110.881 29.9199L113.499 30.0722L113.223 30.4416L110.601 30.4175L109.558 30.2284L109.568 29.972L110.881 29.9199Z" fill="#EC8EAB"/>
<path d="M204.369 26.7505L208.557 26.9942L208.809 27.2658L204.616 27.1504L204.102 26.8635L204.369 26.7505Z" fill="#E7648F"/>
<path d="M83.1902 19.3159L84.4943 19.5203L83.438 19.7158L82.1292 19.6397L80.2883 19.7895L78.7178 19.6981L79.2506 19.4722L83.1902 19.3159Z" fill="#E7648F"/>
<path d="M45.6062 14.0464L46.1207 14.3333L43.7468 14.7091L41.1202 14.8132L41.9191 14.4743L45.6062 14.0464Z" fill="#CA4B79"/>
<path d="M48.7518 14.1008L49.2708 14.2594L46.8969 14.6352L44.7893 14.8981L43.7468 14.7089L45.0692 14.4004L48.7518 14.1008Z" fill="#E7648F"/>
<path d="M29.9032 35.3584L31.4692 35.578L31.1984 35.8192L29.3616 35.8408L27.5157 36.1189L26.735 35.945L29.9032 35.3584Z" fill="#E7648F"/>
<path d="M52.7708 33.991L53.8178 34.0519L53.8088 34.3083L52.7573 34.3756L52.2111 34.9862L51.6876 34.9558L51.6967 34.6993L50.6451 34.7667L50.925 34.269L52.7708 33.991Z" fill="#CA4B79"/>
<path d="M2.94342 26.3391L4.50489 26.6868L4.23408 26.928L1.07947 27.1299L1.62108 26.6475L2.94342 26.3391Z" fill="#CA4B79"/>
<path d="M131.893 29.0867L132.675 29.2606L131.875 29.5996L127.944 29.4994L128.215 29.2582L131.893 29.0867Z" fill="#CA4B79"/>
<path d="M17.3135 20.4944L18.884 20.5857L18.3514 20.8117L14.4025 21.2243L13.6263 20.9222L15.9957 20.6747L17.3135 20.4944Z" fill="#E7648F"/>
<path d="M239.002 19.0015L242.929 19.2299L242.919 19.4863L243.438 19.645L241.078 19.6362L241.087 19.3797L238.993 19.2579L239.002 19.0015Z" fill="#E7648F"/>
<path d="M53.0687 32.9805L53.854 33.0262L53.845 33.2826L50.9476 33.6279L48.8445 33.7625L49.3816 33.4084L53.0687 32.9805Z" fill="#CA4B79"/>
<path d="M6.4685 23.0754L6.98748 23.2341L6.18864 23.573L2.75869 24.1443L2.50598 23.8727L6.4685 23.0754Z" fill="#CA4B79"/>
<path d="M126.907 29.1821L127.687 29.356L127.94 29.6277L126.104 29.6493L122.701 29.4514L123.233 29.2254L126.907 29.1821Z" fill="#E7648F"/>
<path d="M72.3096 15.4712L73.8801 15.5626L73.8755 15.6908L68.6179 16.0273L67.8372 15.8534L68.3697 15.6274L72.3096 15.4712Z" fill="#E7648F"/>
<path d="M174.195 19.5996L177.336 19.7823L177.065 20.0235L178.108 20.2126L178.103 20.3408L175.224 20.1733L174.186 19.856L174.195 19.5996Z" fill="#CA4B79"/>
<path d="M71.4527 10.0259L72.7614 10.102L71.9716 10.1845L71.9581 10.5691L68.808 10.6428L69.8731 10.1909L71.4527 10.0259Z" fill="#E7648F"/>
<path d="M125.979 10.8853L129.643 11.0985L131.733 11.3485L131.728 11.4767L130.154 11.5136L127.274 11.3461L125.974 11.0135L125.979 10.8853Z" fill="#EC8EAB"/>
<path d="M41.1813 35.3721L42.2238 35.5612L38.7938 36.1325L38.0131 35.9587L38.8119 35.6197L41.1813 35.3721Z" fill="#CA4B79"/>
<path d="M9.38322 29.6687L11.7389 29.8057L10.9401 30.1447L11.4591 30.3033L9.61327 30.5814L8.83252 30.4075L9.35603 30.4379L9.11235 29.9099L9.38322 29.6687Z" fill="#E7648F"/>
<path d="M19.2219 25.8726L20.7924 25.964L20.7834 26.2204L17.8814 26.694L16.3154 26.4744L17.3715 26.2789L18.423 26.2116L19.2219 25.8726Z" fill="#E7648F"/>
<path d="M180.157 21.6165L180.942 21.6622L180.933 21.9186L180.143 22.0012L180.134 22.2576L176.208 22.0292L176.212 21.901L178.572 21.9098L178.582 21.6534L180.157 21.6165Z" fill="#E7648F"/>
<path d="M72.6739 27.4404L74.5017 27.6752L73.9691 27.9012L70.8145 28.1031L69.772 27.9139L72.6739 27.4404Z" fill="#EC8EAB"/>
<path d="M15.1832 21.3984L16.2257 21.5875L12.7957 22.1588L12.7867 22.4152L12.2632 22.3848L12.5475 21.759L13.3464 21.42L13.6037 21.5635L15.1832 21.3984Z" fill="#CA4B79"/>
<path d="M30.6856 20.6299L31.2046 20.7885L31.4617 20.932L32.5042 21.1211L30.6629 21.2709L29.3496 21.323L28.8307 21.1643L28.0499 20.9904L30.6856 20.6299Z" fill="#E7648F"/>
<path d="M136.19 26.2534L137.756 26.473L138.275 26.6317L138 27.0011L135.906 26.8792L134.854 26.9465L134.864 26.6901L136.443 26.5251L136.19 26.2534Z" fill="#E7648F"/>
<path d="M169.776 25.8948L170.3 25.9253L170.286 26.3099L166.874 26.3684L164.78 26.2466L164.785 26.1184L167.939 25.9164L169.776 25.8948Z" fill="#E7648F"/>
<path d="M109.791 8.78724L110.315 8.81769L110.305 9.07411L105.842 9.19989L105.323 9.04122L107.169 8.76318L109.791 8.78724Z" fill="#E7648F"/>
<path d="M142.524 10.3062L144.094 10.3976L144.085 10.654L141.458 10.7582L139.888 10.6668L140.159 10.4256L142.524 10.3062Z" fill="#E7648F"/>
<path d="M25.7379 34.4739L26.7804 34.663L26.2477 34.889L25.1872 35.2127L23.6212 34.9931L24.6863 34.5412L25.7379 34.4739Z" fill="#E7648F"/>
<path d="M19.7221 33.9958L20.5028 34.1697L20.232 34.4109L21.0218 34.3283L21.0127 34.5848L18.9006 34.9758L17.8627 34.6585L18.9187 34.4629L19.7221 33.9958Z" fill="#E7648F"/>
<path d="M27.1462 31.7292L28.455 31.8053L28.7077 32.077L26.0766 32.3093L24.7678 32.2332L25.8284 31.9095L27.1462 31.7292Z" fill="#EC8EAB"/>
<path d="M100.366 30.593L101.151 30.6387L101.142 30.8951L98.5061 31.2557L96.6738 31.1491L97.2067 30.9231L100.366 30.593Z" fill="#CA4B79"/>
<path d="M69.5555 26.6165L71.645 26.8665L70.8507 27.0772L69.5374 27.1293L67.1816 26.9923L67.9759 26.7815L69.5555 26.6165Z" fill="#EC8EAB"/>
<path d="M46.7876 25.1641L47.5683 25.338L45.718 25.7442L43.3486 25.9918L42.5679 25.8179L44.4137 25.5399L46.7876 25.1641Z" fill="#E7648F"/>
<path d="M152.162 19.6025L154.518 19.7395L153.467 19.8068L153.458 20.0632L155.295 20.0416L154.5 20.2524L151.883 20.1001L152.162 19.6025Z" fill="#CA4B79"/>
<path d="M53.0597 33.2368L53.8405 33.4107L54.3549 33.6975L53.8314 33.6671L53.8224 33.9235L51.4575 34.0429L50.406 34.1102L50.9431 33.756L52.5226 33.591L53.0597 33.2368Z" fill="#CA4B79"/>
<path d="M88.113 28.467L89.9406 28.7018L88.8842 28.8973L87.0433 29.0471L86.001 28.858L88.113 28.467Z" fill="#E7648F"/>
<path d="M42.192 36.4587L43.5007 36.5349L42.4401 36.8586L39.0102 37.4299L38.4912 37.2712L42.192 36.4587Z" fill="#CA4B79"/>
<path d="M48.5511 34.6448L50.1216 34.7362L49.3228 35.0751L47.2152 35.3379L46.4344 35.164L47.2242 35.0815L47.2333 34.8251L48.5511 34.6448Z" fill="#E7648F"/>
<path d="M81.153 32.4302L81.6727 32.5889L81.6633 32.8453L79.8178 33.1233L77.9894 32.8886L78.784 32.6778L80.6256 32.528L81.1445 32.6866L81.153 32.4302Z" fill="#CA4B79"/>
<path d="M107.948 23.8398L109.519 23.9312L109.509 24.1876L106.093 24.3743L105.046 24.3134L105.055 24.0569L107.948 23.8398Z" fill="#E7648F"/>
<path d="M120.029 23.3862L121.338 23.4623L121.325 23.847L119.75 23.8838L117.394 23.7468L118.45 23.5513L120.029 23.3862Z" fill="#EC8EAB"/>
<path d="M50.4015 34.2385L50.3879 34.6231L48.0185 34.8707L46.9761 34.6816L48.8264 34.2754L50.4015 34.2385Z" fill="#CA4B79"/>
<path d="M53.8269 33.7957L54.6077 33.9696L52.2383 34.2172L50.925 34.2693L50.6406 34.8951L50.3925 34.4953L50.934 34.0129L51.9901 33.8174L53.8269 33.7957Z" fill="#E7648F"/>
<path d="M21.6584 31.1531L22.7009 31.3422L22.1592 31.8246L21.374 31.7789L21.3876 31.3943L20.0653 31.7028L19.5417 31.6723L19.5508 31.4159L21.6584 31.1531Z" fill="#E7648F"/>
<path d="M73.3777 29.7942L74.163 29.8399L74.1539 30.0963L73.3687 30.0506L73.3596 30.307L73.8786 30.4657L73.3506 30.5634L72.3126 30.2461L69.9478 30.3655L70.4803 30.1395L73.3777 29.7942Z" fill="#E7648F"/>
<path d="M72.0961 28.9482L74.4519 29.0852L73.9194 29.3112L72.3443 29.3481L69.1987 29.2935L69.993 29.0828L72.0961 28.9482Z" fill="#EC8EAB"/>
<path d="M8.2555 24.4639L9.03625 24.6378L8.7699 24.7507L9.55065 24.9246L7.43853 25.3157L6.91956 25.157L7.20394 24.5312L8.2555 24.4639Z" fill="#E7648F"/>
<path d="M107.451 30.491L108.76 30.5671L108.489 30.8083L106.381 31.0711L105.073 30.995L105.609 30.6408L107.451 30.491Z" fill="#CA4B79"/>
<path d="M82.6659 26.7373L83.1801 27.0242L79.7593 27.3391L78.4552 27.1347L78.9881 26.9088L82.3995 26.8503L82.6659 26.7373Z" fill="#E7648F"/>
<path d="M47.6716 29.8401L48.7141 30.0292L45.8122 30.5028L45.2887 30.4723L45.5685 29.9747L47.6716 29.8401Z" fill="#E7648F"/>
<path d="M42.6809 22.6125L43.2044 22.643L42.9291 23.0124L40.0317 23.3577L39.251 23.184L41.8911 22.6952L42.6809 22.6125Z" fill="#CA4B79"/>
<path d="M14.4388 20.199L15.4812 20.3881L13.3691 20.7791L11.2705 20.7855L11.5459 20.4161L13.6445 20.4097L14.4388 20.199Z" fill="#EC8EAB"/>
<path d="M17.4447 16.7764L18.2255 16.9503L17.702 16.9199L17.6929 17.1763L16.6369 17.3718L16.6504 16.9872L17.4447 16.7764ZM16.1134 17.3413L16.6323 17.5L15.8335 17.839L14.782 17.9063L14.7955 17.5216L16.1134 17.3413Z" fill="#E7648F"/>
<path d="M102.371 18.3765L104.988 18.5287L106.026 18.8461L104.189 18.8677L102.095 18.7459L101.057 18.4285L102.371 18.3765Z" fill="#E7648F"/>
<path d="M52.66 14.842L54.2305 14.9333L54.2214 15.1897L50.2861 15.2178L50.5569 14.9766L52.66 14.842Z" fill="#E7648F"/>
<path d="M46.9398 35.7078L47.9823 35.8969L46.3937 36.3184L44.8141 36.4834L44.5614 36.2118L45.8883 35.7751L46.9398 35.7078Z" fill="#CA4B79"/>
<path d="M59.9152 32.2227L60.6959 32.3966L61.4721 32.6987L59.6308 32.8485L58.5837 32.7876L58.8591 32.4182L59.9152 32.2227Z" fill="#E7648F"/>
<path d="M59.4053 31.8074L60.4523 31.8683L60.4432 32.1247L57.8121 32.3571L57.0314 32.1832L58.3537 31.8747L59.4053 31.8074Z" fill="#CA4B79"/>
<path d="M163.955 27.355L165.263 27.4311L165.245 27.944L164.194 28.0113L162.627 27.7917L162.898 27.5505L163.955 27.355Z" fill="#E7648F"/>
<path d="M123.744 22.1887L124.786 22.3779L124.778 22.6343L122.674 22.7689L121.365 22.6927L121.902 22.3386L123.216 22.2865L123.734 22.4452L123.744 22.1887Z" fill="#E7648F"/>
<path d="M153.413 21.3457L156.815 21.5437L156.811 21.6719L152.613 21.6847L152.099 21.3978L153.413 21.3457Z" fill="#EC8EAB"/>
<path d="M150.307 20.1372L151.612 20.3415L151.079 20.5675L147.672 20.4977L147.943 20.2566L150.307 20.1372Z" fill="#E7648F"/>
<path d="M104.609 14.3953L108.008 14.7215L106.952 14.917L103.544 14.8473L103.553 14.5908L104.6 14.6517L104.609 14.3953Z" fill="#EC8EAB"/>
<path d="M107.037 12.481L108.08 12.6701L107.557 12.6396L107.548 12.8961L109.908 12.9049L109.113 13.1156L106.753 13.1068L105.972 12.9329L107.024 12.8656L107.037 12.481Z" fill="#E7648F"/>
<path d="M3.90972 21.2561L4.43323 21.2866L4.42417 21.543L0.466187 22.212L0.741519 21.8426L2.5919 21.4364L3.90972 21.2561Z" fill="#E7648F"/>
<path d="M123.057 26.7747L123.043 27.1593L120.674 27.4069L119.889 27.3612L120.165 26.9918L123.057 26.7747Z" fill="#E7648F"/>
<path d="M158.177 27.5325L159.486 27.6086L158.959 27.7064L158.674 28.3322L156.052 28.3082L156.061 28.0517L158.164 27.9171L158.177 27.5325Z" fill="#CA4B79"/>
<path d="M29.2327 17.2051L30.018 17.2508L30.0089 17.5072L27.1115 17.8526L26.3308 17.6787L27.6531 17.3702L29.2327 17.2051Z" fill="#CA4B79"/>
<path d="M142.667 28.5574L145.018 28.8227L145.27 29.0943L141.863 29.0246L142.134 28.7834L142.657 28.8139L142.667 28.5574Z" fill="#E7648F"/>
<path d="M48.5082 13.5728L49.8169 13.6489L49.0226 13.8597L46.3915 14.092L45.6062 14.0464L45.6153 13.7899L48.5082 13.5728Z" fill="#E7648F"/>
<path d="M189.629 20.7546L193.556 20.983L193.551 21.1112L190.41 20.9285L190.401 21.1849L190.92 21.3436L189.088 21.237L189.629 20.7546Z" fill="#E7648F"/>
<path d="M187.866 11.2729L189.698 11.3795L188.909 11.4621L188.899 11.7185L187.324 11.7553L186.02 11.551L186.025 11.4228L187.866 11.2729Z" fill="#E7648F"/>
<path d="M9.87045 30.7246L10.3848 31.0115L8.80075 31.3047L8.00645 31.5155L7.22119 31.4698L7.49652 31.1004L9.87045 30.7246Z" fill="#CA4B79"/>
<path d="M53.6556 31.2161L54.1701 31.5029L51.0065 31.9613L50.2257 31.7874L51.548 31.4789L53.6556 31.2161Z" fill="#E7648F"/>
<path d="M105.641 29.7439L107.207 29.9634L106.666 30.4458L105.095 30.3545L105.641 29.7439Z" fill="#CA4B79"/>
<path d="M87.1563 25.8418L88.7268 25.9332L87.9322 26.1439L85.5678 26.2633L84.7779 26.3459L84.002 26.0438L87.1563 25.8418Z" fill="#E7648F"/>
<path d="M26.7547 20.5295L28.0635 20.6056L28.0545 20.862L25.1616 21.0792L24.3809 20.9053L26.7547 20.5295Z" fill="#EC8EAB"/>
<path d="M23.4514 17.5107L25.2837 17.6173L24.2232 17.941L22.3818 18.0909L22.3728 18.3473L21.592 18.1734L23.4514 17.5107Z" fill="#E7648F"/>
<path d="M117.584 18.3621L118.631 18.423L118.622 18.6794L119.141 18.8381L117.571 18.7467L117.042 18.8445L115.477 18.6249L116.27 18.4142L117.584 18.3621Z" fill="#EC8EAB"/>
<path d="M182.774 21.7688L184.859 22.1471L184.855 22.2753L183.279 22.3121L180.662 22.1599L181.195 21.9339L182.765 22.0253L182.774 21.7688Z" fill="#E7648F"/>
<path d="M186.737 20.9714L188.831 21.0932L188.555 21.4626L185.672 21.4233L185.942 21.1821L186.737 20.9714Z" fill="#E7648F"/>
<path d="M222.29 16.873L224.903 17.1535L224.628 17.5229L222.534 17.401L222.02 17.1142L222.29 16.873Z" fill="#CA4B79"/>
<path d="M109.328 29.3157L110.371 29.5048L111.409 29.8222L109.311 29.8286L109.319 29.5721L107.483 29.5938L108.539 29.3982L109.328 29.3157Z" fill="#E7648F"/>
<path d="M102.825 27.7815L103.349 27.8119L103.34 28.0684L101.498 28.2182L100.451 28.1573L100.443 28.4137L99.3958 28.3528L99.4043 28.0964L102.825 27.7815Z" fill="#E7648F"/>
<path d="M45.4705 17.8928L46.513 18.0819L45.7186 18.2927L42.045 18.3359L42.5776 18.11L45.4705 17.8928Z" fill="#EC8EAB"/>
<path d="M161.865 19.6528L162.389 19.6833L163.156 20.2418L160.8 20.1048L160.81 19.8483L160.291 19.6897L161.865 19.6528Z" fill="#E7648F"/>
<path d="M195.633 14.1658L197.727 14.2876L196.932 14.4984L195.885 14.4375L195.872 14.8221L194.568 14.6178L195.096 14.52L195.104 14.2636L195.633 14.1658Z" fill="#E7648F"/>
</svg>
