<?xml version="1.0" encoding="UTF-8"?>
<svg xmlns="http://www.w3.org/2000/svg" xmlns:xlink="http://www.w3.org/1999/xlink" viewBox="0 0 340.16 170.08">
  <defs>
    <style>
      .cz {
        stroke: url(#ak);
      }

      .cz, .da, .db, .dc, .dd, .de, .df, .dg, .dh, .di, .dj, .dk, .dl, .dm, .dn, .do, .dp, .dq, .dr, .ds, .dt, .du, .dv, .dw, .dx, .dy, .dz, .ea, .eb, .ec, .ed, .ee, .ef, .eg, .eh, .ei, .ej, .ek, .el, .em, .en, .eo, .ep, .eq, .er, .es, .et, .eu, .ev, .ew, .ex, .ey, .ez, .fa, .fb, .fc, .fd, .fe, .ff, .fg, .fh, .fi, .fj, .fk, .fl, .fm, .fn, .fo, .fp, .fq, .fr, .fs, .ft, .fu, .fv, .fw, .fx, .fy, .fz, .ga, .gb, .gc, .gd, .ge, .gf, .gg, .gh, .gi, .gj, .gk, .gl, .gm {
        fill: none;
      }

      .cz, .da, .db, .dc, .dd, .de, .df, .dg, .dh, .di, .dj, .dk, .dl, .dm, .dn, .do, .dp, .dq, .dr, .ds, .dt, .du, .dv, .dw, .dx, .dy, .dz, .ea, .eb, .ec, .ed, .ee, .eg, .eh, .ei, .ej, .ek, .el, .em, .en, .eo, .ep, .eq, .er, .es, .et, .eu, .ev, .ew, .ex, .ey, .ez, .fa, .fb, .fc, .fd, .fe, .ff, .fg, .fh, .fi, .fj, .fk, .fl, .fm, .fn, .fo, .fp, .fq, .fr, .fs, .ft, .fu, .fv, .fw, .fx, .fy, .fz, .ga, .gb, .gc, .gd, .ge, .gf, .gg, .gh, .gi, .gj, .gk, .gl, .gm {
        stroke-miterlimit: 10;
      }

      .cz, .da, .db, .dc, .dd, .de, .df, .dg, .dh, .di, .dj, .dk, .dl, .dm, .dn, .do, .dp, .dq, .dr, .ds, .dt, .du, .dv, .dw, .dx, .dy, .dz, .ea, .eb, .ec, .ed, .ee, .eg, .eh, .ej, .ek, .el, .em, .en, .eo, .eq, .er, .es, .et, .eu, .ev, .ew, .ex, .ey, .ez, .fa, .fb, .fc, .fd, .fe, .ff, .fg, .fh, .fi, .fj, .fk, .fl, .fm, .fn, .fo, .fp, .fq, .fr, .fs, .ft, .fu, .fv, .fw, .fx, .fy, .fz, .ga, .gb, .gc, .gd, .ge, .gf, .gg, .gh, .gi, .gj, .gk, .gl, .gm {
        stroke-width: .5px;
      }

      .da {
        stroke: url(#cn);
      }

      .db {
        stroke: url(#cb);
      }

      .dc {
        stroke: url(#cs);
      }

      .dd {
        stroke: url(#co);
      }

      .de {
        stroke: url(#br);
      }

      .df {
        stroke: url(#ca);
      }

      .gn {
        fill: url(#cu);
      }

      .dg {
        stroke: url(#ci);
      }

      .dh {
        stroke: url(#ae);
      }

      .di {
        stroke: url(#ao);
      }

      .dj {
        stroke: url(#an);
      }

      .dk {
        stroke: url(#aw);
      }

      .dl {
        stroke: url(#al);
      }

      .dm {
        stroke: url(#n);
      }

      .go {
        fill: url(#ct);
      }

      .dn {
        stroke: url(#ad);
      }

      .do {
        stroke: url(#s);
      }

      .dp {
        stroke: url(#m);
      }

      .dq {
        stroke: url(#ab);
      }

      .dr {
        stroke: url(#u);
      }

      .ds {
        stroke: url(#be);
      }

      .gp, .gq {
        fill: #1d1d1b;
      }

      .dt {
        stroke: url(#cq);
      }

      .du {
        stroke: url(#cf);
      }

      .dv {
        stroke: url(#au);
      }

      .gr {
        fill: url(#cx);
      }

      .dw {
        stroke: url(#bt);
      }

      .dx {
        stroke: url(#ch);
      }

      .gs {
        fill: #fff;
      }

      .dy {
        stroke: url(#ar);
      }

      .dz {
        stroke: url(#v);
      }

      .ea {
        stroke: url(#aq);
      }

      .gt {
        fill: #356982;
      }

      .eb {
        stroke: url(#l);
      }

      .ec {
        stroke: url(#cj);
      }

      .ed {
        stroke: url(#bh);
      }

      .ee {
        stroke: url(#cp);
      }

      .eg {
        stroke: url(#bc);
      }

      .eh {
        stroke: url(#ag);
      }

      .ei {
        stroke: #356982;
        stroke-width: 1px;
      }

      .ej {
        stroke: url(#ax);
      }

      .ek {
        stroke: url(#o);
      }

      .gu {
        fill: #39829f;
      }

      .gv {
        fill: #458ca8;
      }

      .gw {
        clip-path: url(#h);
      }

      .el {
        stroke: url(#ck);
      }

      .em {
        stroke: url(#ac);
      }

      .en {
        stroke: url(#r);
      }

      .eo {
        stroke: url(#cc);
      }

      .gx {
        fill: #b5cbdb;
      }

      .ep {
        stroke: #1d1d1b;
        stroke-width: .25px;
      }

      .eq {
        stroke: url(#y);
      }

      .er {
        stroke: url(#ap);
      }

      .es {
        stroke: url(#cl);
      }

      .et {
        stroke: url(#by);
      }

      .eu {
        stroke: url(#x);
      }

      .ev {
        stroke: url(#cr);
      }

      .gy {
        isolation: isolate;
      }

      .ew {
        stroke: url(#aj);
      }

      .ex {
        stroke: url(#i);
      }

      .ey {
        stroke: url(#ay);
      }

      .ez {
        stroke: url(#t);
      }

      .fa {
        stroke: url(#ai);
      }

      .fb {
        stroke: url(#bw);
      }

      .fc {
        stroke: url(#ba);
      }

      .fd {
        stroke: url(#bm);
      }

      .fe {
        stroke: url(#bq);
      }

      .gz {
        clip-path: url(#cy);
      }

      .ff {
        stroke: url(#j);
      }

      .fg {
        stroke: url(#as);
      }

      .fh {
        stroke: url(#aa);
      }

      .fi {
        stroke: url(#bl);
      }

      .fj {
        stroke: url(#av);
      }

      .fk {
        stroke: url(#bz);
      }

      .fl {
        stroke: url(#w);
      }

      .fm {
        stroke: url(#bo);
      }

      .fn {
        stroke: url(#cm);
      }

      .gq, .ha {
        mix-blend-mode: multiply;
        opacity: .3;
      }

      .hb {
        clip-path: url(#g);
      }

      .fo {
        stroke: url(#bu);
      }

      .fp {
        stroke: url(#bd);
      }

      .hc {
        fill: #93b7cc;
      }

      .fq {
        stroke: url(#bj);
      }

      .fr {
        stroke: url(#bs);
      }

      .fs {
        stroke: url(#bf);
      }

      .ft {
        stroke: url(#bb);
      }

      .fu {
        stroke: url(#bk);
      }

      .fv {
        stroke: url(#ah);
      }

      .fw {
        stroke: url(#az);
      }

      .fx {
        stroke: url(#cd);
      }

      .fy {
        stroke: url(#bx);
      }

      .fz {
        stroke: url(#bv);
      }

      .hd {
        fill: url(#cv);
      }

      .he {
        fill: url(#cw);
      }

      .hf {
        fill: #7eabc4;
      }

      .hg {
        fill: #5a9bb8;
      }

      .ga {
        stroke: url(#cg);
      }

      .gb {
        stroke: url(#af);
      }

      .gc {
        stroke: url(#bn);
      }

      .gd {
        stroke: url(#bg);
      }

      .ge {
        stroke: url(#bp);
      }

      .gf {
        stroke: url(#ce);
      }

      .gg {
        stroke: url(#am);
      }

      .gh {
        stroke: url(#q);
      }

      .gi {
        stroke: url(#p);
      }

      .gj {
        stroke: url(#bi);
      }

      .gk {
        stroke: url(#k);
      }

      .gl {
        stroke: url(#at);
      }

      .gm {
        stroke: url(#z);
      }
    </style>
    <clipPath id="g">
      <rect class="ef" y="0" width="340.16" height="170.08"/>
    </clipPath>
    <clipPath id="h">
      <rect class="ep" x="137.6" y="15.46" width="178.35" height="249.12" rx="14.15" ry="14.15" transform="translate(30.88 -40.7) rotate(11)"/>
    </clipPath>
    <linearGradient id="i" data-name="Безымянный градиент 8" x1="224.01" y1="230.79" x2="240.72" y2="230.79" gradientTransform="translate(26.57 -173.77) rotate(11)" gradientUnits="userSpaceOnUse">
      <stop offset="0" stop-color="#b5cbdb"/>
      <stop offset=".98" stop-color="#d7d6db"/>
    </linearGradient>
    <linearGradient id="j" data-name="Безымянный градиент 8" x1="190.59" y1="241.79" x2="201.33" y2="241.79" xlink:href="#i"/>
    <linearGradient id="k" data-name="Безымянный градиент 8" x1="172.33" y1="235.73" x2="229.08" y2="235.73" xlink:href="#i"/>
    <linearGradient id="l" data-name="Безымянный градиент 8" x1="202.54" y1="224.59" x2="210.45" y2="224.59" xlink:href="#i"/>
    <linearGradient id="m" data-name="Безымянный градиент 8" x1="244.76" y1="299.81" x2="286.27" y2="299.81" xlink:href="#i"/>
    <linearGradient id="n" data-name="Безымянный градиент 8" x1="231.14" y1="291.91" x2="258.97" y2="291.91" xlink:href="#i"/>
    <linearGradient id="o" data-name="Безымянный градиент 8" x1="252.34" y1="271.9" x2="259.26" y2="271.9" xlink:href="#i"/>
    <linearGradient id="p" data-name="Безымянный градиент 8" x1="210.96" y1="224.79" x2="255.06" y2="224.79" xlink:href="#i"/>
    <linearGradient id="q" data-name="Безымянный градиент 8" x1="157.81" y1="153.05" x2="187.83" y2="153.05" xlink:href="#i"/>
    <linearGradient id="r" data-name="Безымянный градиент 8" x1="188.02" y1="154.1" x2="204.21" y2="154.1" xlink:href="#i"/>
    <linearGradient id="s" data-name="Безымянный градиент 8" x1="190.15" y1="152.81" x2="252.11" y2="152.81" xlink:href="#i"/>
    <linearGradient id="t" data-name="Безымянный градиент 8" x1="252.71" y1="145.84" x2="270" y2="145.84" xlink:href="#i"/>
    <linearGradient id="u" data-name="Безымянный градиент 8" x1="267.21" y1="151.78" x2="277.85" y2="151.78" xlink:href="#i"/>
    <linearGradient id="v" data-name="Безымянный градиент 8" x1="268.22" y1="152.09" x2="295.6" y2="152.09" xlink:href="#i"/>
    <linearGradient id="w" data-name="Безымянный градиент 8" x1="268.36" y1="173.01" x2="291.52" y2="173.01" xlink:href="#i"/>
    <linearGradient id="x" data-name="Безымянный градиент 8" x1="293.36" y1="194.69" x2="314.54" y2="194.69" xlink:href="#i"/>
    <linearGradient id="y" data-name="Безымянный градиент 8" x1="299.71" y1="159.67" x2="354.51" y2="159.67" xlink:href="#i"/>
    <linearGradient id="z" data-name="Безымянный градиент 8" x1="332.69" y1="189.88" x2="354.64" y2="189.88" xlink:href="#i"/>
    <linearGradient id="aa" data-name="Безымянный градиент 8" x1="188.95" y1="279" x2="216.77" y2="279" xlink:href="#i"/>
    <linearGradient id="ab" data-name="Безымянный градиент 8" x1="185" y1="334.92" x2="222.49" y2="334.92" xlink:href="#i"/>
    <linearGradient id="ac" data-name="Безымянный градиент 8" x1="158.38" y1="310.57" x2="188.87" y2="310.57" xlink:href="#i"/>
    <linearGradient id="ad" data-name="Безымянный градиент 8" x1="157.93" y1="289.56" x2="190.09" y2="289.56" xlink:href="#i"/>
    <linearGradient id="ae" data-name="Безымянный градиент 8" x1="320.93" y1="237.66" x2="354.88" y2="237.66" xlink:href="#i"/>
    <linearGradient id="af" data-name="Безымянный градиент 8" x1="158.03" y1="260.41" x2="188.34" y2="260.41" xlink:href="#i"/>
    <linearGradient id="ag" data-name="Безымянный градиент 8" x1="175.41" y1="220.34" x2="209.95" y2="220.34" xlink:href="#i"/>
    <linearGradient id="ah" data-name="Безымянный градиент 8" x1="157.95" y1="232.17" x2="188.6" y2="232.17" xlink:href="#i"/>
    <linearGradient id="ai" data-name="Безымянный градиент 8" x1="189.51" y1="193.17" x2="210.77" y2="193.17" xlink:href="#i"/>
    <linearGradient id="aj" data-name="Безымянный градиент 8" x1="189.8" y1="176.17" x2="211.34" y2="176.17" xlink:href="#i"/>
    <linearGradient id="ak" data-name="Безымянный градиент 8" x1="170.66" y1="198.7" x2="210.65" y2="198.7" xlink:href="#i"/>
    <linearGradient id="al" data-name="Безымянный градиент 8" x1="210.32" y1="205.58" x2="262.29" y2="205.58" xlink:href="#i"/>
    <linearGradient id="am" data-name="Безымянный градиент 8" x1="212.39" y1="188.61" x2="218.21" y2="188.61" xlink:href="#i"/>
    <linearGradient id="an" data-name="Безымянный градиент 8" x1="214.04" y1="188.66" x2="253.93" y2="188.66" xlink:href="#i"/>
    <linearGradient id="ao" data-name="Безымянный градиент 8" x1="241.52" y1="176.24" x2="265.93" y2="176.24" xlink:href="#i"/>
    <linearGradient id="ap" data-name="Безымянный градиент 8" x1="265.59" y1="208.19" x2="306.81" y2="208.19" xlink:href="#i"/>
    <linearGradient id="aq" data-name="Безымянный градиент 8" x1="254.78" y1="213.29" x2="284.16" y2="213.29" xlink:href="#i"/>
    <linearGradient id="ar" data-name="Безымянный градиент 8" x1="314.71" y1="182.28" x2="331.53" y2="182.28" xlink:href="#i"/>
    <linearGradient id="as" data-name="Безымянный градиент 8" x1="333.56" y1="190.77" x2="354.94" y2="190.77" xlink:href="#i"/>
    <linearGradient id="at" data-name="Безымянный градиент 8" x1="335.05" y1="167.28" x2="354.58" y2="167.28" xlink:href="#i"/>
    <linearGradient id="au" data-name="Безымянный градиент 8" x1="293.74" y1="177.01" x2="331.68" y2="177.01" xlink:href="#i"/>
    <linearGradient id="av" data-name="Безымянный градиент 8" x1="290.72" y1="154.54" x2="297.7" y2="154.54" xlink:href="#i"/>
    <linearGradient id="aw" data-name="Безымянный градиент 8" x1="290.9" y1="161.03" x2="332.81" y2="161.03" xlink:href="#i"/>
    <linearGradient id="ax" data-name="Безымянный градиент 8" x1="298.07" y1="175.5" x2="314.1" y2="175.5" xlink:href="#i"/>
    <linearGradient id="ay" data-name="Безымянный градиент 8" x1="308.57" y1="207.1" x2="335.29" y2="207.1" xlink:href="#i"/>
    <linearGradient id="az" data-name="Безымянный градиент 8" x1="307.54" y1="215.01" x2="335.95" y2="215.01" xlink:href="#i"/>
    <linearGradient id="ba" data-name="Безымянный градиент 8" x1="322.87" y1="221.65" x2="354.82" y2="221.65" xlink:href="#i"/>
    <linearGradient id="bb" data-name="Безымянный градиент 8" x1="321.78" y1="231.6" x2="354.59" y2="231.6" xlink:href="#i"/>
    <linearGradient id="bc" data-name="Безымянный градиент 8" x1="245.48" y1="289.95" x2="322.21" y2="289.95" xlink:href="#i"/>
    <linearGradient id="bd" data-name="Безымянный градиент 8" x1="321.16" y1="249.66" x2="354.84" y2="249.66" xlink:href="#i"/>
    <linearGradient id="be" data-name="Безымянный градиент 8" x1="315.78" y1="271.25" x2="344.36" y2="271.25" xlink:href="#i"/>
    <linearGradient id="bf" data-name="Безымянный градиент 8" x1="179.63" y1="280.65" x2="207.26" y2="280.65" xlink:href="#i"/>
    <linearGradient id="bg" data-name="Безымянный градиент 8" x1="191.44" y1="247.34" x2="227.64" y2="247.34" xlink:href="#i"/>
    <linearGradient id="bh" data-name="Безымянный градиент 8" x1="157.92" y1="322.76" x2="223.16" y2="322.76" xlink:href="#i"/>
    <linearGradient id="bi" data-name="Безымянный градиент 8" x1="158.06" y1="180.6" x2="187.18" y2="180.6" xlink:href="#i"/>
    <linearGradient id="bj" data-name="Безымянный градиент 8" x1="210.54" y1="159.51" x2="288" y2="159.51" xlink:href="#i"/>
    <linearGradient id="bk" data-name="Безымянный градиент 8" x1="190.91" y1="274.26" x2="286.48" y2="274.26" xlink:href="#i"/>
    <linearGradient id="bl" data-name="Безымянный градиент 8" x1="283.76" y1="231.95" x2="320.56" y2="231.95" xlink:href="#i"/>
    <linearGradient id="bm" data-name="Безымянный градиент 8" x1="207.01" y1="256.04" x2="229.62" y2="256.04" xlink:href="#i"/>
    <linearGradient id="bn" data-name="Безымянный градиент 8" x1="272.21" y1="314.51" x2="355.03" y2="314.51" xlink:href="#i"/>
    <linearGradient id="bo" data-name="Безымянный градиент 8" x1="255.24" y1="268.05" x2="296.44" y2="268.05" xlink:href="#i"/>
    <linearGradient id="bp" data-name="Безымянный градиент 8" x1="275.71" y1="292.25" x2="313.57" y2="292.25" xlink:href="#i"/>
    <linearGradient id="bq" data-name="Безымянный градиент 8" x1="243.23" y1="301.08" x2="264.3" y2="301.08" xlink:href="#i"/>
    <linearGradient id="br" data-name="Безымянный градиент 8" x1="277.2" y1="183.55" x2="313.35" y2="183.55" xlink:href="#i"/>
    <linearGradient id="bs" data-name="Безымянный градиент 8" x1="292.37" y1="194.77" x2="305.15" y2="194.77" xlink:href="#i"/>
    <linearGradient id="bt" data-name="Безымянный градиент 8" x1="253.34" y1="185.54" x2="273.97" y2="185.54" xlink:href="#i"/>
    <linearGradient id="bu" data-name="Безымянный градиент 8" x1="244.43" y1="286.71" x2="285.61" y2="286.71" xlink:href="#i"/>
    <linearGradient id="bv" data-name="Безымянный градиент 8" x1="206.92" y1="275.53" x2="208.38" y2="275.53" xlink:href="#i"/>
    <linearGradient id="bw" data-name="Безымянный градиент 8" x1="208.01" y1="277.45" x2="229.73" y2="277.45" xlink:href="#i"/>
    <linearGradient id="bx" data-name="Безымянный градиент 8" x1="216.7" y1="299.29" x2="242.36" y2="299.29" xlink:href="#i"/>
    <linearGradient id="by" data-name="Безымянный градиент 8" x1="180.07" y1="262.15" x2="188.97" y2="262.15" xlink:href="#i"/>
    <linearGradient id="bz" data-name="Безымянный градиент 8" x1="331.69" y1="168.87" x2="333.46" y2="168.87" xlink:href="#i"/>
    <linearGradient id="ca" data-name="Безымянный градиент 8" x1="309.05" y1="149.04" x2="332.38" y2="149.04" xlink:href="#i"/>
    <linearGradient id="cb" data-name="Безымянный градиент 8" x1="333" y1="154.85" x2="349.58" y2="154.85" xlink:href="#i"/>
    <linearGradient id="cc" data-name="Безымянный градиент 8" x1="314.14" y1="195.36" x2="334.88" y2="195.36" xlink:href="#i"/>
    <linearGradient id="cd" data-name="Безымянный градиент 8" x1="292.5" y1="169.77" x2="297.66" y2="169.77" xlink:href="#i"/>
    <linearGradient id="ce" data-name="Безымянный градиент 8" x1="298.25" y1="155.43" x2="308.04" y2="155.43" xlink:href="#i"/>
    <linearGradient id="cf" data-name="Безымянный градиент 8" x1="174.93" y1="188.38" x2="189.33" y2="188.38" xlink:href="#i"/>
    <linearGradient id="cg" data-name="Безымянный градиент 8" x1="307.04" y1="234.97" x2="320.58" y2="234.97" xlink:href="#i"/>
    <linearGradient id="ch" data-name="Безымянный градиент 8" x1="287.14" y1="247.01" x2="305.19" y2="247.01" xlink:href="#i"/>
    <linearGradient id="ci" data-name="Безымянный градиент 8" x1="305.94" y1="227.74" x2="306.7" y2="227.74" xlink:href="#i"/>
    <linearGradient id="cj" data-name="Безымянный градиент 8" x1="192.45" y1="257.78" x2="206.72" y2="257.78" xlink:href="#i"/>
    <linearGradient id="ck" data-name="Безымянный градиент 8" x1="262.7" y1="220.05" x2="287.07" y2="220.05" xlink:href="#i"/>
    <linearGradient id="cl" data-name="Безымянный градиент 8" x1="251.98" y1="253.11" x2="272.62" y2="253.11" xlink:href="#i"/>
    <linearGradient id="cm" data-name="Безымянный градиент 8" x1="208.84" y1="257.24" x2="252.96" y2="257.24" xlink:href="#i"/>
    <linearGradient id="cn" data-name="Безымянный градиент 8" x1="219.82" y1="207.49" x2="254.38" y2="207.49" xlink:href="#i"/>
    <linearGradient id="co" data-name="Безымянный градиент 8" x1="208.11" y1="263.49" x2="233.84" y2="263.49" xlink:href="#i"/>
    <linearGradient id="cp" data-name="Безымянный градиент 8" x1="229.66" y1="240.07" x2="239.53" y2="240.07" xlink:href="#i"/>
    <linearGradient id="cq" data-name="Безымянный градиент 8" x1="253.66" y1="199.2" x2="262.62" y2="199.2" xlink:href="#i"/>
    <linearGradient id="cr" data-name="Безымянный градиент 8" x1="287.51" y1="274.57" x2="319.23" y2="274.57" xlink:href="#i"/>
    <linearGradient id="cs" data-name="Безымянный градиент 8" x1="291.28" y1="256.95" x2="306.61" y2="256.95" xlink:href="#i"/>
    <linearGradient id="ct" data-name="Безымянный градиент 70" x1="238.03" y1="280.26" x2="239.95" y2="189.72" gradientTransform="translate(26.57 -173.77) rotate(11)" gradientUnits="userSpaceOnUse">
      <stop offset="0" stop-color="#458ca8"/>
      <stop offset=".15" stop-color="#4b8fab"/>
      <stop offset=".37" stop-color="#5e9ab3"/>
      <stop offset=".62" stop-color="#7dabc1"/>
      <stop offset=".91" stop-color="#a8c3d5"/>
      <stop offset=".98" stop-color="#b5cbdb"/>
    </linearGradient>
    <linearGradient id="cu" data-name="Безымянный градиент 65" x1="275.41" y1="281.05" x2="277.33" y2="190.51" gradientTransform="translate(26.57 -173.77) rotate(11)" gradientUnits="userSpaceOnUse">
      <stop offset="0" stop-color="#458ca8"/>
      <stop offset=".15" stop-color="#4b8fab"/>
      <stop offset=".37" stop-color="#5e9ab3"/>
      <stop offset=".63" stop-color="#7dabc1"/>
      <stop offset=".92" stop-color="#a8c3d5"/>
      <stop offset="1" stop-color="#b5cbdb"/>
    </linearGradient>
    <linearGradient id="cv" data-name="Безымянный градиент 76" x1="225.43" y1="262.31" x2="226.16" y2="197.01" gradientTransform="translate(26.57 -173.77) rotate(11)" gradientUnits="userSpaceOnUse">
      <stop offset="0" stop-color="#458ca8"/>
      <stop offset=".15" stop-color="#4b8fab"/>
      <stop offset=".37" stop-color="#5e9ab3"/>
      <stop offset=".62" stop-color="#7dabc1"/>
      <stop offset=".91" stop-color="#a8c3d5"/>
      <stop offset=".98" stop-color="#b5cbdb"/>
    </linearGradient>
    <linearGradient id="cw" data-name="Безымянный градиент 76" x1="238.73" y1="262.31" x2="239.46" y2="197.01" xlink:href="#cv"/>
    <linearGradient id="cx" data-name="Безымянный градиент 76" x1="252.04" y1="262.31" x2="252.76" y2="197.01" xlink:href="#cv"/>
    <clipPath id="cy">
      <rect class="ep" x="4.52" y="17.75" width="178.35" height="249.12" rx="14.15" ry="14.15"/>
    </clipPath>
  </defs>
  <g class="gy">
    <g id="f" data-name="Bleed">
      <g class="hb">
        <g>
          <g>
            <g class="gw">
              <rect class="gs" x="129.07" y="6.96" width="195.33" height="266.1" transform="translate(30.88 -40.69) rotate(11)"/>
              <g>
                <path class="ex" d="M203.81,110.37c.19-.52.19-21.44.19-21.44l17.42-4.12"/>
                <path class="ff" d="M178.82,97.15c-5.51,4.1-11.75,7.26-12.02,7.73"/>
                <path class="gk" d="M152.88,80.01s36.33,21.34,51.44,31.85"/>
                <path class="eb" d="M191.79,77.94c-4.73,7.7-10.48,15.84-10.75,16.32"/>
                <polyline class="dp" points="208.56 173.61 225.12 163.73 251.47 169.48"/>
                <line class="dm" x1="198.05" y1="155.52" x2="224.78" y2="163.55"/>
                <line class="ek" x1="226.61" y1="120.85" x2="224.96" y2="163.03"/>
                <polyline class="gi" points="192.75 77.64 204.07 88.94 216.78 101.99 234.78 90.9"/>
                <line class="gh" x1="155.59" y1="-9.55" x2="178.42" y2="28.43"/>
                <path class="en" d="M185.79-4.23l-7.09,34.56s16.47-19.62,22.15-31.73"/>
                <path class="do" d="M181.03,29.22c.54-.54,25.09-9.72,28.93-15.72l20.46,24.76,13.68-11.2,3.22-19.42-8.55-1.66,5.02,19.82-.94,1.02s-27.75-13.62-31.06-13.71"/>
                <path class="ez" d="M265.45,11.35s-19.33,14.35-20.28,15.92"/>
                <path class="dr" d="M273.16,12.57s-15.21,25.04-16.06,29.4"/>
                <path class="dz" d="M290.61,15.96s-17.68,19.66-32.71,26.63"/>
                <path class="fl" d="M257.73,43.94s13.55,8.73,21.31,11.07"/>
                <path class="eu" d="M280.83,56.74c.85,2.29,18.23,14.47,18.23,14.47l-11.88,21.32"/>
                <path class="eq" d="M295.04,16.91s4.79,12.66,5.79,13.83c.52.6,5.55,7.63,9.9,15.27,4.05,7.13,7.37,14.87,9.46,16.34,4.33,3.06,19.33,11.43,19.33,11.43"/>
                <path class="gm" d="M319.61,63.54s-2.88,23.23-2.32,25.23,20.13-3.76,20.13-3.76"/>
                <path class="fh" d="M165.28,107.92s-9.46,42.72-9.26,44.77,20.83,16.43,24.6,16.98"/>
                <path class="dq" d="M172.05,189.06l-10.94,20.39-9.82,19.85,17.25-12.79,9.98-7.48s-3.37-19.73-5.77-21.29c-2.4-1.55-16.52-33.01-16.52-33.01l-11.98,37.03s14.95,16.6,16.13,16.93"/>
                <path class="em" d="M130.35,174.51l23.95-18.65s-28.76-3.19-29.79-2.65"/>
                <path class="dn" d="M156.23,154.73s-18.78-17.67-28.27-22.1"/>
                <line class="dh" x1="293.25" y1="137.09" x2="332.57" y2="110.92"/>
                <line class="gb" x1="163.68" y1="107.1" x2="130.07" y2="122.69"/>
                <path class="eh" d="M191.61,77.07s-33.06,3.62-35.86,4.46"/>
                <path class="fv" d="M140.44,68.9l11.54,10.72s10.86,20.89,12.19,25.95"/>
                <path class="fa" d="M179.99,31.32s11.65,43.52,12.38,45.41"/>
                <path class="ew" d="M180.42,30.02c.32.25,18.83,14.84,18.83,14.84"/>
                <polyline class="cz" points="177.52 32.13 158.82 59.75 151.85 78.14 171.44 63.66 192.37 76.73"/>
                <polyline class="dl" points="192.37 76.73 203.18 59.71 242.76 88.08"/>
                <path class="gg" d="M200.55,45.3s4.24,9.32,2.63,14.42"/>
                <path class="dj" d="M201.89,46.02s23.4,4.6,38.69,7.38l-12.14,10.99"/>
                <path class="di" d="M231.41,39.1l9.02,14.57s5.07-1.95,14.52-9.72"/>
                <path class="er" d="M256.81,44.87s4.03,17.78,5.25,19.59c1.22,1.81,3.94,18.69,3.94,18.69l20.72,9.85-46.15,25.03"/>
                <polyline class="ea" points="266 83.15 245.45 88.25 234.78 90.9"/>
                <path class="dy" d="M299.85,70.6c.32-.22,18.28-7.53,18.28-7.53"/>
                <path class="fg" d="M320.32,64.14s15.16,26.6,15.48,30.17"/>
                <line class="gl" x1="322.28" y1="61.66" x2="343.98" y2="50.82"/>
                <path class="dv" d="M281.2,55.8l12.29,3.28c1.11.3,2.24.52,3.39.67l21.62,2.83"/>
                <line class="fj" x1="283.99" y1="26.68" x2="287.77" y2="41.46"/>
                <path class="dk" d="M284.34,25.37s19.4,19.48,34.02,35.99l-30.36-18.84"/>
                <path class="ej" d="M288.23,43.4s6.91,23.89,10.75,26.94"/>
                <path class="ey" d="M289.17,92.73c.37-.02,20.54-1.05,27.73-3.61"/>
                <path class="fw" d="M317.43,89.33s-17.38,21.82-18.27,21.26c-2.75-1.75-11.25-16.16-11.25-16.16"/>
                <path class="fc" d="M333.53,106.16s-20.29,2.43-33.27,4.62"/>
                <path class="ft" d="M299.17,110.59s21.28,10.63,30.36,15.03"/>
                <path class="eg" d="M299.11,111.48s-7.07,25.63-7.32,26.36l-10.41,24.31c-9.92,12.83-22.62,29.76-25.47,30.87-2.85,1.11-22.05,7.91-23.31,8.36l7.74,23.61s-13.1-2.74-18.85-3.16c-5.12-.38-20.27-3.4-20.27-3.4,0,0,11.45-4.96,15.33-7.04,3.84-2.06,15.56-9.54,15.56-9.54"/>
                <path class="fp" d="M293.12,138.49s34.16-4.17,35.08-5.56"/>
                <path class="ds" d="M292.64,139.51l16.93,32.69s-17.49-4.39-26.59-9.74"/>
                <path class="fs" d="M179.31,126.17c-6.57,1.26-28.52,4.16-28.52,4.16l4.27,22.59"/>
                <line class="gd" x1="167.03" y1="107.01" x2="203.09" y2="111.02"/>
                <path class="ed" d="M181.31,170.44s.91,10.99,2.81,12.19-10.31,4.56-10.31,4.56c0,0-28.28,5.74-28.89,5.33-6.11-4.08-13.82-16.59-13.82-16.59l-2.05-.86-9.8,3.82,2.26-12.12,8.11,6.75"/>
                <path class="gj" d="M177.41,30.45s-20.15,9.37-31.74,11.96"/>
                <path class="fq" d="M207.56-.28l2.79,15.14s-7.17,28.35-9.8,30.43c-2.62,2.08,1.34.72,1.34.72,0,0,18.75-6.15,25.95-6.6s26.58,5.38,28.51,3.74c.66-.56-10.04-11.33-11.02-14.85-.98-3.52,36.02-3.72,36.02-3.72"/>
                <polyline class="fu" points="259.72 127.4 197.3 155.16 176.93 145.84 157.36 154.61"/>
                <polyline class="fi" points="260.7 127.8 291.79 137.84 265.99 103.27 265.6 84.93"/>
                <path class="fd" d="M204.71,112.29c-8.47,4.63-16.94,9.25-25.4,13.88"/>
                <path class="gc" d="M244.1,134.34l37.29,28.39c4.9,13.94,9.56,24.01,9.56,24.01,0,0,10.5,30.1,10.69,30.9s6.58,18.53,6.58,18.53c0,0-10.5,5.26-12.7,6.59-4.1,2.48-13.58,8.12-13.58,8.12"/>
                <path class="fm" d="M235.15,92.02s4.82,24.65,9.37,42.04c3.06,11.69,5,21.68,5.15,22.33.42,1.83,1.33,5.52,3.27,12.91,2.75,10.46,4.28,22.66,4.28,22.66"/>
                <path class="ge" d="M239.55,176.33l13.4-7.03s17.22-1.5,27.57-6.97"/>
                <path class="fe" d="M206.46,175.56l20.53,2.97c-1.21-10.72-1.87-14.8-1.87-14.8"/>
                <path class="de" d="M278.73,56.38l-15.38,7.82s8.63,2.6,34.7,7.58"/>
                <path class="fr" d="M279.62,57.87s2.39,10.61,6.1,33.13"/>
                <line class="dw" x1="240.57" y1="53.4" x2="259.38" y2="63.94"/>
                <path class="fo" d="M213.07,147.87s3.23.42,6.86,1.1c1.66.31,5.07.95,5.07.95,8.2,6,16.02,11.63,25.81,18.97"/>
                <line class="fz" x1="178.97" y1="127.9" x2="176.68" y2="144.73"/>
                <line class="fb" x1="180.13" y1="127.3" x2="196.81" y2="153.4"/>
                <polyline class="fy" points="198.13 157.08 205.39 173.92 181.19 169.12 196.31 155.99"/>
                <line class="et" x1="164.02" y1="108.23" x2="151.33" y2="129.32"/>
                <line class="fk" x1="321.31" y1="49.55" x2="320.31" y2="61.37"/>
                <polyline class="df" points="315.52 20.89 321.48 48.2 301.78 30.7"/>
                <polyline class="db" points="322.97 47.66 343.54 26.43 321.25 60.46"/>
                <path class="eo" d="M299.06,71.21s9.57,6.02,17.46,17.46"/>
                <path class="fx" d="M287.36,43.37c-.29.43-7.05,11.66-7.05,11.66"/>
                <line class="gf" x1="300.31" y1="31.27" x2="288.66" y2="42.03"/>
                <path class="du" d="M159.34,59.92c.2.04,12.09,3.74,12.09,3.74l8.09-33.42"/>
                <line class="ga" x1="282.05" y1="121.95" x2="297.5" y2="111.58"/>
                <line class="dx" x1="279.6" y1="123.49" x2="260.72" y2="126.94"/>
                <line class="dg" x1="286.54" y1="94.86" x2="281.07" y2="121.62"/>
                <line class="ec" x1="167.72" y1="109.54" x2="178.87" y2="125.18"/>
                <polyline class="el" points="260.29 127.24 243.49 88.56 261.38 64.6"/>
                <polyline class="es" points="240.57 118.03 226.61 120.85 244.34 134.06"/>
                <path class="fn" d="M205.47,111.76l.58,16.45.33-.19,10.39-26.04,9.84,18.86-20.15,7.79,6.61,19.23c-3.52-2.34-26.59-17.77-32.02-21.37"/>
                <polyline class="da" points="234.28 90.44 222.04 84.57 228.44 64.39 205.05 60.07"/>
                <line class="dd" x1="180.35" y1="125.87" x2="206.06" y2="128.21"/>
                <line class="ee" x1="216.78" y1="101.99" x2="205.3" y2="111.32"/>
                <line class="dt" x1="240.77" y1="54.87" x2="243.14" y2="87.19"/>
                <polyline class="ev" points="290.91 138.71 261.12 147.26 253.12 168.78"/>
                <line class="dc" x1="280.87" y1="123.73" x2="261.12" y2="147.26"/>
              </g>
              <g>
                <path class="gv" d="M323.84,64.46c-.44-.29-1.01-2.17-.1-3.38.32-.43-1.57-.85-1.81-1.5-.06-.16-.7.07-1.12,0-.71-.14-2.17-.16-2.63-.18-.79-.04-.22,1.66-.72,2.44s-.15,1.74.55,2.43c.47.46.82,2.53,1.38,2.25.35-.18,1.47-1.28,1.97-1.49.85-.36,3.04-.18,2.48-.55Z"/>
                <path class="gx" d="M312.6,173.81l-1.32-1.3c.08-.86-.5-1.65-1.36-1.82-.14-.03-.28-.03-.42-.02l-1.71-1.88s.33,1.52.52,2.46c-.17.19-.3.43-.36.69-.43-.08-.97-.23-.97-.23l.94.89c.02.12.05.24.09.35-.28.37-1.02,1.34-1.09,1.41-.05.05.99-.25,1.87-.52.15.08.31.15.48.18.57.11,1.12-.08,1.51-.45l1.83.23Z"/>
                <path class="hc" d="M180.35,96.89l2.23.87-1.72-1.68c-.05-.26.08-.79-.09-.99l.78-1.43-1.64.88c-.49-.07-1.25-.09-1.56.26l-1.24-.29.87,1.13c-.04.47.14.92.48,1.22l-.62,1.11,1.63-.74c.32-.01.62-.13.86-.33Z"/>
                <path class="hg" d="M290.5,92.62c-.38-.07-.76-.34-1.09-.66-.21-.89-.92-1.62-1.88-1.81-.3-.06-.6-.25-.89-.2-1.12-.9-1.43-2.32-1.42-2.27.93,3.16-1.22,4.21-1.22,4.21.3.16.52.33.68.5-.02.41.06.8.23,1.15-.27.61-.99,1.06-.99,1.06.65-.11,1.31-.1,1.92-.03.23.14.49.25.77.3s.58.05.86,0c.65.18,1.08.35,1.08.35-.37-1.07,1.94-2.6,1.94-2.6Z"/>
                <path class="hc" d="M323.96,48.68c.11-.54.02-1.07-.21-1.53.22-.4.36-.7.29-.69-.1.01-.5-.04-.96-.14-.3-.24-.66-.43-1.07-.51-.17-.03-.33-.05-.5-.05-.42-.27-.67-.5-.67-.5,0,0-.06.33-.14.66-.29.1-.55.26-.77.46-.47-.18-1.04-.48-1.04-.48,0,0,.13.71.33,1.55-.03.1-.07.19-.09.3-.2,1.04.29,2.04,1.15,2.56.5.67.91,1.71.93,1.36.01-.15.22-.57.46-1.01,1.09-.06,2.05-.85,2.27-1.97Z"/>
                <path class="gv" d="M235.29,40.02c.02-.07-1.25-.79-1.29-1.34-.06-.86-.24-1.44-.66-2.13.62-.8,1.62-1.96,1.62-1.96,0,0-1.24.95-2.74.84-.33-.2-.69-.35-1.08-.43-.62-.12-1.22-.05-1.77.15-.56-.05-1.08-.15-1.6-.51-.9-.61,0,.39.33,1.33-.43.45-.74,1.01-.86,1.66-.04.23-.06.45-.06.68-.6.74-1.24,1.4-1.24,1.4.05,0,.67-.15,1.66.13.46.85,1.26,1.5,2.28,1.7.64.12,1.26.05,1.83-.17.7.19,1.26.37,1.42.68.37.7.29-2.09,1.3-2.03,0,0,.68.16.88-.01Z"/>
                <path class="hg" d="M259.75,45.03c-.41-.22-.75-.78-.97-1.19.02-.07.05-.13.06-.2.04-.23.04-.45.03-.68l.85-1.24s-.57.39-1.07.42c-.15-.32-.36-.59-.63-.82-.07-.76-.03-1.83-.03-1.83,0,0-.75.76-1.36,1.25-.39-.03-.77.02-1.11.16-.57-.44-1.51-1.29-1.51-1.29.55.62.87,1.13,1.03,1.55-.5.35-.88.89-1,1.54-.02.08-.02.17-.02.25-1.08.33-2.32.16-.88.47.46.1.75.23.95.36.06.23.06.28.19.48-.12.37-.52.75-.67.85.02-.01-.03.02,0,0,.29-.18.86-.12,1.27-.09.31.26.68.46,1.11.54.13.03.27.03.4.04.41.54,1.05,1.72,1.03,1.29-.01-.37.17-1.18.25-1.62.28-.16.52-.37.72-.63.74.18,1.86.64,1.38.37Z"/>
                <path class="gx" d="M253.65,45.25c-.07.04-.06.04,0,0h0Z"/>
                <path class="gu" d="M264.49,65.8c.42-.1,2.99-.51,2.99-.51,0,0-2.39-.85-2.67-1.21.21-.55,1.22-1.13,1.22-1.13-.22.09-1.11-.14-2-.42-.37-.36-.84-.62-1.38-.73-.26-.05-.52-.05-.78-.03-.51-.29-1.19-.91-1.19-.91,0,0,.21.64.1,1.26-.44.25-.8.62-1.04,1.07-1.5.34-2.71-.64-2.71-.64,0,0,1.59,1.41,2.42,2.29.06.4.19.77.4,1.1-.21.64-.78,1.55-.78,1.55,0,0,.94-.5,1.83-.62.22.11.45.21.71.26.16.03.32.04.48.04.82.72,1.53,2.35,1.35,1.49-.16-.71.11-1.53.4-2.1.26-.21.48-.47.65-.77Z"/>
                <path class="gt" d="M281.74,56.99c.11-.18.2-.39.25-.61l1.4-.06s-.84-.55-1.48-1.05c-.14-.38-.39-.72-.73-.95,0-.52.41-1.19.42-1.23,0,0-.63.43-1.28.91-.77-.1-1.34.04-1.74.67-.4-.09-.9-.08-.99-.1-.12-.04.26.34.63.75-.03.08-.06.17-.08.26-.07.34-.03.68.07.99-.44.38-1.04.71-1.04.71,0,0,.87,0,1.5.05.22.23.5.4.82.5.19.5.68,2.63.68,2.63,0,0-.04-1.95-.09-2.53.28,0,.54-.06.78-.17.77.22,2.39,1.47,1.97,1.09-.28-.25-.96-1.41-1.1-1.86Z"/>
                <path class="gu" d="M300.25,72.68c.65.04,1.61.28,1.5.22-.11-.06-.54-.8-.8-1.38.05-.29.02-.57-.06-.83.37-.44,1.41-1.12,1.41-1.12,0,0-1.14.13-2.11.15-.2-.14-.44-.25-.7-.3s-.54-.04-.79.02c-.63-.39-1.11-1.13-1.11-1.13l.68,1.3c-.22.12-.41.28-.56.47l-.7-.24.4.81c-.02.07-.05.14-.06.21-.03.15-.03.3-.03.45l-3.42-.35s3.23,1.11,3.65,1.15c.09.16.2.3.33.43-.1.67-.48,2.03-.48,2.03,0,0,1.28-1.01,1.96-1.54.33-.04.64-.16.89-.36Z"/>
                <path class="hg" d="M202.39,47.32c.19-.25.33-.54.4-.86l1.97-1.46h-2.12c-.14-.29-.34-.55-.58-.76l.73-3.27-2.51,2.75c-.35.05-.69.17-.98.37l-2.26-1.19,1.49,2.12c-.07.16-.13.32-.17.5-.24,1.23.56,2.42,1.79,2.66.32.06.64.05.94-.02l1.13,1.06.16-1.9Z"/>
                <path class="hf" d="M203.79,60.75l1.93.77-.25-1.37-.3-.46c-.01-.62-.33-1.2-.83-1.54l-.8-1.8-.62,1.51c-.75.14-1.07.67-1.22,1.46-.01.06.06.91.46,1.13l-.82,2.37s2.07-1.82,2.46-2.07Z"/>
                <path class="gt" d="M211.72,16.66l2.67,2.2-1.65-3.42c.1-.21.18-.43.22-.67s.05-.48.04-.71h2.06s-2.25-.91-2.25-.91c-.35-.94-1.16-1.68-2.22-1.88-.14-.03-.27-.03-.41-.04l-.97-2.17-.52,2.47c-.81.4-1.43,1.15-1.61,2.1-.09.45-.06.9.05,1.32l-1.7,2.52,2.58-1.06c.22.21.48.38.76.51l.1,3.16,1.4-2.91c.52-.04,1.02-.22,1.44-.51Z"/>
                <path class="hf" d="M244.48,29.84l2.52,1.81-.38-3.24c.13-.24.24-.5.3-.79.01-.07.01-.13.02-.2l.96-.54-.98-.34c-.19-.93-.85-1.72-1.77-2.06l-.22-1.75-.58,1.59c-.93-.06-1.8.35-2.35,1.05l-1.88-.04,1.32,1.22s0,0,0,0c-.09.46-.05.91.08,1.32l-.69,2.19,1.74-.71c.31.22.67.39,1.08.47.28.05.56.05.83.02Z"/>
                <path class="hg" d="M158.55,159.96l-.22-2.24c.26-.18.49-.4.7-.65l1.6.17-.82-1.72s.02-.06.03-.09c.05-.26.07-.53.06-.79l1.03-1.46-1.45-.09c-.34-.65-.86-1.18-1.52-1.53l-.98-4.28-1.56,3.97c-.36.09-.71.24-1.02.43l-2.73-1.1,1.81,1.94c-.34.44-.6.95-.72,1.53-.04.2-.05.39-.05.58l-1.7.9,1.92.33c.11.52-.11-.05.21.36l-1.13,1.42,1.82-.3c.3.28.65.52,1.04.69l-.23,1.5,1.4-1.23c.46.03.9-.02,1.32-.15l1.18,1.79Z"/>
                <path class="gv" d="M177.82,147.07l3.31.72-2.89-1.91c-.17-.78-.35-.99-1.11-1.33v-2.45s-1.42,2.41-1.42,2.41c-.61.22-1.09.74-1.22,1.42-.02.13-.04.25-.03.38l-1.17,1.19,1.7-.13c.27.36.54.57,1.02.66s1.6.07,1.81-.95Z"/>
                <path class="hf" d="M282.85,163.02l1.38.04-1.17-1.13c-.04-.24-.12-.47-.26-.67l.03-2.24-1.35,1.53c-.61,0-1.16.33-1.45.85l-.65-.14.46.69c-.03.22-.02.44.03.64l-1.33.8,1.69-.12c.23.26.54.45.9.52.1.02.19.03.29.03l.61.88.21-1.09c.24-.14.44-.33.59-.57Z"/>
                <path class="gt" d="M182.09,171.08c.08-.08.15-.17.21-.26l2.64-.87-2.33-.73c-.03-.14-.09-.27-.15-.4l1.57-2.04-2.32,1.22c-.19-.12-.4-.21-.64-.25-.64-.12-1.27.08-1.71.49l-3.39-.86,2.75,2.31c0,.93.65,1.75,1.59,1.94.03,0,.07,0,.1,0l1.23,1.47.43-2.02Z"/>
                <path class="gt" d="M152.78,130.79l1.89-.61-1.95-.49c-.09-.25-.22-.48-.4-.68l.44-1.98-1.15,1.48c-.12-.05-.24-.08-.36-.11-1.07-.21-2.1.49-2.31,1.56s.49,2.1,1.56,2.31c.11.02.21.03.31.03l.73,1.18.14-1.35c.54-.25.95-.73,1.1-1.34Z"/>
                <path class="gu" d="M175.71,66.29l-1.96-2.69-1.3-4.02c-.03.05-.57,1.23-.96,2.05-.68,0-1.31.36-1.68.93l-1.33.16,1.05.5s-.01.04-.02.06c-.08.42-.03.83.13,1.2l-.91,1.26,1.79-.3c.19.1.39.19.61.23.6.12,1.18-.05,1.63-.39l2.95,1.01Z"/>
                <path class="gu" d="M159.92,60.77l3.04.25s-2.2-.71-2.65-1.01c.07-.42-.05-.82-.3-1.13.2-.57.45-1.27.45-1.27l-1.42.74c-.72-.07-1.4.41-1.54,1.14-.12.64.2,1.25.75,1.54l-.19.93.79-.77c.41.02.79-.14,1.07-.42Z"/>
                <path class="gx" d="M284.59,26.56c.08-.05.15-.12.23-.18l1.74,1.04-1.12-1.76c.16-.27.28-.56.35-.89.1-.51.04-1.01-.12-1.47l.73-2.88-2.62,1.14c-.06-.02-.12-.04-.19-.06-1.2-.23-2.36.35-2.94,1.35l-5.65,1.85,5.35.2c.09.39.04.44.28.75l-1.63,1.96c.07.01,1.64-.59,2.64-.98.27.16.56.28.88.34.17.03.35.05.52.05l1.72,2.19-.16-2.65Z"/>
                <path class="hg" d="M321.06,89.02l-2.16-.44c-.19-.35-.52-.63-.92-.75l-.85-1.56-.2,1.59c-.13.05-.25.12-.36.2l-.9-.92.53,1.29c-.12.18-.22.38-.26.61,0,0,0,.02,0,.03l-1.06.62,1.09.06c.05.19.13.36.24.52l-.44,1.12,1.34-.5s.06.02.09.03c.71.14,1.39-.22,1.71-.82l2.15-1.07Z"/>
                <path class="gv" d="M153.77,82.18c.32-.21.6-.49.82-.81l1.54.47-1.06-1.62c.1-.5.05-.99-.08-1.44l.93-.76-1.34-.12c-.08-.11-.16-.21-.25-.31l.03-1.3-1.09.53c-.17-.07-.35-.12-.53-.16l.31-1.46-1.3,1.41c-.51.05-.99.22-1.4.5l-1.47-.26.61,1.17c-.2.31-.34.66-.42,1.04-.32,1.66.76,3.27,2.42,3.59.29.06.58.06.87.03l2.54,2.41-1.11-2.91Z"/>
                <path class="gv" d="M303.6,32.23s-.36-.59-.63-1.06c0,0,0,0,0,0,.22-1.14-1.97-3.02-3.11-3.24s-.81,1.29-1.03,2.43c-.08.4.07.8.34,1.17l-.32,1.19s.73-.27,1.3-.3c.39.24.81.43,1.18.5.79.15,1.16-.21,1.39-.82l.87.13Z"/>
                <path class="gv" d="M289.24,43.69l1.26.34-.8-1.62c-.02-.25-.09-.48-.22-.69l.19-.61-.71.06c-.17-.11-.37-.19-.58-.24-.09-.02-.18-.02-.28-.03l-.57-.67-.19.84c-.44.22-.78.63-.88,1.15s.06,1.03.39,1.4l-.04.86,1.15-.32c.1,0,.21,0,.31,0l.5.79.13-1.01c.12-.07.23-.15.32-.25Z"/>
                <path class="hg" d="M168.87,103.8c-.02-.2-3.66,1.26-5.04.16,0,0-.81,3.45-1.26,3.64,0,0,1.96,1.7,2.34,2.95,0,0,2.01-1.37,2.9-.99,0,0,1.43-2.16,1.06-5.76Z"/>
                <path class="gv" d="M180.87,34.49s-.03-1.94.09-2.01l2.9.23-1.47-1.93c.04-.12.09-.24.11-.37.07-.37.06-.74,0-1.09l1.09-1.19-1.68-.12c-.12-.15-.25-.3-.4-.42l.62-1.22-1.34.75c-.21-.09-.42-.17-.65-.21-.45-.09-.89-.06-1.31.05l-1.89-1.41.45,2.26c-.37.4-.64.89-.76,1.47-.02.1-.02.19-.03.29l-1.07,1.8,1.35-.24c.12.25.28.48.46.69l-.59,1.63,1.32-1.03c.14.08.29.16.45.22l2.36,1.85Z"/>
                <path class="gx" d="M282.22,123.67c.12-.18.2-.38.25-.6s.04-.42,0-.62l.59-1-1.08.12c-.1-.1-.22-.18-.35-.24l-.15-1.36-.71,1.18s-.06,0-.09,0c-.09.01-.18.03-.27.06-.63-.39-1.87-1.2-1.87-1.2l.72,2.45c-.17.89.41,1.74,1.29,1.91.25.05.5.02.73-.04l1.19.88-.25-1.53Z"/>
                <path class="hc" d="M226.12,164.31l1.21-.08-1.06-.62c-.05-.39-.31-.72-.69-.86l-.51-1.01c-.01.07-.16.68-.23,1.01-.15.06-.29.15-.4.27l-.84.15.57.32s-.02.04-.03.07c-.04.19,0,.38.06.56-.35.29-.76.65-.7.66.07.01.71-.13,1.02-.2.11.09.23.16.38.21l.56.64.19-.68c.2-.09.38-.22.49-.41Z"/>
                <path class="gx" d="M199.54,156.5l1.49.03-1-1.12,1.61-2.17-2.11.59c-.36-.57-.94-1.01-1.66-1.15-.26-.05-.51-.05-.76-.02l-2.06-2.24,1.12,2.53c-.3.17-.57.39-.78.66l-1.52-.17,1.02,1.26c-.11.58,0,1.15.26,1.64l-.18.95,1.08.02c.26.16.54.28.86.35.34.07.69.06,1.01,0l.99.79.22-1.42c.16-.15.31-.33.43-.53Z"/>
                <path class="hg" d="M262.51,147.62s.02-.05.02-.08c.02-.09.02-.17.02-.26l1.28-.76s-.92.15-1.39.23c-.06-.13-.14-.26-.24-.37.07-.28.17-.61.17-.61,0,0-.35.16-.61.28-.1-.05-.21-.09-.33-.11-.49-.09-.96.09-1.27.43-.27-.04-.99-.58-.99-.58l.69,1.15s-.02.05-.03.08c-.11.57.16,1.13.63,1.42l-.11,1.18,1.19-1.03c.16-.05.31-.12.45-.22l.7.29-.2-1.04Z"/>
                <path class="gu" d="M293.42,139.74c.23-.19.43-.43.58-.7l3.1-.99-2.89-.86c-.13-.46-.4-.86-.76-1.17l-.44-2.03-.96,1.46c-.44-.03-.87.05-1.25.24l-1.31-1.13.09,2.48c-.04.12-2.2-.58-2.2-.58l2.15,2.05c-.1.95.9,1.37,1.15,1.51l-.07,1.11.71-.86s.05.02.07.02c.28.06.56.05.83,0l1.53,1.23-.34-1.76Z"/>
                <path class="hf" d="M301.13,111.38c.03-.08.06-.17.08-.26l3-.92-2.96.08c-.03-.17-.07-.33-.14-.48l.84-1.62-1.72.67c-.19-.1-.38-.19-.6-.23-.48-.09-.95,0-1.34.21l-1.35-.98.55,1.74c-.12.2-.21.41-.25.64-.19.99.37,1.95,1.29,2.3l-.22,2.1,1.18-1.99c.43-.05.82-.24,1.13-.52l2.38.37-1.88-1.09Z"/>
                <path class="gx" d="M193.06,78.67l1.17.26-.27-1.02c.07-.13.13-.27.16-.43.12-.63-.15-1.24-.64-1.58l-.06-.7s-.26.26-.48.47c-.02,0-.04-.01-.06-.02-.15-.03-.3-.03-.44-.01-.22-.33-.53-.82-.56-.86l.24.92c-.22.07-.42.18-.59.34l-.38-.12v.62c-.04.11-.08.23-.1.35-.01.06-.01.12-.02.19l-.66.18.73.41c.05.16.13.31.23.45l-.11.83.92-.27c.05.02.1.04.15.05.27.05.54.03.79-.06Z"/>
                <path class="gu" d="M205.27,89.38l3.25-1.42s-2.31.23-3.5.13c-.18-.2-.41-.36-.69-.41-.24-.05-.47,0-.69.08-.54-.31-1.26-.77-1.26-.77l.59,1.33c-.07.12-.13.24-.16.38-.12.64.26,1.24.86,1.45l.49,1.97.59-2.07c.24-.15.42-.38.52-.66Z"/>
                <path class="gx" d="M267.49,105.42c.29.2.75.53.75.53l-.21-1.02c.07-.12.14-.25.16-.4.04-.23,0-.44-.06-.64l.46-1.02s-.5.36-.89.41c-.15-.11-.32-.2-.51-.24-.24-.05-.47,0-.68.08-.22-.07-.52-.15-.52-.15,0,0,0,.25-.02.54-.13.16-.23.33-.27.54-.03.18-.03.09,0,.25-.24.28-.88.79-.88.79,0,0,.8.14,1.31.15.16.14.34.25.56.29.27.05.54,0,.77-.12Z"/>
                <path class="gx" d="M226.29,150.2c-.02.1-.05.19-.1.28s.63.63.56.7c-.09.08-.93-.33-1.05-.29-.07.03-.22.84-.3.85s-.1-.8-.18-.81c-.49-.1-.81-.57-.72-1.06.02-.09-2.34-.36-2.3-.44s2.48.04,2.54-.03c.08-.08.18-.15.29-.2.16-.07.45-.92.64-.88s.24.95.36,1.07c.21.21.31.51.25.82Z"/>
                <path class="hc" d="M243.48,54.91s-.4-.5-.57-1.01c0-.02.01-.03.01-.04.05-.25.04-.49.01-.73.25-.55.9-1.12.9-1.12,0,0-.4.12-1.36.01-.33-.43-.81-.76-1.39-.87-.38-.07-.75-.04-1.09.06-.84-.39-1.54-.78-1.54-.78,0,0-.64,1.92-1.55,2.09-.91.17,1.11.54,1.11.54,0,0,1.03,2.29.42,2.59,0,0,.4-.19.91-.32.19.13.41.22.64.29l.93,3.14.59-3.22c.25-.1.49-.24.69-.42.54-.01,1.22.08,2.22.53,2.3,1.02-.94-.74-.94-.74Z"/>
                <path class="gx" d="M244.38,90.49l-.34-1.56c.02-.06.06-.11.07-.18.03-.17.02-.34-.04-.5-.02-.07.37-.6.33-.66-.05-.08-.54.32-.61.25-.03-.02-.06-.04-.09-.06l-.62-2.67-.34,2.62c-.05.03-.11.04-.15.07-.06.05-.73-.31-.78-.25-.04.05.55.5.52.56-.04.08-.08.17-.09.27-.1.52.24,1.02.75,1.12.18.03.35,0,.51-.06l.88,1.04Z"/>
                <path class="hc" d="M268.43,83.17c0-1.07-.73-2.03-1.79-2.29-.59-.65-1.18-1.33-1.25-1.8-.1-.68-.06,1-.31,1.95-.62.29-1.1.85-1.28,1.56-.86.77-1.87,1.59-1.87,1.59,0,0,1.27-.02,2.13.18.22.38.56.69.96.89l.83,2.25.92-2.1c.42-.13.8-.37,1.09-.71.56.04,1.17.14,1.85.37,0,0-.67-1-1.27-1.9Z"/>
                <path class="gx" d="M244.9,135.2c.06-.02.12-.04.18-.07l.91.6-.67-.78c.19-.17.34-.39.4-.66.02-.09,0-.17,0-.26l.53-.54-.81-.23c-.18-.21-.41-.37-.7-.43,0,0,0,0-.01,0l-.55-.99-.19,1.1c-.12.05-.22.12-.31.21l-.7-.16.37.67c-.02.05-.05.1-.06.16-.03.13-.01.26,0,.38l-.41.79.63-.21c.18.25.44.43.76.49.07.01.14,0,.21,0l.71.97-.26-1.04Z"/>
                <path class="gx" d="M216.84,103.02c.09,0,.17,0,.25-.01l.89,1.12-.34-1.48c.11-.13.19-.27.22-.45.03-.16.02-.31-.02-.46l1.2-1.07-1.91.34s-.05-.03-.08-.03c-.2-.04-.39,0-.56.07l-.75-.26.23.69c-.06.1-.11.2-.13.32-.09.47.16.91.57,1.11l-.22.68.65-.58Z"/>
                <path class="gv" d="M206.13,111.66c-.11.57-.58.98-1.13,1.04-.13.01-1.05.35-1,.23s.27-.35.13-.45c-.28-.19-.48-.5-.55-.83-.03-.16-.44-.45-.41-.62.02-.09.45-.04.49-.13.04-.1.1-.19.16-.27.09-.12.07-1.65.19-1.73,0,0,.38,1.07,1.09,1.23s1.16.82,1.03,1.52Z"/>
                <path class="gt" d="M230.84,62.18l-1.61.77c-.13-.06-.26-.11-.4-.14-.81-.16-1.59.32-1.85,1.08l-2.31-.17,2.25,1.06c.1.46.41.86.83,1.08l-.25,1.79,1.23-1.62c.67-.09,1.24-.6,1.38-1.3.07-.34.02-.68-.12-.98l.84-1.56Z"/>
                <path class="gv" d="M254.9,168.24c-.3-.53-.82-.93-1.46-1.05-.17-.03-.33-.04-.5-.03l-1.13-2.43-.35,3.09c-.28.29-2.5-.39-2.5-.39l1.83,1.67c-.33.05-.68.11-.68.11,0,0,.5.36.82.59,0,.06,0,.1,0,.13l-1.38,1.32,3.05.22,1.46,2.2,1.09-3.92,3.64-1.14-3.9-.36Z"/>
                <path class="gu" d="M261.16,127.41c-.09.44-.54.81-.96.64-.71-.27-1.06-.11-1.17-.28-.08-.12.53-.31.52-.45,0-.07,0-.15.01-.22.09-.44.51-.73.96-.64.16.03.29.1.4.21s.74,0,.78.14c.03.12-.52.49-.54.61Z"/>
                <path class="gt" d="M235.94,92.27c.18-.2.31-.45.36-.74.02-.1.03-.2.03-.29l1.62-1.06-2.14-.13c-.21-.19-.47-.34-.77-.4-.38-.07-.75,0-1.06.17l-1.65-.37.92,1.16c-.04.1-.07.2-.09.3-.04.23-.04.45.01.66l-.93.97,1.35-.2c.22.22.51.39.84.45.1.02.21.03.31.03l1.08,1.9.13-2.46Z"/>
                <path class="gx" d="M223.62,85.44l-.9-.75c0-.28-.13-.54-.34-.72l.29-1.51-1.02,1.28c-.39.04-.72.31-.83.71l-1.58.93h1.84c.13.14.29.25.48.29.32.06.62-.05.84-.26l1.21.02Z"/>
                <path class="hc" d="M241.22,118.83c.27-.19.47-.47.54-.82,0-.04,0-.08,0-.12l1.35-1.27-1.64.31c-.15-.18-.34-.31-.57-.39l-.68-1.66-.34,1.73c-.34.18-.61.49-.69.89-.01.07,0,.14,0,.22l-1.74,1.04,2.11-.09c.18.18.39.32.66.37.02,0,.04,0,.05,0l1.35,2.28-.41-2.49Z"/>
                <path class="hf" d="M213.87,148.59l2.96-.17-2.5-.54s.01-.04.01-.06l1.64-.9-1.77.27c-.11-.2-.27-.37-.49-.47-.06-.03-.13-.03-.2-.04l-1.04-.93.24,1.06c-.1.06-.18.13-.26.22l-1.91-.85,1.66,1.45c0,.12,0,.23.04.34l-1.65,1.26,2.44-.5c.29.06.57.01.81-.14Z"/>
                <path class="hc" d="M181.08,128.62l-.25-1.41c.07-.1.13-.2.18-.32l1.56.56s-.8-.92-1.41-1.31c0-.22-.05-.43-.13-.63.4-.31.97-.8.97-.8l-1.49.11c-.22-.18-.48-.32-.78-.37-.17-.03-1.78-.89-1.95-.87,0,0,.84.84.37,1.31-.2.2-.37.48-.47.88l-2.63,1.19,2.96.32c.13.16.28.3.45.41l.45,1.73.54-1.47c.18,0,.35-.04.51-.1l1.11.77Z"/>
                <path class="hc" d="M207.57,128.61c.02-.11,0-.22,0-.32l1.05-.43-1.28-.15c-.08-.1-.17-.18-.27-.25l-.04-1.14-.49.98c-.09,0-.18-.01-.27,0l-.18-1.42-.3,1.66c-.12.1-.22.23-.29.38l-1.43.11,1.32.59c.09.43.42.78.87.86,0,0,.02,0,.03,0l.99,1.42-.24-1.56c.26-.16.46-.41.53-.73Z"/>
                <path class="gu" d="M227.99,121.16c.02-.08,0-.16,0-.25l2.44-.79-2.66-.11c-.23-.36-.59-.63-1.03-.72-.23-.05-.46-.03-.68.02l-1.05-1.72-.14,2.95-1.37,1.76,1.87-.31c.21.19.45.35.76.41.01,0,.02,0,.03,0l.44,1.49.5-1.64c.12-.06.23-.13.33-.21l1.82.83-1.37-1.46c.04-.09.09-.17.11-.27Z"/>
              </g>
              <g>
                <rect class="gs" x="190.96" y="112.59" width="10.14" height="8.43" transform="translate(25.89 -35.26) rotate(11)"/>
                <rect class="gs" x="253.23" y="145.54" width="13.17" height="7.48" transform="translate(33.26 -46.83) rotate(11)"/>
                <ellipse class="gs" cx="217.65" cy="98.1" rx="24.35" ry="29.57" transform="translate(79.82 293.03) rotate(-79)"/>
                <ellipse class="gs" cx="247.82" cy="123.71" rx="23.91" ry="30.62" transform="translate(79.09 343.37) rotate(-79)"/>
                <path class="go" d="M186.49,124.29c-.29-.06-.57-.12-.84-.2-1.34-.37-2.38-1.44-2.7-2.79-.33-1.35.1-2.78,1.13-3.73,4.17-3.86,6.05-6.22,6.69-7.31-4.21-5.54-5.87-11.92-4.67-18.07,2.66-13.69,18.8-22.11,35.98-18.77,17.18,3.34,28.99,17.19,26.33,30.89s-18.8,22.11-35.98,18.77c-1.99-.39-3.96-.93-5.84-1.6-.83-.05-3.48.61-5.42,1.09-4.62,1.15-10.29,2.56-14.66,1.71ZM221.06,78.64c-14.3-2.78-27.64,3.75-29.75,14.57-.95,4.88.55,10.03,4.22,14.51,1.97,2.4.49,5.63-5.47,11.5,3.04-.12,6.83-1.06,9.81-1.81,4.32-1.08,6.65-1.61,8.39-.98,1.66.6,3.41,1.08,5.17,1.43,14.3,2.78,27.64-3.75,29.75-14.57,2.1-10.81-7.82-21.87-22.12-24.65Z"/>
                <path class="gn" d="M266.24,159.97c-4.37-.85-9.11-4.29-12.96-7.08-1.62-1.18-3.83-2.78-4.62-3.04-2-.08-4.02-.32-6.02-.7-10.69-2.08-19.68-8.26-24.03-16.53-.68-1.3-.19-2.91,1.11-3.59,1.3-.69,2.91-.19,3.59,1.11,3.61,6.86,11.22,12.02,20.34,13.79,1.77.34,3.56.55,5.33.62,1.86.07,3.82,1.44,7.42,4.05,2.49,1.81,5.65,4.1,8.43,5.35-3.33-7.68-3.5-11.22-.77-12.71,5.08-2.78,8.4-6.99,9.34-11.87,1.98-10.17-6.85-20.8-20.1-24.19-1.42-.36-2.28-1.81-1.92-3.24.36-1.42,1.82-2.28,3.24-1.92,15.97,4.09,26.52,17.43,24,30.36-1.2,6.15-5.12,11.44-11.1,15,.19,1.25,1.05,4.14,3.47,9.28.59,1.26.46,2.75-.35,3.88-.81,1.13-2.17,1.73-3.55,1.57-.28-.03-.57-.08-.86-.13Z"/>
                <g>
                  <path class="gq" d="M253.31,105.16c13.25,3.4,22.08,14.02,20.1,24.19-.8,4.1-3.28,7.74-7.07,10.44,4.33-2.76,7.16-6.64,8.02-11.08,1.98-10.17-6.85-20.8-20.1-24.19-1.42-.36-2.28-1.81-1.92-3.24.12-.46.36-.85.66-1.17-.77.3-1.4.95-1.62,1.81-.37,1.42.49,2.87,1.92,3.24Z"/>
                  <path class="gq" d="M264.32,141.08c-.09.05-.17.1-.26.15-2.55,1.39-2.57,4.59.16,11.27,1.12,3.09,1.94,1.7,2.45,1.93-3.01-6.94-4.31-11.63-2.35-13.35Z"/>
                  <path class="gq" d="M268.05,159.46c-.28-.03-.57-.08-.86-.13-4.37-.85-9.11-4.29-12.96-7.08-1.62-1.18-3.83-2.78-4.62-3.04-2-.08-4.02-.32-6.02-.7-10.69-2.08-19.68-8.26-24.03-16.53-.54-1.03-.33-2.25.43-3.06-.09.04-.18.06-.27.11-1.3.68-1.8,2.29-1.11,3.59,4.36,8.28,13.34,14.46,24.03,16.53,1.99.39,4.02.62,6.02.7.79.26,2.99,1.87,4.62,3.04,3.85,2.8,8.58,6.23,12.96,7.08.29.06.57.1.86.13,1.11.13,2.21-.25,3.02-.99-.63.3-1.34.43-2.06.34Z"/>
                </g>
                <circle class="hd" cx="204.07" cy="96.3" r="3.48"/>
                <path class="gq" d="M204.37,99.08c-1.89-.37-3.12-2.2-2.75-4.08.14-.74.52-1.37,1.02-1.85-.99.45-1.76,1.35-1.98,2.5-.37,1.89.87,3.72,2.75,4.08,1.15.22,2.27-.15,3.06-.9-.64.29-1.36.4-2.1.25Z"/>
                <circle class="he" cx="217.13" cy="98.84" r="3.48"/>
                <circle class="gr" cx="230.19" cy="101.38" r="3.48"/>
                <path class="gq" d="M217.42,101.63c-1.89-.37-3.12-2.2-2.75-4.08.14-.74.52-1.37,1.02-1.85-.99.45-1.76,1.35-1.98,2.5-.37,1.89.87,3.72,2.75,4.08,1.15.22,2.27-.15,3.06-.9-.64.29-1.36.4-2.1.25Z"/>
                <path class="gq" d="M230.48,104.16c-1.89-.37-3.12-2.2-2.75-4.08.14-.74.52-1.37,1.02-1.85-.99.45-1.76,1.35-1.98,2.5-.37,1.89.87,3.72,2.75,4.08,1.15.22,2.27-.15,3.06-.9-.64.29-1.36.4-2.1.25Z"/>
                <g class="ha">
                  <path class="gp" d="M244.94,102.8c2.1-10.81-7.82-21.87-22.12-24.65-5.58-1.09-11.01-.75-15.69.71,4.26-1.03,9.04-1.17,13.94-.22,14.3,2.78,24.22,13.84,22.12,24.65-1.28,6.59-6.74,11.59-14.05,13.86,8.18-1.98,14.43-7.24,15.81-14.35Z"/>
                  <path class="gp" d="M214.18,122.59c-1.99-.39-3.96-.93-5.84-1.6-.83-.05-3.48.61-5.42,1.09-4.62,1.15-10.29,2.56-14.66,1.71-.29-.06-.57-.12-.84-.2-1.34-.37-2.38-1.44-2.7-2.79-.33-1.35.1-2.78,1.13-3.73,4.17-3.86,6.05-6.22,6.69-7.31-4.21-5.54-5.87-11.92-4.67-18.07,1.66-8.56,8.6-15.06,17.76-17.91-10.02,2.54-17.75,9.3-19.52,18.4-1.2,6.15.46,12.53,4.67,18.07-.64,1.09-2.52,3.45-6.69,7.31-1.02.95-1.45,2.38-1.13,3.73.33,1.35,1.37,2.42,2.7,2.79.28.08.56.14.84.2,4.37.85,10.05-.56,14.66-1.71,1.95-.48,4.59-1.14,5.42-1.09,1.89.67,3.85,1.21,5.84,1.6,6.44,1.25,12.73.85,18.22-.86-5.06,1.28-10.7,1.49-16.47.37Z"/>
                </g>
              </g>
            </g>
            <rect class="ep" x="137.6" y="15.46" width="178.35" height="249.12" rx="14.15" ry="14.15" transform="translate(30.88 -40.7) rotate(11)"/>
          </g>
          <g>
            <g class="gz">
              <rect class="gs" x="-4.01" y="9.26" width="195.33" height="266.1"/>
              <g>
                <g>
                  <path class="gt" d="M60.27,35.36h-1.83v-1.05h1.83c.3,0,.54-.05.73-.15s.32-.24.41-.41c.09-.17.13-.37.13-.6s-.04-.42-.13-.61c-.09-.19-.23-.34-.41-.46s-.43-.18-.73-.18h-1.39v6.04h-1.34v-7.1h2.73c.55,0,1.02.1,1.42.29.39.2.69.47.9.81.21.35.31.74.31,1.18s-.1.85-.31,1.19c-.21.33-.51.59-.9.77s-.86.27-1.42.27Z"/>
                  <path class="gt" d="M65.28,30.85v7.1h-1.34v-7.1h1.34ZM68.45,36.89v1.05h-3.57v-1.05h3.57Z"/>
                  <path class="gt" d="M72.26,31.92l-2.02,6.02h-1.42l2.65-7.1h.91l-.12,1.08ZM73.86,35.31v1.06h-3.81v-1.06h3.81ZM73.95,37.95l-2.03-6.02-.12-1.08h.91l2.67,7.1h-1.42Z"/>
                  <path class="gt" d="M80.75,30.85v1.06h-5.72v-1.06h5.72ZM78.54,30.85v7.1h-1.34v-7.1h1.34Z"/>
                  <path class="gt" d="M87.25,34.22v.37c0,.54-.07,1.02-.21,1.45-.14.43-.35.79-.61,1.09-.26.3-.58.53-.94.69-.36.16-.77.24-1.21.24s-.84-.08-1.21-.24c-.37-.16-.68-.39-.95-.69-.27-.3-.47-.66-.62-1.09-.15-.43-.22-.91-.22-1.45v-.37c0-.54.07-1.02.22-1.45.15-.43.35-.79.61-1.09.26-.3.58-.53.94-.69s.77-.24,1.21-.24.85.08,1.21.24c.36.16.68.39.94.69.26.3.47.66.61,1.09s.22.91.22,1.45ZM85.89,34.58v-.38c0-.39-.04-.73-.11-1.02-.07-.29-.18-.54-.32-.74-.14-.2-.31-.35-.52-.46-.21-.1-.44-.15-.69-.15s-.49.05-.69.15c-.2.1-.37.25-.51.46s-.25.45-.32.74-.11.63-.11,1.02v.38c0,.38.04.72.11,1.02.07.3.18.55.32.75.14.2.31.36.51.46.2.1.43.16.69.16s.49-.05.69-.16c.2-.1.37-.26.51-.46.14-.2.24-.45.31-.75.07-.3.11-.64.11-1.02Z"/>
                  <path class="gt" d="M94.09,30.85v7.1h-1.35l-3.02-4.93v4.93h-1.34v-7.1h1.34l3.03,4.93v-4.93h1.34Z"/>
                  <path class="gt" d="M96.88,30.85v7.1h-1.34v-7.1h1.34Z"/>
                  <path class="gt" d="M102.48,35.61h1.34c-.04.47-.17.9-.4,1.26s-.54.65-.95.86-.9.31-1.48.31c-.45,0-.85-.08-1.2-.24-.36-.16-.66-.38-.91-.68-.25-.29-.44-.65-.58-1.06s-.2-.88-.2-1.4v-.54c0-.52.07-.98.2-1.4.14-.42.33-.77.59-1.07.25-.29.56-.52.92-.68s.76-.24,1.21-.24c.58,0,1.07.11,1.47.32s.71.5.93.88.35.8.4,1.28h-1.34c-.03-.3-.09-.55-.19-.76-.1-.21-.25-.37-.46-.48-.2-.11-.47-.16-.81-.16-.26,0-.49.05-.69.15-.2.1-.36.24-.49.44s-.23.43-.29.72-.1.62-.1,1v.55c0,.36.03.68.09.97s.15.53.27.73.28.35.48.45c.19.1.43.16.7.16.33,0,.6-.05.8-.16.21-.1.36-.26.47-.46.11-.2.18-.45.21-.75Z"/>
                  <path class="gt" d="M112.34,30.85v1.06h-5.72v-1.06h5.72ZM110.14,30.85v7.1h-1.34v-7.1h1.34Z"/>
                  <path class="gt" d="M115.56,31.92l-2.02,6.02h-1.42l2.65-7.1h.91l-.12,1.08ZM117.16,35.31v1.06h-3.81v-1.06h3.81ZM117.26,37.95l-2.03-6.02-.12-1.08h.91l2.67,7.1h-1.42Z"/>
                  <path class="gt" d="M120.75,30.85v7.1h-1.34v-7.1h1.34ZM123.91,36.89v1.05h-3.57v-1.05h3.57Z"/>
                  <path class="gt" d="M126.15,30.85v7.1h-1.34v-7.1h1.34ZM130.41,30.85l-2.85,3.46-1.63,1.74-.24-1.3,1.13-1.47,1.94-2.43h1.64ZM128.92,37.95l-2.21-3.33.96-.87,2.84,4.19h-1.59Z"/>
                </g>
                <line class="ei" x1="191.32" y1="34.4" x2="146.34" y2="34.4"/>
                <circle class="gt" cx="143.16" cy="34.4" r="3.65"/>
                <line class="ei" x1="-4.01" y1="34.4" x2="40.97" y2="34.4"/>
                <circle class="gt" cx="44.15" cy="34.4" r="3.65"/>
                <g>
                  <rect class="ef" x="22.88" y="73.52" width="141.54" height="167.02"/>
                  <path class="gp" d="M25.08,74.98v8.52h-1.13v-8.52h1.13Z"/>
                  <path class="gp" d="M29.93,77.17v.83h-3.43v-.83h3.43ZM28.58,83.5h-1.08v-7c0-.46.08-.84.25-1.16.17-.31.4-.55.72-.71.31-.16.68-.24,1.11-.24.12,0,.25,0,.38.02.13.02.25.04.37.07l-.06.88c-.08-.02-.17-.03-.28-.04-.1,0-.21-.01-.31-.01-.23,0-.43.05-.59.14-.17.09-.29.23-.38.4-.09.18-.13.39-.13.65v7Z"/>
                  <path class="gp" d="M34.59,77.17l1.64,4.92.28,1.14-.78.4-2.33-6.45h1.18ZM35.89,82.85l1.76-5.68h1.16l-2.54,7.31c-.06.16-.14.32-.23.51-.1.18-.22.35-.37.52-.15.16-.33.3-.54.4-.21.1-.46.16-.75.16-.09,0-.2-.01-.33-.04-.13-.02-.23-.04-.28-.06v-.88s.07,0,.14.01.12,0,.14,0c.25,0,.45-.03.63-.1.17-.06.32-.17.44-.32.12-.15.22-.36.31-.62l.45-1.23Z"/>
                  <path class="gp" d="M39.4,80.41v-.13c0-.46.07-.88.2-1.27s.32-.73.57-1.02c.25-.29.55-.52.91-.68.35-.16.75-.24,1.19-.24s.85.08,1.2.24c.36.16.66.39.91.68s.44.63.58,1.02c.13.39.2.82.2,1.27v.13c0,.46-.07.88-.2,1.27-.13.39-.32.73-.58,1.02s-.55.52-.91.68c-.35.16-.75.24-1.2.24s-.84-.08-1.2-.24c-.35-.16-.66-.39-.91-.68-.25-.29-.44-.63-.58-1.02s-.2-.81-.2-1.27ZM40.49,80.27v.13c0,.32.04.61.11.89s.19.53.34.74c.15.21.34.38.56.51.23.12.49.18.79.18s.56-.06.78-.18c.22-.12.41-.29.56-.51s.26-.46.34-.74.11-.58.11-.89v-.13c0-.31-.04-.61-.11-.89s-.19-.53-.34-.74c-.15-.22-.34-.39-.56-.51-.22-.12-.49-.19-.79-.19s-.56.06-.78.19c-.22.12-.41.3-.56.51-.15.22-.26.46-.34.74s-.11.57-.11.89Z"/>
                  <path class="gp" d="M50.6,80.71h.45c0,.41-.04.8-.13,1.16s-.23.67-.42.93c-.2.26-.45.47-.77.61-.32.15-.7.22-1.15.22-.31,0-.59-.04-.85-.13-.26-.09-.47-.23-.66-.42-.18-.19-.32-.43-.42-.73-.1-.3-.15-.66-.15-1.08v-4.08h1.08v4.1c0,.28.03.52.1.71.06.19.15.33.26.44s.24.18.37.23c.14.04.28.06.43.06.46,0,.82-.09,1.09-.27.27-.18.46-.42.58-.72s.18-.64.18-1.01ZM50.4,82.04v-4.87h1.09v6.33h-1.04l-.05-1.46Z"/>
                  <path class="gp" d="M58.64,82.73c.26,0,.5-.05.71-.16.22-.11.4-.25.54-.44.14-.19.22-.4.24-.64h1.03c-.02.37-.15.72-.38,1.04-.23.32-.54.58-.91.78-.37.2-.79.3-1.23.3-.48,0-.89-.08-1.24-.25-.35-.17-.65-.4-.88-.69-.23-.29-.41-.63-.52-1.01s-.17-.78-.17-1.21v-.25c0-.43.06-.83.17-1.21s.29-.72.52-1.01c.23-.29.52-.52.88-.69.35-.17.77-.25,1.24-.25s.93.1,1.3.3c.37.2.66.47.88.82.21.35.33.74.35,1.17h-1.03c-.02-.26-.09-.5-.22-.71-.13-.21-.3-.38-.51-.51-.22-.13-.47-.19-.76-.19-.33,0-.61.07-.83.2-.22.13-.4.31-.53.53-.13.22-.22.46-.28.73s-.08.54-.08.82v.25c0,.28.03.55.08.82s.15.51.28.73c.13.22.31.39.53.52.22.13.5.2.84.2Z"/>
                  <path class="gp" d="M62.09,80.41v-.13c0-.46.07-.88.2-1.27s.32-.73.57-1.02c.25-.29.55-.52.91-.68.35-.16.75-.24,1.19-.24s.85.08,1.2.24c.36.16.66.39.91.68s.44.63.58,1.02c.13.39.2.82.2,1.27v.13c0,.46-.07.88-.2,1.27-.13.39-.32.73-.58,1.02s-.55.52-.91.68c-.35.16-.75.24-1.2.24s-.84-.08-1.2-.24c-.35-.16-.66-.39-.91-.68-.25-.29-.44-.63-.58-1.02s-.2-.81-.2-1.27ZM63.17,80.27v.13c0,.32.04.61.11.89s.19.53.34.74c.15.21.34.38.56.51.23.12.49.18.79.18s.56-.06.78-.18c.22-.12.41-.29.56-.51s.26-.46.34-.74.11-.58.11-.89v-.13c0-.31-.04-.61-.11-.89s-.19-.53-.34-.74c-.15-.22-.34-.39-.56-.51-.22-.12-.49-.19-.79-.19s-.56.06-.78.19c-.22.12-.41.3-.56.51-.15.22-.26.46-.34.74s-.11.57-.11.89Z"/>
                  <path class="gp" d="M73.29,80.71h.45c0,.41-.04.8-.13,1.16s-.23.67-.42.93c-.2.26-.45.47-.77.61-.32.15-.7.22-1.15.22-.31,0-.59-.04-.85-.13-.26-.09-.47-.23-.66-.42-.18-.19-.32-.43-.42-.73-.1-.3-.15-.66-.15-1.08v-4.08h1.08v4.1c0,.28.03.52.1.71.06.19.15.33.26.44s.24.18.37.23c.14.04.28.06.43.06.46,0,.82-.09,1.09-.27.27-.18.46-.42.58-.72s.18-.64.18-1.01ZM73.08,82.04v-4.87h1.09v6.33h-1.04l-.05-1.46Z"/>
                  <path class="gp" d="M76.99,74.52v8.99h-1.09v-8.99h1.09Z"/>
                  <path class="gp" d="M78.46,80.41v-.12c0-.48.06-.92.18-1.32.12-.4.29-.74.51-1.02.22-.28.48-.5.79-.66.31-.15.65-.23,1.03-.23.4,0,.75.07,1.04.21s.55.34.76.6c.21.26.37.58.49.95.12.37.21.79.25,1.26v.54c-.04.46-.13.88-.25,1.25-.12.37-.29.69-.5.95-.21.26-.46.46-.76.6-.3.14-.65.21-1.05.21-.37,0-.71-.08-1.02-.24-.31-.16-.57-.38-.79-.67-.22-.29-.39-.63-.51-1.02s-.18-.82-.18-1.28ZM79.55,80.29v.12c0,.32.03.61.1.89s.17.52.3.73c.14.21.31.38.52.49.21.12.46.18.75.18.36,0,.65-.08.89-.23.23-.15.42-.35.56-.6.14-.25.25-.52.33-.81v-1.41c-.05-.21-.11-.42-.2-.62-.09-.2-.2-.38-.34-.54-.14-.16-.31-.28-.51-.38-.2-.09-.44-.14-.71-.14-.3,0-.55.06-.76.18-.21.12-.39.29-.52.5-.14.21-.24.46-.3.74s-.1.58-.1.89ZM82.72,82.27v-7.76h1.09v8.99h-.99l-.09-1.23Z"/>
                  <path class="gp" d="M88.46,74.52h1.09v7.76l-.09,1.23h-.99v-8.99ZM93.82,80.29v.12c0,.46-.05.89-.16,1.28-.11.39-.27.73-.48,1.02-.21.29-.47.51-.77.67-.3.16-.65.24-1.05.24s-.75-.07-1.06-.21c-.3-.14-.56-.34-.76-.6-.21-.26-.37-.58-.49-.95-.12-.37-.21-.79-.25-1.25v-.54c.05-.47.13-.89.25-1.26.12-.37.29-.69.49-.95.21-.26.46-.46.76-.6.3-.14.65-.21,1.05-.21s.75.08,1.06.23.57.37.78.66c.21.28.37.63.48,1.02.11.4.16.84.16,1.32ZM92.73,80.41v-.12c0-.32-.03-.61-.09-.89-.06-.28-.15-.52-.28-.74-.13-.21-.3-.38-.51-.5-.21-.12-.47-.18-.78-.18-.27,0-.51.05-.71.14-.2.09-.37.22-.51.38-.14.16-.25.34-.34.54-.09.2-.15.41-.2.62v1.41c.06.27.17.54.31.79.14.25.33.46.57.62s.54.24.89.24c.29,0,.54-.06.75-.18.21-.12.38-.28.51-.49s.23-.45.29-.73c.06-.28.09-.57.09-.89Z"/>
                  <path class="gp" d="M97.82,83.62c-.44,0-.84-.08-1.2-.23-.36-.15-.66-.36-.92-.63-.26-.27-.45-.6-.59-.97s-.2-.78-.2-1.23v-.25c0-.52.08-.97.23-1.38.15-.4.36-.75.62-1.03s.56-.49.89-.64.67-.22,1.03-.22c.45,0,.84.08,1.17.23s.6.37.81.65c.21.28.37.61.47.98.1.38.15.79.15,1.23v.49h-4.73v-.88h3.65v-.08c-.02-.28-.07-.55-.17-.82-.1-.27-.26-.48-.47-.66-.21-.17-.51-.26-.88-.26-.25,0-.47.05-.68.16-.21.1-.38.26-.53.46-.15.2-.26.45-.35.74-.08.29-.12.63-.12,1.01v.25c0,.3.04.58.13.85.08.26.21.49.37.69.16.2.36.35.59.47.23.11.5.17.79.17.38,0,.71-.08.97-.23.27-.16.5-.36.7-.63l.66.52c-.14.21-.31.4-.52.59-.21.19-.47.34-.78.46-.31.12-.67.18-1.09.18Z"/>
                  <path class="gp" d="M108.44,79.67v.76s-1.08,0-1.08,0c-.31,0-.58.02-.83.07-.24.05-.44.12-.61.22-.16.1-.29.22-.37.37-.09.15-.13.32-.13.51s.04.38.13.54c.09.16.23.29.41.39.18.1.4.14.67.14.33,0,.62-.07.88-.21.25-.14.46-.31.61-.52.15-.2.23-.4.24-.59l.46.52c-.03.16-.1.35-.22.54-.12.2-.28.39-.48.57-.2.18-.44.33-.71.45-.27.12-.58.18-.93.18-.43,0-.8-.08-1.13-.25-.32-.17-.57-.39-.75-.68-.18-.28-.27-.6-.27-.95s.07-.64.2-.9c.13-.26.32-.48.57-.65.25-.17.55-.31.9-.4s.74-.13,1.18-.13h1.26ZM108.25,82.42v-3.26c0-.25-.05-.47-.15-.65-.1-.19-.25-.33-.45-.43-.2-.1-.44-.15-.74-.15-.27,0-.51.05-.72.14-.2.09-.36.22-.48.37-.11.15-.17.32-.17.49h-1.08c0-.23.06-.45.18-.67.12-.22.29-.42.51-.61.22-.18.49-.33.8-.43s.66-.16,1.04-.16c.46,0,.87.08,1.22.23s.63.39.83.71c.2.31.3.71.3,1.18v2.95c0,.21.02.44.06.67.04.24.09.44.17.61v.09h-1.13c-.05-.12-.1-.29-.13-.5-.03-.21-.05-.4-.05-.58Z"/>
                  <path class="gp" d="M112.12,78.52v4.98h-1.08v-6.33h1.02l.06,1.35ZM111.86,80.1l-.45-.02c0-.43.07-.83.19-1.2s.3-.69.53-.96c.23-.27.5-.48.81-.63.31-.15.66-.23,1.04-.23.31,0,.59.04.84.13.25.08.46.22.64.4.18.18.31.42.41.71.09.29.14.64.14,1.06v4.15h-1.09v-4.16c0-.33-.05-.6-.15-.8-.1-.2-.24-.35-.43-.44-.19-.09-.42-.14-.69-.14s-.51.06-.73.17c-.22.11-.41.27-.57.47-.16.2-.28.43-.37.68-.09.26-.13.53-.13.81Z"/>
                  <path class="gp" d="M118.14,77.17l1.64,4.92.28,1.14-.78.4-2.33-6.45h1.18ZM119.44,82.85l1.76-5.68h1.16l-2.54,7.31c-.06.16-.14.32-.23.51-.1.18-.22.35-.37.52-.15.16-.33.3-.54.4-.21.1-.46.16-.75.16-.09,0-.2-.01-.33-.04-.13-.02-.23-.04-.28-.06v-.88s.07,0,.14.01.12,0,.14,0c.25,0,.45-.03.63-.1.17-.06.32-.17.44-.32.12-.15.22-.36.31-.62l.45-1.23Z"/>
                  <path class="gp" d="M128.83,82.73c.26,0,.5-.05.71-.16.22-.11.4-.25.54-.44.14-.19.22-.4.24-.64h1.03c-.02.37-.15.72-.38,1.04-.23.32-.54.58-.91.78-.37.2-.79.3-1.23.3-.48,0-.89-.08-1.24-.25-.35-.17-.65-.4-.88-.69-.23-.29-.41-.63-.52-1.01s-.17-.78-.17-1.21v-.25c0-.43.06-.83.17-1.21s.29-.72.52-1.01c.23-.29.52-.52.88-.69.35-.17.77-.25,1.24-.25s.93.1,1.3.3c.37.2.66.47.88.82.21.35.33.74.35,1.17h-1.03c-.02-.26-.09-.5-.22-.71-.13-.21-.3-.38-.51-.51-.22-.13-.47-.19-.76-.19-.33,0-.61.07-.83.2-.22.13-.4.31-.53.53-.13.22-.22.46-.28.73s-.08.54-.08.82v.25c0,.28.03.55.08.82s.15.51.28.73c.13.22.31.39.53.52.22.13.5.2.84.2Z"/>
                  <path class="gp" d="M132.58,75.49c0-.18.05-.32.16-.44s.27-.18.48-.18.37.06.48.18c.11.12.17.27.17.44s-.06.31-.17.43c-.11.12-.27.18-.48.18s-.37-.06-.48-.18c-.11-.12-.16-.26-.16-.43ZM133.75,77.17v6.33h-1.09v-6.33h1.09Z"/>
                  <path class="gp" d="M138.14,77.17v.83h-3.42v-.83h3.42ZM135.87,75.63h1.08v6.3c0,.21.03.38.1.49.07.11.15.18.26.22s.22.05.34.05c.09,0,.18,0,.28-.03s.17-.03.23-.04v.88c-.08.03-.19.05-.33.08-.14.03-.31.04-.5.04-.27,0-.51-.05-.73-.16-.22-.11-.4-.28-.53-.53-.13-.25-.2-.58-.2-1v-6.3Z"/>
                  <path class="gp" d="M139.89,77.17l1.64,4.92.28,1.14-.78.4-2.33-6.45h1.18ZM141.19,82.85l1.76-5.68h1.16l-2.54,7.31c-.06.16-.14.32-.23.51-.1.18-.22.35-.37.52-.15.16-.33.3-.54.4-.21.1-.46.16-.75.16-.09,0-.2-.01-.33-.04-.13-.02-.23-.04-.28-.06v-.88s.07,0,.14.01.12,0,.14,0c.25,0,.45-.03.63-.1.17-.06.32-.17.44-.32.12-.15.22-.36.31-.62l.45-1.23Z"/>
                  <path class="gp" d="M148.06,75.49c0-.18.05-.32.16-.44s.27-.18.48-.18.37.06.48.18c.11.12.17.27.17.44s-.06.31-.17.43c-.11.12-.27.18-.48.18s-.37-.06-.48-.18c-.11-.12-.16-.26-.16-.43ZM149.23,77.17v6.33h-1.09v-6.33h1.09Z"/>
                  <path class="gp" d="M152.05,78.52v4.98h-1.08v-6.33h1.02l.06,1.35ZM151.79,80.1l-.45-.02c0-.43.07-.83.19-1.2s.3-.69.53-.96c.23-.27.5-.48.81-.63.31-.15.66-.23,1.04-.23.31,0,.59.04.84.13.25.08.46.22.64.4.18.18.31.42.41.71.09.29.14.64.14,1.06v4.15h-1.09v-4.16c0-.33-.05-.6-.15-.8-.1-.2-.24-.35-.43-.44-.19-.09-.42-.14-.69-.14s-.51.06-.73.17c-.22.11-.41.27-.57.47-.16.2-.28.43-.37.68-.09.26-.13.53-.13.81Z"/>
                  <path class="gp" d="M26.36,91.15v.83h-3.42v-.83h3.42ZM24.1,89.61h1.08v6.3c0,.21.03.38.1.49.07.11.15.18.26.22s.22.05.34.05c.09,0,.18,0,.28-.03s.17-.03.23-.04v.88c-.08.03-.19.05-.33.08-.14.03-.31.04-.5.04-.27,0-.51-.05-.73-.16-.22-.11-.4-.28-.53-.53-.13-.25-.2-.58-.2-1v-6.3Z"/>
                  <path class="gp" d="M28.71,88.5v8.99h-1.08v-8.99h1.08ZM28.45,94.08l-.45-.02c0-.43.07-.83.19-1.2s.3-.69.53-.96c.23-.27.5-.48.81-.63.31-.15.66-.23,1.04-.23.31,0,.59.04.84.13.25.08.46.22.64.4.18.18.31.42.41.71.09.29.14.64.14,1.06v4.15h-1.09v-4.16c0-.33-.05-.6-.15-.8-.1-.2-.24-.35-.43-.44-.19-.09-.42-.14-.69-.14s-.51.06-.73.17c-.22.11-.41.27-.57.47-.16.2-.28.43-.37.68-.09.26-.13.53-.13.81Z"/>
                  <path class="gp" d="M36.86,97.6c-.44,0-.84-.08-1.2-.23-.36-.15-.66-.36-.92-.63-.26-.27-.45-.6-.59-.97s-.2-.78-.2-1.23v-.25c0-.52.08-.97.23-1.38.15-.4.36-.75.62-1.03s.56-.49.89-.64.67-.22,1.03-.22c.45,0,.84.08,1.17.23s.6.37.81.65c.21.28.37.61.47.98.1.38.15.79.15,1.23v.49h-4.73v-.88h3.65v-.08c-.02-.28-.07-.55-.17-.82-.1-.27-.26-.48-.47-.66-.21-.17-.51-.26-.88-.26-.25,0-.47.05-.68.16-.21.1-.38.26-.53.46-.15.2-.26.45-.35.74-.08.29-.12.63-.12,1.01v.25c0,.3.04.58.13.85.08.26.21.49.37.69.16.2.36.35.59.47.23.11.5.17.79.17.38,0,.71-.08.97-.23.27-.16.5-.36.7-.63l.66.52c-.14.21-.31.4-.52.59-.21.19-.47.34-.78.46-.31.12-.67.18-1.09.18Z"/>
                  <path class="gp" d="M44.07,91.15l1.39,5.27.1,1.06h-.73l-1.84-6.33h1.08ZM45.16,96.36l1.63-5.21h.71l-.14,1.04-1.66,5.3h-.7l.15-1.12ZM47.66,91.15l1.59,5.12.18,1.21h-.69l-1.7-5.31-.14-1.02h.76ZM49.06,96.38l1.32-5.23h1.08l-1.84,6.33h-.73l.16-1.11Z"/>
                  <path class="gp" d="M52.28,94.39v-.13c0-.46.07-.88.2-1.27s.32-.73.57-1.02c.25-.29.55-.52.91-.68.35-.16.75-.24,1.19-.24s.85.08,1.2.24c.36.16.66.39.91.68s.44.63.58,1.02c.13.39.2.82.2,1.27v.13c0,.46-.07.88-.2,1.27-.13.39-.32.73-.58,1.02s-.55.52-.91.68c-.35.16-.75.24-1.2.24s-.84-.08-1.2-.24c-.35-.16-.66-.39-.91-.68-.25-.29-.44-.63-.58-1.02s-.2-.81-.2-1.27ZM53.36,94.26v.13c0,.32.04.61.11.89s.19.53.34.74c.15.21.34.38.56.51.23.12.49.18.79.18s.56-.06.78-.18c.22-.12.41-.29.56-.51s.26-.46.34-.74.11-.58.11-.89v-.13c0-.31-.04-.61-.11-.89s-.19-.53-.34-.74c-.15-.22-.34-.39-.56-.51-.22-.12-.49-.19-.79-.19s-.56.06-.78.19c-.22.12-.41.3-.56.51-.15.22-.26.46-.34.74s-.11.57-.11.89Z"/>
                  <path class="gp" d="M60.48,92.15v5.34h-1.08v-6.33h1.05l.03,1ZM62.46,91.12v1.01c-.1-.02-.18-.03-.26-.04s-.17,0-.27,0c-.25,0-.47.04-.66.12-.19.08-.35.19-.49.33-.13.14-.24.31-.31.5-.08.19-.13.4-.15.63l-.3.18c0-.38.04-.74.11-1.08s.19-.63.35-.89c.16-.26.36-.46.61-.61s.54-.22.89-.22c.08,0,.17,0,.27.03.1.02.17.04.21.06Z"/>
                  <path class="gp" d="M64.64,88.5v8.99h-1.09v-8.99h1.09Z"/>
                  <path class="gp" d="M66.1,94.39v-.12c0-.48.06-.92.18-1.32.12-.4.29-.74.51-1.02.22-.28.48-.5.79-.66.31-.15.65-.23,1.03-.23.4,0,.75.07,1.04.21s.55.34.76.6c.21.26.37.58.49.95.12.37.21.79.25,1.26v.54c-.04.46-.13.88-.25,1.25-.12.37-.29.69-.5.95-.21.26-.46.46-.76.6-.3.14-.65.21-1.05.21-.37,0-.71-.08-1.02-.24-.31-.16-.57-.38-.79-.67-.22-.29-.39-.63-.51-1.02s-.18-.82-.18-1.28ZM67.19,94.27v.12c0,.32.03.61.1.89s.17.52.3.73c.14.21.31.38.52.49.21.12.46.18.75.18.36,0,.65-.08.89-.23.23-.15.42-.35.56-.6.14-.25.25-.52.33-.81v-1.41c-.05-.21-.11-.42-.2-.62-.09-.2-.2-.38-.34-.54-.14-.16-.31-.28-.51-.38-.2-.09-.44-.14-.71-.14-.3,0-.55.06-.76.18-.21.12-.39.29-.52.5-.14.21-.24.46-.3.74s-.1.58-.1.89ZM70.36,96.26v-7.76h1.09v8.99h-.99l-.09-1.23Z"/>
                  <path class="gp" d="M74.12,96.2v.87c0,.35-.09.73-.27,1.13-.18.4-.43.73-.75.99l-.61-.43c.12-.17.23-.35.32-.52.09-.18.15-.36.2-.55.04-.19.07-.39.07-.6v-.89h1.06Z"/>
                  <path class="gp" d="M79.55,92.15v5.34h-1.08v-6.33h1.05l.03,1ZM81.52,91.12v1.01c-.1-.02-.18-.03-.26-.04s-.17,0-.27,0c-.25,0-.47.04-.66.12-.19.08-.35.19-.49.33-.13.14-.24.31-.31.5-.08.19-.13.4-.15.63l-.3.18c0-.38.04-.74.11-1.08s.19-.63.35-.89c.16-.26.36-.46.61-.61s.54-.22.89-.22c.08,0,.17,0,.27.03.1.02.17.04.21.06Z"/>
                  <path class="gp" d="M85.04,97.6c-.44,0-.84-.08-1.2-.23-.36-.15-.66-.36-.92-.63-.26-.27-.45-.6-.59-.97s-.2-.78-.2-1.23v-.25c0-.52.08-.97.23-1.38.15-.4.36-.75.62-1.03s.56-.49.89-.64.67-.22,1.03-.22c.45,0,.84.08,1.17.23s.6.37.81.65c.21.28.37.61.47.98.1.38.15.79.15,1.23v.49h-4.73v-.88h3.65v-.08c-.02-.28-.07-.55-.17-.82-.1-.27-.26-.48-.47-.66-.21-.17-.51-.26-.88-.26-.25,0-.47.05-.68.16-.21.1-.38.26-.53.46-.15.2-.26.45-.35.74-.08.29-.12.63-.12,1.01v.25c0,.3.04.58.13.85.08.26.21.49.37.69.16.2.36.35.59.47.23.11.5.17.79.17.38,0,.71-.08.97-.23.27-.16.5-.36.7-.63l.66.52c-.14.21-.31.4-.52.59-.21.19-.47.34-.78.46-.31.12-.67.18-1.09.18Z"/>
                  <path class="gp" d="M92.69,93.65v.76s-1.08,0-1.08,0c-.31,0-.58.02-.83.07-.24.05-.44.12-.61.22-.16.1-.29.22-.37.37-.09.15-.13.32-.13.51s.04.38.13.54c.09.16.23.29.41.39.18.1.4.14.67.14.33,0,.62-.07.88-.21.25-.14.46-.31.61-.52.15-.2.23-.4.24-.59l.46.52c-.03.16-.1.35-.22.54-.12.2-.28.39-.48.57-.2.18-.44.33-.71.45-.27.12-.58.18-.93.18-.43,0-.8-.08-1.13-.25-.32-.17-.57-.39-.75-.68-.18-.28-.27-.6-.27-.95s.07-.64.2-.9c.13-.26.32-.48.57-.65.25-.17.55-.31.9-.4s.74-.13,1.18-.13h1.26ZM92.5,96.4v-3.26c0-.25-.05-.47-.15-.65-.1-.19-.25-.33-.45-.43-.2-.1-.44-.15-.74-.15-.27,0-.51.05-.72.14-.2.09-.36.22-.48.37-.11.15-.17.32-.17.49h-1.08c0-.23.06-.45.18-.67.12-.22.29-.42.51-.61.22-.18.49-.33.8-.43s.66-.16,1.04-.16c.46,0,.87.08,1.22.23s.63.39.83.71c.2.31.3.71.3,1.18v2.95c0,.21.02.44.06.67.04.24.09.44.17.61v.09h-1.13c-.05-.12-.1-.29-.13-.5-.03-.21-.05-.4-.05-.58Z"/>
                  <path class="gp" d="M96.46,88.5v8.99h-1.09v-8.99h1.09Z"/>
                  <path class="gp" d="M100.89,94.39v-.13c0-.46.07-.88.2-1.27s.32-.73.57-1.02c.25-.29.55-.52.91-.68.35-.16.75-.24,1.19-.24s.85.08,1.2.24c.36.16.66.39.91.68s.44.63.58,1.02c.13.39.2.82.2,1.27v.13c0,.46-.07.88-.2,1.27-.13.39-.32.73-.58,1.02s-.55.52-.91.68c-.35.16-.75.24-1.2.24s-.84-.08-1.2-.24c-.35-.16-.66-.39-.91-.68-.25-.29-.44-.63-.58-1.02s-.2-.81-.2-1.27ZM101.97,94.26v.13c0,.32.04.61.11.89s.19.53.34.74c.15.21.34.38.56.51.23.12.49.18.79.18s.56-.06.78-.18c.22-.12.41-.29.56-.51s.26-.46.34-.74.11-.58.11-.89v-.13c0-.31-.04-.61-.11-.89s-.19-.53-.34-.74c-.15-.22-.34-.39-.56-.51-.22-.12-.49-.19-.79-.19s-.56.06-.78.19c-.22.12-.41.3-.56.51-.15.22-.26.46-.34.74s-.11.57-.11.89Z"/>
                  <path class="gp" d="M109.09,92.15v5.34h-1.08v-6.33h1.05l.03,1ZM111.07,91.12v1.01c-.1-.02-.18-.03-.26-.04s-.17,0-.27,0c-.25,0-.47.04-.66.12-.19.08-.35.19-.49.33-.13.14-.24.31-.31.5-.08.19-.13.4-.15.63l-.3.18c0-.38.04-.74.11-1.08s.19-.63.35-.89c.16-.26.36-.46.61-.61s.54-.22.89-.22c.08,0,.17,0,.27.03.1.02.17.04.21.06Z"/>
                  <path class="gp" d="M23.72,103.46c0-.18.05-.32.16-.44s.27-.18.48-.18.37.06.48.18c.11.12.17.27.17.44s-.06.31-.17.43c-.11.12-.27.18-.48.18s-.37-.06-.48-.18c-.11-.12-.16-.26-.16-.43ZM24.89,105.14v6.33h-1.09v-6.33h1.09Z"/>
                  <path class="gp" d="M27.7,106.39v5.07h-1.09v-6.33h1.03l.06,1.26ZM27.48,108.06l-.5-.02c0-.43.06-.83.17-1.2.11-.37.27-.69.49-.96.21-.27.48-.48.8-.63s.69-.23,1.11-.23c.3,0,.57.04.82.13.25.08.47.22.65.4.18.18.33.41.43.69.1.28.15.62.15,1.02v4.22h-1.08v-4.17c0-.33-.06-.6-.17-.8-.11-.2-.27-.34-.47-.44-.2-.09-.44-.14-.71-.14-.32,0-.59.06-.8.17-.21.11-.39.27-.52.47-.13.2-.22.43-.28.68-.06.26-.08.53-.08.81ZM31.58,107.46l-.73.22c0-.35.06-.68.17-1,.11-.32.27-.6.49-.85.21-.25.48-.45.79-.59s.67-.22,1.07-.22c.34,0,.64.04.9.13s.49.23.67.41c.18.19.32.42.41.71s.14.63.14,1.03v4.16h-1.09v-4.17c0-.35-.06-.63-.17-.83-.11-.2-.27-.34-.47-.42-.2-.08-.44-.12-.72-.12-.24,0-.45.04-.63.12-.18.08-.34.19-.46.34s-.22.31-.28.49c-.06.18-.1.38-.1.59Z"/>
                  <path class="gp" d="M41.05,107.63v.76s-1.08,0-1.08,0c-.31,0-.58.02-.83.07-.24.05-.44.12-.61.22-.16.1-.29.22-.37.37-.09.15-.13.32-.13.51s.04.38.13.54c.09.16.23.29.41.39.18.1.4.14.67.14.33,0,.62-.07.88-.21.25-.14.46-.31.61-.52.15-.2.23-.4.24-.59l.46.52c-.03.16-.1.35-.22.54-.12.2-.28.39-.48.57-.2.18-.44.33-.71.45-.27.12-.58.18-.93.18-.43,0-.8-.08-1.13-.25-.32-.17-.57-.39-.75-.68-.18-.28-.27-.6-.27-.95s.07-.64.2-.9c.13-.26.32-.48.57-.65.25-.17.55-.31.9-.4s.74-.13,1.18-.13h1.26ZM40.87,110.38v-3.26c0-.25-.05-.47-.15-.65-.1-.19-.25-.33-.45-.43-.2-.1-.44-.15-.74-.15-.27,0-.51.05-.72.14-.2.09-.36.22-.48.37-.11.15-.17.32-.17.49h-1.08c0-.23.06-.45.18-.67.12-.22.29-.42.51-.61.22-.18.49-.33.8-.43s.66-.16,1.04-.16c.46,0,.87.08,1.22.23s.63.39.83.71c.2.31.3.71.3,1.18v2.95c0,.21.02.44.06.67.04.24.09.44.17.61v.09h-1.13c-.05-.12-.1-.29-.13-.5-.03-.21-.05-.4-.05-.58Z"/>
                  <path class="gp" d="M43.39,108.37v-.12c0-.48.06-.92.17-1.32.12-.4.28-.74.5-1.02.22-.28.48-.5.79-.66.31-.15.66-.23,1.04-.23s.75.07,1.04.21.55.34.76.6c.21.26.37.58.49.95.12.37.21.79.25,1.26v.54c-.04.46-.13.88-.25,1.25-.12.37-.29.69-.5.95-.21.26-.46.46-.76.6-.3.14-.65.21-1.05.21-.38,0-.72-.08-1.03-.24-.31-.16-.57-.38-.79-.67-.22-.29-.39-.63-.5-1.02s-.17-.82-.17-1.28ZM47.75,105.14h.98v6.2c0,.56-.11,1.03-.34,1.43-.23.39-.54.69-.95.9-.4.2-.87.31-1.4.31-.22,0-.48-.03-.77-.1-.29-.07-.58-.18-.87-.35-.28-.16-.52-.38-.71-.65l.57-.64c.27.32.54.54.83.67s.58.19.86.19c.34,0,.64-.06.89-.19.25-.13.44-.32.58-.57.14-.25.21-.56.21-.93v-4.86l.1-1.39ZM44.48,108.25v.12c0,.32.03.61.1.89s.16.52.3.73c.13.21.31.38.52.49.21.12.46.18.75.18.36,0,.66-.08.89-.23.23-.15.42-.35.56-.6.14-.25.25-.52.32-.81v-1.41c-.04-.21-.11-.42-.2-.62-.09-.2-.2-.38-.34-.54-.14-.16-.31-.28-.51-.38-.2-.09-.44-.14-.71-.14-.3,0-.55.06-.76.18-.21.12-.39.29-.52.5-.13.21-.23.46-.3.74s-.1.58-.1.89Z"/>
                  <path class="gp" d="M50.39,103.46c0-.18.05-.32.16-.44s.27-.18.48-.18.37.06.48.18c.11.12.17.27.17.44s-.06.31-.17.43c-.11.12-.27.18-.48.18s-.37-.06-.48-.18c-.11-.12-.16-.26-.16-.43ZM51.56,105.14v6.33h-1.09v-6.33h1.09Z"/>
                  <path class="gp" d="M54.38,106.49v4.98h-1.08v-6.33h1.02l.06,1.35ZM54.12,108.06l-.45-.02c0-.43.07-.83.19-1.2s.3-.69.53-.96c.23-.27.5-.48.81-.63.31-.15.66-.23,1.04-.23.31,0,.59.04.84.13.25.08.46.22.64.4.18.18.31.42.41.71.09.29.14.64.14,1.06v4.15h-1.09v-4.16c0-.33-.05-.6-.15-.8-.1-.2-.24-.35-.43-.44-.19-.09-.42-.14-.69-.14s-.51.06-.73.17c-.22.11-.41.27-.57.47-.16.2-.28.43-.37.68-.09.26-.13.53-.13.81Z"/>
                  <path class="gp" d="M63.83,107.63v.76s-1.08,0-1.08,0c-.31,0-.58.02-.83.07-.24.05-.44.12-.61.22-.16.1-.29.22-.37.37-.09.15-.13.32-.13.51s.04.38.13.54c.09.16.23.29.41.39.18.1.4.14.67.14.33,0,.62-.07.88-.21.25-.14.46-.31.61-.52.15-.2.23-.4.24-.59l.46.52c-.03.16-.1.35-.22.54-.12.2-.28.39-.48.57-.2.18-.44.33-.71.45-.27.12-.58.18-.93.18-.43,0-.8-.08-1.13-.25-.32-.17-.57-.39-.75-.68-.18-.28-.27-.6-.27-.95s.07-.64.2-.9c.13-.26.32-.48.57-.65.25-.17.55-.31.9-.4s.74-.13,1.18-.13h1.26ZM63.65,110.38v-3.26c0-.25-.05-.47-.15-.65-.1-.19-.25-.33-.45-.43-.2-.1-.44-.15-.74-.15-.27,0-.51.05-.72.14-.2.09-.36.22-.48.37-.11.15-.17.32-.17.49h-1.08c0-.23.06-.45.18-.67.12-.22.29-.42.51-.61.22-.18.49-.33.8-.43s.66-.16,1.04-.16c.46,0,.87.08,1.22.23s.63.39.83.71c.2.31.3.71.3,1.18v2.95c0,.21.02.44.06.67.04.24.09.44.17.61v.09h-1.13c-.05-.12-.1-.29-.13-.5-.03-.21-.05-.4-.05-.58Z"/>
                  <path class="gp" d="M67.51,106.13v5.34h-1.08v-6.33h1.05l.03,1ZM69.49,105.1v1.01c-.1-.02-.18-.03-.26-.04s-.17,0-.27,0c-.25,0-.47.04-.66.12-.19.08-.35.19-.49.33-.13.14-.24.31-.31.5-.08.19-.13.4-.15.63l-.3.18c0-.38.04-.74.11-1.08s.19-.63.35-.89c.16-.26.36-.46.61-.61s.54-.22.89-.22c.08,0,.17,0,.27.03.1.02.17.04.21.06Z"/>
                  <path class="gp" d="M71.08,105.14l1.64,4.92.28,1.14-.78.4-2.33-6.45h1.18ZM72.38,110.81l1.76-5.68h1.16l-2.54,7.31c-.06.16-.14.32-.23.51-.1.18-.22.35-.37.52-.15.16-.33.3-.54.4-.21.1-.46.16-.75.16-.09,0-.2-.01-.33-.04-.13-.02-.23-.04-.28-.06v-.88s.07,0,.14.01.12,0,.14,0c.25,0,.45-.03.63-.1.17-.06.32-.17.44-.32.12-.15.22-.36.31-.62l.45-1.23Z"/>
                  <path class="gp" d="M76.62,110.18v.87c0,.35-.09.73-.27,1.13-.18.4-.43.73-.75.99l-.61-.43c.12-.17.23-.35.32-.52.09-.18.15-.36.2-.55.04-.19.07-.39.07-.6v-.89h1.06Z"/>
                  <path class="gp" d="M81.48,105.14l1.39,5.27.1,1.06h-.73l-1.84-6.33h1.08ZM82.58,110.34l1.63-5.21h.71l-.14,1.04-1.66,5.3h-.7l.15-1.12ZM85.08,105.14l1.59,5.12.18,1.21h-.69l-1.7-5.31-.14-1.02h.76ZM86.47,110.36l1.32-5.23h1.08l-1.84,6.33h-.73l.16-1.11Z"/>
                  <path class="gp" d="M91.06,102.48v8.99h-1.08v-8.99h1.08ZM90.8,108.06l-.45-.02c0-.43.07-.83.19-1.2s.3-.69.53-.96c.23-.27.5-.48.81-.63.31-.15.66-.23,1.04-.23.31,0,.59.04.84.13.25.08.46.22.64.4.18.18.31.42.41.71.09.29.14.64.14,1.06v4.15h-1.09v-4.16c0-.33-.05-.6-.15-.8-.1-.2-.24-.35-.43-.44-.19-.09-.42-.14-.69-.14s-.51.06-.73.17c-.22.11-.41.27-.57.47-.16.2-.28.43-.37.68-.09.26-.13.53-.13.81Z"/>
                  <path class="gp" d="M96.59,103.46c0-.18.05-.32.16-.44s.27-.18.48-.18.37.06.48.18c.11.12.17.27.17.44s-.06.31-.17.43c-.11.12-.27.18-.48.18s-.37-.06-.48-.18c-.11-.12-.16-.26-.16-.43ZM97.76,105.14v6.33h-1.09v-6.33h1.09Z"/>
                  <path class="gp" d="M102.03,110.69c.26,0,.5-.05.71-.16.22-.11.4-.25.54-.44.14-.19.22-.4.24-.64h1.03c-.02.37-.15.72-.38,1.04-.23.32-.54.58-.91.78-.37.2-.79.3-1.23.3-.48,0-.89-.08-1.24-.25-.35-.17-.65-.4-.88-.69-.23-.29-.41-.63-.52-1.01s-.17-.78-.17-1.21v-.25c0-.43.06-.83.17-1.21s.29-.72.52-1.01c.23-.29.52-.52.88-.69.35-.17.77-.25,1.24-.25s.93.1,1.3.3c.37.2.66.47.88.82.21.35.33.74.35,1.17h-1.03c-.02-.26-.09-.5-.22-.71-.13-.21-.3-.38-.51-.51-.22-.13-.47-.19-.76-.19-.33,0-.61.07-.83.2-.22.13-.4.31-.53.53-.13.22-.22.46-.28.73s-.08.54-.08.82v.25c0,.28.03.55.08.82s.15.51.28.73c.13.22.31.39.53.52.22.13.5.2.84.2Z"/>
                  <path class="gp" d="M106.85,102.48v8.99h-1.08v-8.99h1.08ZM106.59,108.06l-.45-.02c0-.43.07-.83.19-1.2s.3-.69.53-.96c.23-.27.5-.48.81-.63.31-.15.66-.23,1.04-.23.31,0,.59.04.84.13.25.08.46.22.64.4.18.18.31.42.41.71.09.29.14.64.14,1.06v4.15h-1.09v-4.16c0-.33-.05-.6-.15-.8-.1-.2-.24-.35-.43-.44-.19-.09-.42-.14-.69-.14s-.51.06-.73.17c-.22.11-.41.27-.57.47-.16.2-.28.43-.37.68-.09.26-.13.53-.13.81Z"/>
                  <path class="gp" d="M115.05,108.37v-.13c0-.46.07-.88.2-1.27s.32-.73.57-1.02c.25-.29.55-.52.91-.68.35-.16.75-.24,1.19-.24s.85.08,1.2.24c.36.16.66.39.91.68s.44.63.58,1.02c.13.39.2.82.2,1.27v.13c0,.46-.07.88-.2,1.27-.13.39-.32.73-.58,1.02s-.55.52-.91.68c-.35.16-.75.24-1.2.24s-.84-.08-1.2-.24c-.35-.16-.66-.39-.91-.68-.25-.29-.44-.63-.58-1.02s-.2-.81-.2-1.27ZM116.14,108.24v.13c0,.32.04.61.11.89s.19.53.34.74c.15.21.34.38.56.51.23.12.49.18.79.18s.56-.06.78-.18c.22-.12.41-.29.56-.51s.26-.46.34-.74.11-.58.11-.89v-.13c0-.31-.04-.61-.11-.89s-.19-.53-.34-.74c-.15-.22-.34-.39-.56-.51-.22-.12-.49-.19-.79-.19s-.56.06-.78.19c-.22.12-.41.3-.56.51-.15.22-.26.46-.34.74s-.11.57-.11.89Z"/>
                  <path class="gp" d="M123.26,106.49v4.98h-1.08v-6.33h1.02l.06,1.35ZM123,108.06l-.45-.02c0-.43.07-.83.19-1.2s.3-.69.53-.96c.23-.27.5-.48.81-.63.31-.15.66-.23,1.04-.23.31,0,.59.04.84.13.25.08.46.22.64.4.18.18.31.42.41.71.09.29.14.64.14,1.06v4.15h-1.09v-4.16c0-.33-.05-.6-.15-.8-.1-.2-.24-.35-.43-.44-.19-.09-.42-.14-.69-.14s-.51.06-.73.17c-.22.11-.41.27-.57.47-.16.2-.28.43-.37.68-.09.26-.13.53-.13.81Z"/>
                  <path class="gp" d="M131.42,111.58c-.44,0-.84-.08-1.2-.23-.36-.15-.66-.36-.92-.63-.26-.27-.45-.6-.59-.97s-.2-.78-.2-1.23v-.25c0-.52.08-.97.23-1.38.15-.4.36-.75.62-1.03s.56-.49.89-.64.67-.22,1.03-.22c.45,0,.84.08,1.17.23s.6.37.81.65c.21.28.37.61.47.98.1.38.15.79.15,1.23v.49h-4.73v-.88h3.65v-.08c-.02-.28-.07-.55-.17-.82-.1-.27-.26-.48-.47-.66-.21-.17-.51-.26-.88-.26-.25,0-.47.05-.68.16-.21.1-.38.26-.53.46-.15.2-.26.45-.35.74-.08.29-.12.63-.12,1.01v.25c0,.3.04.58.13.85.08.26.21.49.37.69.16.2.36.35.59.47.23.11.5.17.79.17.38,0,.71-.08.97-.23.27-.16.5-.36.7-.63l.66.52c-.14.21-.31.4-.52.59-.21.19-.47.34-.78.46-.31.12-.67.18-1.09.18Z"/>
                  <path class="gp" d="M24.22,119.12l1.39,5.27.1,1.06h-.73l-1.84-6.33h1.08ZM25.31,124.32l1.63-5.21h.71l-.14,1.04-1.66,5.3h-.7l.15-1.12ZM27.81,119.12l1.59,5.12.18,1.21h-.69l-1.7-5.31-.14-1.02h.76ZM29.21,124.34l1.32-5.23h1.08l-1.84,6.33h-.73l.16-1.11Z"/>
                  <path class="gp" d="M32.43,122.35v-.13c0-.46.07-.88.2-1.27s.32-.73.57-1.02c.25-.29.55-.52.91-.68.35-.16.75-.24,1.19-.24s.85.08,1.2.24c.36.16.66.39.91.68s.44.63.58,1.02c.13.39.2.82.2,1.27v.13c0,.46-.07.88-.2,1.27-.13.39-.32.73-.58,1.02s-.55.52-.91.68c-.35.16-.75.24-1.2.24s-.84-.08-1.2-.24c-.35-.16-.66-.39-.91-.68-.25-.29-.44-.63-.58-1.02s-.2-.81-.2-1.27ZM33.51,122.22v.13c0,.32.04.61.11.89s.19.53.34.74c.15.21.34.38.56.51.23.12.49.18.79.18s.56-.06.78-.18c.22-.12.41-.29.56-.51s.26-.46.34-.74.11-.58.11-.89v-.13c0-.31-.04-.61-.11-.89s-.19-.53-.34-.74c-.15-.22-.34-.39-.56-.51-.22-.12-.49-.19-.79-.19s-.56.06-.78.19c-.22.12-.41.3-.56.51-.15.22-.26.46-.34.74s-.11.57-.11.89Z"/>
                  <path class="gp" d="M43.63,122.65h.45c0,.41-.04.8-.13,1.16s-.23.67-.42.93c-.2.26-.45.47-.77.61-.32.15-.7.22-1.15.22-.31,0-.59-.04-.85-.13-.26-.09-.47-.23-.66-.42-.18-.19-.32-.43-.42-.73-.1-.3-.15-.66-.15-1.08v-4.08h1.08v4.1c0,.28.03.52.1.71.06.19.15.33.26.44s.24.18.37.23c.14.04.28.06.43.06.46,0,.82-.09,1.09-.27.27-.18.46-.42.58-.72s.18-.64.18-1.01ZM43.42,123.99v-4.87h1.09v6.33h-1.04l-.05-1.46Z"/>
                  <path class="gp" d="M47.33,116.46v8.99h-1.09v-8.99h1.09Z"/>
                  <path class="gp" d="M48.8,122.35v-.12c0-.48.06-.92.18-1.32.12-.4.29-.74.51-1.02.22-.28.48-.5.79-.66.31-.15.65-.23,1.03-.23.4,0,.75.07,1.04.21s.55.34.76.6c.21.26.37.58.49.95.12.37.21.79.25,1.26v.54c-.04.46-.13.88-.25,1.25-.12.37-.29.69-.5.95-.21.26-.46.46-.76.6-.3.14-.65.21-1.05.21-.37,0-.71-.08-1.02-.24-.31-.16-.57-.38-.79-.67-.22-.29-.39-.63-.51-1.02s-.18-.82-.18-1.28ZM49.89,122.23v.12c0,.32.03.61.1.89s.17.52.3.73c.14.21.31.38.52.49.21.12.46.18.75.18.36,0,.65-.08.89-.23.23-.15.42-.35.56-.6.14-.25.25-.52.33-.81v-1.41c-.05-.21-.11-.42-.2-.62-.09-.2-.2-.38-.34-.54-.14-.16-.31-.28-.51-.38-.2-.09-.44-.14-.71-.14-.3,0-.55.06-.76.18-.21.12-.39.29-.52.5-.14.21-.24.46-.3.74s-.1.58-.1.89ZM53.06,124.22v-7.76h1.09v8.99h-.99l-.09-1.23Z"/>
                  <path class="gp" d="M59.29,119.12l1.64,4.92.28,1.14-.78.4-2.33-6.45h1.18ZM60.58,124.79l1.76-5.68h1.16l-2.54,7.31c-.06.16-.14.32-.23.51-.1.18-.22.35-.37.52-.15.16-.33.3-.54.4-.21.1-.46.16-.75.16-.09,0-.2-.01-.33-.04-.13-.02-.23-.04-.28-.06v-.88s.07,0,.14.01.12,0,.14,0c.25,0,.45-.03.63-.1.17-.06.32-.17.44-.32.12-.15.22-.36.31-.62l.45-1.23Z"/>
                  <path class="gp" d="M64.1,122.35v-.13c0-.46.07-.88.2-1.27s.32-.73.57-1.02c.25-.29.55-.52.91-.68.35-.16.75-.24,1.19-.24s.85.08,1.2.24c.36.16.66.39.91.68s.44.63.58,1.02c.13.39.2.82.2,1.27v.13c0,.46-.07.88-.2,1.27-.13.39-.32.73-.58,1.02s-.55.52-.91.68c-.35.16-.75.24-1.2.24s-.84-.08-1.2-.24c-.35-.16-.66-.39-.91-.68-.25-.29-.44-.63-.58-1.02s-.2-.81-.2-1.27ZM65.18,122.22v.13c0,.32.04.61.11.89s.19.53.34.74c.15.21.34.38.56.51.23.12.49.18.79.18s.56-.06.78-.18c.22-.12.41-.29.56-.51s.26-.46.34-.74.11-.58.11-.89v-.13c0-.31-.04-.61-.11-.89s-.19-.53-.34-.74c-.15-.22-.34-.39-.56-.51-.22-.12-.49-.19-.79-.19s-.56.06-.78.19c-.22.12-.41.3-.56.51-.15.22-.26.46-.34.74s-.11.57-.11.89Z"/>
                  <path class="gp" d="M75.3,122.65h.45c0,.41-.04.8-.13,1.16s-.23.67-.42.93c-.2.26-.45.47-.77.61-.32.15-.7.22-1.15.22-.31,0-.59-.04-.85-.13-.26-.09-.47-.23-.66-.42-.18-.19-.32-.43-.42-.73-.1-.3-.15-.66-.15-1.08v-4.08h1.08v4.1c0,.28.03.52.1.71.06.19.15.33.26.44s.24.18.37.23c.14.04.28.06.43.06.46,0,.82-.09,1.09-.27.27-.18.46-.42.58-.72s.18-.64.18-1.01ZM75.09,123.99v-4.87h1.09v6.33h-1.04l-.05-1.46Z"/>
                  <path class="gp" d="M80.79,116.46h1.09v7.76l-.09,1.23h-.99v-8.99ZM86.16,122.23v.12c0,.46-.05.89-.16,1.28-.11.39-.27.73-.48,1.02-.21.29-.47.51-.77.67-.3.16-.65.24-1.05.24s-.75-.07-1.06-.21c-.3-.14-.56-.34-.76-.6-.21-.26-.37-.58-.49-.95-.12-.37-.21-.79-.25-1.25v-.54c.05-.47.13-.89.25-1.26.12-.37.29-.69.49-.95.21-.26.46-.46.76-.6.3-.14.65-.21,1.05-.21s.75.08,1.06.23.57.37.78.66c.21.28.37.63.48,1.02.11.4.16.84.16,1.32ZM85.07,122.35v-.12c0-.32-.03-.61-.09-.89-.06-.28-.15-.52-.28-.74-.13-.21-.3-.38-.51-.5-.21-.12-.47-.18-.78-.18-.27,0-.51.05-.71.14-.2.09-.37.22-.51.38-.14.16-.25.34-.34.54-.09.2-.15.41-.2.62v1.41c.06.27.17.54.31.79.14.25.33.46.57.62s.54.24.89.24c.29,0,.54-.06.75-.18.21-.12.38-.28.51-.49s.23-.45.29-.73c.06-.28.09-.57.09-.89Z"/>
                  <path class="gp" d="M90.15,125.57c-.44,0-.84-.08-1.2-.23-.36-.15-.66-.36-.92-.63-.26-.27-.45-.6-.59-.97s-.2-.78-.2-1.23v-.25c0-.52.08-.97.23-1.38.15-.4.36-.75.62-1.03s.56-.49.89-.64.67-.22,1.03-.22c.45,0,.84.08,1.17.23s.6.37.81.65c.21.28.37.61.47.98.1.38.15.79.15,1.23v.49h-4.73v-.88h3.65v-.08c-.02-.28-.07-.55-.17-.82-.1-.27-.26-.48-.47-.66-.21-.17-.51-.26-.88-.26-.25,0-.47.05-.68.16-.21.1-.38.26-.53.46-.15.2-.26.45-.35.74-.08.29-.12.63-.12,1.01v.25c0,.3.04.58.13.85.08.26.21.49.37.69.16.2.36.35.59.47.23.11.5.17.79.17.38,0,.71-.08.97-.23.27-.16.5-.36.7-.63l.66.52c-.14.21-.31.4-.52.59-.21.19-.47.34-.78.46-.31.12-.67.18-1.09.18Z"/>
                  <path class="gp" d="M100.78,121.61v.76s-1.08,0-1.08,0c-.31,0-.58.02-.83.07-.24.05-.44.12-.61.22-.16.1-.29.22-.37.37-.09.15-.13.32-.13.51s.04.38.13.54c.09.16.23.29.41.39.18.1.4.14.67.14.33,0,.62-.07.88-.21.25-.14.46-.31.61-.52.15-.2.23-.4.24-.59l.46.52c-.03.16-.1.35-.22.54-.12.2-.28.39-.48.57-.2.18-.44.33-.71.45-.27.12-.58.18-.93.18-.43,0-.8-.08-1.13-.25-.32-.17-.57-.39-.75-.68-.18-.28-.27-.6-.27-.95s.07-.64.2-.9c.13-.26.32-.48.57-.65.25-.17.55-.31.9-.4s.74-.13,1.18-.13h1.26ZM100.59,124.37v-3.26c0-.25-.05-.47-.15-.65-.1-.19-.25-.33-.45-.43-.2-.1-.44-.15-.74-.15-.27,0-.51.05-.72.14-.2.09-.36.22-.48.37-.11.15-.17.32-.17.49h-1.08c0-.23.06-.45.18-.67.12-.22.29-.42.51-.61.22-.18.49-.33.8-.43s.66-.16,1.04-.16c.46,0,.87.08,1.22.23s.63.39.83.71c.2.31.3.71.3,1.18v2.95c0,.21.02.44.06.67.04.24.09.44.17.61v.09h-1.13c-.05-.12-.1-.29-.13-.5-.03-.21-.05-.4-.05-.58Z"/>
                  <path class="gp" d="M104.46,120.47v4.98h-1.08v-6.33h1.02l.06,1.35ZM104.2,122.04l-.45-.02c0-.43.07-.83.19-1.2s.3-.69.53-.96c.23-.27.5-.48.81-.63.31-.15.66-.23,1.04-.23.31,0,.59.04.84.13.25.08.46.22.64.4.18.18.31.42.41.71.09.29.14.64.14,1.06v4.15h-1.09v-4.16c0-.33-.05-.6-.15-.8-.1-.2-.24-.35-.43-.44-.19-.09-.42-.14-.69-.14s-.51.06-.73.17c-.22.11-.41.27-.57.47-.16.2-.28.43-.37.68-.09.26-.13.53-.13.81Z"/>
                  <path class="gp" d="M109.72,122.35v-.12c0-.48.06-.92.18-1.32.12-.4.29-.74.51-1.02.22-.28.48-.5.79-.66.31-.15.65-.23,1.03-.23.4,0,.75.07,1.04.21s.55.34.76.6c.21.26.37.58.49.95.12.37.21.79.25,1.26v.54c-.04.46-.13.88-.25,1.25-.12.37-.29.69-.5.95-.21.26-.46.46-.76.6-.3.14-.65.21-1.05.21-.37,0-.71-.08-1.02-.24-.31-.16-.57-.38-.79-.67-.22-.29-.39-.63-.51-1.02s-.18-.82-.18-1.28ZM110.81,122.23v.12c0,.32.03.61.1.89s.17.52.3.73c.14.21.31.38.52.49.21.12.46.18.75.18.36,0,.65-.08.89-.23.23-.15.42-.35.56-.6.14-.25.25-.52.33-.81v-1.41c-.05-.21-.11-.42-.2-.62-.09-.2-.2-.38-.34-.54-.14-.16-.31-.28-.51-.38-.2-.09-.44-.14-.71-.14-.3,0-.55.06-.76.18-.21.12-.39.29-.52.5-.14.21-.24.46-.3.74s-.1.58-.1.89ZM113.98,124.22v-7.76h1.09v8.99h-.99l-.09-1.23Z"/>
                  <path class="gp" d="M120.23,119.12l1.39,5.27.1,1.06h-.73l-1.84-6.33h1.08ZM121.33,124.32l1.63-5.21h.71l-.14,1.04-1.66,5.3h-.7l.15-1.12ZM123.83,119.12l1.59,5.12.18,1.21h-.69l-1.7-5.31-.14-1.02h.76ZM125.22,124.34l1.32-5.23h1.08l-1.84,6.33h-.73l.16-1.11Z"/>
                  <path class="gp" d="M129.81,116.46v8.99h-1.08v-8.99h1.08ZM129.55,122.04l-.45-.02c0-.43.07-.83.19-1.2s.3-.69.53-.96c.23-.27.5-.48.81-.63.31-.15.66-.23,1.04-.23.31,0,.59.04.84.13.25.08.46.22.64.4.18.18.31.42.41.71.09.29.14.64.14,1.06v4.15h-1.09v-4.16c0-.33-.05-.6-.15-.8-.1-.2-.24-.35-.43-.44-.19-.09-.42-.14-.69-.14s-.51.06-.73.17c-.22.11-.41.27-.57.47-.16.2-.28.43-.37.68-.09.26-.13.53-.13.81Z"/>
                  <path class="gp" d="M135.81,119.12l1.64,4.92.28,1.14-.78.4-2.33-6.45h1.18ZM137.11,124.79l1.76-5.68h1.16l-2.54,7.31c-.06.16-.14.32-.23.51-.1.18-.22.35-.37.52-.15.16-.33.3-.54.4-.21.1-.46.16-.75.16-.09,0-.2-.01-.33-.04-.13-.02-.23-.04-.28-.06v-.88s.07,0,.14.01.12,0,.14,0c.25,0,.45-.03.63-.1.17-.06.32-.17.44-.32.12-.15.22-.36.31-.62l.45-1.23Z"/>
                  <path class="gp" d="M143.35,123.05h-1.09c0-.37.04-.68.1-.92s.17-.46.32-.66c.15-.2.35-.43.59-.68.18-.18.34-.36.49-.52.15-.16.27-.34.37-.53.09-.19.14-.42.14-.68s-.05-.5-.14-.7c-.1-.19-.24-.35-.42-.45-.19-.1-.41-.16-.69-.16-.23,0-.44.04-.64.12-.2.08-.37.21-.49.38-.12.17-.19.39-.19.66h-1.08c0-.44.12-.82.33-1.14.21-.32.5-.56.86-.73.36-.17.77-.25,1.22-.25.5,0,.92.09,1.27.27.35.18.62.44.8.77.18.33.27.73.27,1.18,0,.35-.07.67-.21.97-.14.29-.32.57-.55.83-.22.26-.46.5-.71.74-.21.2-.36.42-.43.67s-.11.52-.11.81ZM142.22,124.9c0-.18.05-.32.16-.44.11-.12.27-.18.47-.18s.37.06.48.18c.11.12.16.27.16.44s-.05.31-.16.43c-.11.12-.27.18-.48.18s-.36-.06-.47-.18c-.11-.12-.16-.27-.16-.43Z"/>
                </g>
                <g>
                  <rect class="ef" x="22.88" y="42.59" width="141.54" height="26.89"/>
                  <path class="gp" d="M55.03,52.34h2.4v6.49c0,.77-.16,1.43-.48,1.96s-.78.94-1.36,1.21c-.58.27-1.27.41-2.06.41s-1.46-.14-2.05-.41c-.59-.27-1.05-.68-1.38-1.21-.33-.53-.5-1.19-.5-1.96v-6.49h2.4v6.49c0,.41.06.74.18,1,.12.26.29.44.52.56.23.12.5.18.83.18s.6-.06.83-.18c.22-.12.39-.31.51-.56.11-.26.17-.59.17-1v-6.49Z"/>
                  <path class="gp" d="M61.14,56.72v5.56h-2.3v-7.39h2.15l.15,1.83ZM63.32,54.84l-.04,2.14c-.09,0-.21-.02-.37-.03-.15-.01-.28-.02-.39-.02-.27,0-.5.03-.69.09s-.35.15-.48.27c-.12.12-.22.27-.27.45-.06.18-.08.39-.08.64l-.42-.27c0-.5.05-.95.15-1.35.1-.41.24-.76.42-1.06.18-.3.4-.53.66-.69s.55-.24.87-.24c.11,0,.23,0,.34.02.11.01.21.03.3.06Z"/>
                  <path class="gp" d="M64.13,51.79h2.3v8.67l-.24,1.82h-2.06v-10.49ZM70.97,58.5v.14c0,.56-.06,1.07-.17,1.53-.11.46-.29.86-.53,1.19-.24.33-.54.59-.89.77-.36.18-.79.27-1.28.27-.45,0-.83-.1-1.15-.29-.32-.19-.58-.46-.8-.81-.21-.34-.39-.74-.52-1.19-.13-.45-.24-.94-.31-1.46v-.17c.08-.51.18-1,.31-1.45.13-.45.3-.85.52-1.19.21-.34.48-.61.8-.81.32-.19.69-.29,1.14-.29.5,0,.93.09,1.29.28s.66.45.9.79c.24.34.41.73.53,1.19s.17.95.17,1.5ZM68.67,58.65v-.14c0-.27-.02-.52-.05-.76-.03-.24-.09-.45-.17-.63-.08-.18-.2-.33-.35-.43-.15-.1-.35-.16-.59-.16s-.45.04-.62.12c-.17.08-.3.2-.4.35-.1.15-.17.34-.21.56s-.06.47-.05.75v.54c0,.38.03.7.1.97.08.27.21.47.4.61.19.14.45.21.79.21.25,0,.44-.05.6-.14.15-.1.27-.23.34-.41.08-.18.13-.39.16-.63.03-.25.04-.52.04-.81Z"/>
                  <path class="gp" d="M76.1,57.77v1.23s-1,0-1,0c-.21,0-.4.03-.54.09s-.27.14-.35.24-.15.22-.19.34c-.04.13-.06.26-.06.4s.03.26.1.37c.07.11.16.19.27.25.11.06.24.09.38.09.25,0,.47-.05.65-.15.18-.1.32-.22.41-.36.1-.14.14-.27.14-.4l.5.94c-.09.18-.19.37-.31.55-.12.19-.26.36-.43.52-.17.16-.38.28-.62.38s-.54.15-.89.15c-.46,0-.87-.09-1.25-.28-.38-.19-.68-.45-.91-.78-.23-.33-.34-.72-.34-1.16,0-.38.07-.72.21-1.02.14-.3.35-.56.63-.76.28-.21.64-.37,1.08-.48s.95-.16,1.54-.16h.99ZM75.82,60.42v-3.04c0-.21-.03-.39-.09-.54-.06-.15-.15-.27-.28-.35-.13-.08-.3-.13-.51-.13-.17,0-.32.03-.44.09-.12.06-.22.15-.28.27-.06.12-.1.27-.1.45h-2.3c0-.34.08-.66.23-.95.15-.29.37-.55.66-.77.28-.22.63-.39,1.02-.51.4-.12.84-.18,1.33-.18.59,0,1.11.1,1.57.29.46.2.83.49,1.1.88.27.39.4.88.4,1.46v3.02c0,.48.03.85.08,1.1s.13.47.23.65v.12h-2.31c-.11-.23-.19-.51-.24-.84-.05-.33-.08-.67-.08-1.02Z"/>
                  <path class="gp" d="M81.67,56.47v5.81h-2.3v-7.39h2.16l.14,1.58ZM81.4,58.33h-.54c0-.55.07-1.05.21-1.5.14-.44.33-.82.58-1.13s.55-.54.9-.71.74-.24,1.16-.24c.34,0,.65.05.94.15.28.1.53.26.74.48s.37.52.48.88c.11.37.17.82.17,1.36v4.65h-2.31v-4.66c0-.3-.04-.52-.12-.68-.08-.16-.2-.26-.35-.32-.15-.06-.34-.09-.57-.09-.24,0-.44.05-.6.14-.16.09-.29.22-.39.38s-.17.35-.21.57c-.04.22-.06.46-.06.72Z"/>
                  <path class="gp" d="M93.44,52.34v9.94h-2.39v-9.94h2.39Z"/>
                  <path class="gp" d="M94.73,58.67v-.14c0-.56.06-1.07.18-1.53.12-.46.3-.86.55-1.19s.54-.59.9-.77c.36-.18.77-.27,1.24-.27.42,0,.79.1,1.1.29s.58.46.81.81c.22.35.41.75.55,1.21.14.46.25.96.32,1.49v.17c-.07.5-.18.97-.32,1.42-.14.44-.32.84-.55,1.18s-.49.61-.81.8-.69.29-1.11.29c-.47,0-.88-.09-1.24-.28-.36-.19-.66-.45-.89-.78-.24-.34-.42-.73-.54-1.19-.12-.46-.18-.95-.18-1.49ZM97.03,58.53v.14c0,.28.02.53.05.77.04.24.1.44.19.62s.21.32.35.42.33.15.55.15c.3,0,.54-.07.73-.21.19-.14.34-.34.43-.6.09-.26.13-.56.12-.92v-.54c0-.3-.01-.57-.06-.8-.05-.23-.13-.42-.24-.58-.11-.15-.24-.27-.4-.35s-.35-.12-.57-.12-.4.05-.54.15-.27.24-.36.42c-.09.18-.16.39-.2.63-.04.24-.06.51-.06.8ZM99.26,60.59v-8.79h2.31v10.49h-2.08l-.24-1.69Z"/>
                  <path class="gp" d="M106.45,62.41c-.6,0-1.14-.09-1.61-.28-.47-.19-.87-.45-1.2-.78-.33-.33-.57-.71-.74-1.15-.17-.43-.26-.89-.26-1.37v-.26c0-.54.08-1.04.23-1.51.15-.46.37-.87.67-1.21.3-.35.67-.62,1.11-.81.45-.19.96-.29,1.56-.29.52,0,.99.08,1.41.25s.77.41,1.05.72.51.69.66,1.14c.15.45.23.95.23,1.5v.94h-6.04v-1.44h3.79v-.18c0-.25-.04-.45-.13-.63-.09-.17-.22-.3-.39-.4-.17-.09-.37-.14-.61-.14s-.46.05-.62.16-.29.26-.38.45-.15.41-.19.65c-.04.25-.05.51-.05.78v.26c0,.27.04.52.11.74.08.22.18.41.33.57.14.16.32.28.52.37s.43.13.69.13c.31,0,.62-.06.93-.18.3-.12.57-.31.78-.59l1.04,1.24c-.15.21-.36.42-.64.62-.28.2-.6.36-.99.49s-.81.19-1.28.19Z"/>
                  <path class="gp" d="M112.76,56.47v5.81h-2.3v-7.39h2.16l.14,1.58ZM112.48,58.33h-.54c0-.55.07-1.05.21-1.5.14-.44.33-.82.58-1.13s.55-.54.9-.71.74-.24,1.16-.24c.34,0,.65.05.94.15.28.1.53.26.74.48s.37.52.48.88c.11.37.17.82.17,1.36v4.65h-2.31v-4.66c0-.3-.04-.52-.12-.68-.08-.16-.2-.26-.35-.32-.15-.06-.34-.09-.57-.09-.24,0-.44.05-.6.14-.16.09-.29.22-.39.38s-.17.35-.21.57c-.04.22-.06.46-.06.72Z"/>
                  <path class="gp" d="M122.28,54.89v1.6h-4.45v-1.6h4.45ZM118.76,53.05h2.3v6.81c0,.2.02.35.07.45.05.11.12.18.24.23.11.04.26.06.45.06.13,0,.24,0,.33-.01s.17-.02.25-.03v1.65c-.2.06-.4.11-.61.15s-.44.05-.68.05c-.49,0-.91-.08-1.26-.23s-.61-.4-.8-.73c-.18-.33-.27-.76-.27-1.3v-7.1Z"/>
                  <path class="gp" d="M123.18,52.99c0-.33.12-.6.35-.81.24-.21.54-.31.92-.31s.69.1.92.31c.24.21.35.48.35.81s-.12.6-.35.81c-.24.21-.54.31-.92.31s-.69-.1-.92-.31c-.24-.21-.35-.48-.35-.81ZM125.62,54.89v7.39h-2.31v-7.39h2.31Z"/>
                  <path class="gp" d="M130.93,54.89v1.6h-4.45v-1.6h4.45ZM127.41,53.05h2.3v6.81c0,.2.02.35.07.45.05.11.12.18.24.23.11.04.26.06.45.06.13,0,.24,0,.33-.01s.17-.02.25-.03v1.65c-.2.06-.4.11-.61.15s-.44.05-.68.05c-.49,0-.91-.08-1.26-.23s-.61-.4-.8-.73c-.18-.33-.27-.76-.27-1.3v-7.1Z"/>
                  <path class="gp" d="M133.63,54.89l1.45,5.17.25,2.44h-1.54l-2.63-7.6h2.46ZM134.11,61.41l1.91-6.52h2.47l-2.97,8.49c-.06.19-.15.39-.25.6-.1.22-.25.42-.43.62-.18.2-.42.35-.7.48-.28.12-.64.18-1.05.18-.22,0-.39-.01-.49-.03s-.26-.06-.47-.11v-1.65h.3c.25,0,.44-.03.59-.08.15-.05.26-.12.34-.22.08-.1.14-.21.19-.35l.56-1.43Z"/>
                </g>
              </g>
            </g>
            <rect class="ep" x="4.52" y="17.75" width="178.35" height="249.12" rx="14.15" ry="14.15"/>
          </g>
        </g>
      </g>
    </g>
  </g>
</svg>