<svg width="30" height="31" viewBox="0 0 30 31" fill="none" xmlns="http://www.w3.org/2000/svg">
<path d="M6.54201 13.3937L5.06544 13.7833C4.62013 13.9005 4.1631 13.6398 4.04591 13.2032C3.92579 12.7667 4.18947 12.3156 4.63478 12.1984L8.05079 11.299C8.27345 11.2404 8.49904 11.2755 8.68361 11.381C8.86818 11.4864 9.01173 11.6593 9.07326 11.879L9.98732 15.2394C10.1074 15.6759 9.84376 16.1271 9.39845 16.2443C8.95314 16.3614 8.49611 16.1007 8.37892 15.6642L7.98634 14.2198L5.35548 18.7872C4.28615 20.6447 4.28615 20.6447 4.01661 21.1105C2.96486 22.9357 3.70021 24.172 5.83009 24.172H9.99025C10.4502 24.172 10.8252 24.5382 10.8252 24.9923C10.8252 25.4464 10.4531 25.8126 9.99025 25.8126H5.82716C2.41993 25.8126 0.881848 23.2228 2.56349 20.3019C2.83009 19.8361 2.83009 19.8361 3.90236 17.9786L6.54201 13.3937ZM22.251 11.3312L22.6611 9.83118C22.7813 9.39465 23.2383 9.13391 23.6807 9.2511C24.126 9.36829 24.3897 9.81653 24.2695 10.256L23.3555 13.6163C23.2969 13.8361 23.1504 14.0089 22.9658 14.1144C22.7813 14.2198 22.5557 14.255 22.333 14.1964L18.917 13.297C18.4717 13.1798 18.208 12.7316 18.3281 12.2921C18.4483 11.8556 18.9053 11.5948 19.3477 11.712L20.7656 12.087C19.4678 9.83411 19.1924 9.35657 17.4287 6.29504C17.0801 5.6886 17.0801 5.6886 16.7315 5.08508C15.6856 3.26868 14.291 3.26868 13.2451 5.08508L12.0557 7.15344C11.6104 7.92395 11.6104 7.92395 11.2383 8.56848C11.0127 8.96106 10.5029 9.10168 10.1016 8.87903C9.70021 8.65637 9.55958 8.1554 9.7881 7.75989C10.1602 7.11243 10.1602 7.11243 10.6055 6.33899C11.499 4.78918 11.499 4.78918 11.7949 4.27063C13.4795 1.3468 16.4971 1.34387 18.1817 4.27063C18.5303 4.87708 18.5303 4.87708 18.8789 5.48059L22.251 11.3312ZM16.7959 25.8126L17.874 26.8732C18.1992 27.1925 18.1992 27.714 17.874 28.0333C17.5488 28.3527 17.0215 28.3527 16.6963 28.0333L14.1943 25.5724C14.0303 25.4113 13.9512 25.2032 13.9512 24.9923C13.9512 24.7814 14.0332 24.5734 14.1943 24.4122L16.6963 21.9513C17.0215 21.632 17.5488 21.632 17.874 21.9513C18.1992 22.2706 18.1992 22.7921 17.874 23.1115L16.7959 24.172H24.1699C26.2881 24.172 27.0176 22.9327 25.9688 21.1105C25.6611 20.5743 25.6611 20.5743 24.7324 18.9659C24.3106 18.2365 24.3106 18.2365 23.9473 17.6036C23.7217 17.2111 23.8623 16.7101 24.2608 16.4845C24.6621 16.2618 25.169 16.3995 25.3975 16.795C25.7608 17.4249 25.7608 17.4249 26.1826 18.1573C27.1084 19.7657 27.1084 19.7657 27.419 20.3019C29.0977 23.214 27.5684 25.8126 24.1699 25.8126H16.7959Z" fill="#458CA8"/>
</svg>
