<svg width="30" height="31" viewBox="0 0 30 31" fill="none" xmlns="http://www.w3.org/2000/svg">
<path fill-rule="evenodd" clip-rule="evenodd" d="M15 12.3477C13.4467 12.3477 12.1875 13.6069 12.1875 15.1602C12.1875 16.7134 13.4467 17.9727 15 17.9727C16.5532 17.9727 17.8125 16.7134 17.8125 15.1602C17.8125 13.6069 16.5532 12.3477 15 12.3477ZM10.3125 15.1602C10.3125 12.5713 12.4112 10.4727 15 10.4727C17.5889 10.4727 19.6875 12.5713 19.6875 15.1602C19.6875 17.749 17.5889 19.8477 15 19.8477C12.4112 19.8477 10.3125 17.749 10.3125 15.1602Z" fill="#D64F7F"/>
<path fill-rule="evenodd" clip-rule="evenodd" d="M12.0043 4.87279C11.6698 4.31535 10.9651 4.14195 10.4418 4.45328L10.4282 4.46138L8.26564 5.69877C7.58143 6.08975 7.34538 6.97618 7.73675 7.65357L6.925 8.12258L7.7361 7.65245C8.40494 8.80637 8.58474 10.0711 7.98728 11.1079C7.3899 12.1445 6.20599 12.6226 4.875 12.6226C4.08348 12.6226 3.4375 13.2747 3.4375 14.0601V16.2601C3.4375 17.0456 4.08348 17.6976 4.875 17.6976C6.20599 17.6976 7.3899 18.1757 7.98728 19.2123C8.58466 20.2489 8.40497 21.5134 7.73636 22.6673C7.34552 23.3446 7.58114 24.2302 8.26513 24.6211L10.4419 25.8668C10.9652 26.1781 11.6697 26.0048 12.0043 25.4474L12.1387 25.2153C12.8073 24.0618 13.815 23.2757 15.0109 23.2757C16.2078 23.2757 17.2125 24.0624 17.875 25.2173C17.8752 25.2178 17.8755 25.2183 17.8759 25.2188L18.0081 25.4473C18.3428 26.0048 19.0474 26.1782 19.5706 25.8669L19.5843 25.8588L21.7469 24.6214C22.4292 24.2314 22.6689 23.3573 22.2747 22.6648C21.6073 21.5117 21.4282 20.2482 22.0252 19.2123C22.6226 18.1757 23.8065 17.6976 25.1375 17.6976C25.929 17.6976 26.575 17.0456 26.575 16.2601V14.0601C26.575 13.2686 25.923 12.6226 25.1375 12.6226C23.8065 12.6226 22.6226 12.1445 22.0252 11.1079C21.4279 10.0713 21.6075 8.80687 22.276 7.65313C22.667 6.97579 22.4314 6.08995 21.7474 5.69905L19.5706 4.45339C19.0474 4.14207 18.3428 4.31535 18.0081 4.8728L17.8739 5.1048C17.2052 6.25832 16.1975 7.04445 15.0015 7.04445C13.8049 7.04445 12.8003 6.25788 12.1378 5.10325C12.1374 5.1026 12.137 5.10197 12.1367 5.10133L12.0043 4.87279ZM9.4906 2.83748C10.9399 1.98077 12.7782 2.50637 13.6182 3.91824L13.6239 3.92783L13.7614 4.16535L13.7634 4.16883C14.2259 4.97565 14.7083 5.16945 15.0015 5.16945C15.2962 5.16945 15.7824 4.974 16.2511 4.16535C16.2511 4.16549 16.2513 4.16522 16.2511 4.16535L16.3943 3.9182C17.2343 2.50632 19.0726 1.98077 20.5219 2.83748L22.6776 4.0711C24.2684 4.98012 24.8079 7.01898 23.8993 8.59159L23.8986 8.5927C23.4299 9.40129 23.5035 9.91782 23.6497 10.1717C23.7961 10.4257 24.206 10.7476 25.1375 10.7476C26.952 10.7476 28.45 12.2266 28.45 14.0601V16.2601C28.45 18.0747 26.971 19.5726 25.1375 19.5726C24.206 19.5726 23.7961 19.8944 23.6497 20.1484C23.5035 20.4023 23.4299 20.9188 23.8986 21.7274L23.9015 21.7324C24.8055 23.3144 24.2696 25.3389 22.6781 26.2488C22.678 26.2488 22.6782 26.2487 22.6781 26.2488L20.5218 27.4827C19.0725 28.3393 17.2343 27.8138 16.3943 26.4019L16.3886 26.3923L16.2511 26.1548L16.2491 26.1513C15.7866 25.3446 15.3043 25.1507 15.0109 25.1507C14.7163 25.1507 14.2301 25.3462 13.7614 26.1548C13.7612 26.1549 13.7614 26.1547 13.7614 26.1548L13.6182 26.4019C12.7782 27.8138 10.94 28.3393 9.49071 27.4827L7.33488 26.2491C7.3347 26.2489 7.33504 26.2492 7.33488 26.2491C5.74447 25.3399 5.20473 23.3011 6.11325 21.7286L6.1139 21.7274C6.58256 20.9188 6.50901 20.4023 6.36272 20.1484C6.21635 19.8944 5.80651 19.5726 4.875 19.5726C3.04153 19.5726 1.5625 18.0747 1.5625 16.2601V14.0601C1.5625 12.2455 3.04153 10.7476 4.875 10.7476C5.80651 10.7476 6.21635 10.4257 6.36272 10.1717C6.50901 9.91782 6.58256 9.40129 6.1139 8.5927L6.11325 8.59159C5.20473 7.01914 5.74397 4.98055 7.33436 4.07139L9.4906 2.83748Z" fill="#D64F7F"/>
</svg>
