<svg width="30" height="31" viewBox="0 0 30 31" fill="none" xmlns="http://www.w3.org/2000/svg">
<path d="M2.5 20.4727C1.98224 20.4727 1.5625 20.8924 1.5625 21.4102C1.5625 21.9279 1.98224 22.3477 2.5 22.3477V20.4727ZM27.5 8.91015L28.1629 9.57307C28.529 9.20695 28.529 8.61335 28.1629 8.24724L27.5 8.91015ZM24.3371 10.7472C23.971 11.1134 23.971 11.707 24.3371 12.0731C24.7032 12.4392 25.2968 12.4392 25.6629 12.0731L24.3371 10.7472ZM25.6629 5.74724C25.2968 5.38113 24.7032 5.38113 24.3371 5.74724C23.971 6.11335 23.971 6.70695 24.3371 7.07307L25.6629 5.74724ZM2.5 22.3477H7.00357V20.4727H2.5V22.3477ZM14.2386 18.2512L17.3691 13.0338L15.7614 12.0691L12.6309 17.2865L14.2386 18.2512ZM22.9964 9.84765H27.5V7.97265H22.9964V9.84765ZM26.8371 8.24724L24.3371 10.7472L25.6629 12.0731L28.1629 9.57307L26.8371 8.24724ZM28.1629 8.24724L25.6629 5.74724L24.3371 7.07307L26.8371 9.57307L28.1629 8.24724ZM17.3691 13.0338C17.9119 12.1291 18.2858 11.5081 18.6266 11.0476C18.9555 10.6035 19.2115 10.369 19.4875 10.2127L18.5637 8.58109C17.98 8.91157 17.5394 9.36512 17.1198 9.9319C16.7121 10.4824 16.2856 11.1952 15.7614 12.0691L17.3691 13.0338ZM22.9964 7.97265C21.9774 7.97265 21.1466 7.97163 20.4649 8.03789C19.763 8.10612 19.1474 8.25062 18.5637 8.58109L19.4875 10.2127C19.7635 10.0564 20.0963 9.95757 20.6462 9.9041C21.2166 9.84868 21.9414 9.84765 22.9964 9.84765V7.97265ZM7.00357 22.3477C8.02268 22.3477 8.85337 22.3487 9.53509 22.2824C10.237 22.2142 10.8526 22.0697 11.4363 21.7392L10.5125 20.1075C10.2365 20.2639 9.90374 20.3628 9.3537 20.4162C8.78344 20.4717 8.05856 20.4727 7.00357 20.4727V22.3477ZM12.6309 17.2865C12.0881 18.1912 11.7143 18.8123 11.3733 19.2727C11.0445 19.7169 10.7885 19.9513 10.5125 20.1075L11.4363 21.7392C12.02 21.4088 12.4606 20.9552 12.8802 20.3884C13.2879 19.8379 13.7144 19.125 14.2386 18.2512L12.6309 17.2865Z" fill="#458CA8"/>
<path d="M2.5 7.97268C1.98224 7.97268 1.5625 8.39242 1.5625 8.91018C1.5625 9.42795 1.98224 9.84768 2.5 9.84768V7.97268ZM27.5 21.4102L28.1629 22.0731C28.529 21.7069 28.529 21.1134 28.1629 20.7473L27.5 21.4102ZM25.6629 18.2473C25.2968 17.8812 24.7032 17.8812 24.3371 18.2473C23.971 18.6134 23.971 19.2069 24.3371 19.5731L25.6629 18.2473ZM24.3371 23.2473C23.971 23.6134 23.971 24.2069 24.3371 24.5731C24.7032 24.9392 25.2968 24.9392 25.6629 24.5731L24.3371 23.2473ZM18.0539 18.4278C17.7875 17.9838 17.2116 17.8399 16.7676 18.1063C16.3236 18.3727 16.1798 18.9486 16.4461 19.3926L18.0539 18.4278ZM11.9461 11.8925C12.2125 12.3365 12.7884 12.4805 13.2324 12.2141C13.6764 11.9477 13.8202 11.3718 13.5539 10.9278L11.9461 11.8925ZM2.5 9.84768H8.33453V7.97268H2.5V9.84768ZM21.6655 22.3477H27.5V20.4727H21.6655V22.3477ZM28.1629 20.7473L25.6629 18.2473L24.3371 19.5731L26.8371 22.0731L28.1629 20.7473ZM26.8371 20.7473L24.3371 23.2473L25.6629 24.5731L28.1629 22.0731L26.8371 20.7473ZM21.6655 20.4727C20.8584 20.4727 20.581 20.4686 20.3359 20.4209L19.9776 22.2613C20.4422 22.3518 20.9341 22.3477 21.6655 22.3477V20.4727ZM16.4461 19.3926C16.8224 20.0196 17.0719 20.4436 17.3885 20.7954L18.7824 19.5413C18.6154 19.3557 18.4691 19.1199 18.0539 18.4278L16.4461 19.3926ZM20.3359 20.4209C19.7362 20.3042 19.191 19.9954 18.7824 19.5413L17.3885 20.7954C18.0695 21.5523 18.9782 22.0668 19.9776 22.2613L20.3359 20.4209ZM8.33453 9.84768C9.14165 9.84768 9.41899 9.85178 9.66414 9.8995L10.0224 8.05903C9.5577 7.96858 9.06584 7.97268 8.33453 7.97268V9.84768ZM13.5539 10.9278C13.1776 10.3007 12.9281 9.87687 12.6115 9.52496L11.2176 10.779C11.3846 10.9647 11.5308 11.2004 11.9461 11.8925L13.5539 10.9278ZM9.66414 9.8995C10.2637 10.0162 10.809 10.3249 11.2176 10.779L12.6115 9.52496C11.9305 8.76812 11.0217 8.25355 10.0224 8.05903L9.66414 9.8995Z" fill="#458CA8"/>
</svg>
