<svg width="51" height="51" viewBox="0 0 51 51" fill="none" xmlns="http://www.w3.org/2000/svg">
<path fill-rule="evenodd" clip-rule="evenodd" d="M15.7827 7.20741C17.0236 4.06107 21.4765 4.06107 22.7173 7.20741L24.9506 12.8702C25.0119 13.0254 25.1348 13.1483 25.29 13.2095L30.9527 15.4428C34.0992 16.6837 34.0992 21.1366 30.9527 22.3774L25.29 24.6108C25.1348 24.672 25.0119 24.7949 24.9506 24.9502L22.7173 30.6129C21.4765 33.7593 17.0236 33.7593 15.7827 30.6129L13.5493 24.9502C13.4881 24.7949 13.3652 24.672 13.21 24.6108L7.54725 22.3774C4.40092 21.1366 4.40092 16.6837 7.54725 15.4428L13.21 13.2095C13.3652 13.1483 13.4881 13.0254 13.5493 12.8702L15.7827 7.20741ZM19.8102 8.35393C19.6097 7.84555 18.8903 7.84557 18.6898 8.35393L16.4564 14.0167C16.0775 14.9773 15.3172 15.7377 14.3566 16.1166L8.69377 18.3499C8.1854 18.5504 8.18542 19.2699 8.69377 19.4704L14.3566 21.7037C15.3172 22.0827 16.0775 22.8431 16.4564 23.8035L18.6898 29.4664C18.8903 29.9747 19.6097 29.9747 19.8102 29.4664L22.0435 23.8035C22.4225 22.8431 23.1829 22.0827 24.1433 21.7037L29.8062 19.4704C30.3146 19.2699 30.3146 18.5504 29.8062 18.3499L24.1433 16.1166C23.1829 15.7377 22.4225 14.9773 22.0435 14.0167L19.8102 8.35393ZM33.3975 27.3956C34.299 25.1095 37.5344 25.1095 38.4358 27.3956L40.0373 31.4562L44.0979 33.0577C46.384 33.9591 46.384 37.1945 44.0979 38.096L40.0373 39.6974L38.4358 43.7581C37.5344 46.0441 34.299 46.0441 33.3975 43.7581L31.796 39.6974L27.7354 38.096C25.4494 37.1945 25.4494 33.9591 27.7354 33.0577L31.796 31.4562L33.3975 27.3956ZM35.9167 29.5254L34.6367 32.7712C34.3612 33.4691 33.809 34.0214 33.111 34.2968L29.8652 35.5768L33.111 36.8568C33.809 37.1322 34.3612 37.6845 34.6367 38.3824L35.9167 41.6283L37.1967 38.3824C37.4721 37.6845 38.0244 37.1322 38.7223 36.8568L41.9681 35.5768L38.7223 34.2968C38.0244 34.0214 37.4721 33.4691 37.1967 32.7712L35.9167 29.5254Z" fill="#D64F7F"/>
</svg>
