<?xml version="1.0" encoding="UTF-8"?>
<svg id="f" data-name="Bleed" xmlns="http://www.w3.org/2000/svg" viewBox="0 0 332.16 165.6">
  <defs>
    <style>
      .g {
        stroke-width: .6px;
      }

      .g, .h, .i {
        fill: #fff;
      }

      .g, .i {
        stroke: #fff;
        stroke-miterlimit: 10;
      }

      .j {
        fill: #00609c;
      }

      .k {
        fill: #00823d;
      }

      .l {
        fill: #d20a11;
      }

      .m {
        fill: #9b4738;
      }

      .n {
        fill: #ffa300;
      }

      .o {
        fill: #7a868e;
      }

      .i {
        stroke-width: 1.2px;
      }

      .p {
        fill: #0b1205;
      }

      .q {
        fill: #7049bc;
      }
    </style>
  </defs>
  <g>
    <rect class="q" x="172.46" y="88.99" width="70.87" height="70.87" rx="35.43" ry="35.43"/>
    <path class="g" d="M194.66,141.44c-1.04,0-1.93-.37-2.67-1.11-.74-.74-1.11-1.63-1.11-2.67v-26.46c0-1.04.37-1.93,1.11-2.67.74-.74,1.63-1.11,2.67-1.11h26.46c1.04,0,1.93.37,2.67,1.11.74.74,1.11,1.63,1.11,2.67v26.46c0,1.04-.37,1.93-1.11,2.67-.74.74-1.63,1.11-2.67,1.11h-26.46ZM194.66,137.66h26.46v-26.46h-26.46v26.46ZM194.66,137.66v-26.46,26.46Z"/>
  </g>
  <g>
    <rect class="o" x="172.46" y="5.74" width="70.87" height="70.87" rx="35.43" ry="35.43"/>
    <path class="h" d="M198.68,54.57c-2.54,0-4.71-.88-6.51-2.64-1.8-1.76-2.7-3.91-2.7-6.45,0-2.18.66-4.12,1.97-5.82,1.31-1.7,3.03-2.79,5.15-3.27.7-2.57,2.09-4.65,4.19-6.24,2.09-1.59,4.47-2.39,7.12-2.39,3.27,0,6.04,1.14,8.31,3.41s3.41,5.05,3.41,8.31c1.93.22,3.52,1.05,4.79,2.49,1.27,1.44,1.91,3.12,1.91,5.05,0,2.09-.73,3.87-2.2,5.34s-3.25,2.2-5.34,2.2h-20.1ZM198.68,51.22h20.1c1.17,0,2.16-.4,2.97-1.21.81-.81,1.21-1.8,1.21-2.97s-.4-2.16-1.21-2.97c-.81-.81-1.8-1.21-2.97-1.21h-2.51v-3.35c0-2.32-.82-4.29-2.45-5.93s-3.61-2.45-5.93-2.45-4.29.82-5.93,2.45c-1.63,1.63-2.45,3.61-2.45,5.93h-.84c-1.62,0-3,.57-4.15,1.72-1.14,1.14-1.72,2.53-1.72,4.15s.57,3,1.72,4.15c1.14,1.14,2.53,1.72,4.15,1.72Z"/>
  </g>
  <g>
    <rect class="p" x="256.08" y="88.99" width="70.87" height="70.87" rx="35.43" ry="35.43"/>
    <path class="h" d="M295.77,141.44c-2.32,0-4.52-.45-6.59-1.34-2.07-.89-3.88-2.11-5.42-3.66-1.54-1.54-2.76-3.35-3.66-5.42s-1.34-4.27-1.34-6.59.45-4.56,1.34-6.61,2.11-3.86,3.66-5.4c1.54-1.54,3.35-2.76,5.42-3.66,2.07-.89,4.27-1.34,6.59-1.34,1.53,0,3.02.2,4.46.6,1.45.4,2.79.96,4.04,1.7-2.58,1.5-4.64,3.54-6.19,6.1s-2.32,5.44-2.32,8.61.77,6.04,2.32,8.61c1.54,2.57,3.61,4.6,6.19,6.1-1.25.74-2.59,1.3-4.04,1.7s-2.93.6-4.46.6ZM295.77,138.03h.89c.28,0,.55-.03.81-.09-1.62-1.87-2.87-3.96-3.76-6.27-.89-2.31-1.34-4.73-1.34-7.25s.45-4.94,1.34-7.25,2.15-4.4,3.76-6.27c-.26-.06-.52-.09-.81-.09h-.89c-3.77,0-6.98,1.33-9.63,3.98s-3.98,5.86-3.98,9.63,1.33,6.98,3.98,9.63c2.65,2.65,5.86,3.98,9.63,3.98Z"/>
  </g>
  <g>
    <rect class="l" x="256.08" y="5.74" width="70.87" height="70.87" rx="35.43" ry="35.43"/>
    <path class="h" d="M289.97,30.35v-6.18h3.09v6.18h-3.09ZM300.25,34.6l-2.13-2.13,4.33-4.45,2.16,2.2-4.37,4.37ZM302.34,42.72v-3.09h6.18v3.09h-6.18ZM289.97,58.18v-6.18h3.09v6.18h-3.09ZM282.78,34.52l-4.41-4.29,2.2-2.16,4.37,4.37-2.16,2.09ZM302.42,54.31l-4.29-4.45,2.09-2.09,4.41,4.25-2.2,2.28ZM274.51,42.72v-3.09h6.18v3.09h-6.18ZM280.58,54.31l-2.16-2.2,4.33-4.33,1.12,1.04,1.12,1.08-4.41,4.41ZM291.52,50.45c-2.58,0-4.77-.9-6.57-2.71-1.8-1.8-2.71-3.99-2.71-6.57s.9-4.77,2.71-6.57c1.8-1.8,3.99-2.71,6.57-2.71s4.77.9,6.57,2.71c1.8,1.8,2.71,3.99,2.71,6.57s-.9,4.77-2.71,6.57c-1.8,1.8-3.99,2.71-6.57,2.71ZM291.52,47.35c1.7,0,3.16-.61,4.37-1.82s1.82-2.67,1.82-4.37-.61-3.16-1.82-4.37-2.67-1.82-4.37-1.82-3.16.61-4.37,1.82-1.82,2.67-1.82,4.37.61,3.16,1.82,4.37c1.21,1.21,2.67,1.82,4.37,1.82Z"/>
  </g>
  <g>
    <rect class="n" x="88.83" y="5.74" width="70.87" height="70.87" rx="35.43" ry="35.43"/>
    <path class="h" d="M116.81,32.51l4.76-6.16c.34-.45.74-.79,1.21-1s.96-.32,1.47-.32,1,.11,1.47.32.87.54,1.21,1l4.76,6.16,7.22,2.42c.74.23,1.32.64,1.74,1.25s.64,1.28.64,2.02c0,.34-.05.68-.15,1.02s-.26.67-.49.98l-4.67,6.62.17,6.96c.03.99-.3,1.83-.98,2.51s-1.47,1.02-2.38,1.02c-.06,0-.37-.04-.93-.13l-7.6-2.12-7.6,2.12c-.14.06-.3.09-.47.11s-.33.02-.47.02c-.91,0-1.7-.34-2.38-1.02-.68-.68-1.01-1.51-.98-2.51l.17-7.01-4.63-6.58c-.23-.31-.39-.64-.49-.98s-.15-.68-.15-1.02c0-.71.21-1.37.62-1.97s.98-1.04,1.72-1.3l7.22-2.42ZM118.9,35.44l-8.24,2.72,5.27,7.6-.17,8.11,8.49-2.34,8.49,2.38-.17-8.15,5.27-7.52-8.24-2.8-5.35-7.01-5.35,7.01Z"/>
  </g>
  <g>
    <rect class="k" x="5.21" y="5.74" width="70.87" height="70.87" rx="35.43" ry="35.43"/>
    <path class="i" d="M40.64,58.18c-2.35,0-4.56-.45-6.63-1.34s-3.87-2.1-5.4-3.64-2.74-3.33-3.64-5.4-1.34-4.28-1.34-6.63.45-4.56,1.34-6.63,2.1-3.87,3.64-5.4,3.33-2.74,5.4-3.64,4.28-1.34,6.63-1.34,4.56.45,6.63,1.34,3.87,2.1,5.4,3.64c1.53,1.53,2.74,3.33,3.64,5.4s1.34,4.28,1.34,6.63-.45,4.56-1.34,6.63-2.1,3.87-3.64,5.4-3.33,2.74-5.4,3.64-4.28,1.34-6.63,1.34ZM40.64,54.78c3.8,0,7.02-1.32,9.65-3.95s3.95-5.85,3.95-9.65-1.32-7.02-3.95-9.65-5.85-3.95-9.65-3.95-7.02,1.32-9.65,3.95-3.95,5.85-3.95,9.65,1.32,7.02,3.95,9.65,5.85,3.95,9.65,3.95Z"/>
  </g>
  <g>
    <rect class="j" x="88.83" y="88.99" width="70.87" height="70.87" rx="35.43" ry="35.43"/>
    <path class="h" d="M137.58,117.82c-.89.89-1.91,1.56-3.06,2.02-1.15.46-2.3.69-3.45.69s-2.28-.22-3.4-.67c-1.12-.44-2.12-1.13-3.01-2.05l-3.7-3.7c-.49-.49-1.05-.86-1.68-1.11s-1.27-.37-1.92-.37-1.3.12-1.92.37-1.18.62-1.68,1.11l-3.7,3.7-2.81-2.81,3.7-3.7c.89-.89,1.89-1.55,3.01-2,1.12-.44,2.25-.67,3.4-.67s2.28.22,3.38.67c1.1.44,2.1,1.11,2.98,2l3.7,3.7c.53.53,1.1.91,1.73,1.16.62.25,1.27.37,1.92.37s1.31-.12,1.95-.37c.64-.25,1.22-.63,1.75-1.16l3.7-3.7,2.81,2.81-3.7,3.7ZM137.58,127.68c-.89.89-1.9,1.55-3.03,2s-2.28.67-3.43.67-2.29-.22-3.43-.67-2.14-1.11-3.03-2l-3.7-3.7c-.49-.49-1.05-.86-1.68-1.11s-1.27-.37-1.92-.37-1.3.12-1.92.37-1.18.62-1.68,1.11l-3.7,3.7-2.81-2.76,3.7-3.75c.89-.89,1.89-1.55,3.01-2,1.12-.44,2.25-.67,3.4-.67s2.28.22,3.38.67c1.1.44,2.1,1.11,2.98,2l3.7,3.7c.53.53,1.1.91,1.73,1.16s1.27.37,1.92.37,1.31-.12,1.95-.37,1.22-.63,1.75-1.16l3.7-3.7,2.81,2.81-3.7,3.7ZM137.53,137.54c-.89.89-1.89,1.55-3.01,2s-2.25.67-3.4.67-2.29-.22-3.43-.67-2.14-1.11-3.03-2l-3.75-3.7c-.49-.49-1.05-.86-1.68-1.11-.62-.25-1.27-.37-1.92-.37s-1.3.12-1.92.37c-.62.25-1.18.62-1.68,1.11l-3.7,3.7-2.76-2.76,3.7-3.75c.89-.89,1.89-1.55,3.01-2,1.12-.44,2.25-.67,3.4-.67s2.28.22,3.38.67,2.1,1.11,2.98,2l3.7,3.7c.53.53,1.11.91,1.75,1.16s1.29.37,1.95.37,1.3-.12,1.92-.37,1.2-.63,1.73-1.16l3.7-3.7,2.76,2.81-3.7,3.7Z"/>
  </g>
  <g>
    <rect class="m" x="5.21" y="88.99" width="70.87" height="70.87" rx="35.43" ry="35.43"/>
    <path class="h" d="M40.64,141.44l-17.01-17.01,17.01-17.01,17.01,17.01-17.01,17.01ZM40.64,134.51l10.08-10.08-10.08-10.08-10.08,10.08,10.08,10.08Z"/>
  </g>
</svg>